<svg xmlns="http://www.w3.org/2000/svg" viewBox="0 0 580.18 92.82"><defs><style>.cls-1{fill:#231815;}</style></defs><title>title_dアセット 2</title><g id="レイヤー_2" data-name="レイヤー 2"><g id="top"><path d="M21,10.78a10.49,10.49,0,0,1-2.33,7.36,8.9,8.9,0,0,1-7.35,3.36C4.84,21.5.78,16.55.78,10.84A10.24,10.24,0,0,1,11.21.42a10.35,10.35,0,0,1,8.4,3.75L17,6.83a7.53,7.53,0,0,0-5.77-2.74,6.66,6.66,0,0,0-6.72,6.8,6.89,6.89,0,0,0,7,7,5.34,5.34,0,0,0,5.34-3.42H11.19V10.78Z"/><path d="M26.82,8a3.38,3.38,0,0,1,3-2.27,3.27,3.27,0,0,1,1.57.39L30.32,9.32A2.48,2.48,0,0,0,29.26,9c-1,0-1.84,1.23-1.92,3.41,0,.81,0,1.74,0,2.55v6h-3.6V6.13h3.11Z"/><path d="M43.87,19.43a5.88,5.88,0,0,1-4.45,2c-3.65,0-6.85-3.25-6.85-7.81s3-7.84,6.77-7.84a6.07,6.07,0,0,1,4.53,2V6.13h3.6V21h-3.6ZM36.2,13.55c0,2.55,1.63,4.43,3.87,4.43s4-1.74,4-4.46-1.68-4.36-4-4.36S36.2,11.12,36.2,13.55Z"/><path d="M61.75,19.43a5.86,5.86,0,0,1-4.44,2c-3.66,0-6.86-3.25-6.86-7.81s3-7.84,6.78-7.84a6.06,6.06,0,0,1,4.52,2V.39h3.61V21H61.75Zm-7.66-5.88C54.09,16.1,55.71,18,58,18s4-1.74,4-4.46-1.68-4.36-4-4.36S54.09,11.12,54.09,13.55Z"/><path d="M68.48,6.13h3.6v7.76c0,2.66.81,4.06,2.71,4.06s2.71-1.37,2.71-3.89V6.13h3.6V13c0,2.75-.16,4.76-1.68,6.5a5.66,5.66,0,0,1-4.63,1.87c-3.47,0-5.61-1.82-6.18-5.29a17.16,17.16,0,0,1-.13-3.13Z"/><path d="M94.82,19.43a5.9,5.9,0,0,1-4.45,2c-3.66,0-6.85-3.25-6.85-7.81s3-7.84,6.77-7.84a6.07,6.07,0,0,1,4.53,2V6.13h3.6V21h-3.6Zm-7.67-5.88C87.15,16.1,88.77,18,91,18s4-1.74,4-4.46S93.3,9.16,91,9.16,87.15,11.12,87.15,13.55Z"/><path d="M103,.64h3.6V6.13h2.14V9.32h-2.14V21H103V9.32h-1.84V6.13H103Z"/><path d="M116.63,2.46a2.34,2.34,0,0,1-2.3,2.38A2.44,2.44,0,0,1,112,2.27,2.27,2.27,0,0,1,114.33,0,2.38,2.38,0,0,1,116.63,2.46Zm-4.09,3.67h3.61V21h-3.61Z"/><path d="M133.27,13.55a7.55,7.55,0,1,1-15.09,0,7.55,7.55,0,1,1,15.09,0Zm-11.46,0c0,2.52,1.54,4.31,3.87,4.31a4,4,0,0,0,4-4.28c0-2.52-1.6-4.31-4-4.31A4,4,0,0,0,121.81,13.55Z"/><path d="M139.26,7.64a6.33,6.33,0,0,1,4.26-1.9,4.81,4.81,0,0,1,4.93,5.1V21h-3.61V14c0-2.94-.24-4.81-2.43-4.81A2.8,2.8,0,0,0,140,10.58a7.45,7.45,0,0,0-.71,4.09V21h-3.6V6.13h3.6Z"/><path d="M171.24,19.43a5.88,5.88,0,0,1-4.44,2c-3.66,0-6.86-3.25-6.86-7.81s3-7.84,6.78-7.84a6.06,6.06,0,0,1,4.52,2V6.13h3.61V21h-3.61Zm-7.67-5.88c0,2.55,1.63,4.43,3.88,4.43s4-1.74,4-4.46-1.68-4.36-4-4.36S163.57,11.12,163.57,13.55Z"/><path d="M182.08,7.64a6.33,6.33,0,0,1,4.26-1.9,4.81,4.81,0,0,1,4.93,5.1V21h-3.61V14c0-2.94-.24-4.81-2.44-4.81a2.79,2.79,0,0,0-2.43,1.42,7.45,7.45,0,0,0-.71,4.09V21h-3.6V6.13h3.6Z"/><path d="M205.39,19.43a5.9,5.9,0,0,1-4.45,2c-3.66,0-6.85-3.25-6.85-7.81s3-7.84,6.77-7.84a6.07,6.07,0,0,1,4.53,2V.39H209V21h-3.6Zm-7.67-5.88c0,2.55,1.62,4.43,3.87,4.43s4-1.74,4-4.46-1.68-4.36-4-4.36S197.72,11.12,197.72,13.55Z"/><path d="M221.68.9h4.52c2.52,0,4.28.39,5.5,1.62a6,6,0,0,1,1.57,4.2,5.29,5.29,0,0,1-2.46,4.76c-1.66,1-3.39,1-5.42,1V21h-3.71Zm3.71,7.86h1.73c1.68,0,2.52-.67,2.52-2s-.92-2.07-2.68-2.07h-1.57Z"/><path d="M238.75,8a3.37,3.37,0,0,1,3-2.27,3.27,3.27,0,0,1,1.57.39l-1.11,3.19a2.44,2.44,0,0,0-1.05-.3c-1,0-1.85,1.23-1.93,3.41,0,.81,0,1.74,0,2.55v6h-3.61V6.13h3.12Z"/><path d="M259,13.55a7.55,7.55,0,1,1-15.1,0,7.55,7.55,0,1,1,15.1,0Zm-11.46,0c0,2.52,1.54,4.31,3.87,4.31a4,4,0,0,0,4-4.28c0-2.52-1.6-4.31-4-4.31A4,4,0,0,0,247.56,13.55Z"/><path d="M262.41,6.13H266V21.9c0,3.27-1.27,4.92-3.79,4.92a8.66,8.66,0,0,1-2.71-.56V23.32a3.3,3.3,0,0,0,1.49.42c1.06,0,1.41-.67,1.41-2Zm4.09-3.67a2.34,2.34,0,0,1-2.3,2.38,2.45,2.45,0,0,1-2.31-2.57A2.26,2.26,0,0,1,264.17,0,2.4,2.4,0,0,1,266.5,2.46Z"/><path d="M283.57,18.12A7.25,7.25,0,0,1,277,21.39c-4.58,0-7.53-3.47-7.53-7.84,0-4.06,2.84-7.81,7.48-7.81s7.64,3.36,7.64,8.06c0,.34,0,.51,0,.84h-11.6a3.89,3.89,0,0,0,4,3.45,4.6,4.6,0,0,0,3.58-1.46Zm-2.65-6.42a4.14,4.14,0,0,0-7.84,0Z"/><path d="M301.35,18.28a7.63,7.63,0,0,1-6.53,3.11c-4.91,0-8.08-3.44-8.08-7.78a7.77,7.77,0,0,1,8.13-7.87,7.65,7.65,0,0,1,6.64,3.39l-3,1.71a4.45,4.45,0,0,0-3.6-1.68,4.31,4.31,0,0,0-4.53,4.5A4.12,4.12,0,0,0,294.74,18a4.49,4.49,0,0,0,3.76-1.71Z"/><path d="M305.74.64h3.61V6.13h2.14V9.32h-2.14V21h-3.61V9.32H303.9V6.13h1.84Z"/><path d="M323.3.9h4.53c2.46,0,4.2.3,5.5,1.62a6,6,0,0,1,1.57,4.2,5.3,5.3,0,0,1-3.74,5.35L335.77,21h-4l-4.36-8.51H327V21H323.3ZM327,8.76h1.71c1.68,0,2.55-.7,2.55-2.07s-.9-2-2.66-2H327Z"/><path d="M350.78,18.12a7.25,7.25,0,0,1-6.61,3.27c-4.58,0-7.54-3.47-7.54-7.84,0-4.06,2.85-7.81,7.48-7.81s7.65,3.36,7.65,8.06c0,.34,0,.51,0,.84h-11.6a3.89,3.89,0,0,0,4,3.45,4.6,4.6,0,0,0,3.58-1.46Zm-2.66-6.42a3.9,3.9,0,0,0-3.95-2.8,4,4,0,0,0-3.88,2.8Z"/><path d="M357.5,14.56C355.2,13.36,354,11.9,354,10a4.39,4.39,0,0,1,4.66-4.28,5.83,5.83,0,0,1,4.75,2.46l-2.22,2.33a3.67,3.67,0,0,0-2.5-1.37c-.73,0-1.3.3-1.3.89s.52.81,1.3,1.23l1.33.7c2.38,1.26,3.66,2.55,3.66,4.76,0,2.66-2,4.65-5.18,4.65a6,6,0,0,1-5-2.55l2.22-2.52a4.48,4.48,0,0,0,3,1.74c.9,0,1.6-.53,1.6-1.2s-.6-1.12-1.6-1.66Z"/><path d="M380.05,18.12a7.26,7.26,0,0,1-6.61,3.27c-4.58,0-7.54-3.47-7.54-7.84,0-4.06,2.85-7.81,7.48-7.81S381,9.1,381,13.8c0,.34,0,.51,0,.84H369.4a3.89,3.89,0,0,0,4,3.45A4.56,4.56,0,0,0,377,16.63Zm-2.66-6.42a3.9,3.9,0,0,0-3.95-2.8,4,4,0,0,0-3.88,2.8Z"/><path d="M394.55,19.43a5.9,5.9,0,0,1-4.45,2c-3.65,0-6.85-3.25-6.85-7.81s3-7.84,6.77-7.84a6.07,6.07,0,0,1,4.53,2V6.13h3.6V21h-3.6Zm-7.67-5.88c0,2.55,1.63,4.43,3.87,4.43s4-1.74,4-4.46-1.68-4.36-4-4.36S386.88,11.12,386.88,13.55Z"/><path d="M405.15,8a3.36,3.36,0,0,1,3-2.27,3.27,3.27,0,0,1,1.57.39l-1.11,3.19a2.48,2.48,0,0,0-1.06-.3c-1,0-1.84,1.23-1.92,3.41,0,.81,0,1.74,0,2.55v6H402V6.13h3.12Z"/><path d="M425.47,18.28a7.63,7.63,0,0,1-6.53,3.11c-4.91,0-8.08-3.44-8.08-7.78A7.77,7.77,0,0,1,419,5.74a7.65,7.65,0,0,1,6.64,3.39l-3,1.71A4.46,4.46,0,0,0,419,9.16a4.31,4.31,0,0,0-4.53,4.5A4.12,4.12,0,0,0,418.86,18a4.49,4.49,0,0,0,3.76-1.71Z"/><path d="M428.37.39H432V7.64a6.28,6.28,0,0,1,4.25-1.9c2.71,0,4.93,1.82,4.93,5.43V21h-3.6V14c0-3-.35-4.81-2.47-4.81a2.85,2.85,0,0,0-2.44,1.45c-.73,1.18-.67,2.52-.67,4.06V21h-3.61Z"/><path d="M453.71.9h10.62V4.65h-6.91V8.23h6.91V12h-6.91v5.27h6.91V21H453.71Z"/><path d="M466.64,6.13h4.2l2.81,4.06,2.85-4.06h4.17l-4.93,7L481.27,21H477.1l-3.45-4.87L470.27,21h-4.15l5.45-7.84Z"/><path d="M482.57.39h3.61V7.64a6.28,6.28,0,0,1,4.25-1.9c2.71,0,4.93,1.82,4.93,5.43V21h-3.6V14c0-3-.35-4.81-2.47-4.81a2.85,2.85,0,0,0-2.44,1.45c-.73,1.18-.67,2.52-.67,4.06V21h-3.61Z"/><path d="M503.09,2.46a2.34,2.34,0,0,1-2.31,2.38,2.44,2.44,0,0,1-2.3-2.57A2.28,2.28,0,0,1,500.78,0,2.38,2.38,0,0,1,503.09,2.46ZM499,6.13h3.61V21H499Z"/><path d="M510.54,21h-3.6V.39h3.6V7.76a6.06,6.06,0,0,1,4.52-2c3.72,0,6.81,3.19,6.81,7.84s-3.23,7.81-6.89,7.81a5.92,5.92,0,0,1-4.44-2Zm-.16-7.48c0,2.69,1.73,4.46,4,4.46s3.91-1.88,3.91-4.43-1.52-4.39-3.91-4.39S510.38,10.92,510.38,13.52Z"/><path d="M528.56,2.46a2.34,2.34,0,0,1-2.3,2.38A2.45,2.45,0,0,1,524,2.27,2.28,2.28,0,0,1,526.26,0,2.38,2.38,0,0,1,528.56,2.46Zm-4.09,3.67h3.6V21h-3.6Z"/><path d="M533.39.64H537V6.13h2.14V9.32H537V21h-3.6V9.32h-1.85V6.13h1.85Z"/><path d="M546.45,2.46a2.34,2.34,0,0,1-2.3,2.38,2.45,2.45,0,0,1-2.31-2.57A2.28,2.28,0,0,1,544.15,0,2.38,2.38,0,0,1,546.45,2.46Zm-4.09,3.67H546V21h-3.6Z"/><path d="M563.63,13.55a7.55,7.55,0,1,1-15.09,0,7.55,7.55,0,1,1,15.09,0Zm-11.46,0c0,2.52,1.54,4.31,3.87,4.31a4,4,0,0,0,4-4.28c0-2.52-1.6-4.31-4-4.31A4,4,0,0,0,552.17,13.55Z"/><path d="M570.7,7.64A6.35,6.35,0,0,1,575,5.74a4.81,4.81,0,0,1,4.93,5.1V21h-3.6V14c0-2.94-.25-4.81-2.44-4.81a2.8,2.8,0,0,0-2.44,1.42,7.54,7.54,0,0,0-.71,4.09V21h-3.6V6.13h3.6Z"/><path class="cls-1" d="M0,42.79a14,14,0,0,0,.69-4.51l.91.26a17.64,17.64,0,0,1-.71,4.67Zm2.14,7.68a14.52,14.52,0,0,0,.11-2V36.73A11.61,11.61,0,0,0,2.14,35H3.4a11.17,11.17,0,0,0-.11,1.71v11.8a14.22,14.22,0,0,0,.11,1.94ZM4.28,40.3A10.27,10.27,0,0,0,3.52,38l.74-.32a18,18,0,0,1,.82,2.24Zm2.28-3.09A10.13,10.13,0,0,0,5,37.29v-1a7.08,7.08,0,0,0,1.56.1H9A6,6,0,0,0,8.93,35H10.1a5.88,5.88,0,0,0-.1,1.32h3a7.55,7.55,0,0,0,1.62-.1v1a11.3,11.3,0,0,0-1.6-.08H10v1.16h2.57a8.74,8.74,0,0,0,1.51-.09v1a10.67,10.67,0,0,0-1.53-.08H10v1.26h3.32A9.47,9.47,0,0,0,15,40.35v1.09a11.89,11.89,0,0,0-1.63-.1h-7a10,10,0,0,0-1.67.1V40.35a9.51,9.51,0,0,0,1.67.11H9V39.2h-2a10.75,10.75,0,0,0-1.5.08v-1a8.81,8.81,0,0,0,1.51.09H9V37.21ZM6.68,48.6a11.4,11.4,0,0,0,.1,1.83H5.59a11.85,11.85,0,0,0,.08-1.83V43.8a14.42,14.42,0,0,0,0-1.47,13.2,13.2,0,0,0,1.53.06h5.05a7.82,7.82,0,0,0,1.51-.08,15.55,15.55,0,0,0-.07,1.82V49c0,1-.31,1.32-1.54,1.32-.45,0-1,0-1.68-.08a4,4,0,0,0-.26-1.08,10.62,10.62,0,0,0,1.84.21c.54,0,.64-.07.64-.46V47.54h-6Zm6-4.05V43.26h-6v1.29Zm0,2.13V45.4h-6v1.28Z"/><path class="cls-1" d="M23.43,39.67a6.46,6.46,0,0,0,1.3-.08v1.1a9.26,9.26,0,0,0-1.3-.06H18.79a9.83,9.83,0,0,0-1.32.06v-1.1a6.92,6.92,0,0,0,1.32.08h2V37.94H19.2A8.51,8.51,0,0,0,18,38V36.94A7.56,7.56,0,0,0,19.2,37h1.55V36.5a10.62,10.62,0,0,0-.1-1.47h1.17a10,10,0,0,0-.1,1.47V37H23a7.5,7.5,0,0,0,1.22-.07V38A8.36,8.36,0,0,0,23,37.94H21.72v1.73Zm0,3.81a6.89,6.89,0,0,0,1.3-.08v1.1a9.11,9.11,0,0,0-1.3-.07H21.72v1.72h1.51a7.83,7.83,0,0,0,1.22-.07v1.09a8.64,8.64,0,0,0-1.22-.07H21.72v1.74a12.32,12.32,0,0,0,.1,1.61H20.63a10.91,10.91,0,0,0,.12-1.61V47.1H19.07a8.42,8.42,0,0,0-1.23.07V46.08a7.89,7.89,0,0,0,1.23.07h1.68V44.43h-2a9.9,9.9,0,0,0-1.32.07V43.4a7.56,7.56,0,0,0,1.32.08h3a10.59,10.59,0,0,0,.89-2.67l.9.27a14.79,14.79,0,0,1-.87,2.4Zm-4-.19a12.55,12.55,0,0,0-.62-2.22l.82-.27A14.24,14.24,0,0,1,20.29,43Zm6.71-1.24v6.7a11.73,11.73,0,0,0,.12,1.7h-1.2a11.66,11.66,0,0,0,.11-1.7V37.33a15.26,15.26,0,0,0-.08-1.6,9.71,9.71,0,0,0,1.55.09h3.8a8.74,8.74,0,0,0,1.38-.07c0,.29,0,.29-.12,1.2a7,7,0,0,1-.49,2.42c-.25.37-.59.49-1.43.49a11,11,0,0,1-1.61-.12,4.87,4.87,0,0,0-.22-1,9.51,9.51,0,0,0,1.89.24c.63,0,.71-.22.86-2.18H26.14v4.34h3.57A7.56,7.56,0,0,0,31,41.05l.59.63a5.16,5.16,0,0,0-.2.7,17.26,17.26,0,0,1-1.66,4.5,11,11,0,0,0,2.76,2.47,3.64,3.64,0,0,0-.67.95,14.23,14.23,0,0,1-2.63-2.52,12.18,12.18,0,0,1-2.17,2.5,4.47,4.47,0,0,0-.74-.85A10.55,10.55,0,0,0,28.59,47a13.78,13.78,0,0,1-1.94-4.9Zm1.43,0a10.82,10.82,0,0,0,1.57,4,14.93,14.93,0,0,0,1.33-4Z"/><path class="cls-1" d="M37.48,37.18c-.85.18-1.25.25-2.2.4a3.58,3.58,0,0,0-.48-.93,15.24,15.24,0,0,0,4.69-1.11,5.11,5.11,0,0,0,.76-.4l.64.9a13.93,13.93,0,0,1-2.41.9v2.58h1.16a6,6,0,0,0,1.15-.08v1.14a5.73,5.73,0,0,0-1.17-.09h-1.1a7.1,7.1,0,0,0,2.35,3,4.2,4.2,0,0,0-.61.92A7.83,7.83,0,0,1,38.4,41.7c0,.24,0,1.1.08,2.61v4.25a17.92,17.92,0,0,0,.1,2h-1.2a16.3,16.3,0,0,0,.1-2V44.64c0-.65,0-1.62.08-2.72a12.67,12.67,0,0,1-2.5,5,3.1,3.1,0,0,0-.64-1,14,14,0,0,0,2.91-5.47H36.26a8.88,8.88,0,0,0-1.46.1V39.42a8.73,8.73,0,0,0,1.48.1h1.2ZM42,47.1c-.61.16-1.15.33-1.55.46l-.15-1.21a7.54,7.54,0,0,0,1.57-.27L46.43,45v-8a10.74,10.74,0,0,0-.1-1.79h1.25a13.78,13.78,0,0,0-.1,1.77v7.79l.27-.07a9.28,9.28,0,0,0,1.54-.48l.13,1.19a10.67,10.67,0,0,0-1.56.31l-.38.1v2.89a14,14,0,0,0,.1,1.85H46.33a10.49,10.49,0,0,0,.1-1.87V46Zm-.12-6.49a15.91,15.91,0,0,1,3,2.63l-.66.87a13.15,13.15,0,0,0-3-2.72Zm.53-4.25a15.57,15.57,0,0,1,3.06,2.72l-.66.88a12.64,12.64,0,0,0-3.08-2.78Z"/><path class="cls-1" d="M59.56,49c0,1.05-.31,1.26-1.84,1.26-.46,0-1.32,0-1.89-.1a5,5,0,0,0-.35-1.09,16.24,16.24,0,0,0,2.16.18c.75,0,.87,0,.87-.4V45.47H53.57a11.79,11.79,0,0,0-1.72.1V44.4a11.55,11.55,0,0,0,1.71.1h4.95v-.29c0-.34,0-.64,0-1h.69a13.45,13.45,0,0,0,2.94-1.92h-6a14.75,14.75,0,0,0-1.56.08v-1.1a14.84,14.84,0,0,0,1.6.08h5.94a7.16,7.16,0,0,0,1.21-.06l.63.68c-.22.17-.22.17-.58.49A18.36,18.36,0,0,1,59.56,44v.53h4.89a11.34,11.34,0,0,0,1.72-.1v1.17a11.81,11.81,0,0,0-1.74-.1H59.56ZM55.12,37.8a11.5,11.5,0,0,0-1.55-2.21l1-.32a16.25,16.25,0,0,1,1.68,2.52h2.4a9.91,9.91,0,0,0-1.2-2.45l1-.29a14.88,14.88,0,0,1,1.25,2.74h1.81a10.09,10.09,0,0,0,1.69-2.74l1,.46a16.21,16.21,0,0,1-1.58,2.28H64a18.09,18.09,0,0,0,1.89-.07,13.69,13.69,0,0,0-.06,1.41v1.26a9.51,9.51,0,0,0,.08,1.19H64.78V38.72H53.16v2.86H52.08a9.14,9.14,0,0,0,.08-1.19V39.13a11.09,11.09,0,0,0-.07-1.41A14.09,14.09,0,0,0,54,37.8Z"/><path class="cls-1" d="M73.15,36.48a7.73,7.73,0,0,0-.09-1.21h1.21a7.8,7.8,0,0,0-.1,1.21v.58h3.77v-.58a6.89,6.89,0,0,0-.1-1.21h1.22a6.66,6.66,0,0,0-.1,1.21v.58h2.57A12.16,12.16,0,0,0,83.37,37v1.16A13.11,13.11,0,0,0,81.53,38H79v.56A7.55,7.55,0,0,0,79,39.71H77.87a7.92,7.92,0,0,0,.07-1.14V38H74.17v.54a7.47,7.47,0,0,0,.07,1.14H73.09a8.06,8.06,0,0,0,.06-1.12V38H70.69a13,13,0,0,0-1.83.08V37a12.19,12.19,0,0,0,1.83.11h2.46Zm-2.5,8.19a13.24,13.24,0,0,0-1.69.1V43.58a10.9,10.9,0,0,0,1.69.11H81.71a10.72,10.72,0,0,0,1.69-.11v1.19a12.66,12.66,0,0,0-1.69-.1H75.29a27.3,27.3,0,0,1-2.17,3.81c3.26-.17,4.77-.31,6.71-.58a23.51,23.51,0,0,0-2-2l.85-.56a33.41,33.41,0,0,1,4.06,4.37l-.95.7c-.56-.82-.71-1-1.23-1.67-2.36.36-5.6.68-8.89.87a19.84,19.84,0,0,0-2,.17l-.22-1.24c.35,0,.69.05,1,.05l1.41-.05A20.1,20.1,0,0,0,74,44.67Zm10.84-3a10.9,10.9,0,0,0-1.64-.1H72.36a10.71,10.71,0,0,0-1.67.1V40.47a10.35,10.35,0,0,0,1.67.11h7.49a9.6,9.6,0,0,0,1.64-.11Z"/><path class="cls-1" d="M87.45,44.45c0-.68,0-1.19,0-2A8.91,8.91,0,0,1,86.09,44a3.62,3.62,0,0,0-.58-.95,10.85,10.85,0,0,0,2.65-3,6.86,6.86,0,0,0,.72-1.51l1,.63c-.17.27-.36.57-.54.91s-.6.94-.84,1.28v7a11.39,11.39,0,0,0,.1,2H87.35a11.72,11.72,0,0,0,.1-2Zm2.22-8.86c-.21.26-.21.26-.7.94a15.51,15.51,0,0,1-2.65,2.74,2.47,2.47,0,0,0-.64-.84,9.4,9.4,0,0,0,3-3.4Zm1.75,5.49a22.55,22.55,0,0,1-1.35,7.31,4.9,4.9,0,0,0-.89-.54A17.61,17.61,0,0,0,90.46,41Zm3.09-2.51a7.58,7.58,0,0,0,1.41-.09v1.13a6.48,6.48,0,0,0-1.28-.09H93.57v8.87a14.89,14.89,0,0,0,.1,1.91H92.49a17.8,17.8,0,0,0,.1-1.91V39.52H91.38a6.54,6.54,0,0,0-1.28.09V38.48a7.61,7.61,0,0,0,1.43.09h1.06V36.82a12.69,12.69,0,0,0-.1-1.6h1.18a10.6,10.6,0,0,0-.1,1.6v1.75Zm.21-3.09a12.07,12.07,0,0,1,1.39,2.07l-.78.53A9.61,9.61,0,0,0,94,35.92Zm.55,5.44a39.84,39.84,0,0,1,1.33,6.25l-1,.36a30.06,30.06,0,0,0-1.24-6.34Zm1.92-.23a6.09,6.09,0,0,0-1.25.09V39.64a5.85,5.85,0,0,0,1.25.09h2.24a6.72,6.72,0,0,0,1.33-.09v1.14a6.84,6.84,0,0,0-1.33-.09h-.36v8.08c0,.63-.15,1-.46,1.15a3.89,3.89,0,0,1-1.39.19c-.41,0-1.11,0-1.49-.07a4.28,4.28,0,0,0-.22-1.1,10.27,10.27,0,0,0,2,.18c.42,0,.54-.06.54-.37V40.69Zm3.27-3.38a8.44,8.44,0,0,0-1.23-.08H97.59a8.7,8.7,0,0,0-1.22.08V36.17a8,8,0,0,0,1.23.09h1.63a8,8,0,0,0,1.23-.09Z"/><path class="cls-1" d="M111.46,40.3a13.79,13.79,0,0,0,2.68,5.48,11.65,11.65,0,0,0,4.46,3.31,5.08,5.08,0,0,0-.73,1.14,13.23,13.23,0,0,1-6.91-8.4,10.77,10.77,0,0,1-3.2,6.11,12.89,12.89,0,0,1-3.56,2.31,3.46,3.46,0,0,0-.7-1,10.45,10.45,0,0,0,4.32-3,10.58,10.58,0,0,0,2.29-5.94h-4.48a9.94,9.94,0,0,0-1.8.12V39.1a10.07,10.07,0,0,0,1.84.12h4.54c.05-.82.06-1.35.06-2a14.29,14.29,0,0,0-.11-1.85h1.35a9.49,9.49,0,0,0-.12,1.76c0,.87,0,1.36-.08,2.1h5a10.32,10.32,0,0,0,1.83-.12v1.32a10.94,10.94,0,0,0-1.81-.12Z"/><path class="cls-1" d="M128.34,49c0,1.05-.31,1.26-1.84,1.26-.46,0-1.32,0-1.89-.1a5.6,5.6,0,0,0-.35-1.09,16.24,16.24,0,0,0,2.15.18c.76,0,.88,0,.88-.4V45.47h-4.94a12,12,0,0,0-1.73.1V44.4a11.79,11.79,0,0,0,1.72.1h5v-.29c0-.34,0-.64-.05-1h.69a13.69,13.69,0,0,0,2.94-1.92h-6a14.47,14.47,0,0,0-1.56.08v-1.1a14.78,14.78,0,0,0,1.59.08h5.94a7.23,7.23,0,0,0,1.22-.06l.63.68c-.22.17-.22.17-.58.49A18.36,18.36,0,0,1,128.34,44v.53h4.88a11.48,11.48,0,0,0,1.73-.1v1.17a11.81,11.81,0,0,0-1.74-.1h-4.87ZM123.9,37.8a12,12,0,0,0-1.55-2.21l1-.32A16.25,16.25,0,0,1,125,37.79h2.4a10.28,10.28,0,0,0-1.2-2.45l1-.29a14.88,14.88,0,0,1,1.25,2.74h1.81A10.34,10.34,0,0,0,132,35.05l1,.46a16.21,16.21,0,0,1-1.58,2.28h1.28a18.09,18.09,0,0,0,1.89-.07,11.34,11.34,0,0,0-.06,1.41v1.26a9.51,9.51,0,0,0,.08,1.19h-1.09V38.72H121.94v2.86h-1.09a9.12,9.12,0,0,0,.09-1.19V39.13a11.09,11.09,0,0,0-.07-1.41,14.09,14.09,0,0,0,1.88.08Z"/><path class="cls-1" d="M137.75,36.89c0-.46,0-.87-.05-1.3a7.5,7.5,0,0,0,1.11.06h2.25a4.57,4.57,0,0,0,1-.07l.51.61c0,.1-.15.31-.24.54a37.94,37.94,0,0,1-1.71,3.91,7.33,7.33,0,0,1,1.36,2.2,6,6,0,0,1,.36,2c0,1-.28,1.47-.87,1.64a4.93,4.93,0,0,1-1.28.14l-.58,0a3.92,3.92,0,0,0-.24-1.08,5.23,5.23,0,0,0,1.06.11c.76,0,.91-.15.91-.9a4.93,4.93,0,0,0-.59-2.31,9.27,9.27,0,0,0-1.25-1.68,27.51,27.51,0,0,0,1.81-4.18h-2.55V48.85a10.42,10.42,0,0,0,.08,1.58h-1.19a10.23,10.23,0,0,0,.1-1.58Zm6.37,6.51a7.37,7.37,0,0,0-1.5.1V42.38a9.42,9.42,0,0,0,1.52.1h6.18a9.37,9.37,0,0,0,1.56-.1V43.5a10,10,0,0,0-1.56-.1h-1.64v5.33c0,.36.19.43,1.2.43s1.15,0,1.3-2.67a2.52,2.52,0,0,0,1,.43c-.24,3-.43,3.24-2.3,3.24a6,6,0,0,1-1.53-.12c-.51-.13-.67-.35-.67-.93V43.4h-1.73c-.13,2.39-.43,3.48-1.2,4.6a7.28,7.28,0,0,1-3.51,2.43,4.29,4.29,0,0,0-.74-.9c2.09-.73,3-1.32,3.64-2.48a6.94,6.94,0,0,0,.79-3.65Zm2.24-7.09a7.83,7.83,0,0,0-.1-1.28h1.25a5.89,5.89,0,0,0-.1,1.3V37h2.78a14.37,14.37,0,0,0,1.58-.09,7.94,7.94,0,0,0-.05,1.09v1.12a8.06,8.06,0,0,0,.06,1.16h-1.06V37.94h-7.26v2.3h-1a8.33,8.33,0,0,0,.05-1.16V38a7.32,7.32,0,0,0-.05-1.07,13.63,13.63,0,0,0,1.75.09h2.17ZM144,39.67a7.33,7.33,0,0,0,1.25.07H149a7,7,0,0,0,1.22-.07v1.06a9.65,9.65,0,0,0-1.22-.07H145.2a9.28,9.28,0,0,0-1.23.07Z"/><path class="cls-1" d="M163.12,40.3a13.79,13.79,0,0,0,2.68,5.48,11.8,11.8,0,0,0,4.46,3.31,4.73,4.73,0,0,0-.72,1.14,13.17,13.17,0,0,1-6.91-8.4,10.72,10.72,0,0,1-3.21,6.11,12.83,12.83,0,0,1-3.55,2.31,3.31,3.31,0,0,0-.71-1,10.42,10.42,0,0,0,4.33-3,10.65,10.65,0,0,0,2.28-5.94H157.3a10.14,10.14,0,0,0-1.81.12V39.1a10.15,10.15,0,0,0,1.84.12h4.54c0-.82.07-1.35.07-2a12.46,12.46,0,0,0-.12-1.85h1.35a10.6,10.6,0,0,0-.11,1.76c0,.87,0,1.36-.08,2.1h5a10.4,10.4,0,0,0,1.83-.12v1.32A10.94,10.94,0,0,0,168,40.3Z"/><path class="cls-1" d="M180.33,49c0,1.05-.31,1.26-1.84,1.26-.46,0-1.31,0-1.89-.1a4.51,4.51,0,0,0-.35-1.09,16.37,16.37,0,0,0,2.16.18c.76,0,.87,0,.87-.4V45.47h-4.93a11.85,11.85,0,0,0-1.73.1V44.4a11.64,11.64,0,0,0,1.71.1h4.95v-.29a8.58,8.58,0,0,0-.05-1h.69a13.52,13.52,0,0,0,3-1.92h-6a14.81,14.81,0,0,0-1.57.08v-1.1a15,15,0,0,0,1.6.08h5.94a7.23,7.23,0,0,0,1.22-.06l.62.68-.58.49A18.36,18.36,0,0,1,180.33,44v.53h4.89a11.48,11.48,0,0,0,1.73-.1v1.17a11.87,11.87,0,0,0-1.75-.1h-4.87ZM175.89,37.8a11.41,11.41,0,0,0-1.54-2.21l1-.32A15.56,15.56,0,0,1,177,37.79h2.4a9.91,9.91,0,0,0-1.2-2.45l1-.29a14.24,14.24,0,0,1,1.25,2.74h1.81a10.38,10.38,0,0,0,1.7-2.74l1,.46a15.4,15.4,0,0,1-1.58,2.28h1.29a18.34,18.34,0,0,0,1.89-.07,11.09,11.09,0,0,0-.07,1.41v1.26a9.51,9.51,0,0,0,.08,1.19h-1.08V38.72H173.94v2.86h-1.09a9.14,9.14,0,0,0,.08-1.19V39.13a11.34,11.34,0,0,0-.06-1.41,14,14,0,0,0,1.87.08Z"/><path class="cls-1" d="M198.16,37.31a10.73,10.73,0,0,1-1.88,2.14,3,3,0,0,0-.72-.74,8.24,8.24,0,0,0,2.74-3.79l1.06.33c-.27.51-.35.65-.65,1.14h2.54a9.36,9.36,0,0,0,1.63-.1v1.09a12.46,12.46,0,0,0-1.5-.07h-1.12a10.92,10.92,0,0,1,.87,1.51l-.9.38a10.09,10.09,0,0,0-.94-1.89Zm4.34,8.82a13.17,13.17,0,0,1-2.95,2.45,15.48,15.48,0,0,1-3.35,1.58,4.4,4.4,0,0,0-.64-1,14,14,0,0,0,3.2-1.27,12.09,12.09,0,0,0,3-2.28h-4c-.1.32-.15.46-.3.87l-1.13-.1A13.53,13.53,0,0,0,197.5,42a9.93,9.93,0,0,0,1.54.07h3.41l0-1.74h-3.91a11.07,11.07,0,0,0-1.6.09V39.39a10,10,0,0,0,1.6.08h8.76a11.33,11.33,0,0,0,1.53-.07,7.55,7.55,0,0,0-.06,1.07v1.4a9.19,9.19,0,0,0,.06,1.17c-.42,0-.85,0-1.53,0h-3.83l0,1.75h4.87a9.15,9.15,0,0,0,1.35-.07,5.71,5.71,0,0,0-.09.68c-.32,3.76-.44,4-2.12,4a17.42,17.42,0,0,1-1.81-.1,4.51,4.51,0,0,0-.28-1.07,11,11,0,0,0,2.08.22c.55,0,.72-.1.83-.53a14.56,14.56,0,0,0,.27-2.19h-5.08l0,3a12,12,0,0,0,.13,1.87h-1.22a7.33,7.33,0,0,0,.1-1.38v-.49ZM198.44,43a14.49,14.49,0,0,1-.4,1.75h4.44V43Zm5.92-5.68a10.84,10.84,0,0,1-1.45,1.87,3,3,0,0,0-.77-.63,7.7,7.7,0,0,0,2.27-3.63l1,.3c-.2.46-.26.58-.56,1.17h3.77a11.81,11.81,0,0,0,1.74-.1V37.4a12.56,12.56,0,0,0-1.73-.09h-1.81c.33.48.63.94.93,1.48l-.93.39a13.06,13.06,0,0,0-1-1.87Zm3.39,4.8V40.37h-4.33l0,1.74Z"/><path class="cls-1" d="M213.39,36.09a7.63,7.63,0,0,0,1.37.08h1a8.85,8.85,0,0,0,1.37-.08c-.1,1-.15,1.9-.15,2.82v8.26a11.07,11.07,0,0,0,.13,1.92h-1.56a10.93,10.93,0,0,0,.13-1.92V37.33h-.89a9.44,9.44,0,0,0-1.43.1Z"/><path class="cls-1" d="M229.81,39a3.37,3.37,0,0,0-.57-1.07,2.49,2.49,0,0,0-2-.85,3,3,0,0,0-2.85,2.11,10.11,10.11,0,0,0-.69,3.66,3.57,3.57,0,0,1,.82-1.09,3.83,3.83,0,0,1,2.78-1A3.89,3.89,0,0,1,231.47,45a4.08,4.08,0,0,1-4.31,4.37,4.32,4.32,0,0,1-3-1.07c-1.07-1-1.66-2.93-1.66-5.34a9.28,9.28,0,0,1,1.25-5.13,4.07,4.07,0,0,1,3.47-1.86,4.27,4.27,0,0,1,2.5.72,4.32,4.32,0,0,1,1.38,1.9Zm-2.65,2.86a3.27,3.27,0,0,0-2.27,1,3,3,0,0,0-.82,2.16,3.07,3.07,0,0,0,3.11,3.19,3,3,0,0,0,2.57-1.37,3.83,3.83,0,0,0,.42-1.8C230.17,43,229.09,41.85,227.16,41.85Z"/><path class="cls-1" d="M236.36,36.87a10.61,10.61,0,0,0-.1-1.62h1.16a10.8,10.8,0,0,0-.09,1.64v.3h3v-.32a11,11,0,0,0-.08-1.62h1.13a11.42,11.42,0,0,0-.1,1.64v.3a6.7,6.7,0,0,0,1.37-.1v1.09a9,9,0,0,0-1.37-.07v7.26a7.71,7.71,0,0,0,1.3-.09v1.06a14.84,14.84,0,0,0-1.49-.05h-5.2a6.56,6.56,0,0,0-1.33.08V45.28a6.25,6.25,0,0,0,1.31.09h.46V38.11h-.1a6.94,6.94,0,0,0-1.41.09V37.09a6.57,6.57,0,0,0,1.41.1h.1Zm1.7,10.54a9.68,9.68,0,0,1-2.57,2.94,2.36,2.36,0,0,0-.76-.82,6.62,6.62,0,0,0,2.47-2.65Zm2.3-7.53V38.11h-3v1.77Zm0,2.65V40.75h-3v1.78Zm0,2.84v-2h-3v2Zm-.25,1.49a6.32,6.32,0,0,0,1.62,1.76,3.27,3.27,0,0,0-.76.73,8.59,8.59,0,0,1-1.6-2Zm4.2-1.93a9.31,9.31,0,0,1-1.93,5.5,2.64,2.64,0,0,0-.8-.78,6.76,6.76,0,0,0,1.63-3.84c.16-1.24.28-4.25.28-7.89a17.06,17.06,0,0,0-.07-2A12.94,12.94,0,0,0,245,36h2.27a12.36,12.36,0,0,0,1.56-.07,14,14,0,0,0-.06,1.65V49c0,.58-.15.94-.45,1.11a3.08,3.08,0,0,1-1.33.19c-.23,0-.41,0-1.3-.07a4.86,4.86,0,0,0-.26-1.21,8.73,8.73,0,0,0,1.81.22c.39,0,.52-.1.52-.37v-4Zm.15-4.07c0,1.67,0,2-.1,3.11h3.4V40.86Zm3.3-3.92h-3.29v3h3.29Z"/><path class="cls-1" d="M254.31,39.67a15.83,15.83,0,0,1-2.25,3.64,3.24,3.24,0,0,0-.94-.71,14,14,0,0,0,2.95-5.22,5.54,5.54,0,0,0,.36-1.6l1.23.34c-.11.24-.19.49-.33.9-.05.16-.24.72-.59,1.65h3.46v-1.8a13.06,13.06,0,0,0-.12-1.8h1.33a12.15,12.15,0,0,0-.11,1.8v1.8h4a14.81,14.81,0,0,0,1.88-.1v1.21a15.14,15.14,0,0,0-1.86-.11H259.3v3.66h3.32a12.3,12.3,0,0,0,1.76-.1v1.19a11.63,11.63,0,0,0-1.76-.11H259.3v4.46h4.59a12.84,12.84,0,0,0,1.94-.12v1.24a13.65,13.65,0,0,0-1.93-.12H253.33a13.6,13.6,0,0,0-1.94.12V48.65a12.83,12.83,0,0,0,1.92.12h4.89V44.31h-3a11.39,11.39,0,0,0-1.75.11V43.23a12.25,12.25,0,0,0,1.75.1h3V39.67Z"/><path class="cls-1" d="M269.22,43.09c0-.88,0-1.7,0-2.5a9.92,9.92,0,0,1-1.5,2.52,4.15,4.15,0,0,0-.67-.94A16.28,16.28,0,0,0,270.57,35l1.12.31a5.24,5.24,0,0,0-.25.71,20.26,20.26,0,0,1-1.21,3.08v9.26c0,1,0,1.51.06,2.11h-1.17a16.71,16.71,0,0,0,.1-2.09Zm3.39-5.1a11.26,11.26,0,0,0-.07,1.45v6.69a10.87,10.87,0,0,0,.09,1.74h-1.14a11.54,11.54,0,0,0,.1-1.74V39.45a9.8,9.8,0,0,0-.08-1.46Zm9.69-.34a10.86,10.86,0,0,0-1.6-.08,8.28,8.28,0,0,1-2.23,2.85A12.1,12.1,0,0,0,282.86,42a3.31,3.31,0,0,0-.48,1A13.19,13.19,0,0,1,277.71,41a13.2,13.2,0,0,1-4.24,2,3.12,3.12,0,0,0-.53-.88,11.65,11.65,0,0,0,4-1.67,7.2,7.2,0,0,1-1.74-2.22,11.76,11.76,0,0,1-1.67,2,1.76,1.76,0,0,0-.75-.63,9.5,9.5,0,0,0,2-2.3,8.62,8.62,0,0,0,1-2.31l1.05.27c-.34.7-.37.8-.7,1.43h4.47a9.48,9.48,0,0,0,1.68-.1Zm0,8.28a6.86,6.86,0,0,0-.66.56A16.13,16.13,0,0,1,278,48.85a21.09,21.09,0,0,1-4.54,1.5,3.65,3.65,0,0,0-.56-1,17.76,17.76,0,0,0,6.3-2.29,7.27,7.27,0,0,0,2.18-1.84Zm-3.52-3-.53.39a12.63,12.63,0,0,1-2.27,1.2,15.67,15.67,0,0,1-2.2.74,3.39,3.39,0,0,0-.58-.91,8.92,8.92,0,0,0,4.74-2.12Zm1.62,1.44A13.07,13.07,0,0,1,278.09,46a15.8,15.8,0,0,1-4.21,1.64,2.55,2.55,0,0,0-.56-.94,14,14,0,0,0,4.24-1.49,6.45,6.45,0,0,0,1.89-1.5Zm-4.55-6.76a6.39,6.39,0,0,0,1.91,2.31,6,6,0,0,0,1.87-2.31Z"/><path class="cls-1" d="M287.11,37a15.86,15.86,0,0,0-2,.12V35.88a13.57,13.57,0,0,0,2,.12h8.58a9.46,9.46,0,0,0,1.58-.07l.64.79c-.72.76-.93,1-1.35,1.36a20.23,20.23,0,0,1-4.42,3.09v7.68c0,.58-.16,1-.51,1.14a4.08,4.08,0,0,1-1.43.17c-.56,0-1.3,0-2.29-.15a4.91,4.91,0,0,0-.23-1.19,13.8,13.8,0,0,0,2.63.27c.53,0,.68-.08.68-.37v-6.9a13.56,13.56,0,0,0-.08-1.69h1A17.2,17.2,0,0,0,296.09,37Z"/><path class="cls-1" d="M302.08,36.75a7.15,7.15,0,0,0-1.41.1V35.7a9.33,9.33,0,0,0,1.48.1h2.68a6.54,6.54,0,0,0,1.38-.1v1.12a10.58,10.58,0,0,0-1.33-.07h-1a16.94,16.94,0,0,1-1.14,4.32h2.06a8.09,8.09,0,0,0,1,0c0,.37-.05.63-.05,1.36v5.25a13.84,13.84,0,0,0,.06,1.43h-1v-.85h-2V50h-1.09a10.18,10.18,0,0,0,.1-1.65V44.59c0-.62,0-1.14.05-1.91a7.94,7.94,0,0,1-1.23,2.08,2.74,2.74,0,0,0-.59-1,11.64,11.64,0,0,0,2.26-4.32,12,12,0,0,0,.56-2.67Zm.66,10.54h2V42h-2Zm5.71-10.54a10.25,10.25,0,0,0-1.6.1V35.68a9.6,9.6,0,0,0,1.66.1h5.2a10.37,10.37,0,0,0,1.64-.1v1.17a8.76,8.76,0,0,0-1.59-.1h-.4v4.71h.53a9,9,0,0,0,1.65-.1v1.2a11.58,11.58,0,0,0-1.65-.1h-.53v6.1a13.68,13.68,0,0,0,.12,1.82h-1.27a12,12,0,0,0,.12-1.82v-6.1h-2.72c-.16,3.79-.87,5.85-2.74,8.09a2.94,2.94,0,0,0-1-.76c1.73-1.7,2.5-3.83,2.65-7.33h-.46a9.45,9.45,0,0,0-1.63.1V41.37a10,10,0,0,0,1.63.09h.49V36.75Zm1.2,4.13v.58h2.68V36.75h-2.68Z"/><path class="cls-1" d="M326.84,43.53a13.87,13.87,0,0,0,1.84-.08c0,.37-.05.73-.06,1.49l-.07,3.45c0,.51.18.58,1.47.58s1.48-.08,1.59-.39a10.41,10.41,0,0,0,.27-2.55,3.66,3.66,0,0,0,1.06.44c-.26,3.4-.36,3.51-3,3.51-2,0-2.43-.23-2.43-1.36v-.09l.07-4h-3.06a6.76,6.76,0,0,1-1.29,2.8A7,7,0,0,1,321.46,49a10.81,10.81,0,0,1-2.73,1.4,2.61,2.61,0,0,0-.72-1,10.34,10.34,0,0,0,3.16-1.53,5.57,5.57,0,0,0,2.28-3.33h-2.6a11.12,11.12,0,0,0-1.77.1V43.43a10.53,10.53,0,0,0,1.74.1h2.83a11.62,11.62,0,0,0,.12-1.42,5.79,5.79,0,0,0-.07-.92H325a5.66,5.66,0,0,0-.13,1.08c0,.4-.07.83-.13,1.25Zm-2.19-7.19a5.52,5.52,0,0,0-.11-1.22h1.28a5.23,5.23,0,0,0-.11,1.22v.53h4.88a13,13,0,0,0,1.66-.09,8,8,0,0,0-.06,1.18v.86a8.09,8.09,0,0,0,.06,1.19h-1.08V37.84h-4.1V40.3c0,.21,0,.29.12.34a3,3,0,0,0,1.05.12,3.1,3.1,0,0,0,1.33-.18c.18-.14.27-.6.28-1.38a3.35,3.35,0,0,0,1,.32c-.08,1.07-.21,1.55-.49,1.8a3.61,3.61,0,0,1-2.13.38c-1.72,0-2.13-.19-2.13-.94V37.84h-2a4.86,4.86,0,0,1-.57,1.89,4.68,4.68,0,0,1-2.6,2.15,13.65,13.65,0,0,1-1.53.5,4.67,4.67,0,0,0-.63-.94A5.86,5.86,0,0,0,322,40.08a3.24,3.24,0,0,0,1-2.24h-3.51V40h-1.08a8.42,8.42,0,0,0,.06-1.19V38a8,8,0,0,0-.06-1.18,13,13,0,0,0,1.66.09h4.55Z"/><path class="cls-1" d="M339.61,44.42a18.59,18.59,0,0,0,.12-2.45,10.5,10.5,0,0,0-1.35.07V41.2a13.84,13.84,0,0,1-3.19,2,3.38,3.38,0,0,0-.66-.88A12.34,12.34,0,0,0,338.28,40a14.59,14.59,0,0,0-2.48-2.22l.77-.67a21.87,21.87,0,0,1,2.43,2.2,11.23,11.23,0,0,0,2.08-2.66H338a6.74,6.74,0,0,0-1.07.09V35.61a6.72,6.72,0,0,0,1.18.09h3.13a9.71,9.71,0,0,0,1.46-.07,5.08,5.08,0,0,0,1.27,2.31,10.23,10.23,0,0,0,1.71-2.18l.9.62a2.26,2.26,0,0,0-.34.39,16.77,16.77,0,0,1-1.7,1.83c.46.48.86.85,1.4,1.33a11.24,11.24,0,0,0,2-2.35l.9.62-.79.9a15.82,15.82,0,0,1-1.36,1.37,12.43,12.43,0,0,0,3.09,1.69,4.26,4.26,0,0,0-.64,1,15.41,15.41,0,0,1-3.14-1.92V42a11.45,11.45,0,0,0-1.4-.07h-.28v2.45h2.93a9.85,9.85,0,0,0,1.64-.11v1.16a10.72,10.72,0,0,0-1.64-.1h-2.93v3.21a.39.39,0,0,0,.33.46,5.3,5.3,0,0,0,1.27.1c1.28,0,1.74-.08,2-.35a4.29,4.29,0,0,0,.43-1.93,2.84,2.84,0,0,0,1.05.5,4.58,4.58,0,0,1-.72,2.24c-.35.41-1.07.55-2.85.55-2,0-2.5-.24-2.5-1.28v-3.5h-2.75A5.86,5.86,0,0,1,339.31,48a7.51,7.51,0,0,1-1.87,1.61,8.48,8.48,0,0,1-1.64.78,4.11,4.11,0,0,0-.78-1,7.79,7.79,0,0,0,2.52-1.21,4.48,4.48,0,0,0,1.91-2.89H337a10.84,10.84,0,0,0-1.63.1V44.31a10,10,0,0,0,1.63.11Zm4.87-3.37a11.54,11.54,0,0,0,1.17,0,12.9,12.9,0,0,1-3.54-4.23A15.19,15.19,0,0,1,338.62,41c.38,0,.66,0,1.24,0Zm-3.72.92a19.86,19.86,0,0,1-.11,2.45h2.58V42Z"/><path class="cls-1" d="M356,45.4a19.36,19.36,0,0,1-3.91,2.26,4.27,4.27,0,0,0-.66-1A14.64,14.64,0,0,0,357.36,43h-4a13.38,13.38,0,0,0-1.83.1V42a9.13,9.13,0,0,0,1.83.1h4.85V40.41h-3.4a12.46,12.46,0,0,0-1.68.06V39.39a12.84,12.84,0,0,0,1.68.06h3.4V37.86H354a11.36,11.36,0,0,0-1.74.08V36.82a11.18,11.18,0,0,0,1.78.1h4.22v-.39a7.84,7.84,0,0,0-.1-1.48h1.21a6.85,6.85,0,0,0-.1,1.48v.39h4.52a11.61,11.61,0,0,0,1.81-.1v1.12a12,12,0,0,0-1.78-.08h-4.55v1.59h3.65a13.56,13.56,0,0,0,1.74-.06v1.08a13.37,13.37,0,0,0-1.74-.06h-3.65v1.64h5.15a10.83,10.83,0,0,0,1.79-.1v1.16a13.25,13.25,0,0,0-1.79-.1h-4.59a10,10,0,0,0,1.71,2.75,13.55,13.55,0,0,0,2.41-2.38l1,.66a2.41,2.41,0,0,0-.33.33,24.46,24.46,0,0,1-2.38,2.1,12.24,12.24,0,0,0,4.35,2.64,4.22,4.22,0,0,0-.7,1A12.6,12.6,0,0,1,358.78,43h-.18a15,15,0,0,1-1.6,1.58v4c1.34-.3,2-.51,3.72-1v1c-2.14.63-3.67,1-6.1,1.51-.27.07-.56.14-.77.21l-.29-1.19a16.57,16.57,0,0,0,2.44-.32Z"/><path class="cls-1" d="M376.24,35.14a11.22,11.22,0,0,0,2.76,3,17.64,17.64,0,0,0,4.54,2.72A3.56,3.56,0,0,0,382.9,42a22.41,22.41,0,0,1-4.57-3,14.15,14.15,0,0,1-2.64-2.91,14.56,14.56,0,0,1-2.46,2.79,18.14,18.14,0,0,1-4.44,3,3.62,3.62,0,0,0-.69-1,17,17,0,0,0,4.35-2.77,12.14,12.14,0,0,0,2.62-3Zm-5.56,9.48a15.25,15.25,0,0,0-1.88.1V43.5a13.4,13.4,0,0,0,1.88.1h10.13a13.3,13.3,0,0,0,1.88-.1v1.22a15.37,15.37,0,0,0-1.88-.1H374.9a25.24,25.24,0,0,1-2,4c2.27-.15,4-.32,6.41-.63-1-1.1-1.28-1.41-2-2.1l.85-.55a35.93,35.93,0,0,1,4,4.49l-.9.7c-.64-.94-.86-1.23-1.2-1.67-2.93.41-5.41.68-8,.88a19,19,0,0,0-2.78.31l-.2-1.29a8.38,8.38,0,0,0,.84,0c.27,0,.27,0,1.74-.1a25.57,25.57,0,0,0,2.09-4.1Zm1.05-4.23a8.49,8.49,0,0,0,1.3.07h5.31a9.71,9.71,0,0,0,1.38-.07v1.14a9.81,9.81,0,0,0-1.38-.07H373a9.27,9.27,0,0,0-1.28.07Z"/><path class="cls-1" d="M393.48,42.73a1.35,1.35,0,1,1-1.35-1.39A1.38,1.38,0,0,1,393.48,42.73Z"/><path class="cls-1" d="M411.93,37.31a1.86,1.86,0,0,1-.07-.49,1.87,1.87,0,1,1,1.86,1.92,1.87,1.87,0,0,1-.58-.09.35.35,0,0,1,0,.11,15.35,15.35,0,0,1-3.36,6.76,15.13,15.13,0,0,1-6,4,3.41,3.41,0,0,0-.81-1.17,13.21,13.21,0,0,0,6-3.86,14,14,0,0,0,2.88-6.05h-8.37a11.69,11.69,0,0,0-1.85.1V37.21a12,12,0,0,0,1.86.1h8.43Zm.62-.51a1.18,1.18,0,1,0,2.35,0,1.18,1.18,0,1,0-2.35,0Z"/><path class="cls-1" d="M419.65,47.8V49h-1.27a9.29,9.29,0,0,0,.06-1.28V38.5a8.91,8.91,0,0,0-.06-1.32,12.58,12.58,0,0,0,1.28,0h8.77a8.4,8.4,0,0,0,1.28,0,9.23,9.23,0,0,0,0,1.32v9.2c0,.51,0,.95,0,1.31h-1.25V47.8Zm8.81-9.45h-8.81v8.34h8.81Z"/><path class="cls-1" d="M435.19,40.25a26.07,26.07,0,0,1,4.18,2.21l-.64,1.16a18,18,0,0,0-4.19-2.33ZM434.77,48h.09A14.53,14.53,0,0,0,439.19,47a12,12,0,0,0,6.91-7.62,5.12,5.12,0,0,0,1,.92c-2.07,5.15-5.46,7.82-11.38,9-.36.09-.4.09-.64.17Zm1.71-11.83a26.25,26.25,0,0,1,4.08,2.14l-.68,1.14a17.63,17.63,0,0,0-4-2.26Zm8.62-.78A13.69,13.69,0,0,1,446.77,38l-.82.51a13.5,13.5,0,0,0-1.68-2.7Zm1.84-.92a12.63,12.63,0,0,1,1.71,2.63l-.82.5a13,13,0,0,0-1.7-2.67Z"/><path class="cls-1" d="M457.44,48.16H461a7.75,7.75,0,0,0,1.48-.09v1.19a11.71,11.71,0,0,0-1.5-.07h-8a11.41,11.41,0,0,0-1.5.07V48.05a6.13,6.13,0,0,0,1.48.11h3.34V42.28H454a10.81,10.81,0,0,0-1.46.06V41.15a8.1,8.1,0,0,0,1.46.1h6a8,8,0,0,0,1.47-.1v1.19a8.61,8.61,0,0,0-1.45-.06h-2.53Z"/><path class="cls-1" d="M473.53,35.7a3.06,3.06,0,0,0-.36.69c-.43.92-.58,1.21-.76,1.52.22,0,.22,0,5-.14a1.55,1.55,0,0,0,.85-.12l.71.72c-.15.2-.15.22-.33.83a18.17,18.17,0,0,1-3.29,6.39,16,16,0,0,1-5.72,4.25,2.59,2.59,0,0,0-.82-1,14.12,14.12,0,0,0,5.8-4.3,15.65,15.65,0,0,0,2.83-5.7l-5.54.1a16,16,0,0,1-3.93,4.42,2.6,2.6,0,0,0-.92-.88,12.46,12.46,0,0,0,4.13-4.66,7.89,7.89,0,0,0,1-2.48Z"/><path class="cls-1" d="M486.51,49.72a10.77,10.77,0,0,0,.1-1.78V37.38a9.84,9.84,0,0,0-.1-1.73h1.42a10.47,10.47,0,0,0-.08,1.76v3.18a40.52,40.52,0,0,1,7.32,3.59l-.71,1.26a33.11,33.11,0,0,0-6.14-3.37,1.85,1.85,0,0,1-.51-.29l0,0a6,6,0,0,1,.07,1v5.12a11.49,11.49,0,0,0,.08,1.8Z"/><path class="cls-1" d="M500.52,36.75a7.26,7.26,0,0,0-1.42.1V35.7a9.52,9.52,0,0,0,1.48.1h2.68a6.64,6.64,0,0,0,1.39-.1v1.12a10.65,10.65,0,0,0-1.34-.07h-1a17.34,17.34,0,0,1-1.13,4.32h2a7.86,7.86,0,0,0,1,0c0,.37,0,.63,0,1.36v5.25a11.49,11.49,0,0,0,.06,1.43h-1v-.85h-2V50h-1.09a11.48,11.48,0,0,0,.1-1.65V44.59c0-.62,0-1.14.05-1.91A7.72,7.72,0,0,1,499,44.76a2.74,2.74,0,0,0-.59-1,11.65,11.65,0,0,0,2.27-4.32,12,12,0,0,0,.56-2.67Zm.66,10.54h2V42h-2Zm5.7-10.54a10,10,0,0,0-1.59.1V35.68a9.6,9.6,0,0,0,1.66.1h5.2a10.37,10.37,0,0,0,1.64-.1v1.17a8.82,8.82,0,0,0-1.59-.1h-.4v4.71h.53a8.83,8.83,0,0,0,1.64-.1v1.2a11.32,11.32,0,0,0-1.64-.1h-.53v6.1a12.19,12.19,0,0,0,.12,1.82h-1.27a13.46,13.46,0,0,0,.12-1.82v-6.1h-2.72c-.16,3.79-.87,5.85-2.75,8.09a2.9,2.9,0,0,0-.95-.76c1.73-1.7,2.5-3.83,2.65-7.33h-.46a9.31,9.31,0,0,0-1.63.1V41.37a10,10,0,0,0,1.63.09H507V36.75Zm1.2,4.13v.58h2.69V36.75h-2.69Z"/><path class="cls-1" d="M524.29,43.53a13.87,13.87,0,0,0,1.84-.08c0,.37,0,.73-.06,1.49L526,48.39c0,.51.18.58,1.47.58s1.48-.08,1.59-.39a10.06,10.06,0,0,0,.26-2.55,3.84,3.84,0,0,0,1.07.44c-.26,3.4-.36,3.51-3,3.51-2,0-2.43-.23-2.43-1.36v-.09l.07-4H522a6.76,6.76,0,0,1-1.29,2.8A7,7,0,0,1,518.91,49a11,11,0,0,1-2.73,1.4,2.61,2.61,0,0,0-.72-1,10.34,10.34,0,0,0,3.16-1.53,5.57,5.57,0,0,0,2.28-3.33h-2.6a11.12,11.12,0,0,0-1.77.1V43.43a10.45,10.45,0,0,0,1.74.1h2.83a11.62,11.62,0,0,0,.12-1.42,5.79,5.79,0,0,0-.07-.92h1.25a5.66,5.66,0,0,0-.13,1.08c0,.4-.07.83-.13,1.25Zm-2.19-7.19a5.52,5.52,0,0,0-.11-1.22h1.28a5.23,5.23,0,0,0-.11,1.22v.53H528a13,13,0,0,0,1.66-.09,8,8,0,0,0-.06,1.18v.86A8.09,8.09,0,0,0,529.7,40h-1.08V37.84h-4.1V40.3c0,.21,0,.29.12.34a3,3,0,0,0,1.05.12,3.1,3.1,0,0,0,1.33-.18c.18-.14.26-.6.28-1.38a3.35,3.35,0,0,0,1,.32c-.08,1.07-.22,1.55-.5,1.8a3.54,3.54,0,0,1-2.12.38c-1.72,0-2.14-.19-2.14-.94V37.84h-2a4.86,4.86,0,0,1-.57,1.89,4.68,4.68,0,0,1-2.6,2.15,13.65,13.65,0,0,1-1.53.5,4.67,4.67,0,0,0-.63-.94,5.86,5.86,0,0,0,3.29-1.36,3.24,3.24,0,0,0,1-2.24H517V40h-1.08a8.42,8.42,0,0,0,.06-1.19V38a8,8,0,0,0-.06-1.18,13,13,0,0,0,1.66.09h4.55Z"/><path class="cls-1" d="M536.73,44.42a18.59,18.59,0,0,0,.12-2.45,10.5,10.5,0,0,0-1.35.07V41.2a13.84,13.84,0,0,1-3.19,2,3.38,3.38,0,0,0-.66-.88A12.34,12.34,0,0,0,535.4,40a14.59,14.59,0,0,0-2.48-2.22l.77-.67a21.87,21.87,0,0,1,2.43,2.2,11.23,11.23,0,0,0,2.08-2.66h-3.11a6.74,6.74,0,0,0-1.07.09V35.61a6.72,6.72,0,0,0,1.18.09h3.13a9.71,9.71,0,0,0,1.46-.07,5.08,5.08,0,0,0,1.27,2.31,10.23,10.23,0,0,0,1.71-2.18l.9.62a2.26,2.26,0,0,0-.34.39,16.77,16.77,0,0,1-1.7,1.83c.46.48.86.85,1.4,1.33a11.24,11.24,0,0,0,2-2.35l.9.62-.79.9a15.82,15.82,0,0,1-1.36,1.37,12.43,12.43,0,0,0,3.09,1.69,4.26,4.26,0,0,0-.64,1,15.41,15.41,0,0,1-3.14-1.92V42a11.35,11.35,0,0,0-1.4-.07h-.28v2.45h2.93a9.85,9.85,0,0,0,1.64-.11v1.16a10.72,10.72,0,0,0-1.64-.1h-2.93v3.21a.39.39,0,0,0,.33.46,5.3,5.3,0,0,0,1.27.1c1.28,0,1.74-.08,2-.35a4.29,4.29,0,0,0,.43-1.93,2.84,2.84,0,0,0,1,.5,4.58,4.58,0,0,1-.72,2.24c-.35.41-1.07.55-2.85.55-2,0-2.5-.24-2.5-1.28v-3.5H537.6A6,6,0,0,1,536.44,48a7.75,7.75,0,0,1-1.88,1.61,8.48,8.48,0,0,1-1.64.78,3.87,3.87,0,0,0-.78-1,7.79,7.79,0,0,0,2.52-1.21,4.48,4.48,0,0,0,1.91-2.89h-2.44a10.84,10.84,0,0,0-1.63.1V44.31a10,10,0,0,0,1.63.11Zm4.87-3.37a11.54,11.54,0,0,0,1.17,0,12.9,12.9,0,0,1-3.54-4.23A15,15,0,0,1,535.74,41c.38,0,.66,0,1.24,0Zm-3.72.92a19.86,19.86,0,0,1-.11,2.45h2.58V42Z"/><path class="cls-1" d="M552.79,45.4a19.36,19.36,0,0,1-3.91,2.26,4.27,4.27,0,0,0-.66-1A14.68,14.68,0,0,0,554.16,43h-4a13.13,13.13,0,0,0-1.82.1V42a9,9,0,0,0,1.82.1H555V40.41h-3.4a12.46,12.46,0,0,0-1.68.06V39.39a12.84,12.84,0,0,0,1.68.06H555V37.86h-4.26a11.36,11.36,0,0,0-1.74.08V36.82a11.18,11.18,0,0,0,1.78.1H555v-.39a9,9,0,0,0-.09-1.48h1.2a6.85,6.85,0,0,0-.1,1.48v.39h4.52a11.61,11.61,0,0,0,1.81-.1v1.12a12,12,0,0,0-1.78-.08h-4.55v1.59h3.65a13.56,13.56,0,0,0,1.74-.06v1.08a13.37,13.37,0,0,0-1.74-.06h-3.65v1.64h5.15A10.83,10.83,0,0,0,563,42v1.16a13.25,13.25,0,0,0-1.79-.1h-4.59a10,10,0,0,0,1.71,2.75,14,14,0,0,0,2.42-2.38l1,.66a2.41,2.41,0,0,0-.33.33,24.46,24.46,0,0,1-2.38,2.1,12.24,12.24,0,0,0,4.35,2.64,4.22,4.22,0,0,0-.7,1A12.6,12.6,0,0,1,555.57,43h-.18a15,15,0,0,1-1.6,1.58v4c1.34-.3,2-.51,3.72-1v1c-2.14.63-3.67,1-6.1,1.51-.26.07-.56.14-.77.21l-.28-1.19a16.63,16.63,0,0,0,2.43-.32Z"/><path class="cls-1" d="M572.7,35.14a11.38,11.38,0,0,0,2.76,3A17.64,17.64,0,0,0,580,40.9a3.56,3.56,0,0,0-.64,1.09,22.69,22.69,0,0,1-4.57-3,14.09,14.09,0,0,1-2.63-2.91,14.61,14.61,0,0,1-2.47,2.79,18.14,18.14,0,0,1-4.44,3,3.62,3.62,0,0,0-.69-1,17.28,17.28,0,0,0,4.36-2.77,12.3,12.3,0,0,0,2.61-3Zm-5.56,9.48a15.25,15.25,0,0,0-1.88.1V43.5a13.49,13.49,0,0,0,1.88.1h10.13a13.3,13.3,0,0,0,1.88-.1v1.22a15.37,15.37,0,0,0-1.88-.1h-5.9a26,26,0,0,1-2.06,4c2.27-.15,4-.32,6.42-.63-1-1.1-1.29-1.41-2-2.1l.85-.55a36.87,36.87,0,0,1,4,4.49l-.91.7c-.64-.94-.85-1.23-1.2-1.67-2.93.41-5.41.68-8,.88a19,19,0,0,0-2.78.31l-.2-1.29c.28,0,.6,0,.84,0s.27,0,1.75-.1a27.33,27.33,0,0,0,2.09-4.1Zm1.05-4.23a8.49,8.49,0,0,0,1.3.07h5.32a9.81,9.81,0,0,0,1.38-.07v1.14a10,10,0,0,0-1.38-.07h-5.33a9.33,9.33,0,0,0-1.29.07Z"/><g id="レイヤー_3" data-name="レイヤー 3"><path class="cls-1" d="M452.85,72.34a16,16,0,0,1-1.15,1.43,8,8,0,0,0,.82.5,2.22,2.22,0,0,0-.36.5,11.54,11.54,0,0,1-1.49-1.18c0,.2,0,.31,0,.46v2.42a7.64,7.64,0,0,0,.06,1.16H450a9.09,9.09,0,0,0,.06-1.17V74.22s0-.26,0-.6a8.65,8.65,0,0,1-1.44,1.22,1.9,1.9,0,0,0-.36-.53A8.58,8.58,0,0,0,449.92,73a7,7,0,0,0,1.48-2.16h-1.76a7.28,7.28,0,0,0-.95,0v-.65a4.2,4.2,0,0,0,.95.05h.45v-.87a5,5,0,0,0-.06-.82h.74a3.65,3.65,0,0,0-.06.82v.87h.41a5,5,0,0,0,.75,0l.31.37c0,.06-.11.21-.2.38a8.7,8.7,0,0,1-1.27,1.93,4.21,4.21,0,0,0,.58.53A6.82,6.82,0,0,0,452.37,72Zm.58-2.37a8,8,0,0,0-1.13.06v-.69a8,8,0,0,0,1.13.06h2.79a7.15,7.15,0,0,0,1-.05,9.42,9.42,0,0,0-.05,1.07,38.48,38.48,0,0,1-.4,6.06c-.15.69-.42.9-1.16.9a11.19,11.19,0,0,1-1.33-.07,2.06,2.06,0,0,0-.16-.69,10.6,10.6,0,0,0,1.4.14c.48,0,.57-.09.67-.66a46.71,46.71,0,0,0,.32-6.13h-1.86a15.31,15.31,0,0,1-.4,3.62,7.47,7.47,0,0,1-2.32,3.92,2.36,2.36,0,0,0-.5-.5,6.27,6.27,0,0,0,2.16-3.43A13.84,13.84,0,0,0,454,70Z"/><path class="cls-1" d="M459.79,70.11a7,7,0,0,0-.05-1,8.16,8.16,0,0,0,1.07.05h4.5a7.25,7.25,0,0,0,1-.05,6.29,6.29,0,0,0,0,.92v6.4a7.64,7.64,0,0,0,.06,1.07h-.73v-.65h-5.16v.65h-.73a7.69,7.69,0,0,0,.06-1.06Zm.67,2.48h5.16v-2.8h-5.16Zm0,3.67h5.16V73.2h-5.16Z"/><path class="cls-1" d="M470.78,78.5a8.05,8.05,0,0,1-1.06-2.09,8.09,8.09,0,0,1,1.06-7.27l.63.4a7.09,7.09,0,0,0-1,2,7.35,7.35,0,0,0-.34,2.25,7.43,7.43,0,0,0,.34,2.27,7.09,7.09,0,0,0,1,2Z"/><path class="cls-1" d="M473.39,76.85a7.16,7.16,0,0,0-1.1.05,4.59,4.59,0,0,1,.29-1.32,4.29,4.29,0,0,1,1.3-1.71,12.28,12.28,0,0,1,1.53-1.1c1-.67,1.32-1.11,1.32-1.72s-.64-1.25-1.66-1.25a1.65,1.65,0,0,0-1.45.65,2,2,0,0,0-.35,1l-.84-.14a2.72,2.72,0,0,1,.63-1.44,2.56,2.56,0,0,1,2-.77c1.51,0,2.48.76,2.48,1.94a2.09,2.09,0,0,1-.59,1.42,7.88,7.88,0,0,1-1.7,1.29A5.27,5.27,0,0,0,473.82,75a2.8,2.8,0,0,0-.57,1.16h3.19a8.73,8.73,0,0,0,1.22-.07v.84a11.25,11.25,0,0,0-1.23-.06Z"/><path class="cls-1" d="M482.81,69.26l-3.6,9.14h-.75l3.61-9.14Z"/><path class="cls-1" d="M484.7,76.85a7.16,7.16,0,0,0-1.1.05,4.59,4.59,0,0,1,.29-1.32,4.29,4.29,0,0,1,1.3-1.71,12.28,12.28,0,0,1,1.53-1.1c1-.67,1.32-1.11,1.32-1.72s-.64-1.25-1.66-1.25a1.65,1.65,0,0,0-1.45.65,2,2,0,0,0-.35,1l-.84-.14a2.72,2.72,0,0,1,.63-1.44,2.56,2.56,0,0,1,2-.77c1.51,0,2.48.76,2.48,1.94a2.09,2.09,0,0,1-.59,1.42,7.88,7.88,0,0,1-1.7,1.29A5.27,5.27,0,0,0,485.13,75a2.8,2.8,0,0,0-.57,1.16h3.19a8.73,8.73,0,0,0,1.22-.07v.84a11.25,11.25,0,0,0-1.23-.06Z"/><path class="cls-1" d="M491.27,76.85a7.16,7.16,0,0,0-1.1.05,4.59,4.59,0,0,1,.29-1.32,4.29,4.29,0,0,1,1.3-1.71,12.28,12.28,0,0,1,1.53-1.1c1-.67,1.32-1.11,1.32-1.72S494,69.8,493,69.8a1.65,1.65,0,0,0-1.45.65,2,2,0,0,0-.35,1l-.84-.14a2.72,2.72,0,0,1,.63-1.44,2.56,2.56,0,0,1,2-.77c1.51,0,2.48.76,2.48,1.94a2.09,2.09,0,0,1-.59,1.42,7.88,7.88,0,0,1-1.7,1.29A5.27,5.27,0,0,0,491.7,75a2.8,2.8,0,0,0-.57,1.16h3.19a8.73,8.73,0,0,0,1.22-.07v.84a11.25,11.25,0,0,0-1.23-.06Z"/><path class="cls-1" d="M497.06,69.14a8.17,8.17,0,0,1,1.06,2.08,8.42,8.42,0,0,1,0,5.19,8.05,8.05,0,0,1-1.06,2.09l-.63-.4a7.09,7.09,0,0,0,1-2,7.38,7.38,0,0,0,.34-2.27,7.3,7.3,0,0,0-.34-2.25,7.09,7.09,0,0,0-1-2Z"/><path class="cls-1" d="M504.57,74.26c-.58,1.31-1.17,1.91-1.89,1.91-.95,0-1.66-1-1.66-2.44a4.06,4.06,0,0,1,4.28-4.08,3.87,3.87,0,0,1,2.75,1,3.35,3.35,0,0,1,1,2.44,3.64,3.64,0,0,1-2.29,3.44,7.74,7.74,0,0,1-1.52.46,1.59,1.59,0,0,0-.35-.67,6,6,0,0,0,1.67-.47,3,3,0,0,0,1.77-2.79,2.64,2.64,0,0,0-1.59-2.51,2.88,2.88,0,0,0-1.16-.25A15,15,0,0,1,504.57,74.26Zm-1.23-3.49a3.46,3.46,0,0,0-1.63,3c0,1,.42,1.69,1,1.69s.82-.46,1.25-1.44a13.74,13.74,0,0,0,.91-3.7A3.16,3.16,0,0,0,503.34,70.77Z"/><path class="cls-1" d="M512,69.44a4.77,4.77,0,0,0,1,.06c.55,0,1.35,0,1.68-.07a.74.74,0,0,0,.37-.12l.53.42a5.28,5.28,0,0,0-.55,1.45c-.22.68-.29.87-.47,1.4a7.84,7.84,0,0,1,2.73.79,11.33,11.33,0,0,0,.12-2,2.43,2.43,0,0,0,0-.49h.75a3.8,3.8,0,0,0,0,.62,13.67,13.67,0,0,1-.18,2.17c.54.28.88.45,1.37.75l.29.14-.27.77a11.56,11.56,0,0,0-1.56-1,4.72,4.72,0,0,1-1,1.81,5.4,5.4,0,0,1-1.59,1.22,2.58,2.58,0,0,0-.53-.52,4.4,4.4,0,0,0,1.62-1.15,3.86,3.86,0,0,0,.92-1.67,7.37,7.37,0,0,0-2.76-.83,19.15,19.15,0,0,1-.94,2.4c-.36.69-.73,1-1.21,1a1.47,1.47,0,0,1-1.32-1.63A2.23,2.23,0,0,1,512,73a3.27,3.27,0,0,1,1.8-.43c.33-1,.45-1.36.8-2.52-.79.06-.94.07-1.89.1a5.49,5.49,0,0,0-.73,0Zm0,4.33a1.68,1.68,0,0,0-.48,1.15c0,.53.29,1,.65,1s.75-.62,1.48-2.74A2.47,2.47,0,0,0,512,73.77Z"/><path class="cls-1" d="M524.12,69.21a4.84,4.84,0,0,0,.83.05h.63a5.69,5.69,0,0,0,.83-.05,16.41,16.41,0,0,0-.09,1.66v4.85a6.38,6.38,0,0,0,.08,1.13h-.95a6.31,6.31,0,0,0,.08-1.13V69.94H525a6,6,0,0,0-.87.06Z"/><path class="cls-1" d="M528.77,75a1.51,1.51,0,0,0,.61,1,2.21,2.21,0,0,0,1.29.36c1.16,0,1.89-.6,1.89-1.54s-.71-1.53-2-1.53a7,7,0,0,0-.8.05V72.5a4.27,4.27,0,0,0,.74.06,2,2,0,0,0,1.46-.46,1.38,1.38,0,0,0,.4-1c0-.86-.6-1.36-1.61-1.36a1.57,1.57,0,0,0-1.33.53,1.89,1.89,0,0,0-.32.71l-.83-.18a2.28,2.28,0,0,1,.54-1,2.6,2.6,0,0,1,2-.73c1.45,0,2.37.76,2.37,2a1.76,1.76,0,0,1-.7,1.46,2.05,2.05,0,0,1-.94.36,2.14,2.14,0,0,1,1.23.43,1.83,1.83,0,0,1,.67,1.5c0,1.35-1,2.19-2.71,2.19a2.86,2.86,0,0,1-2.24-.82,2.6,2.6,0,0,1-.51-1Z"/><path class="cls-1" d="M535.74,71.46h-1v-1h1Zm-1,4.39v-1h1v1Z"/><path class="cls-1" d="M537.9,76.29a2.48,2.48,0,0,1-.6-.92,6.81,6.81,0,0,1-.38-2.3,5.85,5.85,0,0,1,.58-2.72,2.68,2.68,0,0,1,4.07-.52,2.52,2.52,0,0,1,.6.92,6.88,6.88,0,0,1,.38,2.32,5.2,5.2,0,0,1-.7,2.88,2.44,2.44,0,0,1-2.12,1A2.5,2.5,0,0,1,537.9,76.29Zm.58-6a2,2,0,0,0-.45.73,6.2,6.2,0,0,0-.31,2,5.44,5.44,0,0,0,.47,2.37,1.7,1.7,0,0,0,1.55.87,1.67,1.67,0,0,0,1.23-.47,2,2,0,0,0,.47-.78,6.14,6.14,0,0,0,.31-2,5.67,5.67,0,0,0-.45-2.33,1.69,1.69,0,0,0-1.57-.91A1.63,1.63,0,0,0,538.48,70.32Z"/><path class="cls-1" d="M544.47,76.29a2.48,2.48,0,0,1-.6-.92,6.81,6.81,0,0,1-.38-2.3,5.85,5.85,0,0,1,.58-2.72,2.68,2.68,0,0,1,4.07-.52,2.52,2.52,0,0,1,.6.92,6.88,6.88,0,0,1,.38,2.32,5.2,5.2,0,0,1-.7,2.88,2.44,2.44,0,0,1-2.12,1A2.5,2.5,0,0,1,544.47,76.29Zm.58-6a2,2,0,0,0-.45.73,6.2,6.2,0,0,0-.31,2,5.44,5.44,0,0,0,.47,2.37,1.7,1.7,0,0,0,1.55.87,1.67,1.67,0,0,0,1.23-.47,2,2,0,0,0,.47-.78,6.14,6.14,0,0,0,.31-2,5.67,5.67,0,0,0-.45-2.33,1.69,1.69,0,0,0-1.57-.91A1.63,1.63,0,0,0,545.05,70.32Z"/><path class="cls-1" d="M550.68,72.53a7,7,0,0,0,.9,0h1.19a7.33,7.33,0,0,0,.92,0v.83a5.89,5.89,0,0,0-.92,0h-1.19a5.77,5.77,0,0,0-.9,0Z"/><path class="cls-1" d="M555.38,69.21a4.84,4.84,0,0,0,.83.05h.63a5.69,5.69,0,0,0,.83-.05,16.41,16.41,0,0,0-.09,1.66v4.85a6.38,6.38,0,0,0,.08,1.13h-.95a6.31,6.31,0,0,0,.08-1.13V69.94h-.54a6,6,0,0,0-.87.06Z"/><path class="cls-1" d="M563.87,73.31a1.83,1.83,0,0,1,.75,1.56c0,1.37-1,2.14-2.76,2.14S559,76.25,559,74.87a1.83,1.83,0,0,1,.89-1.65,2.06,2.06,0,0,1,.9-.34,1.75,1.75,0,0,1-1.45-1.8c0-1.21.95-2,2.46-2s2.47.75,2.47,2a1.74,1.74,0,0,1-1.45,1.8A2,2,0,0,1,563.87,73.31Zm-4,1.51c0,1,.73,1.51,2,1.51a2.26,2.26,0,0,0,1.61-.52,1.31,1.31,0,0,0,.38-1c0-1-.75-1.56-2-1.56S559.84,73.85,559.84,74.82Zm.3-3.68c0,.89.64,1.43,1.69,1.43s1.68-.54,1.68-1.43-.66-1.37-1.69-1.37S560.14,70.31,560.14,71.14Z"/><path class="cls-1" d="M566.81,71.46h-1v-1h1Zm-1,4.39v-1h1v1Z"/><path class="cls-1" d="M569,76.29a2.48,2.48,0,0,1-.6-.92,6.81,6.81,0,0,1-.38-2.3,5.85,5.85,0,0,1,.58-2.72,2.68,2.68,0,0,1,4.07-.52,2.52,2.52,0,0,1,.6.92,6.88,6.88,0,0,1,.38,2.32,5.2,5.2,0,0,1-.7,2.88,2.44,2.44,0,0,1-2.12,1A2.5,2.5,0,0,1,569,76.29Zm.58-6a2,2,0,0,0-.45.73,6.2,6.2,0,0,0-.31,2,5.44,5.44,0,0,0,.47,2.37,1.7,1.7,0,0,0,1.55.87,1.67,1.67,0,0,0,1.23-.47,2,2,0,0,0,.47-.78,6.14,6.14,0,0,0,.31-2,5.67,5.67,0,0,0-.45-2.33,1.69,1.69,0,0,0-1.57-.91A1.63,1.63,0,0,0,569.54,70.32Z"/><path class="cls-1" d="M575.53,76.29a2.59,2.59,0,0,1-.59-.92,6.81,6.81,0,0,1-.38-2.3,5.72,5.72,0,0,1,.58-2.72,2.43,2.43,0,0,1,2.23-1.23,2.46,2.46,0,0,1,1.83.71,2.52,2.52,0,0,1,.6.92,6.88,6.88,0,0,1,.38,2.32,5.2,5.2,0,0,1-.7,2.88,2.44,2.44,0,0,1-2.12,1A2.5,2.5,0,0,1,575.53,76.29Zm.58-6a2,2,0,0,0-.45.73,6.2,6.2,0,0,0-.31,2,5.44,5.44,0,0,0,.47,2.37,1.7,1.7,0,0,0,1.55.87,1.67,1.67,0,0,0,1.23-.47,2,2,0,0,0,.47-.78,6.14,6.14,0,0,0,.31-2,5.67,5.67,0,0,0-.45-2.33,1.69,1.69,0,0,0-1.57-.91A1.63,1.63,0,0,0,576.11,70.32Z"/><path class="cls-1" d="M451.24,84c-.19,0-.43,0-.76,0V83.3a3.75,3.75,0,0,0,.76,0h1.32a4.76,4.76,0,0,0,.93-.06,5.18,5.18,0,0,0,0,.66,7.25,7.25,0,0,0,.85,3.48,8.94,8.94,0,0,0,1.5,2.07A8.14,8.14,0,0,0,457.67,91a2.21,2.21,0,0,0-.56.64,9.37,9.37,0,0,1-1.94-1.71,9.2,9.2,0,0,1-1.43-2.16,8,8,0,0,1-.63-1.84,8.64,8.64,0,0,1-1.4,3.23,9.9,9.9,0,0,1-2.61,2.5,1.79,1.79,0,0,0-.54-.59,8.39,8.39,0,0,0,2.32-2,8.13,8.13,0,0,0,1.54-2.9,8.69,8.69,0,0,0,.32-2.18Z"/><path class="cls-1" d="M459.84,83.92a7.92,7.92,0,0,0-.06-1.1h.74a6.82,6.82,0,0,0-.06,1.11v1.38h.24a5.9,5.9,0,0,0,.83,0v.64a7.81,7.81,0,0,0-.83,0h-.24v2.56a8.65,8.65,0,0,0,.85-.51l0,.6a18.43,18.43,0,0,1-2.08,1.13l-.53.26-.19-.7a5,5,0,0,0,1.29-.49V85.87h-.43a7.21,7.21,0,0,0-.85,0v-.66a5.59,5.59,0,0,0,.87,0h.41Zm2.81,4.56A6.41,6.41,0,0,1,461,89.81a1.78,1.78,0,0,0-.41-.45,4.8,4.8,0,0,0,2.32-2.11h-.61a4.9,4.9,0,0,0-.9.06v-.65a4.72,4.72,0,0,0,.92.07h4.27a5.44,5.44,0,0,0,1-.07v.63a8.52,8.52,0,0,0-1,0H463.5A4.89,4.89,0,0,1,463,88h3.31a7.8,7.8,0,0,0,1,0,4.54,4.54,0,0,0-.05.59,10,10,0,0,1-.44,2.67c-.18.36-.43.46-1.11.46-.23,0-.56,0-.87,0a1.69,1.69,0,0,0-.2-.65,6.91,6.91,0,0,0,1.19.11c.4,0,.47-.08.6-.68a12.16,12.16,0,0,0,.22-1.92H466a5.79,5.79,0,0,1-.89,1.51,10.21,10.21,0,0,1-1.23,1.23,8.12,8.12,0,0,1-.81.56,1.71,1.71,0,0,0-.46-.47,6.35,6.35,0,0,0,2-1.52,4.88,4.88,0,0,0,.82-1.31h-1a6.89,6.89,0,0,1-2.75,2.5,1.45,1.45,0,0,0-.43-.47,5.67,5.67,0,0,0,2.53-2Zm.32-2.42c-.41,0-.69,0-.91,0a7.41,7.41,0,0,0,0-.89v-1.3a6.73,6.73,0,0,0,0-.88,6.46,6.46,0,0,0,1,0h2.61a7.32,7.32,0,0,0,1,0,7.31,7.31,0,0,0,0,.93v1.25a5.89,5.89,0,0,0,0,.89c-.22,0-.53,0-.92,0Zm-.28-1.73H466V83.6h-3.35Zm0,1.25H466v-.76h-3.35Z"/><path class="cls-1" d="M470.13,84.55a7.42,7.42,0,0,1-1.07,1.11,1.5,1.5,0,0,0-.48-.42A6.23,6.23,0,0,0,470.52,83a2.54,2.54,0,0,0,.2-.53l.7.17-.15.24c-.23.41-.32.55-.53.87h5.11a9,9,0,0,0,1.26-.06v.67c-.37,0-.68-.05-1.11-.05V86.1h.54a6.5,6.5,0,0,0,1,0v.68a6.83,6.83,0,0,0-1,0H476v1.8h.34a6.06,6.06,0,0,0,1-.06v.68a6.46,6.46,0,0,0-1-.06h-6.52a6.46,6.46,0,0,0-.94.06v-.68a6.24,6.24,0,0,0,1,.06h.27v-1.8h-.52a6.94,6.94,0,0,0-1,0v-.68a6.44,6.44,0,0,0,1,0h.52Zm-1.41,6.68A4.29,4.29,0,0,0,470,89.35l.54.3a6.19,6.19,0,0,1-1.28,2Zm2-5.13h1.19V84.32h-1.19Zm0,2.38h1.19v-1.8h-1.19Zm1,3.17a10.67,10.67,0,0,0-.23-2.07l.56-.09a10.66,10.66,0,0,1,.3,2.06Zm1.95-5.55V84.32h-1.18V86.1Zm0,2.38v-1.8h-1.18v1.8Zm.34,3.14a8.23,8.23,0,0,0-.52-2l.54-.16a9.25,9.25,0,0,1,.6,2Zm1.45-5.52V84.32h-1.24V86.1Zm0,2.38v-1.8h-1.24v1.8Zm1.39,3.13a7.72,7.72,0,0,0-1.22-2l.51-.27a9.42,9.42,0,0,1,1.27,1.88Z"/><path class="cls-1" d="M479.67,86.74a4.93,4.93,0,0,0-.87.05v-.64a4.76,4.76,0,0,0,.87,0h.79V83.84a7.08,7.08,0,0,0-.06-1.07h.73a6.66,6.66,0,0,0-.06,1.06v2.36h.6a3.79,3.79,0,0,0,.74,0v.63a5.28,5.28,0,0,0-.75,0h-.55a6,6,0,0,0,1.43,1.85,3.49,3.49,0,0,0-.35.54A5.92,5.92,0,0,1,481,87.37c0,.4.05,1.29.05,1.48v1.87a8.23,8.23,0,0,0,.06,1.1h-.73a8.83,8.83,0,0,0,.06-1.11V89c0-.46,0-1,.05-1.55A7.6,7.6,0,0,1,479,90.32a2.1,2.1,0,0,0-.38-.56,6.34,6.34,0,0,0,1.19-1.68,8.07,8.07,0,0,0,.56-1.34Zm-.3-3.34a11.73,11.73,0,0,1,.67,2.14l-.53.23a8.85,8.85,0,0,0-.66-2.14Zm3.28.19a11.29,11.29,0,0,1-.81,2.18l-.49-.23a7.46,7.46,0,0,0,.73-2.17Zm3.24.24a6.35,6.35,0,0,0-.06-1h.76a7.18,7.18,0,0,0-.06,1v4.59l.15,0a6.25,6.25,0,0,0,.92-.28l.12.7a7,7,0,0,0-1,.17l-.23.06V90.7a7.76,7.76,0,0,0,.06,1.09h-.76a5.87,5.87,0,0,0,.06-1.1V89.18l-2.63.64a6.92,6.92,0,0,0-.93.27l-.13-.71a5.43,5.43,0,0,0,1-.16l2.73-.65ZM483.22,86A8.53,8.53,0,0,1,485,87.52l-.42.5a7.12,7.12,0,0,0-1.81-1.55Zm.3-2.5a10.25,10.25,0,0,1,1.8,1.56l-.41.52A8.46,8.46,0,0,0,483.09,84Z"/><path class="cls-1" d="M495.54,82.68H496v9.13h-.45Z"/><path class="cls-1" d="M509.83,91a7.18,7.18,0,0,0-.31-1L509,88.67h-3.49L505,90a5.59,5.59,0,0,0-.31,1h-1a6.38,6.38,0,0,0,.54-1.15l2.24-5.51a5.69,5.69,0,0,0,.32-.93h1a5.41,5.41,0,0,0,.34.93l2.24,5.51a9.94,9.94,0,0,0,.53,1.15Zm-2.36-6.29-.22-.64-.11.33c-.06.16-.09.27-.11.31L505.75,88h3Z"/><path class="cls-1" d="M515.94,90.49a4.42,4.42,0,0,1,0-.49,2.23,2.23,0,0,1-2,1.08c-1.54,0-2.48-1.06-2.48-2.8s1-2.79,2.46-2.79A2.27,2.27,0,0,1,516,86.55V86.4a3,3,0,0,1,0-.53V84.53a7.83,7.83,0,0,0-.07-1.14h.88a8.16,8.16,0,0,0-.07,1.13v5.31a7.79,7.79,0,0,0,.07,1.15h-.8Zm-3.69-2.23a2.61,2.61,0,0,0,.41,1.56,1.65,1.65,0,0,0,1.34.6,1.92,1.92,0,0,0,1.92-2.17,2.23,2.23,0,0,0-.56-1.59,1.92,1.92,0,0,0-1.36-.52C512.91,86.14,512.25,86.94,512.25,88.26Z"/><path class="cls-1" d="M518.17,91a7.51,7.51,0,0,0,.07-1.13V86.73a7.25,7.25,0,0,0-.07-1.13H519v.55s0,.16,0,.36a2.06,2.06,0,0,1,.38-.5,1.94,1.94,0,0,1,1.41-.52A1.62,1.62,0,0,1,522,86a1.22,1.22,0,0,1,.31.57,2,2,0,0,1,1.85-1.08,1.73,1.73,0,0,1,1.46.61,2,2,0,0,1,.34,1.29v2.47a7,7,0,0,0,.07,1.12h-.9a6.07,6.07,0,0,0,.07-1.13V87.49c0-.94-.35-1.35-1.15-1.35a1.49,1.49,0,0,0-1.26.72,2.15,2.15,0,0,0-.33,1v2a6.94,6.94,0,0,0,.07,1.12h-.9a7.16,7.16,0,0,0,.07-1.13V87.49c0-.88-.4-1.35-1.12-1.35a1.54,1.54,0,0,0-1.31.76,2.15,2.15,0,0,0-.33,1v2a8,8,0,0,0,.07,1.13Z"/><path class="cls-1" d="M528.44,83.39v.89h-1v-.89Zm0,2.21a7.08,7.08,0,0,0-.07,1.13v3.12A7.87,7.87,0,0,0,528.4,91h-.9a8.68,8.68,0,0,0,.07-1.13V86.73a7.25,7.25,0,0,0-.07-1.13Z"/><path class="cls-1" d="M530.39,89.38a1.12,1.12,0,0,0,.35.73,1.69,1.69,0,0,0,1.16.35c.87,0,1.42-.37,1.42-1a.68.68,0,0,0-.31-.62,3.22,3.22,0,0,0-1.18-.36,3.81,3.81,0,0,1-1.48-.52,1.23,1.23,0,0,1-.54-1,1.37,1.37,0,0,1,.43-1,2.23,2.23,0,0,1,1.56-.51,2.35,2.35,0,0,1,1.57.47,1.69,1.69,0,0,1,.53.91l-.79.13a1,1,0,0,0-.25-.53,1.4,1.4,0,0,0-1-.37c-.73,0-1.25.36-1.25.9a.61.61,0,0,0,.34.54,3.73,3.73,0,0,0,1.11.34,3.78,3.78,0,0,1,1.59.57,1.32,1.32,0,0,1,.48,1c0,1-.85,1.62-2.22,1.62a2.35,2.35,0,0,1-2-.78,2,2,0,0,1-.32-.79Z"/><path class="cls-1" d="M535.76,89.38a1.12,1.12,0,0,0,.35.73,1.69,1.69,0,0,0,1.16.35c.87,0,1.42-.37,1.42-1a.68.68,0,0,0-.31-.62,3.22,3.22,0,0,0-1.18-.36,3.81,3.81,0,0,1-1.48-.52,1.23,1.23,0,0,1-.54-1,1.37,1.37,0,0,1,.43-1,2.23,2.23,0,0,1,1.56-.51,2.35,2.35,0,0,1,1.57.47,1.69,1.69,0,0,1,.53.91l-.79.13a1,1,0,0,0-.25-.53,1.4,1.4,0,0,0-1-.37c-.73,0-1.25.36-1.25.9a.61.61,0,0,0,.34.54,3.73,3.73,0,0,0,1.11.34,3.78,3.78,0,0,1,1.59.57,1.32,1.32,0,0,1,.48,1c0,1-.85,1.62-2.22,1.62a2.35,2.35,0,0,1-2-.78,2,2,0,0,1-.32-.79Z"/><path class="cls-1" d="M541.56,83.39v.89h-1v-.89Zm0,2.21a7.08,7.08,0,0,0-.07,1.13v3.12a7.87,7.87,0,0,0,.07,1.13h-.9a8.68,8.68,0,0,0,.07-1.13V86.73a7.25,7.25,0,0,0-.07-1.13Z"/><path class="cls-1" d="M542.73,88.29a2.67,2.67,0,1,1,2.68,2.82A2.56,2.56,0,0,1,542.73,88.29Zm.77,0c0,1.36.73,2.19,1.9,2.19s1.89-.83,1.89-2.18-.72-2.18-1.87-2.18S543.5,86.92,543.5,88.27Z"/><path class="cls-1" d="M549.23,91a6.38,6.38,0,0,0,.08-1.13V86.73a6.68,6.68,0,0,0-.08-1.13h.83v.67a2.56,2.56,0,0,1,0,.43,2.18,2.18,0,0,1,2-1.2,1.81,1.81,0,0,1,1.6.75,2,2,0,0,1,.28,1.14v2.47A6.78,6.78,0,0,0,554,91h-.9a8.06,8.06,0,0,0,.07-1.13V87.52c0-.9-.43-1.37-1.22-1.37a1.74,1.74,0,0,0-1.43.79,2.06,2.06,0,0,0-.46,1v1.93a8.06,8.06,0,0,0,.07,1.13Z"/><path class="cls-1" d="M559.67,89.81a6.29,6.29,0,0,0,.08,1.17h-1a6.29,6.29,0,0,0,.08-1.17V84.5a7,7,0,0,0-.08-1.14c.35,0,.62,0,1.1,0h2.65a7.79,7.79,0,0,0,1.15-.07v.85a7,7,0,0,0-1.15-.07h-2.88v2.58H562a7.53,7.53,0,0,0,1.14-.08v.84a7,7,0,0,0-1.14-.07h-2.34Z"/><path class="cls-1" d="M568,86.36a2.58,2.58,0,0,0-.81-.14,1.49,1.49,0,0,0-1.23.6,1.65,1.65,0,0,0-.37,1v2a7.82,7.82,0,0,0,.07,1.12h-.9a9.12,9.12,0,0,0,.07-1.13V86.73a7.25,7.25,0,0,0-.07-1.13h.83v.57a2.91,2.91,0,0,1,0,.3,1.8,1.8,0,0,1,.55-.62,2,2,0,0,1,1.2-.34,4.59,4.59,0,0,1,.89.09Z"/><path class="cls-1" d="M569.57,88.4a2.27,2.27,0,0,0,.4,1.4,1.67,1.67,0,0,0,1.41.68A1.63,1.63,0,0,0,573,89.31l.7.28a2.39,2.39,0,0,1-.55.83,2.6,2.6,0,0,1-4.37-2.13c0-1.71,1-2.82,2.48-2.82a2.36,2.36,0,0,1,2.42,2.16c0,.11,0,.5.07.77Zm3.41-.63a1.78,1.78,0,0,0-.53-1.22,1.62,1.62,0,0,0-1.18-.45,1.56,1.56,0,0,0-1.42.86,2.09,2.09,0,0,0-.25.81Z"/><path class="cls-1" d="M575.45,88.4a2.27,2.27,0,0,0,.4,1.4,1.67,1.67,0,0,0,1.41.68,1.63,1.63,0,0,0,1.65-1.17l.7.28a2.39,2.39,0,0,1-.55.83,2.6,2.6,0,0,1-4.37-2.13c0-1.71,1-2.82,2.48-2.82a2.36,2.36,0,0,1,2.42,2.16c0,.11,0,.5.07.77Zm3.41-.63a1.78,1.78,0,0,0-.53-1.22,1.62,1.62,0,0,0-1.18-.45,1.56,1.56,0,0,0-1.42.86,2.09,2.09,0,0,0-.25.81Z"/><path class="cls-1" d="M8.24,82.92c2.55-2.67,4.15-4.83,4.15-7a3,3,0,0,0-3.05-3.08c-1.84,0-3.14,1.56-3.23,3.91H2c.21-5.06,3.32-7.92,7.57-7.92a6.75,6.75,0,0,1,6.93,6.84c0,3.31-2,6.36-5.21,9.86L8.85,88.17H16.7v4H1.4V90.12Z"/><path class="cls-1" d="M35,80.79c0,8-2.5,12-7.67,12a6.58,6.58,0,0,1-5.67-2.64C20,87.89,19.48,85,19.48,81c0-4.39.62-7.54,2.28-9.64a6.64,6.64,0,0,1,5.42-2.58C32.44,68.8,35,72.78,35,80.79Zm-11.24.32c0,5.06,1.14,7.64,3.57,7.64s3.54-2.64,3.54-7.89S29.67,73,27.27,73C24.56,73,23.73,75.7,23.73,81.11Z"/><path class="cls-1" d="M39.07,69.37h6.34V92.21H41.19V73.51H36.63Z"/><path class="cls-1" d="M57.45,68.8a6.29,6.29,0,0,1,6.62,6.39A6.53,6.53,0,0,1,62,79.84a7,7,0,0,1,3.14,5.92c0,3.91-2.59,7.06-7.61,7.06A8.64,8.64,0,0,1,54,92.31a6.69,6.69,0,0,1-4.25-6.55,7,7,0,0,1,3-5.92,6.49,6.49,0,0,1-2-4.71C50.8,71.47,53.42,68.8,57.45,68.8ZM53.88,85.38a3.29,3.29,0,0,0,3.54,3.27c2.1,0,3.54-1.21,3.54-3.18a3.38,3.38,0,0,0-3.48-3.37A3.46,3.46,0,0,0,53.88,85.38Zm1-9.9a2.47,2.47,0,0,0,2.46,2.61A2.56,2.56,0,0,0,57.3,73,2.35,2.35,0,0,0,54.93,75.48Z"/><path class="cls-1" d="M73.31,90.21A2.38,2.38,0,0,1,71,92.66a2.43,2.43,0,0,1-2.37-2.45,2.36,2.36,0,1,1,4.71,0Z"/><path class="cls-1" d="M82.77,82.92c2.56-2.67,4.16-4.83,4.16-7a3,3,0,0,0-3.05-3.08c-1.85,0-3.14,1.56-3.23,3.91h-4.1c.22-5.06,3.33-7.92,7.57-7.92a6.75,6.75,0,0,1,6.93,6.84c0,3.31-2,6.36-5.2,9.86l-2.46,2.67h7.85v4H75.93V90.12Z"/><path class="cls-1" d="M99.19,90.21a2.39,2.39,0,0,1-2.34,2.45,2.43,2.43,0,0,1-2.37-2.45,2.36,2.36,0,1,1,4.71,0Z"/><path class="cls-1" d="M108.64,82.92c2.56-2.67,4.16-4.83,4.16-7a3,3,0,0,0-3-3.08c-1.85,0-3.14,1.56-3.23,3.91h-4.1c.22-5.06,3.33-7.92,7.58-7.92a6.74,6.74,0,0,1,6.92,6.84c0,3.31-2,6.36-5.2,9.86l-2.46,2.67h7.85v4h-15.3V90.12Z"/><path class="cls-1" d="M126.51,82.92c2.55-2.67,4.15-4.83,4.15-7a3,3,0,0,0-3-3.08c-1.84,0-3.14,1.56-3.23,3.91h-4.09c.21-5.06,3.32-7.92,7.57-7.92a6.75,6.75,0,0,1,6.93,6.84c0,3.31-2,6.36-5.21,9.86l-2.46,2.67H135v4h-15.3V90.12Z"/><path class="cls-1" d="M155.86,79.71h15.21v2.13H155.86Z"/><path class="cls-1" d="M184.59,82.92c2.56-2.67,4.16-4.83,4.16-7a3,3,0,0,0-3.05-3.08c-1.85,0-3.14,1.56-3.23,3.91h-4.1c.22-5.06,3.33-7.92,7.58-7.92a6.75,6.75,0,0,1,6.93,6.84c0,3.31-2,6.36-5.21,9.86l-2.46,2.67h7.85v4h-15.3V90.12Z"/><path class="cls-1" d="M201,90.21a2.39,2.39,0,0,1-2.34,2.45,2.43,2.43,0,0,1-2.37-2.45,2.36,2.36,0,1,1,4.71,0Z"/><path class="cls-1" d="M210.46,82.92c2.56-2.67,4.16-4.83,4.16-7a3,3,0,0,0-3.05-3.08c-1.84,0-3.14,1.56-3.23,3.91h-4.1c.22-5.06,3.33-7.92,7.58-7.92a6.75,6.75,0,0,1,6.93,6.84c0,3.31-2,6.36-5.21,9.86l-2.46,2.67h7.85v4h-15.3V90.12Z"/><path class="cls-1" d="M225.37,69.37h10.35v4h-7.21l-.89,4.14a4.21,4.21,0,0,1,1.42-.23c4.09,0,7,3.22,7,7.58a7.64,7.64,0,0,1-7.58,7.89,7.4,7.4,0,0,1-7.51-6.18h4.43A3.39,3.39,0,0,0,231.9,85a3.26,3.26,0,0,0-3.11-3.56,3.5,3.5,0,0,0-2.68,1.37l-3.42-.8Z"/><path d="M263.78,69.37h6.35V92.21h-4.22V73.51h-4.56Z"/><path d="M289.25,80.79c0,8-2.49,12-7.67,12a6.55,6.55,0,0,1-5.66-2.64c-1.66-2.23-2.16-5.13-2.16-9.1,0-4.39.62-7.54,2.28-9.64a6.65,6.65,0,0,1,5.42-2.58C286.73,68.8,289.25,72.78,289.25,80.79ZM278,81.11c0,5.06,1.14,7.64,3.57,7.64s3.55-2.64,3.55-7.89S284,73,281.55,73C278.84,73,278,75.7,278,81.11Z"/><path d="M298,75.05a2.36,2.36,0,1,1-4.71,0,2.36,2.36,0,1,1,4.71,0Zm0,12.89a2.39,2.39,0,0,1-2.34,2.45,2.44,2.44,0,0,1-2.37-2.45,2.36,2.36,0,1,1,4.71,0Z"/><path d="M317.59,80.79c0,8-2.5,12-7.67,12a6.55,6.55,0,0,1-5.66-2.64c-1.67-2.23-2.16-5.13-2.16-9.1,0-4.39.62-7.54,2.28-9.64a6.64,6.64,0,0,1,5.42-2.58C315.06,68.8,317.59,72.78,317.59,80.79Zm-11.24.32c0,5.06,1.14,7.64,3.57,7.64s3.54-2.64,3.54-7.89S312.29,73,309.89,73C307.18,73,306.35,75.7,306.35,81.11Z"/><path d="M335.45,80.79c0,8-2.49,12-7.66,12a6.57,6.57,0,0,1-5.67-2.64C320.46,87.89,320,85,320,81c0-4.39.62-7.54,2.28-9.64a6.65,6.65,0,0,1,5.42-2.58C332.93,68.8,335.45,72.78,335.45,80.79Zm-11.24.32c0,5.06,1.14,7.64,3.58,7.64s3.54-2.64,3.54-7.89S330.16,73,327.75,73C325.05,73,324.21,75.7,324.21,81.11Z"/><path d="M341.77,79.71H357v2.13H341.77Z"/><path d="M365,69.37h6.35V92.21h-4.22V73.51h-4.56Z"/><path d="M382.15,68.8a6.3,6.3,0,0,1,6.62,6.39,6.5,6.5,0,0,1-2.13,4.65,7,7,0,0,1,3.14,5.92c0,3.91-2.58,7.06-7.6,7.06a8.59,8.59,0,0,1-3.48-.51,6.68,6.68,0,0,1-4.25-6.55,7,7,0,0,1,3.05-5.92,6.45,6.45,0,0,1-2-4.71C375.5,71.47,378.11,68.8,382.15,68.8Zm-3.57,16.58a3.29,3.29,0,0,0,3.54,3.27c2.09,0,3.54-1.21,3.54-3.18a3.38,3.38,0,0,0-3.48-3.37A3.46,3.46,0,0,0,378.58,85.38Zm1-9.9a2.48,2.48,0,0,0,2.47,2.61A2.56,2.56,0,0,0,382,73,2.36,2.36,0,0,0,379.62,75.48Z"/><path d="M398.63,75.05a2.36,2.36,0,1,1-4.72,0,2.36,2.36,0,1,1,4.72,0Zm0,12.89a2.39,2.39,0,0,1-2.34,2.45,2.44,2.44,0,0,1-2.38-2.45,2.36,2.36,0,1,1,4.72,0Z"/><path d="M418.18,80.79c0,8-2.49,12-7.66,12a6.57,6.57,0,0,1-5.67-2.64c-1.66-2.23-2.16-5.13-2.16-9.1,0-4.39.62-7.54,2.28-9.64a6.65,6.65,0,0,1,5.42-2.58C415.66,68.8,418.18,72.78,418.18,80.79Zm-11.24.32c0,5.06,1.14,7.64,3.58,7.64s3.54-2.64,3.54-7.89S412.89,73,410.48,73C407.77,73,406.94,75.7,406.94,81.11Z"/><path d="M436.05,80.79c0,8-2.5,12-7.67,12a6.58,6.58,0,0,1-5.67-2.64c-1.66-2.23-2.15-5.13-2.15-9.1,0-4.39.61-7.54,2.28-9.64a6.64,6.64,0,0,1,5.42-2.58C433.52,68.8,436.05,72.78,436.05,80.79Zm-11.24.32c0,5.06,1.14,7.64,3.57,7.64s3.54-2.64,3.54-7.89S430.75,73,428.35,73C425.64,73,424.81,75.7,424.81,81.11Z"/><path class="cls-1" d="M149,68.64v5.67h-2V72.42h-8.63v-2H147V68.64Z"/><path class="cls-1" d="M149,76v2h-4v3.46h4v2H138.34v-2H143V77.92h-4.64V76Z"/><path class="cls-1" d="M149,85.31v2h-7.18c-1.15,0-1.75.54-1.75,1.48a1.52,1.52,0,0,0,.64,1.31,2.74,2.74,0,0,0,1.39.24H149v2H142.2a4.13,4.13,0,0,1-3-.83,3.21,3.21,0,0,1-1.12-2.63,3.3,3.3,0,0,1,1-2.55,4.19,4.19,0,0,1,3.22-.94Z"/><path class="cls-1" d="M243.68,70.41c-.91.47-1.39,1-1.39,1.7a1.11,1.11,0,0,0,1,1.19,1.64,1.64,0,0,0,1.18-.66c1.85-2.13,2.85-3.39,4.36-3.39a2.74,2.74,0,0,1,2.67,2.82,3.79,3.79,0,0,1-1.69,3l-1.33-1.46c.71-.48,1.09-1,1.09-1.54a.78.78,0,0,0-.74-.87,1.3,1.3,0,0,0-.94.6c-1.75,1.91-2.57,3.44-4.51,3.44a2.94,2.94,0,0,1-3-3.14,3.48,3.48,0,0,1,2.3-3.3Z"/><path class="cls-1" d="M251.23,76.16v2h-7.18c-1.15,0-1.74.54-1.74,1.48a1.51,1.51,0,0,0,.63,1.31,2.74,2.74,0,0,0,1.39.24h6.9v2h-6.75a4.11,4.11,0,0,1-3-.83,3.19,3.19,0,0,1-1.13-2.63,3.27,3.27,0,0,1,1-2.55,4.17,4.17,0,0,1,3.22-.94Z"/><path class="cls-1" d="M251.23,84.74V86.5l-7,4.14h7v1.84H240.62V90.71l7-4.13h-7V84.74Z"/></g></g></g></svg>