<svg xmlns="http://www.w3.org/2000/svg" viewBox="0 0 580.57 86.77"><defs><style>.cls-1{fill:#231815;}</style></defs><title>title_aアセット 1</title><g id="レイヤー_2" data-name="レイヤー 2"><g id="top"><path class="cls-1" d="M0,2.07H8.29V84.7H0Z"/><path class="cls-1" d="M58.69,2.07,97.24,84.7H88.38l-13-27.16H39.7L26.81,84.7h-9.2L56.73,2.07Zm-1,17.49L43.38,49.48H71.69Z"/><path class="cls-1" d="M104,84.7,115.77,2.07h1.38l33.6,67.78L184,2.07h1.38L197.13,84.7h-8.06l-8-59.15L151.79,84.7h-2.07L120,25.09,112.09,84.7Z"/><path class="cls-1" d="M245,2.07,283.55,84.7h-8.86l-13-27.16H226L213.13,84.7h-9.21L243.05,2.07Zm-1,17.49L229.7,49.48H258Z"/><path class="cls-1" d="M325.79,18.64c-4.49-5.87-8.4-10.12-15.19-10.12-7.14,0-11.16,5.06-11.16,10.47,0,4.49,2.64,9.2,7.36,12.77,15.54,11.51,26.93,19.45,26.93,32.8,0,11.62-9.78,22.21-23.25,22.21-11.39,0-18.87-6.33-25-17.49l7-4.26c5,9.09,10.93,13.69,17.26,13.69,8.63,0,15.31-6.33,15.31-14,0-9.09-8.52-14.27-27.27-29.46-3.92-3.1-7-9.66-7-15.88,0-11.39,8.86-19.33,20-19.33C321,0,327.06,6.1,332.46,13.46Z"/><path class="cls-1" d="M394.49,50.63c9.67-10.47,15.31-16.8,15.31-25.77C409.8,15.31,402,7.6,392,7.6c-10.47,0-18.18,7.71-19.22,20.36H364.8c.46-16.11,12.08-28,27.5-28,15,0,25.55,11.05,25.55,24.86,0,11.27-6.67,19.1-16.45,29.69L380.8,76.64H419V84.7H362.84Z"/><path class="cls-1" d="M430.4,25.89C433.62,9.32,443.63,0,457.09,0c10.36,0,19.45,6.21,24.29,17.49,3.22,7.37,4.14,15.88,4.14,25.78s-1,18.53-4.14,25.89c-4.84,11.28-13.93,17.61-24.29,17.61-9.2,0-16.8-4.38-21.86-12.78C430.4,66.05,429,55.93,429,43.27A88.66,88.66,0,0,1,430.4,25.89Zm11.39,44c3.57,6,9.44,9.32,15.42,9.32,12,0,20.6-11.5,20.6-35.79S469.29,7.6,457.21,7.6c-6.1,0-11.85,3.56-15.42,9.55-3.8,6.33-4.72,15-4.72,26.23S438,63.52,441.79,69.85Z"/><path class="cls-1" d="M489.43,10.13l4.95-8.06h16.34V84.7h-8.29V10.13Z"/><path class="cls-1" d="M553.07,0c13.58,0,23.59,10.13,23.59,21.75,0,7.59-3.8,13.35-11.63,17.61,10,5.06,15.54,11.5,15.54,21.63,0,13.12-9.55,25.66-28.08,25.66-18.07,0-27.73-12.2-27.73-25,0-10.59,6-17.26,16-22.32-8.28-4.26-12.31-10.71-12.31-17.84C528.44,10.13,539,0,553.07,0ZM532.81,61.91c0,9.09,7.48,17.15,19.8,17.15,12.08,0,19.9-8.4,19.9-18,0-8.75-8.17-17.61-19.44-17.61C541.21,43.5,532.81,52.59,532.81,61.91Zm4.26-40.28c0,7.71,7.71,14.27,15.88,14.27,9.32,0,15.65-7.48,15.65-14.5,0-6.32-5.41-13.34-15.88-13.34C543.74,8.06,537.07,14.15,537.07,21.63Z"/></g></g></svg>