<?xml version="1.0" encoding="utf-8"?>
<!-- Generator: Adobe Illustrator 22.0.1, SVG Export Plug-In . SVG Version: 6.00 Build 0)  -->
<svg version="1.1" id="レイヤー_1" xmlns="http://www.w3.org/2000/svg" xmlns:xlink="http://www.w3.org/1999/xlink" x="0px"
	 y="0px" viewBox="0 0 846.3 293.1" style="enable-background:new 0 0 846.3 293.1;" xml:space="preserve">
<style type="text/css">
	.st0{fill:#004161;}
</style>
<title>titleアセット 1</title>
<g id="レイヤー_2_1_">
	<g id="top">
		<path class="st0" d="M158.6,211.1c0.2,2.7-0.6,5.3-2.3,7.4c-1.8,2.2-4.5,3.5-7.3,3.4c-5.8-0.1-10.4-4.9-10.3-10.8
			s4.9-10.4,10.8-10.3c3,0.1,5.9,1.4,7.8,3.7l-2.6,2.7c-1.4-1.7-3.5-2.7-5.8-2.7c-3.7,0-6.7,2.9-6.7,6.6c0,0.1,0,0.1,0,0.2
			c0,3.8,3,6.9,6.8,7c0.1,0,0.1,0,0.2,0c2.3,0.1,4.5-1.2,5.3-3.4h-5.6v-3.6H158.6z"/>
		<path class="st0" d="M164.5,208.3c0.5-1.7,2.3-2.7,4-2.1c0.2,0.1,0.4,0.1,0.6,0.2l-1.1,3.2c-0.3-0.2-0.7-0.3-1.1-0.3
			c-1,0-1.9,1.2-1.9,3.4c0,0.8,0,1.7,0,2.6v6h-3.6v-14.8h3.1L164.5,208.3z"/>
		<path class="st0" d="M181.5,219.8c-1.1,1.3-2.7,2-4.4,2c-3.7,0-6.9-3.2-6.9-7.8s3-7.8,6.8-7.8c1.7,0,3.4,0.7,4.5,2v-1.6h3.6v14.9
			h-3.6V219.8z M173.9,213.9c0,2.6,1.6,4.4,3.9,4.4s4-1.7,4-4.5s-1.7-4.4-4-4.4S173.9,211.4,173.9,213.9L173.9,213.9z"/>
		<path class="st0" d="M199.4,219.8c-1.1,1.3-2.7,2-4.4,2c-3.7,0-6.9-3.2-6.9-7.8s3-7.8,6.8-7.8c1.7,0,3.4,0.7,4.5,2v-7.4h3.6v20.6
			h-3.6L199.4,219.8z M191.7,213.9c0,2.6,1.6,4.4,3.9,4.4s3.9-1.7,3.9-4.5s-1.7-4.4-3.9-4.4S191.7,211.4,191.7,213.9L191.7,213.9z"
			/>
		<path class="st0" d="M206.1,206.5h3.6v7.8c0,2.7,0.8,4.1,2.7,4.1s2.7-1.4,2.7-3.9v-7.9h3.6v6.9c0,2.8-0.2,4.8-1.7,6.5
			c-1.2,1.3-2.9,2-4.6,1.9c-3.5,0-5.6-1.8-6.2-5.3c-0.1-1-0.2-2.1-0.1-3.1L206.1,206.5z"/>
		<path class="st0" d="M232.5,219.8c-1.1,1.3-2.7,2-4.4,2c-3.7,0-6.9-3.2-6.9-7.8s3-7.8,6.8-7.8c1.7,0,3.4,0.7,4.5,2v-1.6h3.6v14.9
			h-3.6V219.8z M224.8,213.9c0,2.6,1.6,4.4,3.9,4.4s4-1.7,4-4.5s-1.7-4.4-4-4.4S224.8,211.4,224.8,213.9L224.8,213.9z"/>
		<path class="st0" d="M240.7,201h3.6v5.5h2.1v3.2h-2.1v11.7h-3.6v-11.7h-1.8v-3.2h1.8V201z"/>
		<path class="st0" d="M254.3,202.8c0,1.3-1,2.4-2.3,2.4c0,0,0,0,0,0c-1.3-0.1-2.4-1.2-2.3-2.6c0-1.3,1-2.3,2.3-2.3c0,0,0,0,0,0
			C253.3,200.4,254.3,201.5,254.3,202.8C254.3,202.8,254.3,202.8,254.3,202.8z M250.2,206.5h3.6v14.9h-3.6V206.5z"/>
		<path class="st0" d="M270.9,213.9c-0.1,4.2-3.6,7.4-7.8,7.3s-7.4-3.6-7.3-7.8c0.1-4,3.4-7.2,7.5-7.3c4.2,0,7.6,3.4,7.6,7.6
			C270.9,213.8,270.9,213.8,270.9,213.9z M259.5,213.9c0,2.5,1.5,4.3,3.9,4.3c2.2,0,4-1.8,4-4c0-0.1,0-0.2,0-0.3
			c0-2.5-1.6-4.3-4-4.3c-2.2,0.1-3.9,1.9-3.9,4.1C259.5,213.8,259.5,213.8,259.5,213.9z"/>
		<path class="st0" d="M276.9,208c1.1-1.2,2.6-1.8,4.2-1.9c2.7-0.1,4.9,2,4.9,4.7c0,0.1,0,0.3,0,0.4v10.2h-3.6v-7
			c0-2.9-0.2-4.8-2.4-4.8c-1,0-1.9,0.5-2.4,1.4c-0.6,1.3-0.9,2.7-0.7,4.1v6.3h-3.6v-14.9h3.6L276.9,208z"/>
		<path class="st0" d="M308.9,219.8c-1.1,1.3-2.7,2-4.5,2c-3.7,0-6.9-3.2-6.9-7.8s3-7.8,6.8-7.8c1.7,0,3.4,0.7,4.5,2v-1.6h3.6v14.9
			h-3.6L308.9,219.8z M301.2,213.9c0,2.6,1.6,4.4,3.9,4.4s4-1.7,4-4.5s-1.7-4.4-4-4.4S301.2,211.4,301.2,213.9L301.2,213.9z"/>
		<path class="st0" d="M319.7,208c1.1-1.2,2.6-1.8,4.2-1.9c2.7-0.1,4.9,2,4.9,4.7c0,0.1,0,0.3,0,0.4v10.2h-3.6v-7
			c0-2.9-0.2-4.8-2.4-4.8c-1,0-1.9,0.5-2.4,1.4c-0.6,1.3-0.9,2.7-0.7,4.1v6.3h-3.6v-14.9h3.6L319.7,208z"/>
		<path class="st0" d="M343,219.8c-1.1,1.3-2.7,2-4.4,2c-3.7,0-6.9-3.2-6.9-7.8s3-7.8,6.8-7.8c1.7,0,3.4,0.7,4.5,2v-7.4h3.6v20.6
			H343V219.8z M335.3,213.9c0,2.6,1.6,4.4,3.9,4.4s4-1.7,4-4.5s-1.7-4.4-4-4.4S335.4,211.4,335.3,213.9L335.3,213.9z"/>
		<path class="st0" d="M359.3,201.2h4.5c2.5,0,4.3,0.4,5.5,1.6c1,1.1,1.6,2.6,1.6,4.2c0.1,1.9-0.8,3.7-2.5,4.8c-1.6,1-3.4,1-5.4,1
			v8.5h-3.7V201.2z M363,209.1h1.7c1.7,0,2.5-0.7,2.5-2s-0.9-2.1-2.7-2.1H363L363,209.1z"/>
		<path class="st0" d="M376.4,208.3c0.4-1.3,1.6-2.2,3-2.3c0.5,0,1.1,0.1,1.6,0.4l-1.1,3.2c-0.3-0.2-0.7-0.3-1.1-0.3
			c-1,0-1.8,1.2-1.9,3.4c0,0.8,0,1.7,0,2.6v6h-3.6v-14.8h3.1L376.4,208.3z"/>
		<path class="st0" d="M396.7,213.9c-0.1,4.2-3.6,7.4-7.8,7.3s-7.4-3.6-7.3-7.8c0.1-4,3.4-7.2,7.5-7.3c4.2,0,7.6,3.4,7.6,7.6
			C396.7,213.7,396.7,213.8,396.7,213.9z M385.2,213.9c0,2.5,1.5,4.3,3.9,4.3c2.2,0,4-1.8,4-4c0-0.1,0-0.2,0-0.3
			c0-2.5-1.6-4.3-4-4.3c-2.2,0.1-3.9,1.9-3.9,4.1C385.2,213.8,385.2,213.8,385.2,213.9L385.2,213.9z"/>
		<path class="st0" d="M400.1,206.5h3.6v15.8c0,3.3-1.3,4.9-3.8,4.9c-0.9,0-1.8-0.2-2.7-0.6v-2.9c0.5,0.3,1,0.4,1.5,0.4
			c1.1,0,1.4-0.7,1.4-2V206.5z M404.1,202.8c0,1.3-1,2.4-2.3,2.4c0,0,0,0,0,0c-1.3-0.1-2.4-1.2-2.3-2.6c0-1.2,1-2.3,2.2-2.3
			c0,0,0,0,0,0C403.1,200.4,404.2,201.5,404.1,202.8L404.1,202.8z"/>
		<path class="st0" d="M421.2,218.4c-1.4,2.2-4,3.5-6.6,3.3c-4.6,0-7.5-3.5-7.5-7.8c0-4.1,2.9-7.8,7.5-7.8s7.6,3.4,7.6,8.1
			c0,0.3,0,0.5,0,0.8h-11.6c0.2,2,2,3.5,4,3.4c1.4,0.1,2.7-0.5,3.6-1.5L421.2,218.4z M418.6,212c-0.7-2.2-3.1-3.3-5.3-2.6
			c-1.2,0.4-2.2,1.4-2.6,2.6H418.6z"/>
		<path class="st0" d="M439,218.6c-1.5,2.1-4,3.2-6.5,3.1c-4.9,0-8.1-3.4-8.1-7.8c-0.1-4.3,3.4-7.8,7.7-7.9c0.2,0,0.3,0,0.5,0
			c2.7-0.1,5.2,1.2,6.6,3.4l-3,1.7c-0.9-1.1-2.2-1.7-3.6-1.7c-2.4-0.1-4.4,1.7-4.6,4c0,0.2,0,0.3,0,0.5c-0.1,2.3,1.6,4.2,3.9,4.3
			c0.2,0,0.3,0,0.5,0c1.5,0.1,2.9-0.6,3.8-1.7L439,218.6z"/>
		<path class="st0" d="M443.4,201h3.6v5.5h2.1v3.2H447v11.7h-3.6v-11.7h-1.9v-3.2h1.9V201z"/>
		<path class="st0" d="M461,201.2h4.5c2.5,0,4.2,0.3,5.5,1.6c1.1,1.1,1.6,2.6,1.6,4.2c0.1,2.4-1.4,4.6-3.7,5.4l4.6,8.9h-4l-4.5-8.5
			h-0.4v8.5H461V201.2z M464.7,209.1h1.7c1.7,0,2.5-0.7,2.5-2.1s-0.9-2-2.6-2h-1.6V209.1z"/>
		<path class="st0" d="M488.4,218.4c-1.4,2.2-4,3.5-6.6,3.3c-4.6,0-7.5-3.5-7.5-7.8c0-4.1,2.9-7.8,7.5-7.8s7.6,3.4,7.6,8.1
			c0,0.3,0,0.5,0,0.8h-11.6c0.2,2,2,3.5,4,3.4c1.4,0.1,2.7-0.4,3.6-1.4L488.4,218.4z M485.8,212c-0.7-2.2-3.1-3.3-5.3-2.6
			c-1.2,0.4-2.2,1.4-2.6,2.6H485.8z"/>
		<path class="st0" d="M495.2,214.9c-2.3-1.2-3.5-2.7-3.5-4.5c0.1-2.4,2.1-4.3,4.5-4.3c0.1,0,0.1,0,0.2,0c1.9,0,3.7,0.9,4.7,2.5
			l-2.2,2.3c-0.6-0.8-1.5-1.3-2.5-1.4c-0.7,0-1.3,0.3-1.3,0.9s0.5,0.8,1.3,1.2l1.3,0.7c2.4,1.3,3.7,2.6,3.7,4.8c0,2.7-2,4.6-5.2,4.6
			c-2,0-3.9-0.9-5-2.6l2.2-2.5c0.7,1,1.8,1.6,3,1.7c0.9,0,1.6-0.5,1.6-1.2s-0.6-1.1-1.6-1.7L495.2,214.9z"/>
		<path class="st0" d="M517.7,218.4c-1.4,2.2-4,3.5-6.6,3.3c-4.6,0-7.5-3.5-7.5-7.8c0-4.1,2.8-7.8,7.5-7.8s7.6,3.4,7.6,8.1
			c0,0.3,0,0.5,0,0.8h-11.6c0.2,2,2,3.5,4,3.4c1.4,0.1,2.7-0.5,3.6-1.5L517.7,218.4z M515,212c-0.7-2.2-3.1-3.3-5.3-2.6
			c-1.2,0.4-2.2,1.4-2.6,2.6H515z"/>
		<path class="st0" d="M532.2,219.8c-1.1,1.3-2.7,2-4.4,2c-3.7,0-6.9-3.2-6.9-7.8s3-7.8,6.8-7.8c1.7,0,3.4,0.7,4.5,2v-1.6h3.6v14.9
			h-3.6V219.8z M524.5,213.9c0,2.6,1.6,4.4,3.9,4.4s4-1.7,4-4.5s-1.7-4.4-4-4.4S524.5,211.4,524.5,213.9L524.5,213.9z"/>
		<path class="st0" d="M542.8,208.3c0.4-1.3,1.6-2.2,3-2.3c0.5,0,1.1,0.1,1.6,0.4l-1.1,3.2c-0.3-0.2-0.7-0.3-1.1-0.3
			c-1,0-1.8,1.2-1.9,3.4c0,0.8,0,1.7,0,2.6v6h-3.6v-14.8h3.1L542.8,208.3z"/>
		<path class="st0" d="M563.1,218.6c-1.5,2.1-4,3.2-6.5,3.1c-4.9,0-8.1-3.4-8.1-7.8c-0.1-4.3,3.4-7.8,7.7-7.9c0.2,0,0.3,0,0.5,0
			c2.7-0.1,5.2,1.2,6.6,3.4l-3,1.7c-0.9-1.1-2.2-1.7-3.6-1.7c-2.4-0.1-4.4,1.7-4.5,4.1c0,0.1,0,0.3,0,0.4c-0.1,2.3,1.6,4.2,3.9,4.3
			c0.2,0,0.3,0,0.5,0c1.5,0.1,2.9-0.6,3.8-1.7L563.1,218.6z"/>
		<path class="st0" d="M566,200.7h3.6v7.3c1.1-1.2,2.6-1.8,4.2-1.9c2.7,0,4.9,1.8,4.9,5.4v9.8h-3.6v-7c0-3-0.3-4.8-2.5-4.8
			c-1,0-1.9,0.6-2.4,1.4c-0.7,1.2-0.7,2.5-0.7,4.1v6.3H566V200.7z"/>
		<path class="st0" d="M591.4,201.2H602v3.8h-6.9v3.6h6.9v3.8h-6.9v5.3h6.9v3.8h-10.6V201.2z"/>
		<path class="st0" d="M604.3,206.5h4.2l2.8,4.1l2.8-4.1h4.2l-4.9,7l5.5,7.8h-4.2l-3.4-4.9l-3.4,4.9h-4.1l5.4-7.8L604.3,206.5z"/>
		<path class="st0" d="M620.2,200.7h3.6v7.3c1.1-1.2,2.6-1.8,4.3-1.9c2.7,0,4.9,1.8,4.9,5.4v9.8h-3.6v-7c0-3-0.3-4.8-2.5-4.8
			c-1,0-1.9,0.6-2.4,1.4c-0.7,1.2-0.7,2.5-0.7,4.1v6.3h-3.6V200.7z"/>
		<path class="st0" d="M640.7,202.8c0,1.3-1,2.4-2.3,2.4c0,0,0,0,0,0c-1.3-0.1-2.4-1.2-2.3-2.6c0-1.3,1-2.3,2.3-2.3c0,0,0,0,0,0
			C639.8,200.4,640.8,201.5,640.7,202.8C640.7,202.8,640.7,202.8,640.7,202.8z M636.6,206.5h3.6v14.9h-3.6V206.5z"/>
		<path class="st0" d="M648.2,221.3h-3.6v-20.6h3.6v7.4c1.2-1.3,2.8-2,4.5-2c3.7,0,6.8,3.2,6.8,7.8s-3.2,7.8-6.9,7.8
			c-1.7,0-3.3-0.7-4.5-2V221.3z M648,213.9c0,2.7,1.7,4.5,4,4.5s3.9-1.9,3.9-4.4s-1.5-4.4-3.9-4.4S648,211.2,648,213.9L648,213.9z"
			/>
		<path class="st0" d="M666.2,202.8c0,1.3-1,2.4-2.3,2.4c0,0,0,0,0,0c-1.3-0.1-2.4-1.2-2.3-2.6c0-1.3,1-2.3,2.3-2.3c0,0,0,0,0,0
			C665.2,200.4,666.3,201.5,666.2,202.8C666.2,202.8,666.2,202.8,666.2,202.8z M662.1,206.5h3.6v14.9h-3.6V206.5z"/>
		<path class="st0" d="M671,201h3.6v5.5h2.1v3.2h-2.1v11.7H671v-11.7h-1.8v-3.2h1.8V201z"/>
		<path class="st0" d="M684.1,202.8c0,1.3-1,2.4-2.3,2.4c0,0,0,0,0,0c-1.3-0.1-2.4-1.2-2.3-2.6c0-1.3,1-2.3,2.3-2.3c0,0,0,0,0,0
			C683.1,200.4,684.1,201.5,684.1,202.8C684.1,202.8,684.1,202.8,684.1,202.8z M680,206.5h3.6v14.9H680V206.5z"/>
		<path class="st0" d="M701.3,213.9c-0.1,4.2-3.6,7.4-7.8,7.3s-7.4-3.6-7.3-7.8c0.1-4,3.4-7.2,7.5-7.3c4.2,0,7.6,3.4,7.6,7.6
			C701.3,213.7,701.3,213.8,701.3,213.9z M689.8,213.9c0,2.5,1.5,4.3,3.9,4.3c2.2,0,4-1.8,4-4c0-0.1,0-0.2,0-0.2
			c0-2.5-1.6-4.3-4-4.3c-2.2,0.1-3.9,1.9-3.9,4.1C689.8,213.8,689.8,213.8,689.8,213.9z"/>
		<path class="st0" d="M708.4,208c1.1-1.2,2.6-1.8,4.2-1.9c2.7-0.1,4.9,2,4.9,4.7c0,0.1,0,0.3,0,0.4v10.2h-3.6v-7
			c0-2.9-0.2-4.8-2.4-4.8c-1,0-1.9,0.5-2.4,1.4c-0.6,1.3-0.9,2.7-0.7,4.1v6.3h-3.6v-14.9h3.6V208z"/>
		<path class="st0" d="M137.7,243.1c0.5-1.5,0.7-3,0.7-4.5l0.9,0.3c0,1.6-0.3,3.2-0.7,4.7L137.7,243.1z M139.8,250.8
			c0.1-0.7,0.1-1.3,0.1-2v-11.7c0-0.6,0-1.1-0.1-1.7h1.3c-0.1,0.6-0.1,1.1-0.1,1.7v11.8c0,0.6,0,1.3,0.1,1.9L139.8,250.8z
			 M141.9,240.6c-0.2-0.8-0.4-1.6-0.8-2.3l0.7-0.3c0.3,0.7,0.6,1.5,0.8,2.2L141.9,240.6z M144.2,237.5c-0.5,0-1,0-1.6,0.1v-1.1
			c0.5,0.1,1,0.1,1.6,0.1h2.5c0-0.4,0-0.9-0.1-1.3h1.2c-0.1,0.4-0.1,0.9-0.1,1.3h3c0.5,0,1.1,0,1.6-0.1v1.1
			c-0.5-0.1-1.1-0.1-1.6-0.1h-3.1v1.2h2.6c0.5,0,1,0,1.5-0.1v1c-0.5-0.1-1-0.1-1.5-0.1h-2.6v1.3h3.4c0.5,0,1.1,0,1.6-0.1v1.1
			c-0.5-0.1-1.1-0.1-1.6-0.1h-7c-0.6,0-1.1,0-1.7,0.1v-1.1c0.6,0.1,1.1,0.1,1.7,0.1h2.7v-1.3h-2c-0.5,0-1,0-1.5,0.1v-1
			c0.5,0.1,1,0.1,1.5,0.1h2v-1.2H144.2z M144.3,248.9c0,0.6,0,1.2,0.1,1.8h-1.2c0.1-0.6,0.1-1.2,0.1-1.8v-4.8c0-0.5,0-1-0.1-1.5
			c0.5,0,1,0.1,1.5,0.1h5.1c0.5,0,1,0,1.5-0.1c-0.1,0.6-0.1,1.2-0.1,1.8v4.8c0,1.1-0.3,1.3-1.6,1.3c-0.4,0-1,0-1.7-0.1
			c0-0.4-0.1-0.7-0.3-1.1c0.6,0.1,1.2,0.2,1.8,0.2c0.6,0,0.6-0.1,0.6-0.5v-1.3h-6L144.3,248.9z M150.3,244.9v-1.3h-6v1.3H150.3z
			 M150.3,247v-1.3h-6v1.3L150.3,247z"/>
		<path class="st0" d="M161.1,240c0.4,0,0.9,0,1.3-0.1v1.1c-0.4-0.1-0.9-0.1-1.3-0.1h-4.6c-0.4,0-0.9,0-1.3,0.1v-1.1
			c0.4,0.1,0.9,0.1,1.3,0.1h2v-1.7h-1.5c-0.4,0-0.8,0-1.2,0.1v-1.1c0.4,0.1,0.8,0.1,1.2,0.1h1.5v-0.5c0-0.5,0-1-0.1-1.5h1.2
			c-0.1,0.5-0.1,1-0.1,1.5v0.5h1.3c0.4,0,0.8,0,1.2-0.1v1.1c-0.4-0.1-0.8-0.1-1.2-0.1h-1.3v1.8H161.1z M161.1,243.8
			c0.4,0,0.9,0,1.3-0.1v1.1c-0.4-0.1-0.9-0.1-1.3-0.1h-1.7v1.7h1.5c0.4,0,0.8,0,1.2-0.1v1.1c-0.4-0.1-0.8-0.1-1.2-0.1h-1.5v1.7
			c0,0.5,0,1.1,0.1,1.6h-1.2c0.1-0.5,0.1-1.1,0.1-1.6v-1.7h-1.7c-0.4,0-0.8,0-1.2,0.1v-1.1c0.4,0.1,0.8,0.1,1.2,0.1h1.7v-1.7h-2
			c-0.4,0-0.9,0-1.3,0.1v-1.1c0.4,0.1,0.9,0.1,1.3,0.1h3c0.4-0.8,0.7-1.7,0.9-2.7l0.9,0.3c-0.2,0.8-0.5,1.6-0.9,2.4H161.1z
			 M157.1,243.6c-0.1-0.8-0.4-1.5-0.6-2.2l0.8-0.3c0.3,0.7,0.5,1.4,0.7,2.2L157.1,243.6z M163.8,242.4v6.7c0,0.6,0,1.1,0.1,1.7h-1.2
			c0.1-0.6,0.1-1.1,0.1-1.7v-11.4c0-0.6,0-1.1-0.1-1.6c0.5,0.1,1,0.1,1.5,0.1h3.8c0.5,0,0.9,0,1.4-0.1c0,0.3,0,0.3-0.1,1.2
			c0,0.8-0.2,1.7-0.5,2.4c-0.2,0.4-0.6,0.5-1.4,0.5c-0.5,0-1.1,0-1.6-0.1c0-0.3-0.1-0.7-0.2-1c0.6,0.1,1.3,0.2,1.9,0.2
			c0.6,0,0.7-0.2,0.9-2.2h-4.5v4.3h3.6c0.4,0,0.9,0,1.3-0.1l0.6,0.6c-0.1,0.2-0.2,0.5-0.2,0.7c-0.3,1.6-0.9,3.1-1.7,4.5
			c0.8,1,1.7,1.8,2.8,2.5c-0.3,0.3-0.5,0.6-0.7,0.9c-1-0.7-1.9-1.6-2.6-2.5c-0.6,0.9-1.3,1.8-2.2,2.5c-0.2-0.3-0.5-0.6-0.7-0.9
			c0.9-0.7,1.7-1.5,2.3-2.5c-1-1.5-1.6-3.2-1.9-4.9L163.8,242.4z M165.2,242.4c0.3,1.4,0.8,2.8,1.6,4c0.6-1.3,1.1-2.6,1.3-4H165.2z"
			/>
		<path class="st0" d="M175.1,237.5c-0.9,0.2-1.2,0.2-2.2,0.4c-0.1-0.3-0.3-0.6-0.5-0.9c1.6-0.1,3.2-0.5,4.7-1.1
			c0.3-0.1,0.5-0.2,0.8-0.4l0.6,0.9c-0.8,0.4-1.6,0.7-2.4,0.9v2.6h1.1c0.4,0,0.8,0,1.1-0.1v1.1c-0.4-0.1-0.8-0.1-1.2-0.1h-1.1
			c0.5,1.2,1.3,2.2,2.4,3c-0.2,0.3-0.5,0.6-0.6,0.9c-0.8-0.8-1.4-1.7-1.9-2.7c0,0.2,0,1.1,0.1,2.6v4.2c0,0.7,0,1.3,0.1,2H175
			c0.1-0.7,0.1-1.3,0.1-2V245c0-0.6,0-1.6,0.1-2.7c-0.5,1.8-1.3,3.5-2.5,5c-0.2-0.4-0.4-0.7-0.6-1c1.4-1.6,2.4-3.5,2.9-5.5h-1.1
			c-0.5,0-1,0-1.5,0.1v-1.2c0.5,0.1,1,0.1,1.5,0.1h1.2L175.1,237.5z M179.7,247.4c-0.6,0.2-1.1,0.3-1.5,0.5l-0.1-1.2
			c0.5,0,1.1-0.1,1.6-0.3l4.5-1.1v-8c0-0.6,0-1.2-0.1-1.8h1.2c-0.1,0.6-0.1,1.2-0.1,1.8v7.7l0.3-0.1c0.5-0.1,1-0.3,1.6-0.5l0.1,1.2
			c-0.5,0.1-1,0.2-1.6,0.3l-0.4,0.1v2.9c0,0.6,0,1.2,0.1,1.9H184c0.1-0.6,0.1-1.2,0.1-1.9v-2.6L179.7,247.4z M179.6,240.9
			c1.1,0.7,2.1,1.6,3,2.6l-0.6,0.9c-0.9-1.1-1.9-2-3-2.7L179.6,240.9z M180.1,236.7c1.1,0.8,2.2,1.7,3.1,2.7l-0.6,0.9
			c-0.9-1.1-1.9-2-3.1-2.8L180.1,236.7z"/>
		<path class="st0" d="M197.2,249.4c0,1-0.3,1.3-1.9,1.3c-0.5,0-1.3,0-1.9-0.1c-0.1-0.4-0.2-0.7-0.3-1.1c0.7,0.1,1.4,0.2,2.1,0.2
			c0.8,0,0.9-0.1,0.9-0.4v-3.4h-4.9c-0.6,0-1.2,0-1.7,0.1v-1.2c0.6,0.1,1.1,0.1,1.7,0.1h4.9v-0.3c0-0.3,0-0.7,0-1h0.7
			c1.1-0.5,2-1.2,2.9-1.9h-6c-0.5,0-1,0-1.6,0.1v-1.1c0.5,0.1,1.1,0.1,1.6,0.1h5.9c0.4,0,0.8,0,1.2-0.1l0.6,0.7
			c-0.2,0.2-0.2,0.2-0.6,0.5c-1.1,1-2.4,1.8-3.8,2.5v0.5h4.9c0.6,0,1.2,0,1.7-0.1v1.2c-0.6-0.1-1.2-0.1-1.7-0.1h-4.9L197.2,249.4z
			 M192.8,238.1c-0.4-0.8-1-1.5-1.6-2.2l1-0.3c0.6,0.8,1.2,1.6,1.7,2.5h2.4c-0.3-0.9-0.7-1.7-1.2-2.4l1-0.3c0.5,0.9,0.9,1.8,1.2,2.7
			h1.8c0.7-0.8,1.3-1.7,1.7-2.7l1,0.5c-0.5,0.8-1,1.6-1.6,2.3h1.3c0.6,0,1.3,0,1.9-0.1c-0.1,0.5-0.1,0.9-0.1,1.4v1.3
			c0,0.4,0,0.8,0.1,1.2h-1.1V239h-11.6v2.9h-1.1c0.1-0.4,0.1-0.8,0.1-1.2v-1.3c0-0.5,0-0.9-0.1-1.4c0.6,0.1,1.2,0.1,1.9,0.1H192.8z"
			/>
		<path class="st0" d="M210.8,236.8c0-0.4,0-0.8-0.1-1.2h1.2c-0.1,0.4-0.1,0.8-0.1,1.2v0.6h3.8v-0.6c0-0.4,0-0.8-0.1-1.2h1.2
			c-0.1,0.4-0.1,0.8-0.1,1.2v0.6h2.6c0.6,0,1.2,0,1.8-0.1v1.2c-0.6-0.1-1.2-0.1-1.8-0.1h-2.6v0.6c0,0.4,0,0.7,0.1,1.1h-1.1
			c0.1-0.4,0.1-0.8,0.1-1.1v-0.5h-3.8v0.5c0,0.4,0,0.8,0.1,1.1h-1.1c0-0.4,0.1-0.7,0.1-1.1v-0.6h-2.5c-0.6,0-1.2,0-1.8,0.1v-1.2
			c0.6,0.1,1.2,0.1,1.8,0.1h2.5L210.8,236.8z M208.3,245c-0.6,0-1.1,0-1.7,0.1v-1.2c0.6,0.1,1.1,0.1,1.7,0.1h11.1
			c0.6,0,1.1,0,1.7-0.1v1.2c-0.6-0.1-1.1-0.1-1.7-0.1H213c-0.6,1.3-1.3,2.6-2.2,3.8c3.2-0.2,4.8-0.3,6.7-0.6c-0.6-0.7-1.3-1.4-2-2
			l0.9-0.6c1.5,1.3,2.8,2.8,4.1,4.4l-1,0.7c-0.4-0.6-0.8-1.1-1.2-1.7c-2.4,0.4-5.6,0.7-8.9,0.9c-0.7,0-1.4,0.1-2.1,0.2l-0.2-1.2
			c0.3,0,0.7,0.1,1,0.1l1.4-0.1c0.9-1.2,1.6-2.5,2.2-3.9H208.3z M219.1,242c-0.5-0.1-1.1-0.1-1.6-0.1H210c-0.6,0-1.1,0-1.7,0.1v-1.2
			c0.6,0.1,1.1,0.1,1.7,0.1h7.5c0.6,0,1.1,0,1.6-0.1L219.1,242z"/>
		<path class="st0" d="M225.1,244.8c0-0.7,0-1.2,0-2c-0.4,0.6-0.9,1.1-1.4,1.6c-0.1-0.4-0.3-0.7-0.6-1c1.1-0.8,2-1.8,2.6-3
			c0.3-0.5,0.5-1,0.7-1.5l1,0.6c-0.2,0.3-0.4,0.6-0.5,0.9s-0.6,0.9-0.8,1.3v6.9c0,0.7,0,1.3,0.1,2H225c0.1-0.7,0.1-1.3,0.1-2
			L225.1,244.8z M227.3,235.9c-0.2,0.3-0.2,0.3-0.7,0.9c-0.8,1-1.6,1.9-2.6,2.7c-0.2-0.3-0.4-0.6-0.6-0.8c1.3-0.9,2.3-2,3-3.4
			L227.3,235.9z M229.1,241.4c0,2.5-0.5,5-1.4,7.3c-0.3-0.2-0.6-0.4-0.9-0.5c0.9-2.2,1.3-4.5,1.3-6.9L229.1,241.4z M232.2,238.9
			c0.5,0,1,0,1.4-0.1v1.1c-0.4-0.1-0.9-0.1-1.3-0.1h-1.1v8.9c0,0.6,0,1.3,0.1,1.9h-1.2c0.1-0.6,0.1-1.3,0.1-1.9v-8.9H229
			c-0.4,0-0.9,0-1.3,0.1v-1.1c0.5,0.1,1,0.1,1.4,0.1h1.1v-1.8c0-0.5,0-1.1-0.1-1.6h1.2c-0.1,0.5-0.1,1.1-0.1,1.6v1.8H232.2z
			 M232.4,235.8c0.5,0.6,1,1.3,1.4,2.1l-0.8,0.5c-0.4-0.8-0.8-1.5-1.4-2.2L232.4,235.8z M232.9,241.2c0.6,2,1.1,4.1,1.3,6.3l-1,0.4
			c-0.2-2.2-0.6-4.3-1.2-6.3L232.9,241.2z M234.8,241c-0.4,0-0.8,0-1.2,0.1V240c0.4,0.1,0.8,0.1,1.2,0.1h2.2c0.4,0,0.9,0,1.3-0.1
			v1.1c-0.4-0.1-0.9-0.1-1.3-0.1h-0.4v8.1c0,0.6-0.1,1-0.5,1.1c-0.4,0.1-0.9,0.2-1.4,0.2c-0.4,0-1.1,0-1.5-0.1
			c0-0.4-0.1-0.7-0.2-1.1c0.7,0.1,1.3,0.2,2,0.2c0.4,0,0.5-0.1,0.5-0.4V241L234.8,241z M238.1,237.6c-0.4-0.1-0.8-0.1-1.2-0.1h-1.6
			c-0.4,0-0.8,0-1.2,0.1v-1.1c0.4,0.1,0.8,0.1,1.2,0.1h1.6c0.4,0,0.8,0,1.2-0.1L238.1,237.6z"/>
		<path class="st0" d="M249.1,240.6c0.5,2,1.4,3.9,2.7,5.5c1.2,1.4,2.7,2.6,4.5,3.3c-0.3,0.3-0.5,0.7-0.7,1.1
			c-3.4-1.7-5.9-4.7-6.9-8.4c-0.4,2.3-1.5,4.5-3.2,6.1c-1,1-2.2,1.7-3.6,2.3c-0.2-0.4-0.4-0.7-0.7-1c1.7-0.6,3.2-1.6,4.3-3
			c1.3-1.7,2.1-3.8,2.3-5.9h-4.5c-0.6,0-1.2,0-1.8,0.1v-1.3c0.6,0.1,1.2,0.1,1.8,0.1h4.5c0-0.8,0.1-1.4,0.1-2c0-0.6,0-1.2-0.1-1.9
			h1.4c-0.1,0.6-0.1,1.2-0.1,1.8c0,0.9,0,1.4-0.1,2.1h5c0.6,0,1.2,0,1.8-0.1v1.3c-0.6-0.1-1.2-0.1-1.8-0.1L249.1,240.6z"/>
		<path class="st0" d="M266,249.4c0,1-0.3,1.3-1.8,1.3c-0.5,0-1.3,0-1.9-0.1c-0.1-0.4-0.2-0.7-0.4-1.1c0.7,0.1,1.4,0.2,2.2,0.2
			c0.8,0,0.9-0.1,0.9-0.4v-3.4H260c-0.6,0-1.2,0-1.7,0.1v-1.2c0.6,0.1,1.1,0.1,1.7,0.1h5v-0.3c0-0.3,0-0.7,0-1h0.7
			c1.1-0.5,2.1-1.2,3-1.9h-6c-0.5,0-1,0-1.6,0.1v-1.1c0.5,0.1,1.1,0.1,1.6,0.1h5.9c0.4,0,0.8,0,1.2-0.1l0.6,0.7
			c-0.2,0.2-0.2,0.2-0.6,0.5c-1.1,1-2.4,1.8-3.8,2.5v0.5h4.9c0.6,0,1.2,0,1.7-0.1v1.2c-0.6-0.1-1.2-0.1-1.8-0.1H266V249.4z
			 M261.6,238.1c-0.4-0.8-0.9-1.5-1.5-2.2l1-0.3c0.6,0.8,1.2,1.6,1.7,2.5h2.4c-0.3-0.9-0.7-1.7-1.2-2.4l1-0.3
			c0.5,0.9,0.9,1.8,1.2,2.7h1.9c0.7-0.8,1.3-1.7,1.7-2.7l1,0.5c-0.5,0.8-1,1.6-1.6,2.3h1.3c0.6,0,1.3,0,1.9-0.1
			c-0.1,0.5-0.1,0.9-0.1,1.4v1.3c0,0.4,0,0.8,0.1,1.2h-1.1V239h-11.6v2.9h-1.1c0.1-0.4,0.1-0.8,0.1-1.2v-1.3c0-0.5,0-0.9-0.1-1.4
			c0.6,0.1,1.2,0.1,1.9,0.1H261.6z"/>
		<path class="st0" d="M275.4,237.2c0-0.5,0-0.9,0-1.3c0.4,0,0.7,0.1,1.1,0.1h2.2c0.3,0,0.7,0,1-0.1l0.5,0.6c0,0.1-0.1,0.3-0.2,0.5
			c-0.5,1.3-1.1,2.6-1.7,3.9c0.6,0.6,1,1.4,1.4,2.2c0.2,0.6,0.4,1.3,0.4,2c0,1-0.3,1.5-0.9,1.6c-0.4,0.1-0.9,0.1-1.3,0.1h-0.6
			c0-0.4-0.1-0.7-0.2-1.1c0.4,0.1,0.7,0.1,1.1,0.1c0.8,0,0.9-0.1,0.9-0.9c0-0.8-0.2-1.6-0.6-2.3c-0.3-0.6-0.8-1.2-1.2-1.7
			c0.7-1.3,1.3-2.7,1.8-4.2h-2.5v12.2c0,0.5,0,1.1,0.1,1.6h-1.2c0.1-0.5,0.1-1.1,0.1-1.6L275.4,237.2z M281.8,243.7
			c-0.5,0-1,0-1.5,0.1v-1.1c0.5,0.1,1,0.1,1.5,0.1h6.2c0.5,0,1,0,1.6-0.1v1.1c-0.5-0.1-1-0.1-1.6-0.1h-1.6v5.3
			c0,0.4,0.2,0.4,1.2,0.4c1.1,0,1.1,0,1.3-2.7c0.3,0.2,0.6,0.4,1,0.4c-0.2,3-0.4,3.2-2.3,3.2c-0.5,0-1,0-1.5-0.1
			c-0.5-0.1-0.7-0.4-0.7-0.9v-5.7h-1.7c-0.1,2.4-0.4,3.5-1.2,4.6c-0.9,1.1-2.1,2-3.5,2.4c-0.2-0.3-0.5-0.6-0.7-0.9
			c2.1-0.7,3-1.3,3.6-2.5c0.6-1.1,0.9-2.4,0.8-3.6L281.8,243.7z M284,236.6c0-0.4,0-0.9-0.1-1.3h1.2c-0.1,0.4-0.1,0.9-0.1,1.3v0.7
			h2.8c0.5,0,1.1,0,1.6-0.1c0,0.4-0.1,0.7,0,1.1v1.1c0,0.4,0,0.8,0.1,1.2h-1.1v-2.3h-7.2v2.3h-1c0-0.4,0-0.8,0-1.2v-1.1
			c0-0.4,0-0.7,0-1.1c0.6,0.1,1.2,0.1,1.7,0.1h2.1L284,236.6z M281.6,240c0.4,0.1,0.8,0.1,1.2,0.1h3.8c0.4,0,0.8,0,1.2-0.1v1.1
			c-0.4,0-0.8-0.1-1.2-0.1h-3.8c-0.4,0-0.8,0-1.2,0.1L281.6,240z"/>
		<path class="st0" d="M300.8,240.6c0.5,2,1.4,3.9,2.7,5.5c1.2,1.4,2.7,2.6,4.5,3.3c-0.3,0.3-0.5,0.7-0.7,1.1
			c-3.4-1.7-5.9-4.7-6.9-8.4c-0.4,2.3-1.5,4.5-3.2,6.1c-1.1,1-2.3,1.7-3.6,2.3c-0.2-0.4-0.4-0.7-0.7-1c1.7-0.6,3.2-1.6,4.3-3
			c1.4-1.7,2.2-3.8,2.3-5.9H295c-0.6,0-1.2,0-1.8,0.1v-1.3c0.6,0.1,1.2,0.1,1.8,0.1h4.5c0-0.8,0.1-1.4,0.1-2c0-0.6,0-1.2-0.1-1.9
			h1.4c-0.1,0.6-0.1,1.2-0.1,1.8c0,0.9,0,1.4-0.1,2.1h5c0.6,0,1.2,0,1.8-0.1v1.3c-0.6-0.1-1.2-0.1-1.8-0.1L300.8,240.6z"/>
		<path class="st0" d="M318,249.4c0,1-0.3,1.3-1.8,1.3c-0.5,0-1.3,0-1.9-0.1c-0.1-0.4-0.2-0.7-0.4-1.1c0.7,0.1,1.4,0.2,2.1,0.2
			c0.8,0,0.9-0.1,0.9-0.4v-3.4H312c-0.6,0-1.2,0-1.7,0.1v-1.2c0.6,0.1,1.1,0.1,1.7,0.1h5v-0.3c0-0.3,0-0.6,0-1h0.7
			c1.1-0.5,2-1.2,2.9-1.9h-6c-0.5,0-1,0-1.6,0.1v-1.1c0.5,0.1,1.1,0.1,1.6,0.1h5.9c0.4,0,0.8,0,1.2-0.1l0.6,0.7
			c-0.2,0.2-0.2,0.2-0.6,0.5c-1.1,1-2.4,1.8-3.8,2.5v0.5h4.9c0.6,0,1.2,0,1.7-0.1v1.2c-0.6-0.1-1.2-0.1-1.7-0.1H318V249.4z
			 M313.6,238.1c-0.4-0.8-0.9-1.5-1.5-2.2l1-0.3c0.6,0.8,1.2,1.6,1.7,2.5h2.4c-0.3-0.9-0.7-1.7-1.2-2.4l1-0.3
			c0.5,0.9,0.9,1.8,1.2,2.7h1.9c0.7-0.8,1.3-1.7,1.7-2.7l1,0.5c-0.5,0.8-1,1.6-1.6,2.3h1.3c0.6,0,1.3,0,1.9-0.1
			c0,0.5-0.1,0.9-0.1,1.4v1.3c0,0.4,0,0.8,0.1,1.2h-1.1V239h-11.6v2.9h-1.1c0-0.4,0.1-0.8,0.1-1.2v-1.3c0-0.5,0-0.9-0.1-1.4
			c0.6,0.1,1.3,0.1,1.9,0.1H313.6z"/>
		<path class="st0" d="M335.8,237.6c-0.5,0.8-1.2,1.5-1.9,2.1c-0.2-0.3-0.4-0.5-0.7-0.8c1.3-1,2.2-2.3,2.8-3.8l1,0.3
			c-0.2,0.4-0.4,0.8-0.6,1.1h2.5c0.5,0,1.1,0,1.6-0.1v1.1c-0.5-0.1-1-0.1-1.5-0.1h-1.1c0.3,0.5,0.6,1,0.9,1.5l-0.9,0.4
			c-0.2-0.7-0.6-1.3-0.9-1.9L335.8,237.6z M340.1,246.5c-0.9,1-1.8,1.8-2.9,2.4c-1.1,0.7-2.2,1.2-3.4,1.6c-0.2-0.4-0.4-0.7-0.6-1
			c1.1-0.3,2.2-0.7,3.2-1.3c1.1-0.6,2.1-1.4,3-2.3h-4c-0.1,0.3-0.1,0.5-0.3,0.9l-1.1-0.1c0.6-1.4,1-2.9,1.1-4.4
			c0.5,0.1,1,0.1,1.5,0.1h3.4v-1.7h-3.9c-0.5,0-1.1,0-1.6,0.1v-1.1c0.5,0.1,1.1,0.1,1.6,0.1h8.8c0.5,0,1,0,1.5-0.1
			c-0.1,0.4-0.1,0.7-0.1,1.1v1.4c0,0.4,0,0.8,0.1,1.2c-0.4,0-0.9-0.1-1.5-0.1h-3.8v1.8h4.9c0.5,0,0.9,0,1.4-0.1
			c0,0.2-0.1,0.5-0.1,0.7c-0.3,3.8-0.4,4-2.1,4c-0.6,0-1.2,0-1.8-0.1c0-0.4-0.1-0.7-0.3-1.1c0.7,0.1,1.4,0.2,2.1,0.2
			c0.6,0,0.7-0.1,0.8-0.5c0.1-0.7,0.2-1.5,0.3-2.2h-5.1v3c0,0.6,0,1.3,0.1,1.9h-1.2c0.1-0.5,0.1-0.9,0.1-1.4V249L340.1,246.5z
			 M336.1,243.3c-0.1,0.6-0.2,1.2-0.4,1.8h4.4v-1.8H336.1z M342,237.6c-0.4,0.7-0.9,1.3-1.5,1.9c-0.2-0.3-0.5-0.5-0.8-0.6
			c1.1-1,1.9-2.2,2.3-3.6l1,0.3c-0.2,0.5-0.3,0.6-0.5,1.2h3.8c0.6,0,1.2,0,1.8-0.1v1.1c-0.6-0.1-1.2-0.1-1.7-0.1h-1.8
			c0.3,0.5,0.6,0.9,0.9,1.5l-0.9,0.4c-0.3-0.6-0.6-1.3-1-1.9L342,237.6z M345.4,242.4v-1.7h-4.3v1.7H345.4z"/>
		<path class="st0" d="M351,236.4c0.5,0.1,0.9,0.1,1.4,0.1h1c0.5,0,0.9,0,1.4-0.1c-0.1,1-0.1,1.9-0.1,2.8v8.3c0,0.6,0,1.3,0.1,1.9
			h-1.6c0.1-0.6,0.1-1.3,0.1-1.9v-9.8h-0.9c-0.5,0-1,0-1.4,0.1L351,236.4z"/>
		<path class="st0" d="M367.5,239.3c-0.1-0.4-0.3-0.8-0.6-1.1c-0.5-0.6-1.2-0.9-2-0.9c-1.3,0-2.5,0.9-2.8,2.1
			c-0.5,1.2-0.7,2.4-0.7,3.7c0.2-0.4,0.5-0.8,0.8-1.1c0.8-0.7,1.8-1.1,2.8-1c2.1-0.1,4,1.5,4.1,3.6c0,0.2,0,0.4,0,0.6
			c0.2,2.2-1.5,4.2-3.8,4.4c-0.2,0-0.4,0-0.5,0c-1.1,0-2.2-0.3-3-1.1c-1.1-1-1.7-2.9-1.7-5.3c-0.1-1.8,0.3-3.6,1.2-5.1
			c0.8-1.2,2.1-1.9,3.5-1.9c0.9,0,1.8,0.2,2.5,0.7c0.6,0.5,1.1,1.1,1.4,1.9L367.5,239.3z M364.8,242.2c-0.9,0-1.7,0.4-2.3,1
			c-0.6,0.6-0.8,1.4-0.8,2.2c-0.1,1.7,1.3,3.1,2.9,3.2c0.1,0,0.1,0,0.2,0c1,0,2-0.5,2.6-1.4c0.3-0.6,0.4-1.2,0.4-1.8
			C367.8,243.3,366.7,242.2,364.8,242.2L364.8,242.2z"/>
		<path class="st0" d="M374,237.2c0-0.5,0-1.1-0.1-1.6h1.1c-0.1,0.5-0.1,1.1-0.1,1.6v0.3h3v-0.3c0-0.5,0-1.1-0.1-1.6h1.1
			c-0.1,0.5-0.1,1.1-0.1,1.6v0.3c0.5,0,0.9,0,1.4-0.1v1.1c-0.5-0.1-0.9-0.1-1.4-0.1v7.3c0.4,0,0.9,0,1.3-0.1v1.1c-0.4,0-0.9,0-1.5,0
			h-5.2c-0.4,0-0.9,0-1.3,0.1v-1.1c0.4,0.1,0.9,0.1,1.3,0.1h0.5v-7.3h-0.1c-0.5,0-1,0-1.4,0.1v-1.1c0.5,0.1,0.9,0.1,1.4,0.1h0.1
			V237.2z M375.7,247.7c-0.6,1.1-1.5,2.1-2.6,2.9c-0.2-0.3-0.4-0.6-0.8-0.8c1.1-0.6,1.9-1.6,2.5-2.6L375.7,247.7z M378,240.2v-1.8
			h-3v1.8H378z M378,242.9v-1.8h-3v1.8H378z M378,245.7v-2h-3v2H378z M377.8,247.2c0.4,0.7,1,1.3,1.6,1.8c-0.3,0.2-0.5,0.4-0.8,0.7
			c-0.6-0.6-1.2-1.3-1.6-2L377.8,247.2z M381.9,245.3c0,2-0.7,3.9-1.9,5.5c-0.2-0.3-0.5-0.6-0.8-0.8c0.9-1.1,1.5-2.4,1.6-3.8
			c0.2-2.6,0.3-5.3,0.3-7.9c0-0.7,0-1.3-0.1-2c0.5,0.1,1.1,0.1,1.6,0.1h2.3c0.5,0,1,0,1.6-0.1c-0.1,0.5-0.1,1.1-0.1,1.6v11.4
			c0,0.6-0.1,0.9-0.4,1.1c-0.4,0.2-0.9,0.2-1.3,0.2c-0.2,0-0.4,0-1.3-0.1c0-0.4-0.1-0.8-0.3-1.2c0.6,0.1,1.2,0.2,1.8,0.2
			c0.4,0,0.5-0.1,0.5-0.4v-4L381.9,245.3z M382.1,241.2c0,1.7,0,2-0.1,3.1h3.4v-3.1H382.1z M385.4,237.3h-3.3v3h3.3V237.3z"/>
		<path class="st0" d="M392,240c-0.6,1.3-1.3,2.5-2.2,3.6c-0.3-0.3-0.6-0.5-0.9-0.7c1.3-1.5,2.3-3.3,2.9-5.2
			c0.2-0.5,0.3-1.1,0.4-1.6l1.2,0.3c-0.1,0.3-0.2,0.6-0.3,0.9c0,0.2-0.2,0.7-0.6,1.6h3.5v-1.8c0-0.6,0-1.2-0.1-1.8h1.3
			c-0.1,0.6-0.1,1.2-0.1,1.8v1.8h4c0.6,0,1.2,0,1.9-0.1v1.2c-0.6-0.1-1.2-0.1-1.9-0.1h-4v3.7h3.3c0.6,0,1.2,0,1.8-0.1v1.2
			c-0.6-0.1-1.2-0.1-1.8-0.1H397v4.5h4.6c0.6,0,1.3,0,1.9-0.1v1.2c-0.6-0.1-1.3-0.1-1.9-0.1H391c-0.6,0-1.3,0-1.9,0.1V249
			c0.6,0.1,1.3,0.1,1.9,0.1h4.9v-4.5h-3c-0.6,0-1.2,0-1.7,0.1v-1.2c0.6,0.1,1.2,0.1,1.7,0.1h3V240H392z"/>
		<path class="st0" d="M406.9,243.4c0-0.9,0-1.7,0-2.5c-0.4,0.9-0.9,1.8-1.5,2.5c-0.2-0.3-0.4-0.7-0.7-0.9c1.7-2.1,2.9-4.5,3.5-7.2
			l1.1,0.3c-0.1,0.2-0.1,0.3-0.2,0.7c-0.3,1.1-0.7,2.1-1.2,3.1v9.3c0,1,0,1.5,0.1,2.1h-1.2c0.1-0.7,0.1-1.4,0.1-2.1V243.4z
			 M410.3,238.3c-0.1,0.5-0.1,1-0.1,1.4v6.7c0,0.6,0,1.2,0.1,1.7h-1.1c0.1-0.6,0.1-1.2,0.1-1.7v-6.7c0-0.5,0-1-0.1-1.5H410.3z
			 M420,238c-0.5-0.1-1.1-0.1-1.6-0.1c-0.5,1.1-1.3,2.1-2.2,2.9c1.3,0.8,2.8,1.4,4.4,1.6c-0.2,0.3-0.4,0.6-0.5,1
			c-1.7-0.4-3.3-1.1-4.7-2.1c-1.3,0.9-2.7,1.6-4.2,2c-0.1-0.3-0.3-0.6-0.5-0.9c1.4-0.3,2.8-0.9,4-1.7c-0.7-0.6-1.3-1.4-1.7-2.2
			c-0.5,0.7-1,1.4-1.7,2c-0.2-0.3-0.5-0.5-0.8-0.6c0.8-0.7,1.5-1.4,2-2.3c0.4-0.7,0.8-1.5,1-2.3l1,0.3c-0.4,0.7-0.4,0.8-0.7,1.4h4.5
			c0.6,0,1.1,0,1.7-0.1L420,238z M420,246.3c-0.2,0.2-0.4,0.4-0.7,0.6c-1.1,0.9-2.3,1.7-3.6,2.4c-1.5,0.7-3,1.2-4.5,1.5
			c-0.1-0.4-0.3-0.7-0.6-1c2.2-0.4,4.4-1.1,6.3-2.3c0.8-0.5,1.6-1.1,2.2-1.8L420,246.3z M416.5,243.3l-0.5,0.4
			c-0.7,0.5-1.5,0.9-2.3,1.2c-0.7,0.3-1.4,0.5-2.2,0.7c-0.1-0.3-0.3-0.6-0.6-0.9c1.8-0.2,3.4-1,4.7-2.1L416.5,243.3z M418.1,244.7
			c-0.7,0.6-1.5,1.2-2.3,1.6c-1.3,0.7-2.7,1.3-4.2,1.6c-0.1-0.4-0.3-0.7-0.6-1c1.5-0.3,2.9-0.8,4.2-1.5c0.7-0.4,1.4-0.9,1.9-1.5
			L418.1,244.7z M413.6,238c0.4,0.9,1.1,1.7,1.9,2.3c0.8-0.6,1.5-1.4,1.9-2.3H413.6z"/>
		<path class="st0" d="M424.8,237.4c-0.7,0-1.3,0-2,0.1v-1.3c0.7,0.1,1.3,0.1,2,0.1h8.6c0.5,0,1.1,0,1.6-0.1l0.6,0.8
			c-0.7,0.8-0.9,1-1.4,1.4c-1.3,1.2-2.8,2.3-4.4,3.1v7.7c0.1,0.4-0.1,0.9-0.5,1.1c-0.5,0.1-1,0.2-1.4,0.2c-0.5,0-1.3-0.1-2.3-0.1
			c0-0.4-0.1-0.8-0.2-1.2c0.9,0.2,1.7,0.3,2.6,0.3c0.5,0,0.7-0.1,0.7-0.4v-6.9c0-0.6,0-1.1-0.1-1.7h1c1.6-0.8,3-1.9,4.2-3.1
			L424.8,237.4z"/>
		<path class="st0" d="M439.7,237.1c-0.5,0-1,0-1.4,0.1V236c0.5,0.1,1,0.1,1.5,0.1h2.7c0.5,0,0.9,0,1.4-0.1v1.1
			c-0.4-0.1-0.9-0.1-1.3-0.1h-1c-0.2,1.5-0.6,2.9-1.1,4.3h2c0.3,0,0.7,0,1-0.1c0,0.4,0,0.6,0,1.4v5.3c0,0.5,0,1,0.1,1.4h-1v-0.9h-2
			v1.8h-1.1c0.1-0.5,0.1-1.1,0.1-1.6V245c0-0.6,0-1.1,0-1.9c-0.3,0.8-0.7,1.5-1.2,2.1c-0.1-0.4-0.3-0.7-0.6-1
			c1.1-1.3,1.8-2.7,2.3-4.3c0.3-0.9,0.5-1.8,0.6-2.7L439.7,237.1z M440.4,247.6h2v-5.3h-2V247.6z M446.1,237.1c-0.5,0-1.1,0-1.6,0.1
			V236c0.5,0.1,1.1,0.1,1.7,0.1h5.2c0.5,0,1.1,0,1.6-0.1v1.2c-0.5-0.1-1.1-0.1-1.6-0.1H451v4.7h0.5c0.5,0,1.1,0,1.6-0.1v1.2
			c-0.5-0.1-1.1-0.1-1.6-0.1H451v6.1c0,0.6,0,1.2,0.1,1.8h-1.3c0.1-0.6,0.1-1.2,0.1-1.8v-6.1h-2.7c-0.2,3.8-0.9,5.9-2.8,8.1
			c-0.3-0.3-0.6-0.6-1-0.8c1.7-1.7,2.5-3.8,2.6-7.3h-0.5c-0.5,0-1.1,0-1.6,0.1v-1.2c0.5,0.1,1.1,0.1,1.6,0.1h0.5v-4.7L446.1,237.1z
			 M447.3,241.2v0.6h2.7v-4.7h-2.7V241.2z"/>
		<path class="st0" d="M464.5,243.9c0.6,0,1.2,0,1.8-0.1c0,0.4,0,0.7-0.1,1.5l-0.1,3.4c0,0.5,0.2,0.6,1.5,0.6s1.5-0.1,1.6-0.4
			c0.2-0.8,0.3-1.7,0.3-2.6c0.3,0.2,0.7,0.4,1.1,0.4c-0.3,3.4-0.4,3.5-3,3.5c-2,0-2.4-0.2-2.4-1.4v-0.1l0.1-4h-3.1
			c-0.2,1-0.6,2-1.3,2.8c-0.5,0.6-1.1,1.2-1.8,1.6c-0.8,0.6-1.8,1.1-2.7,1.4c-0.2-0.4-0.4-0.7-0.7-1c1.1-0.3,2.2-0.8,3.2-1.5
			c1.2-0.8,2-2,2.3-3.3h-2.6c-0.6,0-1.2,0-1.8,0.1v-1.2c0.6,0.1,1.2,0.1,1.8,0.1h2.8c0.1-0.5,0.1-0.9,0.1-1.4c0-0.3,0-0.6-0.1-0.9
			h1.2c-0.1,0.4-0.1,0.7-0.1,1.1c0,0.4-0.1,0.8-0.1,1.2L464.5,243.9z M462.3,236.7c0-0.4,0-0.8-0.1-1.2h1.3
			c-0.1,0.4-0.1,0.8-0.1,1.2v0.5h4.9c0.6,0,1.1,0,1.7-0.1c-0.1,0.4-0.1,0.8-0.1,1.2v0.9c0,0.4,0,0.8,0.1,1.2h-1.1v-2.2h-4.1v2.5
			c0,0.2,0,0.3,0.1,0.3c0.3,0.1,0.7,0.1,1,0.1c0.5,0,0.9,0,1.3-0.2c0.2-0.1,0.3-0.6,0.3-1.4c0.3,0.2,0.7,0.3,1,0.3
			c-0.1,1.1-0.2,1.6-0.5,1.8c-0.7,0.3-1.4,0.5-2.1,0.4c-1.7,0-2.1-0.2-2.1-0.9v-2.9h-2c-0.1,0.7-0.3,1.3-0.6,1.9
			c-0.6,1-1.5,1.8-2.6,2.1c-0.5,0.2-1,0.4-1.5,0.5c-0.2-0.3-0.4-0.7-0.6-0.9c1.2-0.1,2.4-0.6,3.3-1.4c0.6-0.6,1-1.4,1-2.2h-3.5v2.2
			h-1.1c0.1-0.4,0.1-0.8,0.1-1.2v-0.9c0-0.4,0-0.8-0.1-1.2c0.6,0.1,1.1,0.1,1.7,0.1h4.6L462.3,236.7z"/>
		<path class="st0" d="M477.3,244.8c0.1-0.8,0.1-1.6,0.1-2.4c-0.5,0-0.9,0-1.4,0.1v-0.8c-1,0.8-2,1.5-3.2,2
			c-0.2-0.3-0.4-0.6-0.7-0.9c1.4-0.5,2.7-1.3,3.8-2.3c-0.7-0.8-1.6-1.6-2.5-2.2l0.8-0.7c0.9,0.7,1.7,1.4,2.4,2.2
			c0.8-0.8,1.5-1.7,2.1-2.7h-3.1c-0.4,0-0.7,0-1.1,0.1V236c0.4,0.1,0.8,0.1,1.2,0.1h3.1c0.5,0,1,0,1.5-0.1c0.2,0.9,0.6,1.7,1.3,2.3
			c0.7-0.6,1.2-1.4,1.7-2.2l0.9,0.6c-0.1,0.1-0.2,0.2-0.4,0.4c-0.5,0.7-1.1,1.3-1.7,1.8c0.5,0.5,0.9,0.9,1.4,1.3
			c0.8-0.7,1.4-1.5,2-2.4l0.9,0.6c-0.2,0.2-0.2,0.2-0.8,0.9c-0.4,0.5-0.9,0.9-1.4,1.4c0.9,0.7,2,1.3,3.1,1.7c-0.3,0.3-0.5,0.6-0.6,1
			c-1.1-0.5-2.2-1.2-3.1-1.9v0.8c-0.5-0.1-0.9-0.1-1.4-0.1h-0.3v2.4h2.9c0.6,0,1.1,0,1.6-0.1v1.2c-0.5-0.1-1.1-0.1-1.6-0.1h-2.9v3.2
			c0,0.3,0.1,0.4,0.3,0.5c0.4,0.1,0.8,0.1,1.3,0.1c1.3,0,1.7-0.1,2-0.4c0.3-0.6,0.4-1.3,0.4-1.9c0.3,0.2,0.7,0.4,1.1,0.5
			c0,0.8-0.3,1.6-0.7,2.2c-0.3,0.4-1.1,0.6-2.8,0.6c-2,0-2.5-0.2-2.5-1.3v-3.5h-2.8c-0.2,1-0.6,1.9-1.2,2.7
			c-0.5,0.6-1.2,1.2-1.9,1.6c-0.5,0.3-1.1,0.6-1.6,0.8c-0.2-0.4-0.5-0.7-0.8-1c0.9-0.3,1.8-0.7,2.5-1.2c1-0.7,1.7-1.7,1.9-2.9h-2.4
			c-0.5,0-1.1,0-1.6,0.1v-1.2c0.5,0.1,1.1,0.1,1.6,0.1L477.3,244.8z M482.1,241.4c0.4,0,0.8,0,1.2,0c-1.5-1.1-2.7-2.6-3.5-4.2
			c-0.9,1.6-2.1,3-3.5,4.2c0.4,0,0.7,0,1.2,0H482.1z M478.4,242.3c0,0.8,0,1.6-0.1,2.4h2.6v-2.4H478.4z"/>
		<path class="st0" d="M493.6,245.7c-1.2,0.9-2.5,1.7-3.9,2.3c-0.2-0.4-0.4-0.7-0.7-1c2.2-0.7,4.3-2,5.9-3.7h-4
			c-0.6,0-1.2,0-1.8,0.1v-1.2c0.6,0.1,1.2,0.1,1.8,0.1h4.9v-1.6h-3.4c-0.6,0-1.1,0-1.7,0.1v-1.1c0.6,0.1,1.1,0.1,1.7,0.1h3.4v-1.6
			h-4.3c-0.6,0-1.2,0-1.8,0.1v-1.1c0.6,0.1,1.2,0.1,1.8,0.1h4.2v-0.4c0-0.5,0-1-0.1-1.5h1.2c-0.1,0.5-0.1,1-0.1,1.5v0.4h4.5
			c0.6,0,1.2,0,1.8-0.1v1.1c-0.6-0.1-1.2-0.1-1.8-0.1h-4.6v1.6h3.6c0.6,0,1.2,0,1.8-0.1v1.1c-0.6-0.1-1.2-0.1-1.8-0.1h-3.6v1.6h5.1
			c0.6,0,1.2,0,1.8-0.1v1.2c-0.6-0.1-1.2-0.1-1.8-0.1h-4.6c0.4,1,1,1.9,1.7,2.8c0.9-0.7,1.7-1.5,2.4-2.4l1,0.7
			c-0.1,0.1-0.1,0.1-0.3,0.3c-0.7,0.8-1.5,1.5-2.4,2.1c1.3,1.2,2.7,2.1,4.4,2.6c-0.3,0.3-0.5,0.6-0.7,1c-3.2-1.3-5.8-3.9-7.1-7.1
			h-0.2c-0.5,0.6-1,1.1-1.6,1.6v4c1.3-0.3,2-0.5,3.7-1v1c-2.1,0.6-3.7,1-6.1,1.5c-0.3,0.1-0.6,0.1-0.8,0.2l-0.3-1.2
			c0.8,0,1.6-0.2,2.4-0.3L493.6,245.7z"/>
		<path class="st0" d="M513.9,235.5c0.7,1.2,1.7,2.2,2.8,3c1.4,1.1,2.9,2,4.5,2.7c-0.3,0.3-0.5,0.7-0.7,1.1c-1.6-0.8-3.2-1.8-4.6-3
			c-1-0.8-1.9-1.8-2.6-2.9c-0.7,1-1.5,2-2.5,2.8c-1.3,1.2-2.8,2.2-4.4,3c-0.2-0.4-0.4-0.7-0.7-1c1.6-0.7,3.1-1.6,4.4-2.8
			c1-0.9,1.9-1.9,2.6-3L513.9,235.5z M508.3,245c-0.6,0-1.2,0-1.9,0.1v-1.2c0.6,0.1,1.2,0.1,1.9,0.1h10.1c0.6,0,1.2,0,1.9-0.1v1.2
			c-0.6-0.1-1.2-0.1-1.9-0.1h-5.9c-0.6,1.4-1.3,2.7-2.1,4c2.3-0.1,4-0.3,6.4-0.6c-0.6-0.7-1.3-1.4-2-2.1l0.9-0.6
			c1.5,1.4,2.8,2.9,4,4.5l-0.9,0.7c-0.6-0.9-0.8-1.2-1.2-1.7c-2.9,0.4-5.4,0.7-8,0.9c-0.9,0-1.9,0.1-2.8,0.3l-0.2-1.3
			c0.3,0,0.6,0,0.8,0.1c0.3,0,0.3,0,1.7-0.1c0.8-1.3,1.5-2.7,2.1-4.1L508.3,245z M509.4,240.8c0.4,0.1,0.9,0.1,1.3,0.1h5.3
			c0.5,0,0.9,0,1.4-0.1v1.1c-0.5-0.1-0.9-0.1-1.4-0.1h-5.3c-0.4,0-0.9,0-1.3,0.1L509.4,240.8z"/>
		<path class="st0" d="M531.1,243.1c0,0.7-0.6,1.3-1.4,1.3c-0.7,0-1.3-0.6-1.3-1.4c0-0.7,0.6-1.3,1.3-1.3
			C530.5,241.7,531.1,242.3,531.1,243.1z"/>
		<path class="st0" d="M549.6,237.6c0-0.2-0.1-0.3-0.1-0.5c0-1,0.9-1.8,1.9-1.8c1,0,1.8,0.9,1.8,1.9c0,1-0.9,1.8-1.9,1.8
			c-0.2,0-0.4,0-0.6-0.1c0,0,0,0.1,0,0.1c-0.5,2.5-1.7,4.8-3.4,6.8c-1.7,1.8-3.7,3.2-6,4c-0.2-0.4-0.5-0.8-0.8-1.2
			c2.3-0.7,4.4-2,6-3.9c1.4-1.7,2.4-3.8,2.9-6h-8.4c-0.6,0-1.2,0-1.8,0.1v-1.4c0.6,0.1,1.2,0.1,1.9,0.1L549.6,237.6L549.6,237.6z
			 M550.2,237.1c0,0.7,0.6,1.2,1.2,1.1c0.7,0,1.2-0.6,1.1-1.2c0-0.6-0.5-1.1-1.2-1.1C550.7,235.9,550.2,236.5,550.2,237.1z"/>
		<path class="st0" d="M557.3,248.1v1.2H556c0.1-0.4,0.1-0.9,0.1-1.3v-9.2c0-0.4,0-0.9-0.1-1.3c0.4,0,0.9,0.1,1.3,0.1h8.8
			c0.4,0,0.9,0,1.3-0.1c0,0.4,0,0.9,0,1.3v9.2c0,0.4,0,0.9,0,1.3h-1.2v-1.2L557.3,248.1z M566.1,238.7h-8.8v8.3h8.8V238.7z"/>
		<path class="st0" d="M572.8,240.6c1.5,0.6,2.9,1.4,4.2,2.2l-0.6,1.2c-1.3-1-2.7-1.7-4.2-2.3L572.8,240.6z M572.4,248.4
			L572.4,248.4c1.6-0.1,3-0.4,4.4-1c3.3-1.4,5.9-4.2,6.9-7.6c0.3,0.3,0.6,0.7,1,0.9c-2.1,5.1-5.5,7.8-11.4,9
			c-0.4,0.1-0.4,0.1-0.6,0.2L572.4,248.4z M574.1,236.5c1.4,0.6,2.8,1.3,4.1,2.1l-0.7,1.1c-1.2-0.9-2.6-1.7-4-2.3L574.1,236.5z
			 M582.8,235.7c0.7,0.8,1.2,1.7,1.7,2.6l-0.8,0.5c-0.5-1-1-1.9-1.7-2.7L582.8,235.7z M584.6,234.8c0.7,0.8,1.3,1.7,1.7,2.6
			l-0.8,0.5c-0.5-1-1-1.9-1.7-2.7L584.6,234.8z"/>
		<path class="st0" d="M595.1,248.5h3.5c0.5,0,1,0,1.5-0.1v1.2c-0.5-0.1-1-0.1-1.5-0.1h-8c-0.5,0-1,0-1.5,0.1v-1.2
			c0.5,0.1,1,0.1,1.5,0.1h3.4v-5.9h-2.3c-0.5,0-1,0-1.5,0.1v-1.2c0.5,0.1,1,0.1,1.5,0.1h6c0.5,0,1,0,1.5-0.1v1.2
			c-0.5-0.1-1-0.1-1.4-0.1h-2.5L595.1,248.5z"/>
		<path class="st0" d="M611.2,236c-0.1,0.2-0.3,0.4-0.4,0.7c-0.2,0.5-0.5,1-0.8,1.5c1.7-0.1,3.3-0.2,5-0.1c0.3,0,0.6,0,0.9-0.1
			l0.7,0.7c-0.2,0.2-0.2,0.2-0.3,0.8c-0.7,2.3-1.8,4.5-3.3,6.4c-1.6,1.8-3.5,3.3-5.7,4.2c-0.2-0.4-0.5-0.7-0.8-1
			c2.3-0.9,4.3-2.4,5.8-4.3c1.3-1.7,2.3-3.6,2.8-5.7l-5.5,0.1c-1,1.7-2.4,3.2-3.9,4.4c-0.2-0.4-0.5-0.7-0.9-0.9
			c1.8-1.2,3.2-2.8,4.1-4.7c0.5-0.8,0.8-1.6,1-2.5L611.2,236z"/>
		<path class="st0" d="M624.2,250.1c0.1-0.6,0.1-1.2,0.1-1.8v-10.6c0-0.6,0-1.2-0.1-1.7h1.4c-0.1,0.6-0.1,1.2-0.1,1.8v3.2
			c2.6,0.9,5,2.2,7.3,3.6l-0.7,1.3c-1.9-1.3-4-2.5-6.1-3.4c-0.2-0.1-0.4-0.2-0.5-0.3l0,0c0,0.3,0.1,0.7,0.1,1v5.1
			c0,0.6,0,1.2,0.1,1.8L624.2,250.1z"/>
		<path class="st0" d="M638.2,237.1c-0.5,0-0.9,0-1.4,0.1V236c0.5,0.1,1,0.1,1.5,0.1h2.7c0.5,0,0.9,0,1.4-0.1v1.1
			c-0.4-0.1-0.9-0.1-1.3-0.1h-1c-0.2,1.5-0.6,2.9-1.1,4.3h2.1c0.3,0,0.7,0,1-0.1c0,0.4,0,0.6,0,1.4v5.3c0,0.5,0,1,0.1,1.4h-1v-0.9
			h-2v1.8h-1.1c0.1-0.5,0.1-1.1,0.1-1.6V245c0-0.6,0-1.1,0-1.9c-0.3,0.8-0.7,1.5-1.2,2.1c-0.1-0.4-0.3-0.7-0.6-1
			c1-1.3,1.8-2.7,2.3-4.3c0.3-0.9,0.5-1.8,0.6-2.7L638.2,237.1z M638.8,247.6h2v-5.3h-2V247.6z M644.5,237.1c-0.5,0-1.1,0-1.6,0.1
			V236c0.5,0.1,1.1,0.1,1.7,0.1h5.2c0.6,0,1.1,0,1.7-0.1v1.2c-0.5-0.1-1.1-0.1-1.6-0.1h-0.4v4.7h0.5c0.6,0,1.1,0,1.7-0.1v1.2
			c-0.5-0.1-1.1-0.1-1.7-0.1h-0.5v6.1c0,0.6,0,1.2,0.1,1.8h-1.3c0.1-0.6,0.1-1.2,0.1-1.8v-6.1h-2.7c-0.2,3.8-0.9,5.9-2.8,8.1
			c-0.3-0.3-0.6-0.6-1-0.8c1.7-1.7,2.5-3.8,2.6-7.3h-0.5c-0.5,0-1.1,0-1.6,0.1v-1.2c0.5,0.1,1.1,0.1,1.6,0.1h0.5v-4.7L644.5,237.1z
			 M645.7,241.2v0.6h2.7v-4.7h-2.7V241.2z"/>
		<path class="st0" d="M662,243.9c0.6,0,1.2,0,1.8-0.1c0,0.4,0,0.7-0.1,1.5l-0.1,3.4c0,0.5,0.2,0.6,1.5,0.6s1.5-0.1,1.6-0.4
			c0.2-0.8,0.3-1.7,0.3-2.6c0.3,0.2,0.7,0.4,1.1,0.4c-0.3,3.4-0.4,3.5-3,3.5c-2,0-2.4-0.2-2.4-1.4v-0.1l0.1-4h-3.1
			c-0.2,1-0.6,2-1.3,2.8c-0.5,0.6-1.1,1.2-1.8,1.6c-0.8,0.6-1.8,1.1-2.7,1.4c-0.2-0.4-0.4-0.7-0.7-1c1.1-0.3,2.2-0.8,3.2-1.5
			c1.2-0.8,2-2,2.3-3.3H656c-0.6,0-1.2,0-1.8,0.1v-1.2c0.6,0.1,1.2,0.1,1.8,0.1h2.8c0.1-0.5,0.1-0.9,0.1-1.4c0-0.3,0-0.6-0.1-0.9
			h1.2c-0.1,0.4-0.1,0.7-0.1,1.1c0,0.4-0.1,0.8-0.1,1.2L662,243.9z M659.8,236.7c0-0.4,0-0.8-0.1-1.2h1.3c-0.1,0.4-0.1,0.8-0.1,1.2
			v0.5h4.9c0.6,0,1.1,0,1.7-0.1c-0.1,0.4-0.1,0.8-0.1,1.2v0.9c0,0.4,0,0.8,0.1,1.2h-1.1v-2.2h-4.1v2.5c0,0.2,0,0.3,0.1,0.3
			c0.3,0.1,0.7,0.1,1,0.1c0.5,0,0.9,0,1.3-0.2c0.2-0.1,0.3-0.6,0.3-1.4c0.3,0.2,0.7,0.3,1,0.3c-0.1,1.1-0.2,1.6-0.5,1.8
			c-0.7,0.3-1.4,0.5-2.1,0.4c-1.7,0-2.1-0.2-2.1-0.9v-2.9h-2c-0.1,0.7-0.3,1.3-0.6,1.9c-0.6,1-1.5,1.8-2.6,2.1
			c-0.5,0.2-1,0.4-1.5,0.5c-0.2-0.3-0.4-0.7-0.6-0.9c1.2-0.1,2.4-0.6,3.3-1.4c0.6-0.6,1-1.4,1-2.2h-3.5v2.2h-1.1
			c0.1-0.4,0.1-0.8,0.1-1.2v-0.9c0-0.4,0-0.8-0.1-1.2c0.6,0.1,1.1,0.1,1.7,0.1h4.6L659.8,236.7z"/>
		<path class="st0" d="M674.4,244.8c0.1-0.8,0.1-1.6,0.1-2.4c-0.5,0-0.9,0-1.3,0.1v-0.8c-1,0.8-2,1.5-3.2,2
			c-0.2-0.3-0.4-0.6-0.7-0.9c1.4-0.5,2.7-1.3,3.8-2.3c-0.7-0.8-1.6-1.6-2.5-2.2l0.8-0.7c0.9,0.7,1.7,1.4,2.4,2.2
			c0.8-0.8,1.5-1.7,2.1-2.7h-3.1c-0.4,0-0.7,0-1.1,0.1V236c0.4,0.1,0.8,0.1,1.2,0.1h3.1c0.5,0,1,0,1.5-0.1c0.2,0.9,0.6,1.7,1.3,2.3
			c0.7-0.6,1.2-1.4,1.7-2.2l0.9,0.6c-0.1,0.1-0.2,0.2-0.3,0.4c-0.5,0.7-1.1,1.3-1.7,1.8c0.5,0.5,0.8,0.9,1.4,1.3
			c0.8-0.7,1.4-1.5,2-2.4l0.9,0.6c-0.2,0.2-0.2,0.2-0.8,0.9c-0.4,0.5-0.9,0.9-1.4,1.4c0.9,0.7,2,1.3,3.1,1.7c-0.3,0.3-0.5,0.6-0.6,1
			c-1.1-0.5-2.2-1.2-3.2-1.9v0.8c-0.5-0.1-0.9-0.1-1.4-0.1H679v2.4h3c0.6,0,1.1,0,1.7-0.1v1.2c-0.5-0.1-1.1-0.1-1.7-0.1h-3v3.2
			c0,0.3,0.1,0.4,0.3,0.5c0.4,0.1,0.8,0.1,1.3,0.1c1.3,0,1.7-0.1,2-0.4c0.3-0.6,0.4-1.3,0.4-1.9c0.3,0.2,0.7,0.4,1.1,0.5
			c0,0.8-0.3,1.6-0.7,2.2c-0.3,0.4-1.1,0.6-2.8,0.6c-2,0-2.5-0.2-2.5-1.3v-3.5h-2.8c-0.2,1-0.6,1.9-1.2,2.7
			c-0.5,0.6-1.2,1.2-1.9,1.6c-0.5,0.3-1.1,0.6-1.7,0.8c-0.2-0.4-0.5-0.7-0.8-1c0.9-0.3,1.8-0.7,2.5-1.2c1-0.7,1.7-1.7,1.9-2.9h-2.4
			c-0.5,0-1.1,0-1.6,0.1v-1.2c0.5,0.1,1.1,0.1,1.6,0.1L674.4,244.8z M679.3,241.4c0.4,0,0.8,0,1.2,0c-1.5-1.1-2.7-2.6-3.5-4.2
			c-0.9,1.6-2.1,3-3.5,4.2c0.4,0,0.7,0,1.2,0H679.3z M675.5,242.3c0,0.8,0,1.6-0.1,2.4h2.6v-2.4H675.5z"/>
		<path class="st0" d="M690.5,245.7c-1.2,0.9-2.5,1.7-3.9,2.3c-0.2-0.4-0.4-0.7-0.7-1c2.2-0.7,4.3-2,5.9-3.7h-4
			c-0.6,0-1.2,0-1.8,0.1v-1.2c0.6,0.1,1.2,0.1,1.8,0.1h4.8v-1.6h-3.4c-0.6,0-1.1,0-1.7,0.1v-1.1c0.6,0.1,1.1,0.1,1.7,0.1h3.4v-1.6
			h-4.3c-0.6,0-1.2,0-1.7,0.1v-1.1c0.6,0.1,1.2,0.1,1.8,0.1h4.2v-0.4c0-0.5,0-1-0.1-1.5h1.2c-0.1,0.5-0.1,1-0.1,1.5v0.4h4.5
			c0.6,0,1.2,0,1.8-0.1v1.1c-0.6-0.1-1.2-0.1-1.8-0.1h-4.5v1.6h3.7c0.6,0,1.2,0,1.8-0.1v1.1c-0.6-0.1-1.2-0.1-1.8-0.1h-3.7v1.6h5.2
			c0.6,0,1.2,0,1.8-0.1v1.2c-0.6-0.1-1.2-0.1-1.8-0.1h-4.6c0.4,1,1,1.9,1.7,2.8c0.9-0.7,1.7-1.5,2.4-2.4l1,0.7
			c-0.1,0.1-0.2,0.2-0.3,0.3c-0.8,0.8-1.5,1.5-2.4,2.1c1.3,1.2,2.7,2.1,4.4,2.6c-0.3,0.3-0.5,0.6-0.7,1c-3.2-1.3-5.7-3.9-7-7.1h-0.2
			c-0.5,0.6-1,1.1-1.6,1.6v4c1.3-0.3,2-0.5,3.7-1v1c-2.1,0.6-3.7,1-6.1,1.5l-0.8,0.2l-0.3-1.2c0.8,0,1.6-0.2,2.4-0.3L690.5,245.7z"
			/>
		<path class="st0" d="M710.3,235.5c0.7,1.2,1.7,2.2,2.8,3c1.4,1.1,2.9,2,4.5,2.7c-0.3,0.3-0.5,0.7-0.6,1.1c-1.6-0.8-3.2-1.8-4.6-3
			c-1-0.8-1.9-1.8-2.6-2.9c-0.7,1-1.5,2-2.5,2.8c-1.3,1.2-2.8,2.2-4.4,3c-0.2-0.4-0.4-0.7-0.7-1c1.6-0.7,3.1-1.6,4.4-2.8
			c1-0.9,1.9-1.9,2.6-3L710.3,235.5z M704.8,245c-0.6,0-1.2,0-1.9,0.1v-1.2c0.6,0.1,1.2,0.1,1.9,0.1h10.1c0.6,0,1.2,0,1.9-0.1v1.2
			c-0.6-0.1-1.2-0.1-1.9-0.1H709c-0.5,1.4-1.2,2.7-2,4c2.3-0.1,4-0.3,6.4-0.6c-0.6-0.7-1.3-1.4-2-2.1l0.9-0.6c1.5,1.4,2.8,2.9,4,4.5
			l-0.9,0.7c-0.7-0.9-0.9-1.2-1.2-1.7c-2.9,0.4-5.4,0.7-8,0.9c-0.9,0-1.9,0.1-2.8,0.3l-0.2-1.3c0.3,0,0.6,0,0.8,0.1
			c0.3,0,0.3,0,1.7-0.1c0.8-1.3,1.5-2.7,2.1-4.1L704.8,245z M705.8,240.8c0.4,0.1,0.9,0.1,1.3,0.1h5.3c0.5,0,0.9,0,1.4-0.1v1.1
			c-0.5-0.1-0.9-0.1-1.4-0.1h-5.3c-0.4,0-0.9,0-1.3,0.1L705.8,240.8z"/>
		<path class="st0" d="M137.9,88.9h8.3v82.6h-8.3V88.9z"/>
		<path class="st0" d="M196.6,88.9l38.6,82.6h-8.9l-13-27.2h-35.7l-12.9,27.2h-9.2l39.1-82.6H196.6z M195.6,106.4l-14.3,29.9h28.3
			L195.6,106.4z"/>
		<path class="st0" d="M242,171.5l11.7-82.6h1.4l33.6,67.8l33.3-67.8h1.4l11.7,82.6h-8l-8-59.1l-29.2,59.1h-2.1L258,111.9l-8,59.6
			H242z"/>
		<path class="st0" d="M382.9,88.9l38.5,82.6h-8.9l-13-27.2h-35.7L351,171.5h-9.2L381,88.9H382.9z M381.9,106.4l-14.3,29.9h28.3
			L381.9,106.4z"/>
		<path class="st0" d="M463.7,105.4c-4.5-5.9-8.4-10.1-15.2-10.1c-7.1,0-11.2,5.1-11.2,10.5c0,4.5,2.6,9.2,7.4,12.8
			c15.5,11.5,26.9,19.4,26.9,32.8c0,11.6-9.8,22.2-23.2,22.2c-11.4,0-18.9-6.3-25-17.5l7-4.3c5,9.1,10.9,13.7,17.3,13.7
			c8.6,0,15.3-6.3,15.3-14c0-9.1-8.5-14.3-27.3-29.5c-3.9-3.1-7-9.7-7-15.9c0-11.4,8.9-19.3,20-19.3c10.2,0,16.3,6.1,21.7,13.4
			L463.7,105.4z"/>
		<path class="st0" d="M532.4,137.4c9.7-10.5,15.3-16.8,15.3-25.8c0-9.6-7.8-17.3-17.8-17.3c-10.5,0-18.2,7.7-19.2,20.4h-7.9
			c0.5-16.1,12.1-28,27.5-28c15,0,25.5,11.1,25.5,24.9c0,11.3-6.7,19.1-16.5,29.7l-20.6,22.1h38.2v8.1h-56.2L532.4,137.4z"/>
		<path class="st0" d="M568.3,112.7c3.2-16.6,13.2-25.9,26.7-25.9c10.4,0,19.5,6.2,24.3,17.5c3.2,7.4,4.2,15.9,4.2,25.8
			s-1,18.5-4.2,25.9c-4.8,11.3-13.9,17.6-24.3,17.6c-9.2,0-16.8-4.4-21.9-12.8c-4.8-7.9-6.2-18.1-6.2-30.7
			C566.8,124.3,567.3,118.4,568.3,112.7z M579.7,156.7c3.6,6,9.4,9.3,15.4,9.3c12,0,20.6-11.5,20.6-35.8s-8.5-35.8-20.6-35.8
			c-6.1,0-11.9,3.6-15.4,9.6c-3.8,6.3-4.7,15-4.7,26.2S575.9,150.3,579.7,156.7L579.7,156.7z"/>
		<path class="st0" d="M627.3,96.9l5-8.1h16.3v82.6h-8.3V96.9H627.3z"/>
		<path class="st0" d="M691,86.8c13.6,0,23.6,10.1,23.6,21.8c0,7.6-3.8,13.3-11.6,17.6c10,5.1,15.5,11.5,15.5,21.6
			c0,13.1-9.5,25.7-28.1,25.7c-18.1,0-27.7-12.2-27.7-25c0-10.6,6-17.3,16-22.3c-8.3-4.3-12.3-10.7-12.3-17.8
			C666.4,96.9,677,86.8,691,86.8z M670.7,148.7c0,9.1,7.5,17.1,19.8,17.1c12.1,0,19.9-8.4,19.9-18c0-8.8-8.2-17.6-19.5-17.6
			C679.1,130.3,670.7,139.4,670.7,148.7z M675,108.4c0,7.7,7.7,14.3,15.9,14.3c9.3,0,15.7-7.5,15.7-14.5c0-6.3-5.4-13.3-15.9-13.3
			C681.7,94.9,675,101,675,108.4z"/>
		<g id="レイヤー_3">
			<path class="st0" d="M590.5,272.7c-0.4,0.5-0.7,1-1.2,1.4c0.3,0.2,0.5,0.3,0.8,0.5c-0.1,0.1-0.3,0.3-0.4,0.5
				c-0.5-0.4-1-0.7-1.5-1.2c0,0.2,0,0.3,0,0.5v2.4c0,0.4,0,0.8,0.1,1.2h-0.7c0-0.4,0.1-0.8,0.1-1.2v-2.2c0,0,0-0.3,0-0.6
				c-0.4,0.5-0.9,0.9-1.4,1.2c-0.1-0.2-0.2-0.4-0.4-0.5c0.6-0.4,1.1-0.8,1.6-1.3c0.6-0.6,1.1-1.4,1.5-2.2h-1.7c-0.3,0-0.6,0-1,0
				v-0.6c0.3,0.1,0.6,0.1,1,0h0.5v-0.9c0-0.3,0-0.5-0.1-0.8h0.7c-0.1,0.3-0.1,0.5-0.1,0.8v0.9h0.4c0.2,0,0.5,0,0.8,0l0.3,0.4
				c0,0.1-0.1,0.2-0.2,0.4c-0.3,0.7-0.8,1.3-1.3,1.9c0.2,0.2,0.4,0.4,0.6,0.5c0.4-0.5,0.8-1,1.1-1.5L590.5,272.7z M591.1,270.3
				c-0.4,0-0.8,0-1.1,0.1v-0.7c0.4,0,0.8,0.1,1.1,0.1h2.8c0.3,0,0.7,0,1,0c0,0.4-0.1,0.7,0,1.1c0,2-0.1,4.1-0.4,6.1
				c-0.2,0.7-0.4,0.9-1.2,0.9c-0.4,0-0.9,0-1.3-0.1c0-0.2-0.1-0.5-0.2-0.7c0.5,0.1,0.9,0.1,1.4,0.1c0.5,0,0.6-0.1,0.7-0.7
				c0.2-2,0.3-4.1,0.3-6.1h-1.9c0,1.2-0.1,2.4-0.4,3.6c-0.4,1.5-1.2,2.9-2.3,3.9c-0.1-0.2-0.3-0.4-0.5-0.5c1.1-0.9,1.8-2.1,2.2-3.4
				c0.3-1.2,0.4-2.4,0.4-3.6L591.1,270.3z"/>
			<path class="st0" d="M597.5,270.4c0-0.3,0-0.7,0-1c0.4,0,0.7,0.1,1.1,0h4.5c0.3,0,0.7,0,1,0c0,0.3,0,0.6,0,0.9v6.4
				c0,0.4,0,0.7,0.1,1.1h-0.7v-0.6h-5.2v0.6h-0.7c0-0.4,0.1-0.7,0.1-1.1L597.5,270.4z M598.1,272.9h5.2v-2.8h-5.2V272.9z
				 M598.1,276.6h5.2v-3.1h-5.2V276.6z"/>
			<path class="st0" d="M608.4,278.8c-0.5-0.6-0.8-1.3-1.1-2.1c-0.8-2.5-0.4-5.2,1.1-7.3l0.6,0.4c-0.4,0.6-0.8,1.3-1,2
				c-0.2,0.7-0.3,1.5-0.3,2.2c0,0.8,0.1,1.5,0.3,2.3c0.2,0.7,0.6,1.4,1,2L608.4,278.8z"/>
			<path class="st0" d="M611,277.2c-0.4,0-0.7,0-1.1,0c0-0.5,0.1-0.9,0.3-1.3c0.3-0.7,0.7-1.3,1.3-1.7c0.5-0.4,1-0.8,1.5-1.1
				c1-0.7,1.3-1.1,1.3-1.7s-0.6-1.2-1.7-1.2c-0.6,0-1.1,0.2-1.5,0.6c-0.2,0.3-0.3,0.6-0.3,1l-0.8-0.1c0.1-0.5,0.3-1,0.6-1.4
				c0.5-0.5,1.3-0.8,2-0.8c1.5,0,2.5,0.8,2.5,1.9c0,0.5-0.2,1-0.6,1.4c-0.5,0.5-1.1,0.9-1.7,1.3c-0.5,0.3-1,0.7-1.4,1.2
				c-0.3,0.3-0.5,0.7-0.6,1.2h3.2c0.4,0,0.8,0,1.2-0.1v0.8c-0.4,0-0.8-0.1-1.2-0.1L611,277.2z"/>
			<path class="st0" d="M620.5,269.6l-3.6,9.1h-0.8l3.6-9.1H620.5z"/>
			<path class="st0" d="M622.4,277.2c-0.4,0-0.7,0-1.1,0c0-0.5,0.1-0.9,0.3-1.3c0.3-0.7,0.7-1.3,1.3-1.7c0.5-0.4,1-0.8,1.5-1.1
				c1-0.7,1.3-1.1,1.3-1.7s-0.6-1.2-1.7-1.2c-0.6,0-1.1,0.2-1.5,0.6c-0.2,0.3-0.3,0.6-0.3,1l-0.8-0.1c0.1-0.5,0.3-1,0.6-1.4
				c0.5-0.5,1.3-0.8,2-0.8c1.5,0,2.5,0.8,2.5,1.9c0,0.5-0.2,1-0.6,1.4c-0.5,0.5-1.1,0.9-1.7,1.3c-0.5,0.3-1,0.7-1.4,1.2
				c-0.3,0.3-0.5,0.7-0.6,1.2h3.2c0.4,0,0.8,0,1.2-0.1v0.8c-0.4,0-0.8-0.1-1.2-0.1L622.4,277.2z"/>
			<path class="st0" d="M628.9,277.2c-0.4,0-0.7,0-1.1,0c0-0.5,0.1-0.9,0.3-1.3c0.3-0.7,0.7-1.3,1.3-1.7c0.5-0.4,1-0.8,1.5-1.1
				c1-0.7,1.3-1.1,1.3-1.7s-0.6-1.2-1.7-1.2c-0.6,0-1.1,0.2-1.5,0.6c-0.2,0.3-0.3,0.6-0.3,1l-0.8-0.1c0.1-0.5,0.3-1,0.6-1.4
				c0.5-0.5,1.3-0.8,2-0.8c1.5,0,2.5,0.8,2.5,1.9c0,0.5-0.2,1-0.6,1.4c-0.5,0.5-1.1,0.9-1.7,1.3c-0.5,0.3-1,0.7-1.4,1.2
				c-0.3,0.3-0.5,0.7-0.6,1.2h3.2c0.4,0,0.8,0,1.2-0.1v0.8c-0.4,0-0.8-0.1-1.2-0.1L628.9,277.2z"/>
			<path class="st0" d="M634.7,269.5c0.5,0.6,0.8,1.3,1.1,2.1c0.5,1.7,0.5,3.5,0,5.2c-0.2,0.7-0.6,1.4-1.1,2.1l-0.6-0.4
				c0.4-0.6,0.8-1.3,1-2c0.2-0.7,0.3-1.5,0.3-2.3c0-0.8-0.1-1.5-0.3-2.2c-0.2-0.7-0.6-1.4-1-2L634.7,269.5z"/>
			<path class="st0" d="M642.2,274.6c-0.6,1.3-1.2,1.9-1.9,1.9c-1,0-1.7-1-1.7-2.4c0-2.2,1.8-4.1,4.1-4.1c0.1,0,0.2,0,0.3,0
				c1,0,2,0.3,2.7,1c0.7,0.6,1,1.5,1,2.4c0,1.5-0.9,2.9-2.3,3.4c-0.5,0.2-1,0.4-1.5,0.5c-0.1-0.2-0.2-0.5-0.3-0.7
				c0.6-0.1,1.1-0.2,1.7-0.5c1.1-0.5,1.8-1.6,1.8-2.8c0-1.1-0.6-2.1-1.6-2.5c-0.4-0.2-0.8-0.2-1.2-0.2
				C643.1,272,642.8,273.3,642.2,274.6z M641,271.1c-1,0.6-1.7,1.8-1.6,3c0,1,0.4,1.7,1,1.7s0.8-0.5,1.2-1.4
				c0.5-1.2,0.8-2.4,0.9-3.7C642,270.7,641.5,270.8,641,271.1z"/>
			<path class="st0" d="M649.6,269.8c0.3,0.1,0.7,0.1,1,0.1c0.5,0,1.3,0,1.7-0.1c0.1,0,0.3,0,0.4-0.1l0.5,0.4
				c-0.3,0.5-0.4,0.9-0.5,1.5c-0.2,0.7-0.3,0.9-0.5,1.4c0.9,0.1,1.9,0.4,2.7,0.8c0.1-0.7,0.2-1.3,0.1-2c0-0.2,0-0.3,0-0.5h0.8
				c0,0.2,0,0.4,0,0.6c0,0.7-0.1,1.4-0.2,2.2c0.5,0.3,0.9,0.5,1.4,0.8c0.1,0.1,0.2,0.1,0.3,0.1l-0.3,0.8c-0.5-0.4-1-0.7-1.5-1
				c-0.2,0.7-0.5,1.3-1,1.8c-0.4,0.5-1,0.9-1.6,1.2c-0.2-0.2-0.3-0.4-0.5-0.5c0.6-0.3,1.2-0.6,1.6-1.1c0.4-0.5,0.8-1,0.9-1.7
				c-0.9-0.5-1.8-0.7-2.8-0.8c-0.3,0.8-0.6,1.6-0.9,2.4c-0.4,0.7-0.7,1-1.2,1c-0.8-0.1-1.4-0.8-1.3-1.6c0,0,0,0,0,0
				c0-0.8,0.4-1.6,1.2-2c0.5-0.3,1.2-0.5,1.8-0.4c0.3-1,0.5-1.4,0.8-2.5c-0.8,0.1-0.9,0.1-1.9,0.1c-0.2,0-0.5,0-0.7,0L649.6,269.8z
				 M649.6,274.1c-0.3,0.3-0.5,0.7-0.5,1.1c0,0.5,0.3,1,0.7,1s0.8-0.6,1.5-2.7C650.7,273.5,650.1,273.7,649.6,274.1L649.6,274.1z"/>
			<path class="st0" d="M661.8,269.5c0.3,0,0.6,0,0.8,0h0.6c0.3,0,0.6,0,0.8,0c-0.1,0.6-0.1,1.1-0.1,1.7v4.9c0,0.4,0,0.8,0.1,1.1h-1
				c0.1-0.4,0.1-0.8,0.1-1.1v-5.8h-0.5c-0.3,0-0.6,0-0.9,0.1L661.8,269.5z"/>
			<path class="st0" d="M666.4,275.3c0.1,0.4,0.3,0.7,0.6,1c0.4,0.3,0.8,0.4,1.3,0.4c1.2,0,1.9-0.6,1.9-1.5s-0.7-1.5-2-1.5
				c-0.3,0-0.5,0-0.8,0v-0.8c0.2,0,0.5,0.1,0.7,0.1c0.5,0,1.1-0.1,1.5-0.5c0.3-0.3,0.4-0.6,0.4-1c0-0.9-0.6-1.4-1.6-1.4
				c-0.5,0-1,0.1-1.3,0.5c-0.2,0.2-0.3,0.5-0.3,0.7l-0.8-0.2c0.1-0.4,0.3-0.7,0.5-1c0.5-0.5,1.3-0.8,2-0.7c1.5,0,2.4,0.8,2.4,2
				c0,0.6-0.2,1.1-0.7,1.5c-0.3,0.2-0.6,0.3-0.9,0.4c0.4,0,0.9,0.2,1.2,0.4c0.5,0.4,0.7,0.9,0.7,1.5c0,1.4-1,2.2-2.7,2.2
				c-0.8,0.1-1.6-0.2-2.2-0.8c-0.2-0.3-0.4-0.6-0.5-1L666.4,275.3z"/>
			<path class="st0" d="M673.4,271.8h-1v-1h1V271.8z M672.4,276.2v-1h1v1H672.4z"/>
			<path class="st0" d="M675.6,276.6c-0.3-0.3-0.5-0.6-0.6-0.9c-0.3-0.7-0.4-1.5-0.4-2.3c0-0.9,0.2-1.9,0.6-2.7
				c0.8-1.2,2.5-1.6,3.7-0.8c0.1,0.1,0.3,0.2,0.4,0.3c0.3,0.3,0.5,0.6,0.6,0.9c0.3,0.7,0.4,1.5,0.4,2.3c0.1,1-0.2,2-0.7,2.9
				c-0.5,0.7-1.3,1.1-2.1,1C676.7,277.4,676,277.1,675.6,276.6z M676.1,270.6c-0.2,0.2-0.4,0.5-0.5,0.7c-0.2,0.6-0.3,1.3-0.3,2
				c0,0.8,0.1,1.6,0.5,2.4c0.3,0.6,0.9,0.9,1.5,0.9c0.5,0,0.9-0.2,1.2-0.5c0.2-0.2,0.4-0.5,0.5-0.8c0.2-0.6,0.3-1.3,0.3-2
				c0-0.8-0.1-1.6-0.5-2.3c-0.3-0.6-0.9-0.9-1.6-0.9C676.9,270.1,676.5,270.3,676.1,270.6L676.1,270.6z"/>
			<path class="st0" d="M682.1,276.6c-0.3-0.3-0.5-0.6-0.6-0.9c-0.3-0.7-0.4-1.5-0.4-2.3c0-0.9,0.2-1.9,0.6-2.7
				c0.8-1.2,2.5-1.6,3.7-0.8c0.1,0.1,0.3,0.2,0.4,0.3c0.3,0.3,0.5,0.6,0.6,0.9c0.3,0.7,0.4,1.5,0.4,2.3c0.1,1-0.2,2-0.7,2.9
				c-0.5,0.7-1.3,1.1-2.1,1C683.3,277.4,682.6,277.1,682.1,276.6z M682.7,270.6c-0.2,0.2-0.4,0.5-0.5,0.7c-0.2,0.6-0.3,1.3-0.3,2
				c0,0.8,0.1,1.6,0.5,2.4c0.3,0.6,0.9,0.9,1.5,0.9c0.5,0,0.9-0.2,1.2-0.5c0.2-0.2,0.4-0.5,0.5-0.8c0.2-0.6,0.3-1.3,0.3-2
				c0-0.8-0.1-1.6-0.5-2.3c-0.3-0.6-0.9-0.9-1.6-0.9C683.5,270.1,683,270.3,682.7,270.6L682.7,270.6z"/>
			<path class="st0" d="M688.3,272.9c0.3,0,0.6,0.1,0.9,0h1.2c0.3,0,0.6,0,0.9,0v0.8c-0.3,0-0.6-0.1-0.9,0h-1.2c-0.3,0-0.6,0-0.9,0
				V272.9z"/>
			<path class="st0" d="M693,269.5c0.3,0,0.6,0,0.8,0h0.6c0.3,0,0.6,0,0.8,0c-0.1,0.6-0.1,1.1-0.1,1.7v4.9c0,0.4,0,0.8,0.1,1.1h-1
				c0.1-0.4,0.1-0.8,0.1-1.1v-5.8h-0.5c-0.3,0-0.6,0-0.9,0.1L693,269.5z"/>
			<path class="st0" d="M701.5,273.6c0.5,0.4,0.8,0.9,0.8,1.6c0,1.4-1,2.1-2.8,2.1s-2.8-0.8-2.8-2.1c0-0.7,0.3-1.3,0.9-1.6
				c0.3-0.2,0.6-0.3,0.9-0.3c-0.9-0.1-1.5-0.9-1.5-1.8c0-1.2,1-2,2.5-2s2.5,0.8,2.5,2c0,0.9-0.6,1.7-1.5,1.8
				C700.9,273.3,701.2,273.4,701.5,273.6z M697.5,275.2c0,1,0.7,1.5,2,1.5c0.6,0,1.2-0.1,1.6-0.5c0.3-0.3,0.4-0.6,0.4-1
				c0-1-0.8-1.6-2-1.6S697.5,274.2,697.5,275.2L697.5,275.2z M697.8,271.5c0,0.9,0.6,1.4,1.7,1.4s1.7-0.5,1.7-1.4s-0.7-1.4-1.7-1.4
				S697.8,270.6,697.8,271.5L697.8,271.5z"/>
			<path class="st0" d="M704.5,271.8h-1v-1h1V271.8z M703.5,276.2v-1h1v1H703.5z"/>
			<path class="st0" d="M706.6,276.6c-0.3-0.3-0.5-0.6-0.6-0.9c-0.3-0.7-0.4-1.5-0.4-2.3c0-0.9,0.2-1.9,0.6-2.7
				c0.8-1.2,2.5-1.6,3.7-0.8c0.1,0.1,0.3,0.2,0.4,0.3c0.3,0.3,0.5,0.6,0.6,0.9c0.3,0.7,0.4,1.5,0.4,2.3c0.1,1-0.2,2-0.7,2.9
				c-0.5,0.7-1.3,1.1-2.1,1C707.8,277.4,707.1,277.1,706.6,276.6z M707.2,270.6c-0.2,0.2-0.4,0.5-0.5,0.7c-0.2,0.6-0.3,1.3-0.3,2
				c0,0.8,0.1,1.6,0.5,2.4c0.3,0.6,0.9,0.9,1.5,0.9c0.5,0,0.9-0.2,1.2-0.5c0.2-0.2,0.4-0.5,0.5-0.8c0.2-0.6,0.3-1.3,0.3-2
				c0-0.8-0.1-1.6-0.5-2.3c-0.3-0.6-0.9-0.9-1.6-0.9C708,270.1,707.5,270.3,707.2,270.6L707.2,270.6z"/>
			<path class="st0" d="M713.2,276.6c-0.3-0.3-0.5-0.6-0.6-0.9c-0.3-0.7-0.4-1.5-0.4-2.3c0-0.9,0.2-1.9,0.6-2.7
				c0.8-1.2,2.5-1.6,3.7-0.8c0.1,0.1,0.3,0.2,0.4,0.3c0.3,0.3,0.5,0.6,0.6,0.9c0.3,0.7,0.4,1.5,0.4,2.3c0.1,1-0.2,2-0.7,2.9
				c-0.5,0.7-1.3,1.1-2.1,1C714.3,277.4,713.7,277.1,713.2,276.6z M713.8,270.6c-0.2,0.2-0.4,0.5-0.5,0.7c-0.2,0.6-0.3,1.3-0.3,2
				c0,0.8,0.1,1.6,0.5,2.4c0.3,0.6,0.9,0.9,1.5,0.9c0.5,0,0.9-0.2,1.2-0.5c0.2-0.2,0.4-0.5,0.5-0.8c0.2-0.6,0.3-1.3,0.3-2
				c0-0.8-0.1-1.6-0.5-2.3c-0.3-0.6-0.9-0.9-1.6-0.9C714.5,270.1,714.1,270.3,713.8,270.6L713.8,270.6z"/>
			<path class="st0" d="M588.9,284.3c-0.2,0-0.4,0-0.8,0v-0.7c0.3,0,0.5,0.1,0.8,0h1.3c0.3,0,0.6,0,0.9-0.1c0,0.2,0,0.4,0,0.7
				c0,1.2,0.3,2.4,0.8,3.5c0.4,0.8,0.9,1.5,1.5,2.1c0.5,0.6,1.2,1.1,1.9,1.5c-0.2,0.2-0.4,0.4-0.6,0.6c-0.7-0.5-1.4-1.1-1.9-1.7
				c-0.6-0.7-1-1.4-1.4-2.2c-0.3-0.6-0.5-1.2-0.6-1.8c-0.2,1.2-0.7,2.3-1.4,3.2c-0.7,1-1.6,1.8-2.6,2.5c-0.1-0.2-0.3-0.4-0.5-0.6
				c0.9-0.5,1.7-1.2,2.3-2c0.7-0.9,1.2-1.8,1.5-2.9c0.2-0.7,0.3-1.4,0.3-2.2L588.9,284.3z"/>
			<path class="st0" d="M597.5,284.2c0-0.4,0-0.7-0.1-1.1h0.7c-0.1,0.4-0.1,0.7-0.1,1.1v1.4h0.2c0.3,0,0.6,0,0.8,0v0.6
				c-0.3,0-0.6,0-0.8,0h-0.2v2.6c0.3-0.2,0.6-0.3,0.8-0.5v0.6c-0.7,0.4-1.4,0.8-2.1,1.1l-0.5,0.3l-0.2-0.7c0.5-0.1,0.9-0.3,1.3-0.5
				v-2.9H597c-0.3,0-0.6,0-0.8,0v-0.7c0.3,0,0.6,0.1,0.9,0h0.4L597.5,284.2z M600.3,288.8c-0.5,0.5-1,1-1.7,1.3
				c-0.1-0.2-0.2-0.3-0.4-0.5c1-0.4,1.8-1.2,2.3-2.1h-0.6c-0.3,0-0.6,0-0.9,0.1V287c0.3,0.1,0.6,0.1,0.9,0.1h4.3c0.3,0,0.7,0,1-0.1
				v0.6c-0.3,0-0.7,0-1,0h-3c-0.1,0.3-0.3,0.5-0.5,0.7h3.3c0.3,0,0.7,0,1,0c0,0.2,0,0.4,0,0.6c0,0.9-0.2,1.8-0.4,2.7
				c-0.2,0.4-0.4,0.5-1.1,0.5c-0.2,0-0.6,0-0.9,0c0-0.2-0.1-0.4-0.2-0.6c0.4,0.1,0.8,0.1,1.2,0.1c0.4,0,0.5-0.1,0.6-0.7
				c0.1-0.6,0.2-1.3,0.2-1.9h-0.7c-0.2,0.5-0.5,1.1-0.9,1.5c-0.4,0.4-0.8,0.9-1.2,1.2c-0.3,0.2-0.5,0.4-0.8,0.6
				c-0.1-0.2-0.3-0.3-0.5-0.5c0.8-0.4,1.4-0.9,2-1.5c0.3-0.4,0.6-0.8,0.8-1.3h-1c-0.7,1.1-1.6,1.9-2.8,2.5c-0.1-0.2-0.3-0.3-0.4-0.5
				c1-0.4,1.9-1.1,2.5-2L600.3,288.8z M600.6,286.4c-0.4,0-0.7,0-0.9,0c0-0.3,0-0.6,0-0.9v-1.3c0-0.3,0-0.6,0-0.9c0.3,0,0.7,0.1,1,0
				h2.6c0.3,0,0.7,0,1,0c0,0.3,0,0.6,0,0.9v1.2c0,0.3,0,0.6,0,0.9c-0.2,0-0.5,0-0.9,0H600.6z M600.3,284.7h3.3v-0.7h-3.3V284.7z
				 M600.3,285.9h3.3v-0.8h-3.3V285.9z"/>
			<path class="st0" d="M607.8,284.9c-0.3,0.4-0.7,0.8-1.1,1.1c-0.1-0.2-0.3-0.3-0.5-0.4c0.8-0.6,1.5-1.3,1.9-2.2
				c0.1-0.2,0.2-0.3,0.2-0.5l0.7,0.2l-0.2,0.2c-0.2,0.4-0.3,0.5-0.5,0.9h5.1c0.4,0,0.8,0,1.3-0.1v0.7c-0.4,0-0.7,0-1.1,0v1.8h0.5
				c0.3,0,0.7,0,1,0v0.7c-0.3,0-0.7-0.1-1,0h-0.5v1.8h0.4c0.3,0,0.7,0,1-0.1v0.7c-0.3,0-0.7-0.1-1-0.1h-6.5c-0.3,0-0.6,0-0.9,0.1
				v-0.7c0.3,0,0.7,0.1,1,0.1h0.3V287h-0.5c-0.3,0-0.7,0-1,0v-0.7c0.3,0,0.7,0.1,1,0h0.5L607.8,284.9z M606.4,291.6
				c0.6-0.5,1-1.2,1.3-1.9l0.5,0.3c-0.3,0.7-0.7,1.4-1.3,2L606.4,291.6z M608.4,286.4h1.2v-1.8h-1.2V286.4z M608.4,288.8h1.2V287
				h-1.2V288.8z M609.4,292c0-0.7-0.1-1.4-0.2-2.1l0.6-0.1c0.2,0.7,0.3,1.4,0.3,2.1L609.4,292z M611.3,286.4v-1.8h-1.2v1.8H611.3z
				 M611.3,288.8V287h-1.2v1.8L611.3,288.8z M611.7,292c-0.1-0.7-0.3-1.4-0.5-2l0.5-0.2c0.3,0.6,0.5,1.3,0.6,2L611.7,292z
				 M613.1,286.4v-1.8h-1.2v1.8H613.1z M613.1,288.8V287h-1.2v1.8L613.1,288.8z M614.5,291.9c-0.3-0.7-0.7-1.4-1.2-2l0.5-0.3
				c0.5,0.6,0.9,1.2,1.3,1.9L614.5,291.9z"/>
			<path class="st0" d="M617.3,287.1c-0.3,0-0.6,0-0.9,0v-0.6c0.3,0,0.6,0,0.9,0h0.8v-2.4c0-0.4,0-0.7-0.1-1.1h0.7
				c0,0.4-0.1,0.7-0.1,1.1v2.4h0.6c0.2,0,0.5,0,0.7,0v0.6c-0.2,0-0.5,0-0.8,0h-0.5c0.4,0.7,0.8,1.3,1.4,1.9
				c-0.1,0.2-0.3,0.3-0.3,0.5c-0.5-0.5-0.9-1.1-1.2-1.8c0,0.4,0,1.3,0,1.5v1.9c0,0.4,0,0.7,0.1,1.1h-0.7c0-0.4,0.1-0.7,0.1-1.1v-1.7
				c0-0.5,0-1,0-1.5c-0.3,1.1-0.8,2-1.5,2.9c-0.1-0.2-0.2-0.4-0.4-0.6c0.5-0.5,0.9-1.1,1.2-1.7c0.2-0.4,0.4-0.9,0.6-1.3L617.3,287.1
				z M617,283.7c0.3,0.7,0.5,1.4,0.7,2.1l-0.5,0.2c-0.1-0.7-0.4-1.5-0.7-2.1L617,283.7z M620.3,283.9c-0.2,0.8-0.5,1.5-0.8,2.2
				l-0.5-0.2c0.4-0.7,0.6-1.4,0.7-2.2L620.3,283.9z M623.5,284.2c0-0.4,0-0.7-0.1-1h0.8c0,0.3-0.1,0.7-0.1,1v4.6h0.2
				c0.3-0.1,0.6-0.2,0.9-0.3l0.1,0.7c-0.3,0-0.7,0.1-1,0.2l-0.2,0.1v1.6c0,0.4,0,0.7,0.1,1.1h-0.8c0.1-0.4,0.1-0.7,0.1-1.1v-1.5
				l-2.6,0.6c-0.3,0.1-0.6,0.2-0.9,0.3l-0.1-0.7c0.3,0,0.7-0.1,1-0.2l2.7-0.6V284.2z M620.9,286.3c0.7,0.4,1.3,0.9,1.8,1.5l-0.4,0.5
				c-0.5-0.6-1.1-1.1-1.8-1.5L620.9,286.3z M621.2,283.8c0.7,0.4,1.3,1,1.8,1.6l-0.4,0.5c-0.5-0.6-1.1-1.2-1.8-1.6L621.2,283.8z"/>
			<path class="st0" d="M633.2,283h0.5v9.1h-0.5V283z"/>
			<path class="st0" d="M647.5,291.3c-0.1-0.3-0.2-0.7-0.3-1l-0.5-1.3h-3.5l-0.5,1.3c-0.1,0.3-0.2,0.7-0.3,1h-1
				c0.2-0.4,0.4-0.7,0.5-1.1l2.2-5.5c0.1-0.3,0.2-0.6,0.3-0.9h1c0.1,0.3,0.2,0.6,0.3,0.9l2.2,5.5c0.2,0.4,0.3,0.8,0.5,1.1H647.5z
				 M645.1,285l-0.2-0.6l-0.1,0.3c-0.1,0.2-0.1,0.3-0.1,0.3l-1.3,3.3h3L645.1,285z"/>
			<path class="st0" d="M653.6,290.8c0-0.2,0-0.3,0-0.5c-0.4,0.7-1.2,1.1-2,1.1c-1.5,0-2.5-1.1-2.5-2.8s1-2.8,2.5-2.8
				c0.8,0,1.6,0.4,2,1.1v-0.2c0-0.2,0-0.3,0-0.5v-1.3c0-0.4,0-0.8-0.1-1.1h0.9c0,0.4-0.1,0.8-0.1,1.1v5.3c0,0.4,0,0.8,0.1,1.1h-0.8
				L653.6,290.8z M649.9,288.6c0,0.6,0.1,1.1,0.4,1.6c0.3,0.4,0.8,0.6,1.3,0.6c1.1,0,1.9-0.8,1.9-1.9c0-0.1,0-0.2,0-0.3
				c0-0.6-0.2-1.1-0.6-1.6c-0.4-0.3-0.9-0.5-1.4-0.5C650.6,286.5,649.9,287.3,649.9,288.6z"/>
			<path class="st0" d="M655.8,291.3c0.1-0.4,0.1-0.8,0.1-1.1v-3.1c0-0.4,0-0.8-0.1-1.1h0.8v0.5c0,0,0,0.2,0,0.4
				c0.1-0.2,0.2-0.4,0.4-0.5c0.4-0.4,0.9-0.5,1.4-0.5c0.5,0,1,0.2,1.3,0.5c0.2,0.2,0.3,0.4,0.3,0.6c0.4-0.7,1.1-1.1,1.8-1.1
				c0.6,0,1.1,0.2,1.5,0.6c0.3,0.4,0.4,0.8,0.3,1.3v2.5c0,0.4,0,0.7,0.1,1.1h-0.9c0.1-0.4,0.1-0.8,0.1-1.1v-2.4
				c0-0.9-0.3-1.4-1.2-1.4c-0.5,0-1,0.3-1.2,0.7c-0.2,0.3-0.3,0.6-0.3,1v2c0,0.4,0,0.7,0.1,1.1h-0.9c0.1-0.4,0.1-0.8,0.1-1.1v-2.4
				c0-0.9-0.4-1.4-1.1-1.4c-0.5,0-1,0.3-1.3,0.8c-0.2,0.3-0.3,0.6-0.3,1v2c0,0.4,0,0.8,0.1,1.1L655.8,291.3z"/>
			<path class="st0" d="M666.1,283.7v0.9h-1v-0.9H666.1z M666.1,285.9c-0.1,0.4-0.1,0.8-0.1,1.1v3.1c0,0.4,0,0.8,0.1,1.1h-0.9
				c0-0.4,0.1-0.8,0.1-1.1v-3.1c0-0.4,0-0.8-0.1-1.1H666.1z"/>
			<path class="st0" d="M668,289.7c0,0.3,0.1,0.5,0.3,0.7c0.3,0.3,0.7,0.4,1.2,0.4c0.9,0,1.4-0.4,1.4-1c0-0.2-0.1-0.5-0.3-0.6
				c-0.4-0.2-0.8-0.3-1.2-0.4c-0.5-0.1-1-0.2-1.5-0.5c-0.3-0.2-0.6-0.6-0.5-1c0-0.4,0.2-0.7,0.4-1c0.4-0.4,1-0.5,1.6-0.5
				c0.6,0,1.1,0.1,1.6,0.5c0.3,0.2,0.5,0.6,0.5,0.9l-0.8,0.1c0-0.2-0.1-0.4-0.2-0.5c-0.3-0.3-0.6-0.4-1-0.4c-0.7,0-1.2,0.4-1.2,0.9
				c0,0.2,0.1,0.4,0.3,0.5c0.3,0.2,0.7,0.3,1.1,0.3c0.6,0.1,1.1,0.3,1.6,0.6c0.3,0.2,0.5,0.6,0.5,1c0,1-0.8,1.6-2.2,1.6
				c-0.8,0.1-1.5-0.2-2-0.8c-0.2-0.2-0.3-0.5-0.3-0.8L668,289.7z"/>
			<path class="st0" d="M673.4,289.7c0,0.3,0.1,0.5,0.3,0.7c0.3,0.3,0.7,0.4,1.2,0.4c0.9,0,1.4-0.4,1.4-1c0-0.2-0.1-0.5-0.3-0.6
				c-0.4-0.2-0.8-0.3-1.2-0.4c-0.5-0.1-1-0.2-1.5-0.5c-0.3-0.2-0.6-0.6-0.5-1c0-0.4,0.2-0.7,0.4-1c0.4-0.4,1-0.5,1.6-0.5
				c0.6,0,1.1,0.1,1.6,0.5c0.3,0.2,0.5,0.6,0.5,0.9l-0.8,0.1c0-0.2-0.1-0.4-0.2-0.5c-0.3-0.3-0.6-0.4-1-0.4c-0.7,0-1.2,0.4-1.2,0.9
				c0,0.2,0.1,0.4,0.3,0.5c0.3,0.2,0.7,0.3,1.1,0.3c0.6,0.1,1.1,0.3,1.6,0.6c0.3,0.2,0.5,0.6,0.5,1c0,1-0.8,1.6-2.2,1.6
				c-0.8,0.1-1.5-0.2-2-0.8c-0.2-0.2-0.3-0.5-0.3-0.8L673.4,289.7z"/>
			<path class="st0" d="M679.2,283.7v0.9h-1v-0.9H679.2z M679.2,285.9c-0.1,0.4-0.1,0.8-0.1,1.1v3.1c0,0.4,0,0.8,0.1,1.1h-0.9
				c0-0.4,0.1-0.8,0.1-1.1v-3.1c0-0.4,0-0.8-0.1-1.1H679.2z"/>
			<path class="st0" d="M680.4,288.6c0.1-1.5,1.3-2.6,2.8-2.5c1.5,0.1,2.6,1.3,2.5,2.8c-0.1,1.4-1.2,2.5-2.7,2.5
				c-1.4,0.1-2.6-1-2.7-2.4C680.4,288.9,680.4,288.8,680.4,288.6z M681.2,288.6c0,1.4,0.7,2.2,1.9,2.2s1.9-0.8,1.9-2.2
				s-0.7-2.2-1.9-2.2S681.2,287.2,681.2,288.6L681.2,288.6z"/>
			<path class="st0" d="M686.9,291.3c0.1-0.4,0.1-0.8,0.1-1.1v-3.1c0-0.4,0-0.8-0.1-1.1h0.8v0.7c0,0.1,0,0.3,0,0.4
				c0.4-0.8,1.2-1.2,2-1.2c0.6,0,1.2,0.2,1.6,0.8c0.2,0.3,0.3,0.7,0.3,1.1v2.5c0,0.4,0,0.7,0.1,1.1h-0.9c0-0.4,0.1-0.8,0.1-1.1v-2.3
				c0-0.9-0.4-1.4-1.2-1.4c-0.6,0-1.1,0.3-1.4,0.8c-0.2,0.3-0.4,0.6-0.5,1v1.9c0,0.4,0,0.8,0.1,1.1L686.9,291.3z"/>
			<path class="st0" d="M697.3,290.1c0,0.4,0,0.8,0.1,1.2h-1c0.1-0.4,0.1-0.8,0.1-1.2v-5.3c0-0.4,0-0.8-0.1-1.1c0.3,0,0.6,0,1.1,0
				h2.7c0.4,0,0.8,0,1.1-0.1v0.9c-0.4-0.1-0.8-0.1-1.1-0.1h-2.9v2.6h2.3c0.4,0,0.8,0,1.1-0.1v0.8c-0.4-0.1-0.8-0.1-1.1-0.1h-2.3
				V290.1z"/>
			<path class="st0" d="M705.7,286.7c-0.3-0.1-0.5-0.1-0.8-0.1c-0.5,0-0.9,0.2-1.2,0.6c-0.2,0.3-0.4,0.6-0.4,1v2
				c0,0.4,0,0.7,0.1,1.1h-0.9c0-0.4,0.1-0.8,0.1-1.1V287c0-0.4,0-0.8-0.1-1.1h0.8v0.6c0,0.1,0,0.2,0,0.3c0.1-0.2,0.3-0.5,0.5-0.6
				c0.4-0.2,0.8-0.4,1.2-0.3c0.3,0,0.6,0,0.9,0.1L705.7,286.7z"/>
			<path class="st0" d="M707.2,288.7c0,0.5,0.1,1,0.4,1.4c0.3,0.4,0.9,0.7,1.4,0.7c0.8,0,1.4-0.4,1.6-1.2l0.7,0.3
				c-0.1,0.3-0.3,0.6-0.5,0.8c-0.5,0.5-1.1,0.7-1.8,0.7c-1.4,0-2.5-1.1-2.6-2.5c0-0.1,0-0.2,0-0.4c0-1.7,1-2.8,2.5-2.8
				c1.2,0,2.3,0.9,2.4,2.2c0,0.1,0,0.5,0.1,0.8L707.2,288.7z M710.6,288.1c0-0.5-0.2-0.9-0.5-1.2c-0.3-0.3-0.7-0.5-1.2-0.5
				c-0.6,0-1.2,0.3-1.4,0.9c-0.1,0.3-0.2,0.5-0.2,0.8L710.6,288.1z"/>
			<path class="st0" d="M713.1,288.7c0,0.5,0.1,1,0.4,1.4c0.3,0.4,0.9,0.7,1.4,0.7c0.8,0,1.4-0.4,1.6-1.2l0.7,0.3
				c-0.1,0.3-0.3,0.6-0.5,0.8c-0.5,0.5-1.1,0.7-1.8,0.7c-1.4,0-2.5-1.1-2.6-2.5c0-0.1,0-0.2,0-0.4c0-1.7,1-2.8,2.5-2.8
				c1.2,0,2.3,0.9,2.4,2.2c0,0.1,0,0.5,0.1,0.8L713.1,288.7z M716.5,288.1c0-0.5-0.2-0.9-0.5-1.2c-0.3-0.3-0.7-0.5-1.2-0.5
				c-0.6,0-1.2,0.3-1.4,0.9c-0.1,0.3-0.2,0.5-0.2,0.8L716.5,288.1z"/>
			<path class="st0" d="M145.9,283.2c2.6-2.7,4.2-4.8,4.2-7c0-1.7-1.3-3-2.9-3.1c0,0-0.1,0-0.1,0c-1.9,0-3.1,1.6-3.2,3.9h-4.1
				c0.2-5.1,3.3-7.9,7.6-7.9c3.7-0.1,6.8,2.8,6.9,6.6c0,0.1,0,0.2,0,0.3c0,3.3-2,6.4-5.2,9.9l-2.5,2.7h7.9v4h-15.3v-2.1L145.9,283.2
				z"/>
			<path class="st0" d="M172.6,281.1c0,8-2.5,12-7.7,12c-2.2,0.1-4.3-0.9-5.7-2.6c-1.7-2.2-2.2-5.1-2.2-9.1c0-4.4,0.6-7.5,2.3-9.6
				c1.3-1.7,3.3-2.6,5.4-2.6C170.1,269.1,172.6,273.1,172.6,281.1z M161.4,281.4c0,5.1,1.1,7.6,3.6,7.6s3.5-2.6,3.5-7.9
				s-1.2-7.9-3.6-7.9C162.2,273.3,161.4,276,161.4,281.4L161.4,281.4z"/>
			<path class="st0" d="M176.7,269.7h6.3v22.8h-4.2v-18.7h-4.6L176.7,269.7z"/>
			<path class="st0" d="M195.1,269.1c3.5-0.2,6.4,2.5,6.6,6c0,0.1,0,0.3,0,0.4c0,1.8-0.8,3.5-2.1,4.6c2,1.3,3.2,3.5,3.1,5.9
				c0,3.9-2.6,7.1-7.6,7.1c-1.2,0.1-2.4-0.1-3.5-0.5c-2.7-1-4.4-3.7-4.2-6.5c0-2.4,1.1-4.6,3.1-5.9c-1.3-1.2-2-2.9-2-4.7
				C188.5,271.8,191.1,269.1,195.1,269.1z M191.5,285.7c0,1.8,1.5,3.3,3.3,3.3c0.1,0,0.2,0,0.2,0c2.1,0,3.5-1.2,3.5-3.2
				c0-1.9-1.5-3.4-3.4-3.4c0,0-0.1,0-0.1,0C193.2,282.3,191.6,283.8,191.5,285.7z M192.5,275.8c-0.1,1.4,1,2.5,2.3,2.6
				c0,0,0.1,0,0.1,0c1.4,0,2.5-1.2,2.5-2.6c0-1.4-1.2-2.5-2.6-2.5c-1.3,0-2.3,1.1-2.3,2.4C192.6,275.7,192.6,275.8,192.5,275.8
				L192.5,275.8z"/>
			<path class="st0" d="M211,290.5c0,1.3-1,2.4-2.3,2.4c0,0,0,0,0,0c-1.3,0-2.4-1.1-2.4-2.5c-0.1-1.3,0.9-2.4,2.2-2.5
				c1.3-0.1,2.4,0.9,2.5,2.2C211,290.3,211,290.4,211,290.5L211,290.5z"/>
			<path class="st0" d="M220.4,283.2c2.6-2.7,4.1-4.8,4.1-7c0-1.7-1.3-3-2.9-3.1c0,0-0.1,0-0.1,0c-1.8,0-3.1,1.6-3.2,3.9h-4.1
				c0.2-5.1,3.3-7.9,7.6-7.9c3.7-0.1,6.8,2.8,6.9,6.6c0,0.1,0,0.2,0,0.3c0,3.3-2,6.4-5.2,9.9l-2.5,2.6h7.9v4h-15.3v-2.1L220.4,283.2
				z"/>
			<path class="st0" d="M236.8,290.5c0,1.3-1,2.4-2.3,2.5c0,0,0,0,0,0c-1.3,0-2.4-1.1-2.4-2.5c-0.1-1.3,0.9-2.4,2.2-2.5
				c1.3-0.1,2.4,0.9,2.5,2.2C236.8,290.3,236.8,290.4,236.8,290.5L236.8,290.5z"/>
			<path class="st0" d="M246.3,283.2c2.6-2.7,4.1-4.8,4.1-7c0-1.7-1.3-3-2.9-3.1c0,0-0.1,0-0.1,0c-1.9,0-3.1,1.6-3.2,3.9h-4.1
				c0.2-5.1,3.3-7.9,7.6-7.9c3.7-0.1,6.8,2.8,6.9,6.6c0,0.1,0,0.2,0,0.3c0,3.3-2,6.4-5.2,9.9l-2.5,2.7h7.9v4h-15.3v-2.1L246.3,283.2
				z"/>
			<path class="st0" d="M264.2,283.2c2.6-2.7,4.2-4.8,4.2-7c0-1.7-1.3-3-2.9-3.1c0,0-0.1,0-0.1,0c-1.9,0-3.1,1.6-3.2,3.9h-4.1
				c0.2-5.1,3.3-7.9,7.6-7.9c3.7-0.1,6.8,2.8,6.9,6.6c0,0.1,0,0.2,0,0.3c0,3.3-2,6.4-5.2,9.9l-2.5,2.7h7.9v4h-15.3v-2.1L264.2,283.2
				z"/>
			<path class="st0" d="M293.5,280h15.2v2.1h-15.2V280z"/>
			<path class="st0" d="M322.2,283.2c2.5-2.7,4.2-4.8,4.2-7c0-1.7-1.3-3-2.9-3.1c0,0-0.1,0-0.1,0c-1.9,0-3.1,1.6-3.2,3.9H316
				c0.2-5.1,3.3-7.9,7.6-7.9c3.7-0.1,6.8,2.8,6.9,6.6c0,0.1,0,0.2,0,0.3c0,3.3-2,6.4-5.2,9.9l-2.5,2.7h7.9v4h-15.3v-2.1L322.2,283.2
				z"/>
			<path class="st0" d="M338.7,290.5c0,1.3-1,2.4-2.3,2.4c0,0,0,0,0,0c-1.3,0-2.4-1.1-2.4-2.5c-0.1-1.3,0.9-2.4,2.2-2.5
				s2.4,0.9,2.5,2.2C338.7,290.3,338.7,290.4,338.7,290.5z"/>
			<path class="st0" d="M348.1,283.2c2.6-2.7,4.2-4.8,4.2-7c0-1.7-1.3-3-2.9-3.1c0,0-0.1,0-0.1,0c-1.9,0-3.1,1.6-3.2,3.9h-4.1
				c0.2-5.1,3.3-7.9,7.6-7.9c3.7-0.1,6.8,2.9,6.9,6.6c0,0.1,0,0.1,0,0.2c0,3.3-2,6.4-5.2,9.9l-2.5,2.7h7.9v4h-15.3v-2.1L348.1,283.2
				z"/>
			<path class="st0" d="M363,269.7h10.3v4h-7.2l-0.9,4.1c0.5-0.2,0.9-0.2,1.4-0.2c4.1,0,7,3.2,7,7.6c0.1,4.2-3.2,7.7-7.4,7.9
				c-0.1,0-0.1,0-0.2,0c-3.7,0.1-6.9-2.5-7.5-6.2h4.4c0.5,1.3,1.8,2.2,3.2,2.2c1.9,0,3.4-1.6,3.4-3.5c0-0.1,0-0.1,0-0.2
				c0.2-1.8-1.2-3.4-2.9-3.5c-0.1,0-0.1,0-0.2,0c-1.1,0-2,0.5-2.7,1.4l-3.4-0.8L363,269.7z"/>
			<path class="st0" d="M401.4,269.7h6.3v22.8h-4.2v-18.7H399L401.4,269.7z"/>
			<path class="st0" d="M426.9,281.1c0,8-2.5,12-7.7,12c-2.2,0.1-4.3-0.9-5.7-2.6c-1.7-2.2-2.1-5.1-2.1-9.1c0-4.4,0.6-7.5,2.3-9.6
				c1.3-1.7,3.3-2.6,5.4-2.6C424.4,269.1,426.9,273.1,426.9,281.1z M415.7,281.4c0,5.1,1.1,7.6,3.6,7.6s3.5-2.6,3.5-7.9
				s-1.2-7.9-3.6-7.9C416.5,273.3,415.7,276,415.7,281.4z"/>
			<path class="st0" d="M435.7,275.4c0.1,1.3-0.9,2.4-2.2,2.5s-2.4-0.9-2.5-2.2c0-0.1,0-0.2,0-0.3c-0.1-1.3,0.9-2.4,2.2-2.5
				s2.4,0.9,2.5,2.2C435.7,275.2,435.7,275.3,435.7,275.4z M435.7,288.3c0,1.3-1,2.4-2.3,2.4c0,0,0,0,0,0c-1.3,0-2.4-1.1-2.4-2.5
				c-0.1-1.3,0.9-2.4,2.2-2.5s2.4,0.9,2.5,2.2C435.7,288.1,435.7,288.2,435.7,288.3z"/>
			<path class="st0" d="M455.2,281.1c0,8-2.5,12-7.7,12c-2.2,0.1-4.3-0.9-5.7-2.6c-1.7-2.2-2.1-5.1-2.1-9.1c0-4.4,0.6-7.5,2.3-9.6
				c1.3-1.7,3.3-2.6,5.4-2.6C452.7,269.1,455.2,273.1,455.2,281.1z M444,281.4c0,5.1,1.1,7.6,3.6,7.6s3.5-2.6,3.5-7.9
				s-1.2-7.9-3.6-7.9C444.8,273.3,444,276,444,281.4z"/>
			<path class="st0" d="M473.1,281.1c0,8-2.5,12-7.7,12c-2.2,0.1-4.3-0.9-5.7-2.6c-1.7-2.2-2.1-5.1-2.1-9.1c0-4.4,0.6-7.5,2.3-9.6
				c1.3-1.7,3.3-2.6,5.4-2.6C470.6,269.1,473.1,273.1,473.1,281.1z M461.9,281.4c0,5.1,1.1,7.6,3.6,7.6s3.5-2.6,3.5-7.9
				s-1.2-7.9-3.6-7.9C462.7,273.3,461.9,276,461.9,281.4z"/>
			<path class="st0" d="M479.4,280h15.2v2.1h-15.2V280z"/>
			<path class="st0" d="M502.6,269.7h6.4v22.8h-4.2v-18.7h-4.5L502.6,269.7z"/>
			<path class="st0" d="M519.8,269.1c3.5-0.2,6.4,2.5,6.6,6c0,0.1,0,0.3,0,0.4c0,1.8-0.8,3.5-2.1,4.6c2,1.3,3.2,3.5,3.1,5.9
				c0,3.9-2.6,7.1-7.6,7.1c-1.2,0.1-2.4-0.1-3.5-0.5c-2.7-1-4.4-3.7-4.2-6.5c-0.1-2.4,1.1-4.6,3-5.9c-1.3-1.2-2-2.9-2-4.7
				C513.2,271.8,515.8,269.1,519.8,269.1z M516.2,285.7c0,1.8,1.5,3.3,3.3,3.3c0.1,0,0.2,0,0.2,0c2.1,0,3.5-1.2,3.5-3.2
				c0-1.9-1.5-3.4-3.4-3.4c0,0-0.1,0-0.1,0C517.9,282.3,516.3,283.8,516.2,285.7z M517.2,275.8c-0.1,1.4,1,2.5,2.3,2.6
				c0,0,0.1,0,0.1,0c1.4,0,2.5-1.2,2.5-2.6c0-1.4-1.2-2.5-2.6-2.5c-1.3,0-2.3,1.1-2.3,2.4C517.3,275.7,517.3,275.8,517.2,275.8
				L517.2,275.8z"/>
			<path class="st0" d="M536.3,275.4c0.1,1.3-0.9,2.4-2.2,2.5c-1.3,0.1-2.4-0.9-2.5-2.2c0-0.1,0-0.2,0-0.3c-0.1-1.3,0.9-2.4,2.2-2.5
				c1.3-0.1,2.4,0.9,2.5,2.2C536.3,275.2,536.3,275.3,536.3,275.4z M536.3,288.3c0,1.3-1,2.4-2.3,2.4c0,0,0,0,0,0
				c-1.3,0-2.4-1.1-2.4-2.5c-0.1-1.3,0.9-2.4,2.2-2.5c1.3-0.1,2.4,0.9,2.5,2.2C536.3,288.1,536.3,288.2,536.3,288.3z"/>
			<path class="st0" d="M555.8,281.1c0,8-2.5,12-7.7,12c-2.2,0.1-4.3-0.9-5.7-2.6c-1.7-2.2-2.2-5.1-2.2-9.1c0-4.4,0.6-7.5,2.3-9.6
				c1.3-1.7,3.3-2.6,5.4-2.6C553.3,269.1,555.8,273.1,555.8,281.1z M544.6,281.4c0,5.1,1.1,7.6,3.6,7.6s3.5-2.6,3.5-7.9
				s-1.2-7.9-3.6-7.9C545.4,273.3,544.6,276,544.6,281.4L544.6,281.4z"/>
			<path class="st0" d="M573.7,281.1c0,8-2.5,12-7.7,12c-2.2,0.1-4.3-0.9-5.7-2.6c-1.7-2.2-2.2-5.1-2.2-9.1c0-4.4,0.6-7.5,2.3-9.6
				c1.3-1.7,3.3-2.6,5.4-2.6C571.2,269.1,573.7,273.1,573.7,281.1z M562.5,281.4c0,5.1,1.1,7.6,3.6,7.6s3.5-2.6,3.5-7.9
				s-1.2-7.9-3.6-7.9C563.3,273.3,562.5,276,562.5,281.4z"/>
			<path class="st0" d="M286.6,269v5.7h-2v-1.9H276v-2h8.6V269H286.6z"/>
			<path class="st0" d="M286.6,276.3v2h-4v3.5h4v2H276v-2h4.6v-3.5H276v-2H286.6z"/>
			<path class="st0" d="M286.6,285.6v2h-7.2c-1.1,0-1.7,0.5-1.7,1.5c0,0.5,0.2,1,0.6,1.3c0.4,0.2,0.9,0.3,1.4,0.2h6.9v2h-6.8
				c-1.1,0.1-2.1-0.2-3-0.8c-0.8-0.7-1.2-1.6-1.1-2.6c-0.1-1,0.3-1.9,1-2.5c0.9-0.7,2.1-1.1,3.2-0.9L286.6,285.6z"/>
			<path class="st0" d="M381.3,270.7c-0.9,0.5-1.4,1-1.4,1.7c-0.1,0.6,0.4,1.1,1,1.2c0.5,0,0.9-0.3,1.2-0.7c1.9-2.1,2.9-3.4,4.4-3.4
				c1.5,0,2.7,1.3,2.7,2.8c0,0,0,0,0,0c0,1.2-0.7,2.3-1.7,3l-1.3-1.5c0.7-0.5,1.1-1,1.1-1.5c0.1-0.4-0.3-0.8-0.7-0.9c0,0,0,0,0,0
				c-0.4,0-0.7,0.3-1,0.6c-1.7,1.9-2.6,3.4-4.5,3.4c-1.6,0-3-1.2-3-2.9c0-0.1,0-0.2,0-0.3c0-1.5,0.9-2.8,2.3-3.3L381.3,270.7z"/>
			<path class="st0" d="M388.9,276.5v2h-7.2c-1.2,0-1.8,0.5-1.8,1.5c0,0.5,0.2,1,0.6,1.3c0.4,0.2,0.9,0.3,1.4,0.2h6.9v2h-6.8
				c-1.1,0.1-2.1-0.2-3-0.8c-0.8-0.7-1.2-1.7-1.1-2.7c-0.1-1,0.3-1.9,1-2.5c0.9-0.7,2.1-1.1,3.2-0.9L388.9,276.5z"/>
			<path class="st0" d="M388.9,285.1v1.8l-7,4.1h7v1.8h-10.6V291l7-4.1h-7V285L388.9,285.1z"/>
		</g>
	</g>
</g>
</svg>
