<svg xmlns="http://www.w3.org/2000/svg" xmlns:xlink="http://www.w3.org/1999/xlink" viewBox="0 0 846.31 293.15"><defs><style>.cls-1{isolation:isolate;}.cls-2{fill:#231815;}.cls-3{opacity:0.7;}.cls-4{fill:url(#名称未設定グラデーション_2);}.cls-5{fill:url(#名称未設定グラデーション_2-2);}.cls-6{fill:url(#名称未設定グラデーション_2-3);}.cls-7{fill:url(#名称未設定グラデーション_2-4);}.cls-8{fill:url(#名称未設定グラデーション_2-5);}.cls-9{fill:url(#名称未設定グラデーション_2-6);}.cls-10{fill:url(#名称未設定グラデーション_2-7);}.cls-11{fill:url(#名称未設定グラデーション_2-8);}.cls-12{fill:url(#名称未設定グラデーション_2-9);}.cls-13,.cls-14,.cls-15,.cls-16,.cls-17,.cls-18,.cls-19,.cls-20,.cls-21,.cls-22,.cls-23,.cls-24,.cls-25,.cls-26,.cls-27,.cls-28,.cls-29,.cls-30{mix-blend-mode:multiply;}.cls-13{fill:url(#名称未設定グラデーション_2-10);}.cls-14{fill:url(#名称未設定グラデーション_2-11);}.cls-15{fill:url(#名称未設定グラデーション_2-12);}.cls-16{fill:url(#名称未設定グラデーション_2-13);}.cls-17{fill:url(#名称未設定グラデーション_2-14);}.cls-18{fill:url(#名称未設定グラデーション_2-15);}.cls-19{fill:url(#名称未設定グラデーション_2-16);}.cls-20{fill:url(#名称未設定グラデーション_2-17);}.cls-21{fill:url(#名称未設定グラデーション_2-18);}.cls-22{fill:url(#名称未設定グラデーション_2-19);}.cls-23{fill:url(#名称未設定グラデーション_2-20);}.cls-24{fill:url(#名称未設定グラデーション_2-21);}.cls-25{fill:url(#名称未設定グラデーション_2-22);}.cls-26{fill:url(#名称未設定グラデーション_2-23);}.cls-27{fill:url(#名称未設定グラデーション_2-24);}.cls-28{fill:url(#名称未設定グラデーション_2-25);}.cls-29{fill:url(#名称未設定グラデーション_2-26);}.cls-30{fill:url(#名称未設定グラデーション_2-27);}</style><linearGradient id="名称未設定グラデーション_2" x1="142.06" y1="175.68" x2="142.06" y2="93.06" gradientUnits="userSpaceOnUse"><stop offset="0" stop-color="#fff"/><stop offset="1" stop-color="#4d4d4d"/></linearGradient><linearGradient id="名称未設定グラデーション_2-2" x1="195.34" y1="175.92" x2="195.34" y2="93.3" xlink:href="#名称未設定グラデーション_2"/><linearGradient id="名称未設定グラデーション_2-3" x1="288.53" y1="175.92" x2="288.53" y2="93.3" xlink:href="#名称未設定グラデーション_2"/><linearGradient id="名称未設定グラデーション_2-4" x1="381.66" y1="175.92" x2="381.66" y2="93.3" xlink:href="#名称未設定グラデーション_2"/><linearGradient id="名称未設定グラデーション_2-5" x1="447.54" y1="182.13" x2="447.54" y2="95.37" xlink:href="#名称未設定グラデーション_2"/><linearGradient id="名称未設定グラデーション_2-6" x1="528.84" y1="177.99" x2="528.84" y2="93.3" xlink:href="#名称未設定グラデーション_2"/><linearGradient id="名称未設定グラデーション_2-7" x1="595.19" y1="182.13" x2="595.19" y2="95.37" xlink:href="#名称未設定グラデーション_2"/><linearGradient id="名称未設定グラデーション_2-8" x1="637.99" y1="175.68" x2="637.99" y2="93.06" xlink:href="#名称未設定グラデーション_2"/><linearGradient id="名称未設定グラデーション_2-9" x1="690.58" y1="181.9" x2="690.58" y2="95.25" xlink:href="#名称未設定グラデーション_2"/><linearGradient id="名称未設定グラデーション_2-10" x1="-3716.48" y1="175.71" x2="-3716.48" y2="93.09" gradientTransform="matrix(1, 0, -0.53, 1, 3908.04, 0)" xlink:href="#名称未設定グラデーション_2"/><linearGradient id="名称未設定グラデーション_2-11" x1="-9434.56" y1="175.92" x2="-9434.56" y2="93.3" gradientTransform="matrix(1, 0, -1.33, 1, 9753.71, 0)" xlink:href="#名称未設定グラデーション_2"/><linearGradient id="名称未設定グラデーション_2-12" x1="-8672.65" y1="175.92" x2="-8672.65" y2="93.3" gradientTransform="matrix(1, 0, -1.23, 1, 9076.43, 0)" xlink:href="#名称未設定グラデーション_2"/><linearGradient id="名称未設定グラデーション_2-13" x1="-3315.8" y1="175.92" x2="-3315.8" y2="93.3" gradientTransform="matrix(1, 0, -0.51, 1, 3744.99, 0)" xlink:href="#名称未設定グラデーション_2"/><linearGradient id="名称未設定グラデーション_2-14" x1="4142.98" y1="182.13" x2="4142.98" y2="95.37" gradientTransform="matrix(1, 0, 0.51, 1, -3746, 0)" xlink:href="#名称未設定グラデーション_2"/><linearGradient id="名称未設定グラデーション_2-15" x1="4226.56" y1="177.99" x2="4226.56" y2="93.3" gradientTransform="matrix(1, 0, 0.51, 1, -3745.26, 0)" xlink:href="#名称未設定グラデーション_2"/><linearGradient id="名称未設定グラデーション_2-16" x1="10223.43" y1="182.13" x2="10223.43" y2="95.37" gradientTransform="matrix(1, 0, 1.33, 1, -9756.34, 0)" xlink:href="#名称未設定グラデーション_2"/><linearGradient id="名称未設定グラデーション_2-17" x1="3423.64" y1="175.68" x2="3423.64" y2="93.06" gradientTransform="matrix(1, 0, 0.38, 1, -2821.38, 0)" xlink:href="#名称未設定グラデーション_2"/><linearGradient id="名称未設定グラデーション_2-18" x1="13257.84" y1="181.9" x2="13257.84" y2="95.25" gradientTransform="matrix(1, 0, 1.73, 1, -12733.87, 0)" xlink:href="#名称未設定グラデーション_2"/><linearGradient id="名称未設定グラデーション_2-19" x1="8490.16" y1="175.68" x2="8490.16" y2="93.06" gradientTransform="matrix(1, 0, 1.15, 1, -8455.15, 0)" xlink:href="#名称未設定グラデーション_2"/><linearGradient id="名称未設定グラデーション_2-20" x1="-16900.26" y1="175.92" x2="-16900.26" y2="93.3" gradientTransform="matrix(1, 0, -2.36, 1, 17315.39, 0)" xlink:href="#名称未設定グラデーション_2"/><linearGradient id="名称未設定グラデーション_2-21" x1="11901.5" y1="175.92" x2="11901.5" y2="93.3" gradientTransform="matrix(1, 0, 1.6, 1, -11762.37, 0)" xlink:href="#名称未設定グラデーション_2"/><linearGradient id="名称未設定グラデーション_2-22" x1="8163.46" y1="175.92" x2="8163.46" y2="93.3" gradientTransform="matrix(1, 0, 1.07, 1, -7881.85, 0)" xlink:href="#名称未設定グラデーション_2"/><linearGradient id="名称未設定グラデーション_2-23" x1="8506.95" y1="182.13" x2="8506.95" y2="95.37" gradientTransform="matrix(1, 0, 1.11, 1, -8165.15, 0)" xlink:href="#名称未設定グラデーション_2"/><linearGradient id="名称未設定グラデーション_2-24" x1="-7819.6" y1="177.99" x2="-7819.6" y2="93.3" gradientTransform="matrix(1, 0, -1.15, 1, 8455.76, 0)" xlink:href="#名称未設定グラデーション_2"/><linearGradient id="名称未設定グラデーション_2-25" x1="-11481.36" y1="182.13" x2="-11481.36" y2="95.37" gradientTransform="matrix(1, 0, -1.66, 1, 12235.67, 0)" xlink:href="#名称未設定グラデーション_2"/><linearGradient id="名称未設定グラデーション_2-26" x1="11396.76" y1="175.68" x2="11396.76" y2="93.06" gradientTransform="matrix(1, 0, 1.48, 1, -10896.74, 0)" xlink:href="#名称未設定グラデーション_2"/><linearGradient id="名称未設定グラデーション_2-27" x1="-9298.07" y1="181.9" x2="-9298.07" y2="95.25" gradientTransform="matrix(1, 0, -1.38, 1, 10119.02, 0)" xlink:href="#名称未設定グラデーション_2"/></defs><title>title3アセット 1</title><g class="cls-1"><g id="レイヤー_2" data-name="レイヤー 2"><g id="top"><path d="M158.65,211.11a10.49,10.49,0,0,1-2.33,7.36,8.88,8.88,0,0,1-7.34,3.36,10.54,10.54,0,1,1,8.29-17.33l-2.6,2.66a7.55,7.55,0,0,0-5.78-2.74,6.66,6.66,0,0,0-6.72,6.8,6.9,6.9,0,0,0,7,6.95,5.36,5.36,0,0,0,5.34-3.42h-5.64v-3.64Z"/><path d="M164.48,208.34a3.22,3.22,0,0,1,4.61-1.88L168,209.65a2.44,2.44,0,0,0-1.05-.3c-1,0-1.85,1.23-1.93,3.41,0,.81,0,1.74,0,2.55v6h-3.61V206.46h3.12Z"/><path d="M181.52,219.76a5.88,5.88,0,0,1-4.44,2c-3.66,0-6.86-3.25-6.86-7.81s3-7.84,6.78-7.84a6.06,6.06,0,0,1,4.52,2v-1.63h3.61v14.87h-3.61Zm-7.67-5.88c0,2.55,1.63,4.43,3.88,4.43s4-1.74,4-4.46-1.68-4.36-4-4.36S173.85,211.45,173.85,213.88Z"/><path d="M199.41,219.76a5.88,5.88,0,0,1-4.44,2c-3.66,0-6.86-3.25-6.86-7.81s3-7.84,6.77-7.84a6.07,6.07,0,0,1,4.53,2v-7.37H203v20.61h-3.6Zm-7.67-5.88c0,2.55,1.63,4.43,3.88,4.43s3.95-1.74,3.95-4.46-1.68-4.36-3.95-4.36S191.74,211.45,191.74,213.88Z"/><path d="M206.13,206.46h3.61v7.76c0,2.66.81,4.06,2.71,4.06s2.71-1.37,2.71-3.89v-7.93h3.6v6.86c0,2.75-.16,4.76-1.68,6.5a5.69,5.69,0,0,1-4.63,1.87c-3.47,0-5.61-1.82-6.18-5.29a17.15,17.15,0,0,1-.14-3.13Z"/><path d="M232.47,219.76a5.88,5.88,0,0,1-4.44,2c-3.66,0-6.86-3.25-6.86-7.81s3-7.84,6.78-7.84a6.06,6.06,0,0,1,4.52,2v-1.63h3.61v14.87h-3.61Zm-7.67-5.88c0,2.55,1.63,4.43,3.88,4.43s4-1.74,4-4.46-1.69-4.36-4-4.36S224.8,211.45,224.8,213.88Z"/><path d="M240.68,201h3.61v5.49h2.14v3.19h-2.14v11.68h-3.61V209.65h-1.84v-3.19h1.84Z"/><path d="M254.29,202.79a2.34,2.34,0,0,1-2.31,2.38,2.44,2.44,0,0,1-2.3-2.57,2.28,2.28,0,0,1,2.3-2.27A2.38,2.38,0,0,1,254.29,202.79Zm-4.09,3.67h3.6v14.87h-3.6Z"/><path d="M270.93,213.88a7.55,7.55,0,1,1-7.64-7.81A7.63,7.63,0,0,1,270.93,213.88Zm-11.47,0c0,2.52,1.55,4.31,3.88,4.31a4,4,0,0,0,4-4.28c0-2.52-1.6-4.31-4-4.31A4,4,0,0,0,259.46,213.88Z"/><path d="M276.92,208a6.3,6.3,0,0,1,4.25-1.9,4.81,4.81,0,0,1,4.93,5.1v10.16h-3.6v-7c0-2.94-.24-4.81-2.44-4.81a2.81,2.81,0,0,0-2.44,1.42,7.54,7.54,0,0,0-.7,4.09v6.33h-3.61V206.46h3.61Z"/><path d="M308.9,219.76a5.9,5.9,0,0,1-4.45,2c-3.66,0-6.85-3.25-6.85-7.81s3-7.84,6.77-7.84a6.08,6.08,0,0,1,4.53,2v-1.63h3.6v14.87h-3.6Zm-7.67-5.88c0,2.55,1.62,4.43,3.87,4.43s4-1.74,4-4.46-1.68-4.36-4-4.36S301.23,211.45,301.23,213.88Z"/><path d="M319.74,208a6.3,6.3,0,0,1,4.25-1.9,4.81,4.81,0,0,1,4.93,5.1v10.16h-3.6v-7c0-2.94-.25-4.81-2.44-4.81a2.81,2.81,0,0,0-2.44,1.42,7.54,7.54,0,0,0-.7,4.09v6.33h-3.61V206.46h3.61Z"/><path d="M343,219.76a5.88,5.88,0,0,1-4.44,2c-3.66,0-6.86-3.25-6.86-7.81s3-7.84,6.78-7.84a6.06,6.06,0,0,1,4.52,2v-7.37h3.61v20.61H343Zm-7.67-5.88c0,2.55,1.63,4.43,3.88,4.43s3.95-1.74,3.95-4.46-1.68-4.36-3.95-4.36S335.37,211.45,335.37,213.88Z"/><path d="M359.33,201.23h4.53c2.52,0,4.28.39,5.5,1.62a6,6,0,0,1,1.57,4.2,5.28,5.28,0,0,1-2.47,4.76c-1.65,1-3.38,1-5.42,1v8.51h-3.71Zm3.71,7.86h1.74c1.68,0,2.52-.67,2.52-2s-.92-2.07-2.69-2.07H363Z"/><path d="M376.4,208.34a3.38,3.38,0,0,1,3-2.27,3.27,3.27,0,0,1,1.57.39l-1.11,3.19a2.48,2.48,0,0,0-1.06-.3c-1,0-1.84,1.23-1.92,3.41,0,.81,0,1.74,0,2.55v6h-3.6V206.46h3.11Z"/><path d="M396.67,213.88a7.55,7.55,0,1,1-7.64-7.81A7.62,7.62,0,0,1,396.67,213.88Zm-11.46,0c0,2.52,1.55,4.31,3.88,4.31a4,4,0,0,0,4-4.28c0-2.52-1.6-4.31-4-4.31A4,4,0,0,0,385.21,213.88Z"/><path d="M400.06,206.46h3.61v15.77c0,3.27-1.28,4.92-3.8,4.92a8.66,8.66,0,0,1-2.71-.56v-2.94a3.37,3.37,0,0,0,1.49.42c1.06,0,1.41-.67,1.41-2Zm4.09-3.67a2.34,2.34,0,0,1-2.3,2.38,2.44,2.44,0,0,1-2.3-2.57,2.26,2.26,0,0,1,2.27-2.27A2.4,2.4,0,0,1,404.15,202.79Z"/><path d="M421.23,218.45a7.26,7.26,0,0,1-6.62,3.27c-4.58,0-7.53-3.47-7.53-7.84,0-4.06,2.85-7.81,7.48-7.81s7.64,3.36,7.64,8.06c0,.34,0,.51,0,.84h-11.6a3.88,3.88,0,0,0,4,3.45,4.57,4.57,0,0,0,3.58-1.46ZM418.57,212a4.14,4.14,0,0,0-7.83,0Z"/><path d="M439,218.61a7.66,7.66,0,0,1-6.54,3.11c-4.9,0-8.07-3.44-8.07-7.78a7.77,7.77,0,0,1,8.13-7.87,7.67,7.67,0,0,1,6.64,3.39l-3,1.71a4.46,4.46,0,0,0-3.6-1.68A4.31,4.31,0,0,0,428,214a4.12,4.12,0,0,0,4.36,4.32,4.51,4.51,0,0,0,3.77-1.71Z"/><path d="M443.4,201H447v5.49h2.14v3.19H447v11.68h-3.6V209.65h-1.85v-3.19h1.85Z"/><path d="M461,201.23h4.52c2.47,0,4.2.3,5.5,1.62a5.92,5.92,0,0,1,1.58,4.2,5.31,5.31,0,0,1-3.74,5.35l4.6,8.93h-4L465,212.82h-.35v8.51H461Zm3.71,7.86h1.71c1.68,0,2.54-.7,2.54-2.07s-.89-2-2.65-2h-1.6Z"/><path d="M488.44,218.45a7.26,7.26,0,0,1-6.62,3.27c-4.58,0-7.53-3.47-7.53-7.84,0-4.06,2.85-7.81,7.48-7.81s7.64,3.36,7.64,8.06c0,.34,0,.51,0,.84H477.79a3.88,3.88,0,0,0,4,3.45A4.57,4.57,0,0,0,485.4,217ZM485.78,212a4.14,4.14,0,0,0-7.83,0Z"/><path d="M495.16,214.89c-2.31-1.2-3.47-2.66-3.47-4.54a4.39,4.39,0,0,1,4.66-4.28,5.79,5.79,0,0,1,4.74,2.46l-2.22,2.33a3.66,3.66,0,0,0-2.49-1.37c-.74,0-1.3.3-1.3.89s.51.81,1.3,1.23l1.32.7c2.39,1.26,3.66,2.55,3.66,4.76,0,2.66-2,4.65-5.17,4.65a6,6,0,0,1-5-2.55l2.22-2.52a4.48,4.48,0,0,0,3,1.74c.89,0,1.6-.53,1.6-1.2s-.6-1.12-1.6-1.66Z"/><path d="M517.7,218.45a7.23,7.23,0,0,1-6.61,3.27c-4.58,0-7.53-3.47-7.53-7.84,0-4.06,2.84-7.81,7.48-7.81s7.64,3.36,7.64,8.06c0,.34,0,.51,0,.84h-11.6a3.89,3.89,0,0,0,4,3.45,4.57,4.57,0,0,0,3.58-1.46ZM515.05,212a4.14,4.14,0,0,0-7.83,0Z"/><path d="M532.2,219.76a5.88,5.88,0,0,1-4.44,2c-3.66,0-6.86-3.25-6.86-7.81s3-7.84,6.78-7.84a6.06,6.06,0,0,1,4.52,2v-1.63h3.61v14.87H532.2Zm-7.67-5.88c0,2.55,1.63,4.43,3.88,4.43s4-1.74,4-4.46-1.68-4.36-4-4.36S524.53,211.45,524.53,213.88Z"/><path d="M542.8,208.34a3.37,3.37,0,0,1,3-2.27,3.3,3.3,0,0,1,1.57.39l-1.11,3.19a2.52,2.52,0,0,0-1.06-.3c-1,0-1.84,1.23-1.92,3.41,0,.81,0,1.74,0,2.55v6h-3.61V206.46h3.12Z"/><path d="M563.13,218.61a7.66,7.66,0,0,1-6.54,3.11c-4.9,0-8.07-3.44-8.07-7.78a7.77,7.77,0,0,1,8.13-7.87,7.67,7.67,0,0,1,6.64,3.39l-3,1.71a4.46,4.46,0,0,0-3.6-1.68,4.31,4.31,0,0,0-4.53,4.5,4.12,4.12,0,0,0,4.36,4.32,4.51,4.51,0,0,0,3.77-1.71Z"/><path d="M566,200.72h3.6V208a6.28,6.28,0,0,1,4.25-1.9c2.72,0,4.94,1.82,4.94,5.43v9.83h-3.61v-7c0-3-.35-4.81-2.46-4.81a2.83,2.83,0,0,0-2.44,1.45c-.73,1.18-.68,2.52-.68,4.06v6.33H566Z"/><path d="M591.36,201.23H602V205h-6.91v3.58H602v3.75h-6.91v5.27H602v3.75H591.36Z"/><path d="M604.29,206.46h4.2l2.82,4.06,2.85-4.06h4.17l-4.93,7,5.53,7.84h-4.18l-3.44-4.87-3.39,4.87h-4.14l5.44-7.84Z"/><path d="M620.23,200.72h3.6V208a6.29,6.29,0,0,1,4.26-1.9c2.71,0,4.93,1.82,4.93,5.43v9.83h-3.61v-7c0-3-.35-4.81-2.46-4.81a2.83,2.83,0,0,0-2.44,1.45c-.73,1.18-.68,2.52-.68,4.06v6.33h-3.6Z"/><path d="M640.74,202.79a2.34,2.34,0,0,1-2.3,2.38,2.44,2.44,0,0,1-2.3-2.57,2.27,2.27,0,0,1,2.3-2.27A2.38,2.38,0,0,1,640.74,202.79Zm-4.09,3.67h3.6v14.87h-3.6Z"/><path d="M648.19,221.33h-3.6V200.72h3.6v7.37a6.1,6.1,0,0,1,4.53-2c3.71,0,6.8,3.19,6.8,7.84s-3.22,7.81-6.88,7.81a6,6,0,0,1-4.45-2Zm-.16-7.48c0,2.69,1.74,4.46,4,4.46s3.9-1.88,3.9-4.43-1.52-4.39-3.9-4.39S648,211.25,648,213.85Z"/><path d="M666.22,202.79a2.34,2.34,0,0,1-2.31,2.38,2.44,2.44,0,0,1-2.3-2.57,2.28,2.28,0,0,1,2.3-2.27A2.38,2.38,0,0,1,666.22,202.79Zm-4.1,3.67h3.61v14.87h-3.61Z"/><path d="M671,201h3.61v5.49h2.14v3.19h-2.14v11.68H671V209.65H669.2v-3.19H671Z"/><path d="M684.1,202.79a2.34,2.34,0,0,1-2.3,2.38,2.44,2.44,0,0,1-2.3-2.57,2.27,2.27,0,0,1,2.3-2.27A2.38,2.38,0,0,1,684.1,202.79ZM680,206.46h3.61v14.87H680Z"/><path d="M701.28,213.88a7.55,7.55,0,1,1-7.64-7.81A7.62,7.62,0,0,1,701.28,213.88Zm-11.46,0c0,2.52,1.55,4.31,3.88,4.31a4,4,0,0,0,3.95-4.28c0-2.52-1.6-4.31-3.95-4.31A4,4,0,0,0,689.82,213.88Z"/><path d="M708.36,208a6.32,6.32,0,0,1,4.25-1.9,4.82,4.82,0,0,1,4.94,5.1v10.16h-3.61v-7c0-2.94-.24-4.81-2.44-4.81a2.81,2.81,0,0,0-2.44,1.42,7.54,7.54,0,0,0-.7,4.09v6.33h-3.61V206.46h3.61Z"/><path class="cls-2" d="M137.66,243.12a14,14,0,0,0,.69-4.51l.9.26a17.24,17.24,0,0,1-.71,4.67Zm2.13,7.68a13,13,0,0,0,.12-2V237.06a10.36,10.36,0,0,0-.12-1.71h1.27a11.17,11.17,0,0,0-.11,1.71v11.8a14.22,14.22,0,0,0,.11,1.94Zm2.14-10.17a10.25,10.25,0,0,0-.75-2.31l.74-.32a19.81,19.81,0,0,1,.82,2.24Zm2.29-3.09a10.36,10.36,0,0,0-1.55.08v-1.05a7.14,7.14,0,0,0,1.56.1h2.46a6,6,0,0,0-.1-1.32h1.16a6,6,0,0,0-.09,1.32h3a7.44,7.44,0,0,0,1.61-.1v1.05a11.06,11.06,0,0,0-1.59-.08h-3.06v1.16h2.56a8.79,8.79,0,0,0,1.52-.09v1a10.85,10.85,0,0,0-1.53-.08h-2.55v1.26H151a9.47,9.47,0,0,0,1.63-.11v1.09a12.09,12.09,0,0,0-1.63-.1h-7a10.18,10.18,0,0,0-1.68.1v-1.09a9.56,9.56,0,0,0,1.68.11h2.7v-1.26h-2a10.75,10.75,0,0,0-1.5.08v-1a8.94,8.94,0,0,0,1.52.09h2v-1.16Zm.11,11.39a12.73,12.73,0,0,0,.1,1.83h-1.18a13.31,13.31,0,0,0,.08-1.83v-4.8a11.55,11.55,0,0,0-.05-1.47,13.3,13.3,0,0,0,1.53.06h5.05a7.82,7.82,0,0,0,1.51-.08,16.16,16.16,0,0,0-.06,1.82v4.82c0,1.06-.31,1.33-1.55,1.33-.44,0-1,0-1.68-.08a3.64,3.64,0,0,0-.26-1.08,10.72,10.72,0,0,0,1.84.21c.55,0,.64-.07.64-.46v-1.33h-6Zm6-4.05v-1.29h-6v1.29Zm0,2.13v-1.28h-6V247Z"/><path class="cls-2" d="M161.08,240a6.41,6.41,0,0,0,1.3-.08V241a9.09,9.09,0,0,0-1.3-.06h-4.63a9.75,9.75,0,0,0-1.32.06v-1.1a6.8,6.8,0,0,0,1.32.08h2v-1.73h-1.54a8.56,8.56,0,0,0-1.24.07v-1.07a7.78,7.78,0,0,0,1.24.07h1.54v-.51a9.26,9.26,0,0,0-.1-1.47h1.17a11.57,11.57,0,0,0-.1,1.47v.51h1.32a7.67,7.67,0,0,0,1.22-.07v1.07a8.54,8.54,0,0,0-1.22-.07h-1.32V240Zm0,3.81a6.76,6.76,0,0,0,1.3-.08v1.1a9,9,0,0,0-1.3-.07h-1.71v1.72h1.52a7.77,7.77,0,0,0,1.21-.07v1.09a8.49,8.49,0,0,0-1.21-.07h-1.52v1.74a14.35,14.35,0,0,0,.1,1.61h-1.18a10.89,10.89,0,0,0,.11-1.61v-1.74h-1.68a8.6,8.6,0,0,0-1.23.07v-1.09a7.89,7.89,0,0,0,1.23.07h1.68v-1.72h-2a9.81,9.81,0,0,0-1.32.07v-1.1a7.49,7.49,0,0,0,1.32.08h3a10.21,10.21,0,0,0,.89-2.67l.91.27a14.77,14.77,0,0,1-.88,2.4Zm-4-.19a12.58,12.58,0,0,0-.63-2.22l.82-.27a13.21,13.21,0,0,1,.66,2.19Zm6.71-1.24v6.7a11.75,11.75,0,0,0,.11,1.7h-1.2a11.63,11.63,0,0,0,.12-1.7V237.66c0-.6,0-1.12-.08-1.6a9.65,9.65,0,0,0,1.54.09h3.8a8.66,8.66,0,0,0,1.38-.07c0,.29,0,.29-.11,1.2a6.89,6.89,0,0,1-.5,2.42c-.24.37-.59.49-1.43.49a11.21,11.21,0,0,1-1.61-.12,5.59,5.59,0,0,0-.21-1,10.12,10.12,0,0,0,1.89.24c.62,0,.71-.22.85-2.18H163.8v4.34h3.57a7.42,7.42,0,0,0,1.31-.07l.6.63a4,4,0,0,0-.2.7,17.63,17.63,0,0,1-1.66,4.5,11,11,0,0,0,2.76,2.47,3.42,3.42,0,0,0-.67.95,14,14,0,0,1-2.64-2.52,11.89,11.89,0,0,1-2.17,2.5,4.47,4.47,0,0,0-.74-.85,10.39,10.39,0,0,0,2.29-2.48,13.59,13.59,0,0,1-1.94-4.9Zm1.43,0a11,11,0,0,0,1.56,4,14.93,14.93,0,0,0,1.33-4Z"/><path class="cls-2" d="M175.14,237.51c-.86.18-1.25.25-2.21.4a3.87,3.87,0,0,0-.47-.93,15.24,15.24,0,0,0,4.68-1.11,4.65,4.65,0,0,0,.76-.4l.64.9a13.85,13.85,0,0,1-2.4.9v2.58h1.15a5.92,5.92,0,0,0,1.15-.08v1.14a5.63,5.63,0,0,0-1.16-.09h-1.11a7.12,7.12,0,0,0,2.36,3,3.87,3.87,0,0,0-.61.92,7.83,7.83,0,0,1-1.86-2.68c0,.24,0,1.1.08,2.61v4.25a15.75,15.75,0,0,0,.1,2H175a18.62,18.62,0,0,0,.1-2V245c0-.65,0-1.62.08-2.72a12.67,12.67,0,0,1-2.5,5,3.29,3.29,0,0,0-.64-1,14.18,14.18,0,0,0,2.91-5.47h-1.07a8.88,8.88,0,0,0-1.46.1v-1.17a8.65,8.65,0,0,0,1.48.1h1.2Zm4.55,9.92c-.61.16-1.15.33-1.54.46l-.15-1.21a7.47,7.47,0,0,0,1.56-.27l4.52-1.12v-8a12.35,12.35,0,0,0-.09-1.79h1.25a12.17,12.17,0,0,0-.1,1.77V245l.26-.07a9.15,9.15,0,0,0,1.55-.48l.13,1.19a10.42,10.42,0,0,0-1.56.31l-.38.1V249a12.47,12.47,0,0,0,.1,1.85H184a10.75,10.75,0,0,0,.09-1.87v-2.62Zm-.11-6.49a15.82,15.82,0,0,1,3,2.63l-.65.87a13,13,0,0,0-3-2.72Zm.52-4.25a15.29,15.29,0,0,1,3.06,2.72l-.65.88a12.82,12.82,0,0,0-3.08-2.78Z"/><path class="cls-2" d="M197.22,249.37c0,1-.32,1.26-1.85,1.26-.46,0-1.31,0-1.89-.1a5,5,0,0,0-.34-1.09,16.24,16.24,0,0,0,2.15.18c.76,0,.87-.05.87-.4V245.8h-4.93a12,12,0,0,0-1.73.1v-1.17a11.73,11.73,0,0,0,1.71.1h4.95v-.29a8.58,8.58,0,0,0,0-1h.7a13.69,13.69,0,0,0,2.94-1.92h-6a14.47,14.47,0,0,0-1.56.08v-1.1a14.64,14.64,0,0,0,1.59.08h5.94a7.23,7.23,0,0,0,1.22-.06l.62.68c-.21.17-.21.17-.57.49a18.64,18.64,0,0,1-3.75,2.51v.53h4.88a11.48,11.48,0,0,0,1.73-.1v1.17a11.81,11.81,0,0,0-1.74-.1h-4.87Zm-4.44-11.24a12,12,0,0,0-1.55-2.21l1-.32a16.18,16.18,0,0,1,1.67,2.52h2.41a10.32,10.32,0,0,0-1.21-2.45l1-.29a14.24,14.24,0,0,1,1.25,2.74h1.81a10.12,10.12,0,0,0,1.7-2.74l1,.46a16.29,16.29,0,0,1-1.57,2.28h1.28a18.34,18.34,0,0,0,1.89-.07,11.09,11.09,0,0,0-.07,1.41v1.26a9.53,9.53,0,0,0,.09,1.19h-1.09v-2.86H190.82v2.86h-1.09a9.14,9.14,0,0,0,.08-1.19v-1.26a11.34,11.34,0,0,0-.06-1.41,14,14,0,0,0,1.87.08Z"/><path class="cls-2" d="M210.81,236.81a6.66,6.66,0,0,0-.1-1.21h1.22a6.74,6.74,0,0,0-.1,1.21v.58h3.77v-.58a8,8,0,0,0-.1-1.21h1.21a7.73,7.73,0,0,0-.09,1.21v.58h2.56a12.06,12.06,0,0,0,1.84-.11v1.16a13,13,0,0,0-1.84-.08h-2.56v.56a7.64,7.64,0,0,0,.06,1.12h-1.15a7.92,7.92,0,0,0,.07-1.14v-.54h-3.77v.54a9.23,9.23,0,0,0,.06,1.14h-1.15a8,8,0,0,0,.07-1.12v-.56h-2.47a12.88,12.88,0,0,0-1.82.08v-1.16a12.14,12.14,0,0,0,1.82.11h2.47Zm-2.5,8.19a13.53,13.53,0,0,0-1.7.1v-1.19a11,11,0,0,0,1.7.11h11.05a10.86,10.86,0,0,0,1.7-.11v1.19a12.94,12.94,0,0,0-1.7-.1H213a28.35,28.35,0,0,1-2.17,3.81c3.25-.17,4.77-.31,6.71-.58a23.73,23.73,0,0,0-2-2l.86-.56a34.85,34.85,0,0,1,4.06,4.37l-1,.7a16.89,16.89,0,0,0-1.23-1.67c-2.35.36-5.59.68-8.88.87a20.14,20.14,0,0,0-2.06.17l-.21-1.24c.34,0,.69.05,1,.05l1.42-.05A21.22,21.22,0,0,0,211.7,245Zm10.84-3a11,11,0,0,0-1.65-.1H210a10.94,10.94,0,0,0-1.68.1V240.8a10.4,10.4,0,0,0,1.68.11h7.48a9.73,9.73,0,0,0,1.65-.11Z"/><path class="cls-2" d="M225.11,244.78c0-.68,0-1.19,0-2a9,9,0,0,1-1.42,1.55,3.34,3.34,0,0,0-.57-1,10.85,10.85,0,0,0,2.65-3,7.34,7.34,0,0,0,.72-1.51l1,.63c-.16.27-.36.57-.54.91s-.59.94-.84,1.28v6.95a12.49,12.49,0,0,0,.1,2H225a12.86,12.86,0,0,0,.1-2Zm2.22-8.86c-.21.26-.21.26-.71.94A15.17,15.17,0,0,1,224,239.6a2.47,2.47,0,0,0-.64-.84,9.35,9.35,0,0,0,3-3.4Zm1.74,5.49a22.28,22.28,0,0,1-1.35,7.31,4.5,4.5,0,0,0-.88-.54,17.79,17.79,0,0,0,1.28-6.87Zm3.09-2.51a7.63,7.63,0,0,0,1.42-.09v1.13a6.54,6.54,0,0,0-1.28-.09h-1.07v8.87a14.89,14.89,0,0,0,.1,1.91h-1.19a15.54,15.54,0,0,0,.1-1.91v-8.87H229a6.48,6.48,0,0,0-1.28.09v-1.13a7.55,7.55,0,0,0,1.43.09h1.05v-1.75a11.06,11.06,0,0,0-.1-1.6h1.19a10.6,10.6,0,0,0-.1,1.6v1.75Zm.22-3.09a12.64,12.64,0,0,1,1.38,2.07l-.77.53a9.65,9.65,0,0,0-1.37-2.16Zm.54,5.43a38,38,0,0,1,1.33,6.26l-1,.36a30.73,30.73,0,0,0-1.23-6.34Zm1.93-.22a6,6,0,0,0-1.25.09V240a5.85,5.85,0,0,0,1.25.09h2.23a6.89,6.89,0,0,0,1.34-.09v1.14a7,7,0,0,0-1.34-.09h-.36v8.08c0,.63-.15,1-.46,1.15a3.79,3.79,0,0,1-1.38.19c-.41,0-1.12,0-1.5-.07a4.3,4.3,0,0,0-.21-1.1,10.24,10.24,0,0,0,2,.18c.43,0,.54-.06.54-.37V241Zm3.27-3.38a8.54,8.54,0,0,0-1.23-.08h-1.65a8.92,8.92,0,0,0-1.22.08V236.5a8.11,8.11,0,0,0,1.24.09h1.63a8,8,0,0,0,1.23-.09Z"/><path class="cls-2" d="M249.11,240.63a13.79,13.79,0,0,0,2.68,5.48,11.8,11.8,0,0,0,4.46,3.31,4.73,4.73,0,0,0-.72,1.14,13.17,13.17,0,0,1-6.91-8.4,10.72,10.72,0,0,1-3.21,6.11,12.83,12.83,0,0,1-3.55,2.31,3.31,3.31,0,0,0-.71-1,10.42,10.42,0,0,0,4.33-3,10.65,10.65,0,0,0,2.28-5.94h-4.47a10.14,10.14,0,0,0-1.81.12v-1.32a10.15,10.15,0,0,0,1.84.12h4.54c0-.82.07-1.35.07-2a12.46,12.46,0,0,0-.12-1.85h1.35a10.6,10.6,0,0,0-.11,1.76c0,.87,0,1.36-.08,2.1h5a10.19,10.19,0,0,0,1.82-.12v1.32a10.73,10.73,0,0,0-1.8-.12Z"/><path class="cls-2" d="M266,249.37c0,1-.31,1.26-1.84,1.26-.46,0-1.31,0-1.89-.1a4.51,4.51,0,0,0-.35-1.09,16.37,16.37,0,0,0,2.16.18c.76,0,.87-.05.87-.4V245.8H260a11.85,11.85,0,0,0-1.73.1v-1.17a11.64,11.64,0,0,0,1.71.1h4.95v-.29a8.58,8.58,0,0,0-.05-1h.69a13.52,13.52,0,0,0,2.95-1.92h-6a14.81,14.81,0,0,0-1.57.08v-1.1a15,15,0,0,0,1.6.08h5.94a7.23,7.23,0,0,0,1.22-.06l.62.68c-.21.17-.21.17-.57.49A18.73,18.73,0,0,1,266,244.3v.53h4.89a11.48,11.48,0,0,0,1.73-.1v1.17a11.87,11.87,0,0,0-1.75-.1H266Zm-4.44-11.24a11.41,11.41,0,0,0-1.54-2.21l1-.32a15.56,15.56,0,0,1,1.68,2.52h2.4a9.91,9.91,0,0,0-1.2-2.45l1-.29a14.24,14.24,0,0,1,1.25,2.74H268a10.38,10.38,0,0,0,1.7-2.74l1,.46a15.4,15.4,0,0,1-1.58,2.28h1.29a18.34,18.34,0,0,0,1.89-.07,11.09,11.09,0,0,0-.07,1.41v1.26a11.89,11.89,0,0,0,.08,1.19h-1.08v-2.86H259.6v2.86h-1.09a9.14,9.14,0,0,0,.08-1.19v-1.26a11.34,11.34,0,0,0-.06-1.41,14,14,0,0,0,1.87.08Z"/><path class="cls-2" d="M275.41,237.22c0-.46,0-.87-.05-1.3a7.44,7.44,0,0,0,1.1.06h2.25a4.74,4.74,0,0,0,1-.07l.51.61c-.05.1-.15.31-.25.54a37.94,37.94,0,0,1-1.71,3.91,7.4,7.4,0,0,1,1.37,2.2,6,6,0,0,1,.36,2c0,1-.28,1.47-.87,1.64a5.07,5.07,0,0,1-1.29.14l-.57,0a3.9,3.9,0,0,0-.25-1.08,5.25,5.25,0,0,0,1.07.11c.76,0,.9-.15.9-.9a4.81,4.81,0,0,0-.59-2.31,8.39,8.39,0,0,0-1.25-1.68,26.55,26.55,0,0,0,1.81-4.18h-2.55v12.25a11.92,11.92,0,0,0,.08,1.58h-1.18a10.23,10.23,0,0,0,.1-1.58Zm6.36,6.51a7.26,7.26,0,0,0-1.49.1v-1.12a9.2,9.2,0,0,0,1.51.1H288a9.45,9.45,0,0,0,1.56-.1v1.12a10,10,0,0,0-1.56-.1h-1.65v5.33c0,.36.2.43,1.2.43,1.15,0,1.15,0,1.3-2.67a2.62,2.62,0,0,0,1,.43c-.25,3-.43,3.24-2.3,3.24a6,6,0,0,1-1.53-.12c-.51-.13-.68-.35-.68-.93v-5.71h-1.73c-.13,2.39-.42,3.48-1.2,4.6a7.25,7.25,0,0,1-3.5,2.43,5,5,0,0,0-.74-.9c2.09-.73,3-1.32,3.63-2.48a6.94,6.94,0,0,0,.79-3.65Zm2.24-7.09a6.85,6.85,0,0,0-.1-1.28h1.25a6.59,6.59,0,0,0-.1,1.3v.66h2.78a14.08,14.08,0,0,0,1.58-.09,10,10,0,0,0-.05,1.09v1.12a7.94,7.94,0,0,0,.07,1.16h-1.07v-2.33h-7.25v2.3h-1a8.33,8.33,0,0,0,0-1.16V238.3a7.32,7.32,0,0,0,0-1.07,13.47,13.47,0,0,0,1.74.09H284ZM281.63,240a7.19,7.19,0,0,0,1.25.07h3.8a6.9,6.9,0,0,0,1.21-.07v1.06a9.38,9.38,0,0,0-1.21-.07h-3.82a9.18,9.18,0,0,0-1.23.07Z"/><path class="cls-2" d="M300.78,240.63a13.79,13.79,0,0,0,2.68,5.48,11.65,11.65,0,0,0,4.46,3.31,5.08,5.08,0,0,0-.73,1.14,13.19,13.19,0,0,1-6.9-8.4,10.78,10.78,0,0,1-3.21,6.11,12.89,12.89,0,0,1-3.56,2.31,3.46,3.46,0,0,0-.7-1,10.45,10.45,0,0,0,4.32-3,10.58,10.58,0,0,0,2.29-5.94H295a10,10,0,0,0-1.81.12v-1.32a10.07,10.07,0,0,0,1.84.12h4.54c.05-.82.06-1.35.06-2a14.29,14.29,0,0,0-.11-1.85h1.35a10.45,10.45,0,0,0-.12,1.76c0,.87,0,1.36-.08,2.1h5a10.32,10.32,0,0,0,1.83-.12v1.32a10.94,10.94,0,0,0-1.81-.12Z"/><path class="cls-2" d="M318,249.37c0,1-.31,1.26-1.84,1.26-.46,0-1.32,0-1.89-.1a5.6,5.6,0,0,0-.35-1.09,16.24,16.24,0,0,0,2.15.18c.76,0,.88-.05.88-.4V245.8H312a12,12,0,0,0-1.73.1v-1.17a11.79,11.79,0,0,0,1.72.1h4.95v-.29c0-.34,0-.64-.05-1h.69a13.69,13.69,0,0,0,2.94-1.92h-6a14.47,14.47,0,0,0-1.56.08v-1.1a14.84,14.84,0,0,0,1.6.08h5.93a7.23,7.23,0,0,0,1.22-.06l.63.68c-.22.17-.22.17-.58.49A18.36,18.36,0,0,1,318,244.3v.53h4.88a11.4,11.4,0,0,0,1.73-.1v1.17a11.81,11.81,0,0,0-1.74-.1H318Zm-4.44-11.24a11.5,11.5,0,0,0-1.55-2.21l1-.32a16.25,16.25,0,0,1,1.68,2.52h2.4a10.28,10.28,0,0,0-1.2-2.45l1-.29a14.88,14.88,0,0,1,1.25,2.74H320a10.34,10.34,0,0,0,1.69-2.74l1,.46a16.21,16.21,0,0,1-1.58,2.28h1.28a18.09,18.09,0,0,0,1.89-.07,11.34,11.34,0,0,0-.06,1.41v1.26a9.51,9.51,0,0,0,.08,1.19H323.2v-2.86H311.59v2.86h-1.08a11.32,11.32,0,0,0,.08-1.19v-1.26a11.09,11.09,0,0,0-.07-1.41,14.09,14.09,0,0,0,1.88.08Z"/><path class="cls-2" d="M335.81,237.64a10.66,10.66,0,0,1-1.87,2.14,3.27,3.27,0,0,0-.73-.75,8.16,8.16,0,0,0,2.75-3.79l1.05.34a12.76,12.76,0,0,1-.64,1.14h2.53a9.2,9.2,0,0,0,1.63-.1v1.09a12.28,12.28,0,0,0-1.49-.07h-1.12a10.92,10.92,0,0,1,.87,1.51l-.91.38a10.08,10.08,0,0,0-.93-1.89Zm4.34,8.82a13.11,13.11,0,0,1-2.94,2.45,15.81,15.81,0,0,1-3.36,1.58,3.79,3.79,0,0,0-.64-1,14.1,14.1,0,0,0,3.21-1.27,12,12,0,0,0,3-2.28h-4c-.1.32-.15.46-.29.87l-1.14-.1a13,13,0,0,0,1.15-4.37,10.09,10.09,0,0,0,1.55.07h3.4V240.7h-3.92a10.92,10.92,0,0,0-1.59.09v-1.07a9.88,9.88,0,0,0,1.59.08h8.77a11.43,11.43,0,0,0,1.53-.07,6.13,6.13,0,0,0-.07,1.07v1.4a7.46,7.46,0,0,0,.07,1.17c-.43,0-.86-.05-1.53-.05h-3.83v1.75H346a9.06,9.06,0,0,0,1.35-.07,4.38,4.38,0,0,0-.08.68c-.33,3.76-.44,4-2.12,4a17.42,17.42,0,0,1-1.81-.1,4.51,4.51,0,0,0-.28-1.07,11,11,0,0,0,2.07.22c.56,0,.72-.1.84-.53a16.67,16.67,0,0,0,.26-2.19h-5.08l0,3a11.8,11.8,0,0,0,.14,1.87h-1.22a7.33,7.33,0,0,0,.1-1.38V249Zm-4.06-3.14a12.63,12.63,0,0,1-.39,1.75h4.44l0-1.75Zm5.92-5.68a10.37,10.37,0,0,1-1.45,1.87,2.8,2.8,0,0,0-.77-.63,7.53,7.53,0,0,0,2.27-3.64l1,.31c-.19.46-.26.58-.55,1.17h3.76a11.87,11.87,0,0,0,1.75-.1v1.11a12.56,12.56,0,0,0-1.73-.09h-1.81c.33.48.62.94.92,1.48l-.92.39a13.12,13.12,0,0,0-1-1.87Zm3.39,4.8V240.7h-4.33l0,1.74Z"/><path class="cls-2" d="M351.05,236.42a7.57,7.57,0,0,0,1.36.08h1a8.72,8.72,0,0,0,1.36-.08c-.09,1-.14,1.9-.14,2.82v8.26a11.07,11.07,0,0,0,.13,1.92h-1.56a12,12,0,0,0,.13-1.92v-9.84h-.89a9.35,9.35,0,0,0-1.43.1Z"/><path class="cls-2" d="M367.47,239.32a3.37,3.37,0,0,0-.58-1.07,2.46,2.46,0,0,0-2-.85,3,3,0,0,0-2.84,2.11,9.69,9.69,0,0,0-.69,3.66,3.42,3.42,0,0,1,.82-1.09,3.82,3.82,0,0,1,2.78-1,3.89,3.89,0,0,1,4.13,4.25,4.08,4.08,0,0,1-4.31,4.37,4.34,4.34,0,0,1-3-1.07c-1.07-1-1.66-2.93-1.66-5.34a9.28,9.28,0,0,1,1.25-5.13,4.08,4.08,0,0,1,3.47-1.86,4.23,4.23,0,0,1,2.5.72,4.17,4.17,0,0,1,1.38,1.9Zm-2.65,2.86a3.25,3.25,0,0,0-2.27,1,3,3,0,0,0-.82,2.16,3.07,3.07,0,0,0,3.11,3.19,3,3,0,0,0,2.56-1.37,3.83,3.83,0,0,0,.43-1.8C367.83,243.32,366.74,242.18,364.82,242.18Z"/><path class="cls-2" d="M374,237.2a10.61,10.61,0,0,0-.1-1.62h1.15a11,11,0,0,0-.08,1.64v.3h3v-.32a9.52,9.52,0,0,0-.09-1.62h1.14a10.12,10.12,0,0,0-.1,1.64v.3a6.59,6.59,0,0,0,1.36-.1v1.09a8.78,8.78,0,0,0-1.36-.07v7.26a7.89,7.89,0,0,0,1.3-.09v1.06c-.38,0-.86,0-1.5,0h-5.2a6.62,6.62,0,0,0-1.33.08v-1.09a6.3,6.3,0,0,0,1.32.09H374v-7.26h-.1a7.11,7.11,0,0,0-1.42.09v-1.11a6.68,6.68,0,0,0,1.42.1h.1Zm1.69,10.54a9.64,9.64,0,0,1-2.56,2.94,2.46,2.46,0,0,0-.76-.82,6.69,6.69,0,0,0,2.47-2.65Zm2.31-7.53v-1.77h-3v1.77Zm0,2.65v-1.78h-3v1.78Zm0,2.84v-2h-3v2Zm-.25,1.49a6.14,6.14,0,0,0,1.61,1.76,3.27,3.27,0,0,0-.76.73,8.82,8.82,0,0,1-1.59-2Zm4.19-1.93a9.24,9.24,0,0,1-1.92,5.5,2.66,2.66,0,0,0-.81-.78,6.69,6.69,0,0,0,1.63-3.84,77.32,77.32,0,0,0,.28-7.89,17.06,17.06,0,0,0-.07-2,13.15,13.15,0,0,0,1.58.07h2.27a12.65,12.65,0,0,0,1.57-.07,13.59,13.59,0,0,0-.07,1.65v11.45c0,.58-.15.94-.44,1.11a3.11,3.11,0,0,1-1.34.19c-.23,0-.41,0-1.3-.07a4.11,4.11,0,0,0-.26-1.21,8.8,8.8,0,0,0,1.81.22c.4,0,.53-.1.53-.37v-4Zm.15-4.07c0,1.67,0,2-.1,3.11h3.41v-3.11Zm3.31-3.92h-3.29v3h3.29Z"/><path class="cls-2" d="M392,240a16.18,16.18,0,0,1-2.25,3.64,3.24,3.24,0,0,0-.94-.71,14.07,14.07,0,0,0,2.94-5.22,4.94,4.94,0,0,0,.36-1.6l1.24.34a6.14,6.14,0,0,0-.33.9c-.05.16-.25.72-.59,1.65h3.45v-1.8a13.09,13.09,0,0,0-.11-1.8h1.33a12.05,12.05,0,0,0-.12,1.8V239H401a14.54,14.54,0,0,0,1.87-.1v1.21A14.85,14.85,0,0,0,401,240H397v3.66h3.33a12.3,12.3,0,0,0,1.76-.1v1.19a11.63,11.63,0,0,0-1.76-.11H397v4.46h4.59a12.84,12.84,0,0,0,1.94-.12v1.24a13.5,13.5,0,0,0-1.92-.12H391a13.6,13.6,0,0,0-1.94.12V249a13,13,0,0,0,1.93.12h4.88v-4.46h-3a11.25,11.25,0,0,0-1.74.11v-1.19a12.08,12.08,0,0,0,1.74.1h3V240Z"/><path class="cls-2" d="M406.88,243.42c0-.88,0-1.7.05-2.5a10.22,10.22,0,0,1-1.5,2.52,4.49,4.49,0,0,0-.68-.94,16.3,16.3,0,0,0,3.48-7.17l1.11.31c-.09.22-.11.3-.24.71a20.39,20.39,0,0,1-1.22,3.08v9.26c0,1,0,1.51.07,2.11h-1.17a18.89,18.89,0,0,0,.1-2.09Zm3.39-5.1a11.26,11.26,0,0,0-.07,1.45v6.69a12.65,12.65,0,0,0,.08,1.74h-1.13a13,13,0,0,0,.1-1.74v-6.68a8.46,8.46,0,0,0-.09-1.46ZM420,238a10.79,10.79,0,0,0-1.59-.08,8.31,8.31,0,0,1-2.24,2.85,12.1,12.1,0,0,0,4.39,1.62,3.29,3.29,0,0,0-.47,1,13.24,13.24,0,0,1-4.68-2.06,13,13,0,0,1-4.24,2,2.9,2.9,0,0,0-.53-.88,11.57,11.57,0,0,0,4-1.67,7.35,7.35,0,0,1-1.74-2.22,11.7,11.7,0,0,1-1.66,2,1.86,1.86,0,0,0-.76-.63,9.34,9.34,0,0,0,2-2.3,8.62,8.62,0,0,0,1-2.31l1.05.27c-.35.7-.38.8-.71,1.43h4.48a9.35,9.35,0,0,0,1.67-.1Zm0,8.28a8.37,8.37,0,0,0-.66.56,16.25,16.25,0,0,1-3.65,2.36,20.91,20.91,0,0,1-4.54,1.5,3.4,3.4,0,0,0-.56-1,17.62,17.62,0,0,0,6.3-2.29,7.47,7.47,0,0,0,2.19-1.84Zm-3.52-3-.53.39a12,12,0,0,1-2.27,1.2,15.24,15.24,0,0,1-2.2.74,3.16,3.16,0,0,0-.58-.91,8.88,8.88,0,0,0,4.74-2.12Zm1.63,1.44a13.46,13.46,0,0,1-2.29,1.63,15.66,15.66,0,0,1-4.21,1.64A2.3,2.3,0,0,0,411,247a13.75,13.75,0,0,0,4.25-1.5,6.41,6.41,0,0,0,1.89-1.49Zm-4.56-6.76a6.39,6.39,0,0,0,1.91,2.31,6,6,0,0,0,1.88-2.31Z"/><path class="cls-2" d="M424.76,237.35a15.81,15.81,0,0,0-2,.12v-1.26a13.35,13.35,0,0,0,2,.12h8.59a9.61,9.61,0,0,0,1.58-.07l.64.79c-.72.76-.94,1-1.35,1.36a20.23,20.23,0,0,1-4.42,3.09v7.68a1.17,1.17,0,0,1-.51,1.14,4.15,4.15,0,0,1-1.44.17c-.55,0-1.29-.05-2.28-.15a4.91,4.91,0,0,0-.23-1.19,13.8,13.8,0,0,0,2.63.27c.53,0,.67-.08.67-.37v-6.9a11.86,11.86,0,0,0-.08-1.69h1a16.83,16.83,0,0,0,4.21-3.11Z"/><path class="cls-2" d="M439.74,237.08a7.26,7.26,0,0,0-1.42.1V236a9.52,9.52,0,0,0,1.48.1h2.68a6.54,6.54,0,0,0,1.38-.1v1.12a10.48,10.48,0,0,0-1.33-.07h-1a17.34,17.34,0,0,1-1.13,4.32h2.05a7.86,7.86,0,0,0,1-.05c0,.37-.05.63-.05,1.36V248a11.23,11.23,0,0,0,.07,1.43h-1v-.85h-2v1.8h-1.08a11.48,11.48,0,0,0,.1-1.65v-3.77c0-.62,0-1.14,0-1.91a8.28,8.28,0,0,1-1.24,2.08,2.74,2.74,0,0,0-.59-1,11.65,11.65,0,0,0,2.27-4.32,12,12,0,0,0,.56-2.67Zm.65,10.54h2V242.3h-2Zm5.71-10.54a10,10,0,0,0-1.59.1V236a9.45,9.45,0,0,0,1.66.1h5.2A10.37,10.37,0,0,0,453,236v1.17a8.88,8.88,0,0,0-1.6-.1H451v4.71h.53a8.83,8.83,0,0,0,1.64-.1v1.2a11.32,11.32,0,0,0-1.64-.1H451v6.1a12.19,12.19,0,0,0,.12,1.82h-1.27a13.48,13.48,0,0,0,.11-1.82v-6.1h-2.71c-.17,3.79-.87,5.85-2.75,8.09a2.9,2.9,0,0,0-.95-.76c1.73-1.7,2.5-3.83,2.65-7.33h-.46a9.31,9.31,0,0,0-1.63.1V241.7a10,10,0,0,0,1.63.09h.49v-4.71Zm1.2,4.13v.58H450v-4.71H447.3Z"/><path class="cls-2" d="M464.5,243.86a13.87,13.87,0,0,0,1.84-.08c0,.37,0,.73-.07,1.49l-.06,3.45c0,.51.18.58,1.46.58s1.48-.08,1.6-.39a10.57,10.57,0,0,0,.26-2.55,3.72,3.72,0,0,0,1.07.44c-.26,3.4-.36,3.51-3,3.51-2,0-2.44-.23-2.44-1.36v-.09l.07-4h-3.06a6.63,6.63,0,0,1-1.28,2.8,7.34,7.34,0,0,1-1.76,1.63,11.16,11.16,0,0,1-2.73,1.4,2.54,2.54,0,0,0-.73-1,10.12,10.12,0,0,0,3.16-1.53,5.58,5.58,0,0,0,2.29-3.33h-2.6a11.18,11.18,0,0,0-1.78.1v-1.21a10.67,10.67,0,0,0,1.75.1h2.83a13.73,13.73,0,0,0,.11-1.42,5.79,5.79,0,0,0-.07-.92h1.25a5.66,5.66,0,0,0-.13,1.08c0,.4-.06.83-.13,1.25Zm-2.19-7.19a4.94,4.94,0,0,0-.12-1.22h1.29a4.69,4.69,0,0,0-.12,1.22v.53h4.89a13,13,0,0,0,1.66-.09,7.86,7.86,0,0,0-.07,1.18v.86a7.92,7.92,0,0,0,.07,1.19h-1.09v-2.17h-4.09v2.46c0,.21,0,.29.11.34a3.06,3.06,0,0,0,1.05.12,3.16,3.16,0,0,0,1.34-.18c.18-.14.26-.6.28-1.38a3.3,3.3,0,0,0,1,.32c-.08,1.07-.21,1.55-.49,1.8a3.57,3.57,0,0,1-2.12.38c-1.73,0-2.14-.19-2.14-.94v-2.92h-2a4.85,4.85,0,0,1-.58,1.89,4.65,4.65,0,0,1-2.6,2.15,13,13,0,0,1-1.53.5,4.59,4.59,0,0,0-.62-.94,5.86,5.86,0,0,0,3.29-1.36,3.28,3.28,0,0,0,1-2.24h-3.5v2.16h-1.09a8.28,8.28,0,0,0,.07-1.19v-.85a7.86,7.86,0,0,0-.07-1.18,13,13,0,0,0,1.66.09h4.56Z"/><path class="cls-2" d="M477.27,244.75a19,19,0,0,0,.11-2.45,10.5,10.5,0,0,0-1.35.07v-.84a13.63,13.63,0,0,1-3.19,2,3.17,3.17,0,0,0-.66-.88,12.1,12.1,0,0,0,3.75-2.32,14.59,14.59,0,0,0-2.48-2.22l.77-.67a22,22,0,0,1,2.44,2.2,11.19,11.19,0,0,0,2.07-2.66h-3.11a6.83,6.83,0,0,0-1.07.09v-1.09a6.76,6.76,0,0,0,1.19.09h3.12a9.78,9.78,0,0,0,1.47-.07,5,5,0,0,0,1.26,2.31,10.23,10.23,0,0,0,1.71-2.18l.91.62a2.28,2.28,0,0,0-.35.39,15.79,15.79,0,0,1-1.69,1.83c.46.48.85.85,1.4,1.33a11.16,11.16,0,0,0,1.95-2.35l.91.62c-.17.18-.17.18-.79.9a14.71,14.71,0,0,1-1.37,1.37,12.5,12.5,0,0,0,3.1,1.69,4.27,4.27,0,0,0-.65,1,15.69,15.69,0,0,1-3.14-1.92v.82a11.24,11.24,0,0,0-1.4-.07h-.27v2.45h2.92a10.07,10.07,0,0,0,1.65-.11v1.16a11,11,0,0,0-1.65-.1h-2.92v3.21c0,.27.06.37.32.46a5.3,5.3,0,0,0,1.27.1c1.28,0,1.74-.08,2-.35a4.29,4.29,0,0,0,.43-1.93,2.81,2.81,0,0,0,1.06.5,4.45,4.45,0,0,1-.73,2.24c-.34.41-1.07.55-2.84.55-2,0-2.5-.24-2.5-1.28v-3.5h-2.75a5.86,5.86,0,0,1-1.17,2.67A7.51,7.51,0,0,1,475.1,250a8.62,8.62,0,0,1-1.65.78,3.83,3.83,0,0,0-.77-1,7.83,7.83,0,0,0,2.51-1.21,4.44,4.44,0,0,0,1.91-2.89h-2.43a10.75,10.75,0,0,0-1.63.1v-1.16a9.8,9.8,0,0,0,1.63.11Zm4.87-3.37a11.32,11.32,0,0,0,1.16,0,12.74,12.74,0,0,1-3.53-4.23,15.37,15.37,0,0,1-3.49,4.23c.38,0,.66,0,1.23,0Zm-3.72.92a17.3,17.3,0,0,1-.12,2.45h2.59V242.3Z"/><path class="cls-2" d="M493.65,245.73a19.08,19.08,0,0,1-3.91,2.26,4,4,0,0,0-.66-1,14.61,14.61,0,0,0,5.94-3.68h-4a13.28,13.28,0,0,0-1.83.1v-1.16a9.13,9.13,0,0,0,1.83.1h4.85v-1.64H492.5a12.37,12.37,0,0,0-1.67.06v-1.08a12.56,12.56,0,0,0,1.67.06h3.41v-1.59h-4.26a11.43,11.43,0,0,0-1.75.08v-1.12a11.26,11.26,0,0,0,1.78.1h4.23v-.39a7.84,7.84,0,0,0-.1-1.48H497a7.55,7.55,0,0,0-.1,1.48v.39h4.52a11.61,11.61,0,0,0,1.81-.1v1.12a11.88,11.88,0,0,0-1.77-.08h-4.56v1.59h3.65a13.85,13.85,0,0,0,1.75-.06v1.08a13.65,13.65,0,0,0-1.75-.06h-3.65v1.64h5.15a10.83,10.83,0,0,0,1.79-.1v1.16a13.15,13.15,0,0,0-1.79-.1h-4.59a10.28,10.28,0,0,0,1.71,2.75,13.66,13.66,0,0,0,2.42-2.38l.95.66c-.11.1-.11.1-.33.33a24.46,24.46,0,0,1-2.38,2.1,12.29,12.29,0,0,0,4.36,2.64,4.57,4.57,0,0,0-.71,1,12.63,12.63,0,0,1-7.06-7.12h-.18a14,14,0,0,1-1.59,1.58v4c1.33-.3,2-.51,3.72-1v1c-2.14.63-3.67,1-6.11,1.51-.26.07-.56.14-.77.21l-.28-1.19a16.46,16.46,0,0,0,2.43-.32Z"/><path class="cls-2" d="M513.89,235.47a11.43,11.43,0,0,0,2.77,3,17.64,17.64,0,0,0,4.54,2.72,3.61,3.61,0,0,0-.65,1.09,22.69,22.69,0,0,1-4.57-3,14.09,14.09,0,0,1-2.63-2.91,14.61,14.61,0,0,1-2.47,2.79,18,18,0,0,1-4.44,3,3.41,3.41,0,0,0-.69-1,17.28,17.28,0,0,0,4.36-2.77,12.3,12.3,0,0,0,2.61-3ZM508.33,245a15.07,15.07,0,0,0-1.87.1v-1.22a13.34,13.34,0,0,0,1.87.1h10.14a13.24,13.24,0,0,0,1.87-.1v1.22a15.31,15.31,0,0,0-1.87-.1h-5.91a25.17,25.17,0,0,1-2.06,4c2.27-.15,4-.32,6.42-.63a29,29,0,0,0-2-2.1l.86-.55a36.76,36.76,0,0,1,4,4.49l-.91.7c-.64-.94-.85-1.23-1.2-1.67-2.92.41-5.41.68-8,.88a19,19,0,0,0-2.78.31l-.2-1.29a8.38,8.38,0,0,0,.84.05c.26,0,.26,0,1.74-.1a26.42,26.42,0,0,0,2.09-4.1Zm1.06-4.23a8.34,8.34,0,0,0,1.29.07H516a9.71,9.71,0,0,0,1.38-.07v1.14a9.9,9.9,0,0,0-1.38-.07h-5.33a9.17,9.17,0,0,0-1.28.07Z"/><path class="cls-2" d="M531.14,243.06a1.35,1.35,0,1,1-1.35-1.39A1.38,1.38,0,0,1,531.14,243.06Z"/><path class="cls-2" d="M549.58,237.64a1.86,1.86,0,0,1-.07-.49,1.87,1.87,0,1,1,1.86,1.92,1.81,1.81,0,0,1-.57-.09.35.35,0,0,0,0,.11,15.35,15.35,0,0,1-3.36,6.76,15.2,15.2,0,0,1-6,4,3.39,3.39,0,0,0-.8-1.17,13.21,13.21,0,0,0,6-3.86,14,14,0,0,0,2.87-6h-8.37a11.54,11.54,0,0,0-1.84.1v-1.36a11.9,11.9,0,0,0,1.86.1h8.42Zm.63-.51a1.18,1.18,0,1,0,1.18-1.21A1.2,1.2,0,0,0,550.21,237.13Z"/><path class="cls-2" d="M557.3,248.13v1.21H556a9.08,9.08,0,0,0,.07-1.28v-9.23a8.61,8.61,0,0,0-.07-1.32,12.82,12.82,0,0,0,1.29.05h8.76a8.55,8.55,0,0,0,1.29-.05,9.23,9.23,0,0,0,0,1.32V248a12.46,12.46,0,0,0,0,1.31h-1.25v-1.21Zm8.82-9.45H557.3V247h8.82Z"/><path class="cls-2" d="M572.85,240.58a26.5,26.5,0,0,1,4.18,2.21l-.64,1.16a18,18,0,0,0-4.2-2.33Zm-.43,7.77h.1a14.6,14.6,0,0,0,4.33-1,12,12,0,0,0,6.91-7.62,5.36,5.36,0,0,0,1,.92c-2.07,5.15-5.46,7.82-11.38,9-.36.09-.39.09-.64.17Zm1.71-11.83a25.38,25.38,0,0,1,4.08,2.14l-.67,1.14a17.48,17.48,0,0,0-4-2.26Zm8.62-.78a13.75,13.75,0,0,1,1.68,2.63l-.82.51a13.5,13.5,0,0,0-1.68-2.7Zm1.84-.92a13.09,13.09,0,0,1,1.72,2.63l-.83.5a12.94,12.94,0,0,0-1.69-2.67Z"/><path class="cls-2" d="M595.09,248.49h3.52a7.69,7.69,0,0,0,1.48-.09v1.19a11.54,11.54,0,0,0-1.49-.07h-8a11.31,11.31,0,0,0-1.5.07v-1.21a6.13,6.13,0,0,0,1.48.11H594v-5.88h-2.35a10.89,10.89,0,0,0-1.47.06v-1.19a8.22,8.22,0,0,0,1.47.1h6a7.88,7.88,0,0,0,1.46-.1v1.19a8.47,8.47,0,0,0-1.44-.06h-2.54Z"/><path class="cls-2" d="M611.19,236a3.42,3.42,0,0,0-.37.69,16.06,16.06,0,0,1-.75,1.52,49.34,49.34,0,0,1,5-.14,1.6,1.6,0,0,0,.86-.12l.71.72c-.15.2-.15.22-.33.83a18.17,18.17,0,0,1-3.29,6.39,16.09,16.09,0,0,1-5.73,4.25,2.5,2.5,0,0,0-.82-1,14.09,14.09,0,0,0,5.81-4.3,15.89,15.89,0,0,0,2.83-5.7l-5.55.1a15.84,15.84,0,0,1-3.93,4.42,2.52,2.52,0,0,0-.92-.88,12.29,12.29,0,0,0,4.13-4.66,8,8,0,0,0,1-2.48Z"/><path class="cls-2" d="M624.17,250.05a12,12,0,0,0,.1-1.78V237.71a11,11,0,0,0-.1-1.73h1.41a11.72,11.72,0,0,0-.08,1.76v3.18a40.52,40.52,0,0,1,7.32,3.59l-.71,1.26A32.68,32.68,0,0,0,626,242.4a1.71,1.71,0,0,1-.51-.29l0,0a7.46,7.46,0,0,1,.06,1v5.12a12.9,12.9,0,0,0,.08,1.8Z"/><path class="cls-2" d="M638.17,237.08a7.15,7.15,0,0,0-1.41.1V236a9.33,9.33,0,0,0,1.48.1h2.68a6.54,6.54,0,0,0,1.38-.1v1.12a10.58,10.58,0,0,0-1.33-.07h-1a16.94,16.94,0,0,1-1.14,4.32h2.06a8.09,8.09,0,0,0,1-.05c0,.37,0,.63,0,1.36V248a11.23,11.23,0,0,0,.07,1.43h-1v-.85h-2v1.8h-1.09a10.18,10.18,0,0,0,.1-1.65v-3.77c0-.62,0-1.14,0-1.91a7.94,7.94,0,0,1-1.23,2.08,2.74,2.74,0,0,0-.59-1,11.8,11.8,0,0,0,2.27-4.32,13.21,13.21,0,0,0,.56-2.67Zm.66,10.54h2V242.3h-2Zm5.71-10.54a10.25,10.25,0,0,0-1.6.1V236a9.6,9.6,0,0,0,1.66.1h5.2a10.43,10.43,0,0,0,1.65-.1v1.17a8.88,8.88,0,0,0-1.6-.1h-.39v4.71H650a9,9,0,0,0,1.65-.1v1.2a11.58,11.58,0,0,0-1.65-.1h-.52v6.1a13.69,13.69,0,0,0,.11,1.82h-1.26a13.48,13.48,0,0,0,.11-1.82v-6.1h-2.71c-.17,3.79-.88,5.85-2.75,8.09a3,3,0,0,0-1-.76c1.72-1.7,2.5-3.83,2.64-7.33h-.46a9.45,9.45,0,0,0-1.63.1V241.7a10.1,10.1,0,0,0,1.63.09h.5v-4.71Zm1.2,4.13v.58h2.68v-4.71h-2.68Z"/><path class="cls-2" d="M662,243.86a13.87,13.87,0,0,0,1.84-.08c0,.37,0,.73-.07,1.49l-.06,3.45c0,.51.18.58,1.46.58s1.48-.08,1.6-.39a10.57,10.57,0,0,0,.26-2.55,3.72,3.72,0,0,0,1.07.44c-.26,3.4-.36,3.51-3,3.51-2,0-2.44-.23-2.44-1.36v-.09l.07-4h-3.06a6.63,6.63,0,0,1-1.28,2.8,7.34,7.34,0,0,1-1.76,1.63,11.16,11.16,0,0,1-2.73,1.4,2.54,2.54,0,0,0-.73-1,10.12,10.12,0,0,0,3.16-1.53,5.58,5.58,0,0,0,2.29-3.33H656a11.18,11.18,0,0,0-1.78.1v-1.21a10.67,10.67,0,0,0,1.75.1h2.83a13.73,13.73,0,0,0,.11-1.42,5.79,5.79,0,0,0-.07-.92h1.25a5.66,5.66,0,0,0-.13,1.08c0,.4-.06.83-.13,1.25Zm-2.19-7.19a4.94,4.94,0,0,0-.12-1.22h1.29a4.69,4.69,0,0,0-.12,1.22v.53h4.89a13,13,0,0,0,1.66-.09,7.86,7.86,0,0,0-.07,1.18v.86a7.92,7.92,0,0,0,.07,1.19h-1.09v-2.17h-4.09v2.46c0,.21,0,.29.11.34a3.06,3.06,0,0,0,1.05.12,3.16,3.16,0,0,0,1.34-.18c.18-.14.26-.6.28-1.38a3.21,3.21,0,0,0,1,.32c-.08,1.07-.21,1.55-.49,1.8a3.57,3.57,0,0,1-2.12.38c-1.73,0-2.14-.19-2.14-.94v-2.92h-2a5,5,0,0,1-.58,1.89,4.68,4.68,0,0,1-2.6,2.15,13.65,13.65,0,0,1-1.53.5,4.59,4.59,0,0,0-.62-.94,5.86,5.86,0,0,0,3.29-1.36,3.28,3.28,0,0,0,1-2.24h-3.5v2.16h-1.09a8.28,8.28,0,0,0,.07-1.19v-.85a7.86,7.86,0,0,0-.07-1.18,13,13,0,0,0,1.66.09h4.56Z"/><path class="cls-2" d="M674.39,244.75a19,19,0,0,0,.11-2.45,10.5,10.5,0,0,0-1.35.07v-.84a13.63,13.63,0,0,1-3.19,2,3.17,3.17,0,0,0-.66-.88,12.1,12.1,0,0,0,3.75-2.32,14.59,14.59,0,0,0-2.48-2.22l.77-.67a22,22,0,0,1,2.44,2.2,11.19,11.19,0,0,0,2.07-2.66h-3.11a6.83,6.83,0,0,0-1.07.09v-1.09a6.76,6.76,0,0,0,1.19.09H676a9.78,9.78,0,0,0,1.47-.07,5,5,0,0,0,1.26,2.31,10.23,10.23,0,0,0,1.71-2.18l.91.62a2.28,2.28,0,0,0-.35.39,15.79,15.79,0,0,1-1.69,1.83c.46.48.85.85,1.4,1.33a11.16,11.16,0,0,0,1.95-2.35l.91.62c-.17.18-.17.18-.79.9a14.71,14.71,0,0,1-1.37,1.37,12.5,12.5,0,0,0,3.1,1.69,4,4,0,0,0-.64,1,15.49,15.49,0,0,1-3.15-1.92v.82a11.17,11.17,0,0,0-1.39-.07H679v2.45H682a10.07,10.07,0,0,0,1.65-.11v1.16a11,11,0,0,0-1.65-.1H679v3.21c0,.27.06.37.32.46a5.3,5.3,0,0,0,1.27.1c1.28,0,1.74-.08,2-.35a4.49,4.49,0,0,0,.42-1.93,2.81,2.81,0,0,0,1.06.5,4.45,4.45,0,0,1-.73,2.24c-.34.41-1.07.55-2.84.55-2,0-2.5-.24-2.5-1.28v-3.5h-2.75a5.86,5.86,0,0,1-1.17,2.67,7.51,7.51,0,0,1-1.87,1.61,8.62,8.62,0,0,1-1.65.78,3.83,3.83,0,0,0-.77-1,7.83,7.83,0,0,0,2.51-1.21,4.44,4.44,0,0,0,1.91-2.89h-2.43a10.75,10.75,0,0,0-1.63.1v-1.16a9.8,9.8,0,0,0,1.63.11Zm4.87-3.37a11.32,11.32,0,0,0,1.16,0,12.74,12.74,0,0,1-3.53-4.23,15.37,15.37,0,0,1-3.49,4.23c.38,0,.66,0,1.23,0Zm-3.72.92a17.3,17.3,0,0,1-.12,2.45H678V242.3Z"/><path class="cls-2" d="M690.45,245.73a19.45,19.45,0,0,1-3.92,2.26,4,4,0,0,0-.66-1,14.61,14.61,0,0,0,5.94-3.68h-4a13.38,13.38,0,0,0-1.83.1v-1.16a9.13,9.13,0,0,0,1.83.1h4.85v-1.64h-3.41a12.37,12.37,0,0,0-1.67.06v-1.08a12.65,12.65,0,0,0,1.67.06h3.41v-1.59h-4.26a11.21,11.21,0,0,0-1.74.08v-1.12a11,11,0,0,0,1.77.1h4.23v-.39a7.84,7.84,0,0,0-.1-1.48h1.2a7.55,7.55,0,0,0-.1,1.48v.39h4.53a11.7,11.7,0,0,0,1.81-.1v1.12a12,12,0,0,0-1.78-.08H693.7v1.59h3.65a13.75,13.75,0,0,0,1.75-.06v1.08a13.65,13.65,0,0,0-1.75-.06H693.7v1.64h5.15a10.83,10.83,0,0,0,1.79-.1v1.16a13.15,13.15,0,0,0-1.79-.1h-4.59a10.53,10.53,0,0,0,1.71,2.75,13.66,13.66,0,0,0,2.42-2.38l1,.66a2.41,2.41,0,0,0-.33.33,24.64,24.64,0,0,1-2.39,2.1,12.29,12.29,0,0,0,4.36,2.64,4.57,4.57,0,0,0-.71,1,12.58,12.58,0,0,1-7-7.12h-.18a15,15,0,0,1-1.6,1.58v4c1.33-.3,2-.51,3.72-1v1c-2.14.63-3.67,1-6.11,1.51l-.77.21-.28-1.19a16.57,16.57,0,0,0,2.44-.32Z"/><path class="cls-2" d="M710.35,235.47a11.43,11.43,0,0,0,2.77,3,17.64,17.64,0,0,0,4.54,2.72,3.37,3.37,0,0,0-.64,1.09,22.76,22.76,0,0,1-4.58-3,14.09,14.09,0,0,1-2.63-2.91,14.28,14.28,0,0,1-2.47,2.79,17.77,17.77,0,0,1-4.44,3,3.41,3.41,0,0,0-.69-1,16.93,16.93,0,0,0,4.36-2.77,12.35,12.35,0,0,0,2.62-3ZM704.79,245a15.07,15.07,0,0,0-1.87.1v-1.22a13.34,13.34,0,0,0,1.87.1h10.14a13.15,13.15,0,0,0,1.87-.1v1.22a15.31,15.31,0,0,0-1.87-.1H709a25.24,25.24,0,0,1-2,4c2.27-.15,4-.32,6.41-.63a29,29,0,0,0-2-2.1l.86-.55a36.76,36.76,0,0,1,4,4.49l-.9.7c-.65-.94-.86-1.23-1.21-1.67-2.92.41-5.41.68-8,.88a19,19,0,0,0-2.78.31l-.2-1.29a8.38,8.38,0,0,0,.84.05c.26,0,.26,0,1.74-.1a26.42,26.42,0,0,0,2.09-4.1Zm1.06-4.23a8.49,8.49,0,0,0,1.3.07h5.31a9.71,9.71,0,0,0,1.38-.07v1.14a9.81,9.81,0,0,0-1.38-.07h-5.33a9.27,9.27,0,0,0-1.28.07Z"/><path class="cls-2" d="M137.92,2.07h8.28V84.7h-8.28Z"/><path class="cls-2" d="M196.61,2.07,235.16,84.7H226.3l-13-27.16H177.62L164.73,84.7h-9.2L194.65,2.07Zm-1,17.49L181.3,49.48h28.31Z"/><path class="cls-2" d="M242,84.7,253.69,2.07h1.38l33.6,67.78L321.93,2.07h1.38L335.05,84.7H327l-8.05-59.15L289.71,84.7h-2.07L258,25.09,250,84.7Z"/><path class="cls-2" d="M382.92,2.07,421.47,84.7h-8.86l-13-27.16H363.93L351.05,84.7h-9.21L381,2.07Zm-1,17.49L367.62,49.48h28.31Z"/><path class="cls-2" d="M463.71,18.64c-4.49-5.87-8.4-10.12-15.19-10.12-7.14,0-11.16,5.06-11.16,10.47,0,4.49,2.64,9.2,7.36,12.77,15.54,11.51,26.93,19.45,26.93,32.8,0,11.62-9.78,22.21-23.25,22.21-11.39,0-18.87-6.33-25-17.49l7-4.26c4.95,9.09,10.93,13.69,17.26,13.69,8.63,0,15.31-6.33,15.31-14,0-9.09-8.52-14.27-27.28-29.46-3.91-3.1-7-9.66-7-15.88,0-11.39,8.86-19.33,20-19.33C458.88,0,465,6.1,470.38,13.46Z"/><path class="cls-2" d="M532.41,50.63c9.67-10.47,15.3-16.8,15.3-25.77,0-9.55-7.82-17.26-17.83-17.26-10.47,0-18.18,7.71-19.22,20.36h-7.94c.46-16.11,12.08-28,27.5-28,15,0,25.55,11.05,25.55,24.86,0,11.27-6.67,19.1-16.46,29.69L518.72,76.64h38.2V84.7H500.76Z"/><path class="cls-2" d="M568.31,25.89C571.54,9.32,581.55,0,595,0c10.36,0,19.45,6.21,24.28,17.49,3.23,7.37,4.15,15.88,4.15,25.78s-1,18.53-4.15,25.89C614.46,80.44,605.37,86.77,595,86.77c-9.2,0-16.8-4.38-21.86-12.78-4.84-7.94-6.22-18.06-6.22-30.72A88.66,88.66,0,0,1,568.31,25.89Zm11.4,44c3.56,6,9.43,9.32,15.42,9.32,12,0,20.6-11.5,20.6-35.79S607.21,7.6,595.13,7.6c-6.1,0-11.86,3.56-15.42,9.55-3.8,6.33-4.72,15-4.72,26.23S575.91,63.52,579.71,69.85Z"/><path class="cls-2" d="M627.35,10.13l4.95-8.06h16.34V84.7h-8.29V10.13Z"/><path class="cls-2" d="M691,0c13.58,0,23.6,10.13,23.6,21.75,0,7.59-3.8,13.35-11.63,17.61,10,5.06,15.54,11.5,15.54,21.63,0,13.12-9.55,25.66-28.08,25.66-18.07,0-27.73-12.2-27.73-25,0-10.59,6-17.26,16-22.32-8.28-4.26-12.31-10.71-12.31-17.84C666.36,10.13,677,0,691,0ZM670.73,61.91c0,9.09,7.48,17.15,19.79,17.15,12.09,0,19.91-8.4,19.91-18,0-8.75-8.17-17.61-19.45-17.61C679.13,43.5,670.73,52.59,670.73,61.91ZM675,21.63c0,7.71,7.71,14.27,15.88,14.27,9.32,0,15.65-7.48,15.65-14.5,0-6.32-5.41-13.34-15.88-13.34C681.66,8.06,675,14.15,675,21.63Z"/><g class="cls-3"><path class="cls-4" d="M137.92,93.06h8.28v82.62h-8.28Z"/><path class="cls-5" d="M194.65,175.92,155.53,93.3h9.2l12.89,27.15h35.67l13-27.15h8.86l-38.55,82.62Zm15-47.65H181.3l14.27,29.92Z"/><path class="cls-6" d="M250,93.3,258,152.91,287.67,93.3h2.07L319,152.45l8-59.15h8.06l-11.74,82.62H322L288.7,108.14l-33.6,67.78h-1.38L242,93.3Z"/><path class="cls-7" d="M381,175.92,341.84,93.3h9.21l12.88,27.16h35.68l13-27.16h8.86l-38.55,82.62Zm15-47.65H367.62l14.27,29.92Z"/><path class="cls-8" d="M470.38,168.67c-5.41,7.37-11.5,13.46-21.63,13.46-11.16,0-20-7.94-20-19.33,0-6.21,3.1-12.77,7-15.88C454.5,131.73,463,126.55,463,117.46c0-7.71-6.68-14-15.31-14-6.33,0-12.31,4.61-17.26,13.7l-7-4.26c6.1-11.16,13.58-17.49,25-17.49,13.47,0,23.25,10.58,23.25,22.21,0,13.35-11.39,21.29-26.93,32.79-4.72,3.57-7.36,8.29-7.36,12.78,0,5.41,4,10.47,11.16,10.47,6.79,0,10.7-4.26,15.19-10.13Z"/><path class="cls-9" d="M500.76,93.3h56.16v8h-38.2l20.59,22.1c9.79,10.58,16.46,18.41,16.46,29.69,0,13.8-10.59,24.85-25.55,24.85-15.42,0-27-11.85-27.5-28h7.94c1,12.66,8.75,20.37,19.22,20.37,10,0,17.83-7.71,17.83-17.26,0-9-5.63-15.31-15.3-25.78Z"/><path class="cls-10" d="M566.93,138.87c0-12.66,1.38-22.79,6.22-30.73,5.06-8.4,12.66-12.77,21.86-12.77,10.36,0,19.45,6.33,24.28,17.6,3.11,7.37,4.15,16,4.15,25.9s-.92,18.41-4.15,25.77c-4.83,11.28-13.92,17.49-24.28,17.49-13.46,0-23.47-9.32-26.7-25.89A88.5,88.5,0,0,1,566.93,138.87Zm8.06-.67c0,11.28.92,19.91,4.72,26.24,3.56,6,9.32,9.55,15.42,9.55,12.08,0,20.6-11.62,20.6-35.79s-8.63-35.79-20.6-35.79c-6,0-11.86,3.34-15.42,9.33C575.91,118.06,575,126.81,575,138.2Z"/><path class="cls-11" d="M640.35,167.63V93.06h8.29v82.62H632.3l-4.95-8.05Z"/><path class="cls-12" d="M666.36,160.39c0-7.14,4-13.58,12.31-17.84-10-5.07-16-11.74-16-22.33,0-12.77,9.66-25,27.73-25,18.53,0,28.08,12.55,28.08,25.66,0,10.13-5.53,16.57-15.54,21.64,7.83,4.26,11.63,10,11.63,17.61,0,11.62-10,21.74-23.6,21.74C677,181.9,666.36,171.78,666.36,160.39ZM691,138c11.28,0,19.45-8.86,19.45-17.6,0-9.56-7.82-18-19.91-18-12.31,0-19.79,8.06-19.79,17.15C670.73,128.88,679.13,138,691,138Zm-.34,35.45c10.47,0,15.88-7,15.88-13.35,0-7-6.33-14.5-15.65-14.5-8.17,0-15.88,6.56-15.88,14.27C675,167.32,681.66,173.42,690.64,173.42Z"/><path class="cls-13" d="M137.92,93.09h8.28l-43.93,82.62H94Z"/><path class="cls-14" d="M85,175.92,155.53,93.3h9.2l-23.15,27.15h35.67L226.3,93.3h8.86L87,175.92Zm77.87-47.41H134.57l-25.43,29.92Z"/><path class="cls-15" d="M250.07,93.3,184.4,152.91,287.7,93.3h2.07L246,152.45,327.05,93.3h8.06L221.34,175.92H220l50.44-67.78L153.1,175.92h-1.38L242,93.3Z"/><path class="cls-16" d="M338.86,175.92l3-82.62H351l-1,27.15h35.68L412.61,93.3h8.86l-80.65,82.62ZM378,128.51H349.67l-1,29.92Z"/><path class="cls-17" d="M505.76,168.67c-1.65,7.37-4.64,13.46-14.77,13.46-11.16,0-24.07-7.94-29.87-19.33-3.17-6.21-3.4-12.77-1.08-15.88,11-15.19,16.9-20.37,12.27-29.46-3.93-7.71-13.83-14-22.46-14-6.33,0-10,4.61-10.29,13.7l-9.18-4.26c.41-11.16,4.66-17.49,16.05-17.49,13.47,0,28.64,10.58,34.57,22.21,6.8,13.35-.55,21.29-10.22,32.79-2.9,3.57-3.14,8.29-.86,12.78,2.76,5.41,9.37,10.47,16.5,10.47,6.79,0,8.53-4.26,10-10.13Z"/><path class="cls-18" d="M500.76,93.3h56.16l4.1,8h-38.2l31.86,22.1c15.17,10.58,25.83,18.41,31.58,29.69,7,13.8,2.08,24.85-12.88,24.85-15.42,0-33.08-11.85-41.75-28h7.94c7.48,12.66,19.12,20.37,29.59,20.37,10,0,13.91-7.71,9-17.26-4.57-9-13.43-15.31-28.44-25.78Z"/><path class="cls-19" d="M623.12,138.87c-16.8-12.66-28.86-22.79-34.56-30.73-6.08-8.4-4.29-12.77,4.91-12.77,10.36,0,27.85,6.33,47.65,17.6a366.35,366.35,0,0,1,38.5,25.9c13.14,9.89,23.52,18.41,30.07,25.77,10.13,11.28,9.29,17.49-1.07,17.49-13.47,0-35.85-9.32-61.06-25.89C638.77,150.49,630.76,144.62,623.12,138.87Zm7.9-.12C646,150,658.36,158.66,670.56,165c11.51,6,22,9.55,28.09,9.55,12.09,0,5.18-11.62-26.89-35.79S615.64,103,603.67,103c-6,0-7.43,3.34-3,9.32C605.22,118.61,615.9,127.36,631,138.75Z"/><path class="cls-20" d="M669,167.63,640.34,93.06h8.28l31.72,82.62H664l-8-8.05Z"/><path class="cls-21" d="M777.54,160.39c-12.36-7.14-19.49-13.58-18.58-17.84a221,221,0,0,1-54.66-22.33c-22.13-12.77-33.59-25-15.52-25,18.53,0,49.8,12.55,72.52,25.66,17.54,10.13,23.18,16.57,21.94,21.64a180.3,180.3,0,0,1,42.12,17.61c20.13,11.62,27.66,21.74,14.08,21.74C825.4,181.9,797.27,171.78,777.54,160.39Zm-13.44-22c11.28,0,4.1-8.87-11.05-17.61-16.54-9.55-38.92-18-51-18-12.32,0-5.84,8.05,9.9,17.14C728.1,129.31,752.24,138.41,764.1,138.41Zm61,35.44c10.47,0,3.72-7-7.24-13.35-12.16-7-31.44-14.5-40.76-14.5-8.17,0-4.52,6.56,8.83,14.27C798.93,167.75,816.17,173.85,825.14,173.85Z"/><path class="cls-22" d="M137.92,93.06h8.28l95.05,82.62H233Z"/><path class="cls-23" d="M0,175.92,155.53,93.3h9.2l-51.09,27.15h35.67l77-27.15h8.86L2,175.92Zm126.65-47.41H98.35L42.13,158.43Z"/><path class="cls-24" d="M250,93.3l103.33,59.61L287.58,93.3h2.07l123.89,59.15L326.93,93.3H335l120.49,82.62H454.1L312.37,108.14l74.87,67.78h-1.38l-144-82.62Z"/><path class="cls-25" d="M469.57,175.92,341.84,93.3h9.21l42,27.15h35.67L412.61,93.3h8.86l50.06,82.62Zm-35.88-47.41H405.38l46.35,29.92Z"/><path class="cls-26" d="M552,168.67c2.77,7.37,3.44,13.46-6.69,13.46-11.16,0-28.84-7.94-41.49-19.33-6.9-6.21-11.08-12.77-10.62-15.88,1.89-15.19,4.65-20.37-5.44-29.46-8.57-7.71-22.27-14-30.9-14-6.33,0-7.2,4.61-2,13.7L443,112.86c-6.3-11.16-5.85-17.49,5.54-17.49,13.47,0,35,10.58,47.92,22.21,14.82,13.35,12.25,21.29,9.49,32.79-.75,3.57,1.84,8.29,6.82,12.78,6,5.41,15.66,10.47,22.8,10.47,6.79,0,6-4.26,3.94-10.13Z"/><path class="cls-27" d="M500.76,93.3h56.16l-9.27,8h-38.2l-4.82,22.1c-2.4,10.58-4.72,18.41-17.7,29.69C471.05,166.94,447.75,178,432.79,178c-15.42,0-13.41-11.85,4.67-28h7.94c-13.53,12.66-14.69,20.37-4.22,20.37,10,0,26.71-7.71,37.7-17.26,10.32-9,12-15.31,14.34-25.78Z"/><path class="cls-28" d="M495,138.87c21.06-12.66,39.3-22.79,57.35-30.73,19-8.4,33.91-12.77,43.12-12.77,10.36,0,8.91,6.33-5,17.6-9.15,7.37-22.48,16-38.95,25.9s-31.57,18.41-47,25.77c-23.61,11.28-43,17.49-53.4,17.49-13.46,0-8-9.32,16.4-25.89C475.83,150.49,485.37,144.62,495,138.87Zm8.24-.12C484.42,150,471,158.66,464.24,165c-6.39,6-6.57,9.55-.47,9.55,12.08,0,39.94-11.62,80.16-35.79,40.41-24.28,50.93-35.79,39-35.79-6,0-17.4,3.34-30.93,9.32C537.63,118.61,522.15,127.36,503.19,138.75Z"/><path class="cls-29" d="M750.89,167.63,640.34,93.06h8.28l122.5,82.62H754.78l-16.89-8.05Z"/><path class="cls-30" d="M576,160.39a125.36,125.36,0,0,1,36.86-17.84c-3-5.07.16-11.74,14.73-22.33,17.58-12.77,44-25,62.11-25,18.52,0,10.81,12.55-7.25,25.66C668.5,131,654.1,137.48,637.12,142.55c2,4.26-2.16,10-12.61,17.61-16,11.62-40,21.74-53.53,21.74C556.94,181.9,560.3,171.78,576,160.39Zm54.88-22c11.27,0,31.64-8.87,43.68-17.61,13.14-9.55,16.88-18,4.8-18-12.32,0-30.88,8.05-43.4,17.14C623.11,129.31,619,138.41,630.86,138.41Zm-49.13,35.44c10.47,0,25.54-7,34.25-13.35,9.66-7,13.63-14.5,4.31-14.5-8.17,0-24.91,6.56-35.52,14.27C574.47,167.75,572.75,173.85,581.73,173.85Z"/></g><g id="レイヤー_3" data-name="レイヤー 3"><path class="cls-2" d="M590.51,272.67a16,16,0,0,1-1.15,1.43,8,8,0,0,0,.82.5,2.22,2.22,0,0,0-.36.5,11.54,11.54,0,0,1-1.49-1.18c0,.2,0,.31,0,.46v2.42a7.64,7.64,0,0,0,.06,1.16h-.72a9.09,9.09,0,0,0,.06-1.17v-2.24c0-.05,0-.26,0-.6a8.65,8.65,0,0,1-1.44,1.22,1.9,1.9,0,0,0-.36-.53,8.58,8.58,0,0,0,1.63-1.31,7,7,0,0,0,1.48-2.16H587.3a7.28,7.28,0,0,0-.95.05v-.65a4.2,4.2,0,0,0,.95.05h.45v-.87a5,5,0,0,0-.06-.82h.74a3.65,3.65,0,0,0-.06.82v.87h.41a5,5,0,0,0,.75,0l.31.37c0,.06-.11.21-.2.38a8.7,8.7,0,0,1-1.27,1.93,4.21,4.21,0,0,0,.58.53A6.82,6.82,0,0,0,590,272.3Zm.58-2.37a8,8,0,0,0-1.13.06v-.69a8,8,0,0,0,1.13.06h2.78a7.15,7.15,0,0,0,1-.05,9.42,9.42,0,0,0-.05,1.07,38.48,38.48,0,0,1-.4,6.06c-.15.69-.42.9-1.16.9a10.93,10.93,0,0,1-1.32-.07,2.33,2.33,0,0,0-.16-.69,10.47,10.47,0,0,0,1.39.14c.48,0,.57-.09.67-.66a46.71,46.71,0,0,0,.32-6.13h-1.86a15.39,15.39,0,0,1-.39,3.62,7.53,7.53,0,0,1-2.32,3.92,2.36,2.36,0,0,0-.5-.5,6.27,6.27,0,0,0,2.16-3.43,13.84,13.84,0,0,0,.4-3.61Z"/><path class="cls-2" d="M597.45,270.44a7,7,0,0,0-.05-1,8.16,8.16,0,0,0,1.07.05H603a7.25,7.25,0,0,0,1-.05,6.29,6.29,0,0,0,0,.92v6.4a7.64,7.64,0,0,0,.06,1.07h-.73v-.65h-5.15v.65h-.73a7.69,7.69,0,0,0,.06-1.06Zm.67,2.48h5.15v-2.8h-5.15Zm0,3.67h5.15v-3.06h-5.15Z"/><path class="cls-2" d="M608.44,278.83a8.05,8.05,0,0,1-1.06-2.09,8.09,8.09,0,0,1,1.06-7.27l.63.4a7.09,7.09,0,0,0-1,2,7.35,7.35,0,0,0-.34,2.25,7.43,7.43,0,0,0,.34,2.27,7.09,7.09,0,0,0,1,2Z"/><path class="cls-2" d="M611.05,277.18a7.16,7.16,0,0,0-1.1.05,4.59,4.59,0,0,1,.29-1.32,4.29,4.29,0,0,1,1.3-1.71,12.28,12.28,0,0,1,1.53-1.1c1-.67,1.32-1.11,1.32-1.72s-.64-1.25-1.66-1.25a1.65,1.65,0,0,0-1.45.65,2,2,0,0,0-.35,1l-.84-.14a2.72,2.72,0,0,1,.63-1.44,2.56,2.56,0,0,1,2-.77c1.5,0,2.47.76,2.47,1.94a2.09,2.09,0,0,1-.59,1.42,7.7,7.7,0,0,1-1.69,1.29,5.27,5.27,0,0,0-1.44,1.22,2.8,2.8,0,0,0-.57,1.16h3.19a8.58,8.58,0,0,0,1.21-.07v.84a11.05,11.05,0,0,0-1.22-.06Z"/><path class="cls-2" d="M620.47,269.59l-3.6,9.14h-.75l3.61-9.14Z"/><path class="cls-2" d="M622.36,277.18a7.16,7.16,0,0,0-1.1.05,4.59,4.59,0,0,1,.29-1.32,4.29,4.29,0,0,1,1.3-1.71,12.28,12.28,0,0,1,1.53-1.1c1-.67,1.32-1.11,1.32-1.72s-.64-1.25-1.66-1.25a1.65,1.65,0,0,0-1.45.65,2,2,0,0,0-.35,1l-.84-.14a2.72,2.72,0,0,1,.63-1.44,2.56,2.56,0,0,1,2-.77c1.51,0,2.48.76,2.48,1.94a2.13,2.13,0,0,1-.59,1.42,7.88,7.88,0,0,1-1.7,1.29,5.27,5.27,0,0,0-1.44,1.22,2.8,2.8,0,0,0-.57,1.16h3.19a8.73,8.73,0,0,0,1.22-.07v.84a11.38,11.38,0,0,0-1.23-.06Z"/><path class="cls-2" d="M628.93,277.18a7.16,7.16,0,0,0-1.1.05,4.59,4.59,0,0,1,.29-1.32,4.29,4.29,0,0,1,1.3-1.71,12.28,12.28,0,0,1,1.53-1.1c1-.67,1.32-1.11,1.32-1.72s-.64-1.25-1.66-1.25a1.65,1.65,0,0,0-1.45.65,2,2,0,0,0-.35,1l-.84-.14a2.72,2.72,0,0,1,.63-1.44,2.56,2.56,0,0,1,2-.77c1.51,0,2.48.76,2.48,1.94a2.09,2.09,0,0,1-.59,1.42,7.88,7.88,0,0,1-1.7,1.29,5.27,5.27,0,0,0-1.44,1.22,2.8,2.8,0,0,0-.57,1.16H632a8.73,8.73,0,0,0,1.22-.07v.84a11.25,11.25,0,0,0-1.23-.06Z"/><path class="cls-2" d="M634.72,269.47a8.17,8.17,0,0,1,1.06,2.08,8.42,8.42,0,0,1,0,5.19,8.05,8.05,0,0,1-1.06,2.09l-.63-.4a7.09,7.09,0,0,0,1-2,7.38,7.38,0,0,0,.34-2.27,7.3,7.3,0,0,0-.34-2.25,7.09,7.09,0,0,0-1-2Z"/><path class="cls-2" d="M642.23,274.59c-.58,1.31-1.17,1.91-1.89,1.91-1,0-1.66-1-1.66-2.44A4.06,4.06,0,0,1,643,270a3.83,3.83,0,0,1,2.74,1,3.35,3.35,0,0,1,1,2.44,3.64,3.64,0,0,1-2.28,3.44,7.74,7.74,0,0,1-1.52.46,1.59,1.59,0,0,0-.35-.67,6,6,0,0,0,1.67-.47,3,3,0,0,0,1.76-2.79,2.63,2.63,0,0,0-1.58-2.51,2.88,2.88,0,0,0-1.16-.25A15,15,0,0,1,642.23,274.59ZM641,271.1a3.46,3.46,0,0,0-1.63,3c0,.95.42,1.69,1,1.69s.82-.46,1.25-1.44a13.74,13.74,0,0,0,.91-3.7A3.16,3.16,0,0,0,641,271.1Z"/><path class="cls-2" d="M649.64,269.77a4.77,4.77,0,0,0,1,.06c.55,0,1.35,0,1.68-.07a.74.74,0,0,0,.37-.12l.53.42a5.28,5.28,0,0,0-.55,1.45c-.22.68-.29.87-.47,1.4a7.73,7.73,0,0,1,2.72.79,10.28,10.28,0,0,0,.13-2,1.85,1.85,0,0,0,0-.49h.75a3.8,3.8,0,0,0,0,.62,14.94,14.94,0,0,1-.17,2.16c.53.29.87.46,1.36.75a1.87,1.87,0,0,0,.29.15l-.27.77a12,12,0,0,0-1.55-1,4.85,4.85,0,0,1-1,1.81,5.4,5.4,0,0,1-1.59,1.22,2.58,2.58,0,0,0-.53-.52,4.4,4.4,0,0,0,1.62-1.15,3.73,3.73,0,0,0,.91-1.67,7.27,7.27,0,0,0-2.75-.83,19.8,19.8,0,0,1-.94,2.4c-.36.69-.73,1-1.21,1a1.48,1.48,0,0,1-1.32-1.64,2.23,2.23,0,0,1,1.19-2,3.27,3.27,0,0,1,1.8-.43c.33-1,.45-1.36.8-2.52-.79.06-.94.07-1.89.1a5.49,5.49,0,0,0-.73.05Zm0,4.33a1.68,1.68,0,0,0-.48,1.15c0,.53.29.95.65.95s.75-.62,1.48-2.74A2.47,2.47,0,0,0,649.64,274.1Z"/><path class="cls-2" d="M661.78,269.54a4.84,4.84,0,0,0,.83,0h.63a5.69,5.69,0,0,0,.83,0,16.41,16.41,0,0,0-.09,1.66v4.85a6.38,6.38,0,0,0,.08,1.13h-.95a6.31,6.31,0,0,0,.08-1.13v-5.78h-.54a6,6,0,0,0-.87.06Z"/><path class="cls-2" d="M666.43,275.33a1.51,1.51,0,0,0,.61.95,2.21,2.21,0,0,0,1.29.36c1.16,0,1.89-.6,1.89-1.54s-.71-1.53-2-1.53a7,7,0,0,0-.8.05v-.79a4.27,4.27,0,0,0,.74.06,2,2,0,0,0,1.46-.46,1.38,1.38,0,0,0,.4-1c0-.86-.6-1.36-1.61-1.36a1.57,1.57,0,0,0-1.33.53,1.89,1.89,0,0,0-.32.71l-.83-.18a2.28,2.28,0,0,1,.54-1,2.6,2.6,0,0,1,2-.73c1.45,0,2.37.76,2.37,2a1.76,1.76,0,0,1-.7,1.46,2.05,2.05,0,0,1-.94.36,2.14,2.14,0,0,1,1.23.43,1.81,1.81,0,0,1,.67,1.5c0,1.35-1,2.19-2.71,2.19a2.86,2.86,0,0,1-2.24-.82,2.6,2.6,0,0,1-.51-1Z"/><path class="cls-2" d="M673.4,271.79h-1v-1h1Zm-1,4.39v-1h1v1Z"/><path class="cls-2" d="M675.56,276.62a2.48,2.48,0,0,1-.6-.92,6.81,6.81,0,0,1-.38-2.3,5.85,5.85,0,0,1,.58-2.72,2.68,2.68,0,0,1,4.07-.52,2.52,2.52,0,0,1,.6.92,6.88,6.88,0,0,1,.38,2.32,5.2,5.2,0,0,1-.7,2.88,2.44,2.44,0,0,1-2.12,1.05A2.5,2.5,0,0,1,675.56,276.62Zm.58-6a2,2,0,0,0-.45.73,6.2,6.2,0,0,0-.31,2,5.44,5.44,0,0,0,.47,2.37,1.7,1.7,0,0,0,1.55.87,1.67,1.67,0,0,0,1.23-.47,2,2,0,0,0,.47-.78,6.14,6.14,0,0,0,.31-2,5.67,5.67,0,0,0-.45-2.33,1.69,1.69,0,0,0-1.57-.91A1.63,1.63,0,0,0,676.14,270.65Z"/><path class="cls-2" d="M682.13,276.62a2.48,2.48,0,0,1-.6-.92,6.81,6.81,0,0,1-.38-2.3,5.85,5.85,0,0,1,.58-2.72,2.68,2.68,0,0,1,4.07-.52,2.52,2.52,0,0,1,.6.92,6.88,6.88,0,0,1,.38,2.32,5.2,5.2,0,0,1-.7,2.88,2.44,2.44,0,0,1-2.12,1.05A2.5,2.5,0,0,1,682.13,276.62Zm.58-6a2,2,0,0,0-.45.73,6.2,6.2,0,0,0-.31,2,5.44,5.44,0,0,0,.47,2.37,1.7,1.7,0,0,0,1.55.87,1.67,1.67,0,0,0,1.23-.47,2,2,0,0,0,.47-.78,6.14,6.14,0,0,0,.31-2,5.67,5.67,0,0,0-.45-2.33,1.69,1.69,0,0,0-1.57-.91A1.63,1.63,0,0,0,682.71,270.65Z"/><path class="cls-2" d="M688.33,272.86a7.27,7.27,0,0,0,.91.05h1.19a7.33,7.33,0,0,0,.92-.05v.83a5.89,5.89,0,0,0-.92-.05h-1.19a5.9,5.9,0,0,0-.91.05Z"/><path class="cls-2" d="M693,269.54a4.84,4.84,0,0,0,.83,0h.63a5.69,5.69,0,0,0,.83,0,16.41,16.41,0,0,0-.09,1.66v4.85a6.38,6.38,0,0,0,.08,1.13h-1a6.31,6.31,0,0,0,.08-1.13v-5.78h-.54a6,6,0,0,0-.87.06Z"/><path class="cls-2" d="M701.53,273.64a1.83,1.83,0,0,1,.75,1.56c0,1.37-1,2.14-2.76,2.14s-2.84-.76-2.84-2.14a1.83,1.83,0,0,1,.89-1.65,2.06,2.06,0,0,1,.9-.34,1.74,1.74,0,0,1-1.45-1.8c0-1.21,1-2,2.46-2s2.47.75,2.47,2a1.74,1.74,0,0,1-1.45,1.8A2,2,0,0,1,701.53,273.64Zm-4,1.51c0,1,.73,1.51,2,1.51a2.26,2.26,0,0,0,1.61-.52,1.31,1.31,0,0,0,.38-1c0-1-.75-1.56-2-1.56S697.5,274.18,697.5,275.15Zm.3-3.68c0,.89.64,1.43,1.69,1.43s1.68-.54,1.68-1.43-.66-1.37-1.69-1.37S697.8,270.64,697.8,271.47Z"/><path class="cls-2" d="M704.46,271.79h-1v-1h1Zm-1,4.39v-1h1v1Z"/><path class="cls-2" d="M706.62,276.62a2.48,2.48,0,0,1-.6-.92,6.81,6.81,0,0,1-.38-2.3,5.85,5.85,0,0,1,.58-2.72,2.68,2.68,0,0,1,4.07-.52,2.52,2.52,0,0,1,.6.92,6.88,6.88,0,0,1,.38,2.32,5.2,5.2,0,0,1-.7,2.88,2.44,2.44,0,0,1-2.12,1.05A2.5,2.5,0,0,1,706.62,276.62Zm.58-6a2,2,0,0,0-.45.73,6.2,6.2,0,0,0-.31,2,5.44,5.44,0,0,0,.47,2.37,1.7,1.7,0,0,0,1.55.87,1.67,1.67,0,0,0,1.23-.47,2,2,0,0,0,.47-.78,6.14,6.14,0,0,0,.31-2,5.67,5.67,0,0,0-.45-2.33,1.69,1.69,0,0,0-1.57-.91A1.63,1.63,0,0,0,707.2,270.65Z"/><path class="cls-2" d="M713.19,276.62a2.48,2.48,0,0,1-.6-.92,6.81,6.81,0,0,1-.38-2.3,5.85,5.85,0,0,1,.58-2.72,2.68,2.68,0,0,1,4.07-.52,2.52,2.52,0,0,1,.6.92,6.88,6.88,0,0,1,.38,2.32,5.2,5.2,0,0,1-.7,2.88,2.44,2.44,0,0,1-2.12,1.05A2.5,2.5,0,0,1,713.19,276.62Zm.58-6a2,2,0,0,0-.45.73,6.2,6.2,0,0,0-.31,2,5.44,5.44,0,0,0,.47,2.37,1.7,1.7,0,0,0,1.55.87,1.67,1.67,0,0,0,1.23-.47,2,2,0,0,0,.47-.78,6.14,6.14,0,0,0,.31-2,5.67,5.67,0,0,0-.45-2.33,1.69,1.69,0,0,0-1.57-.91A1.63,1.63,0,0,0,713.77,270.65Z"/><path class="cls-2" d="M588.9,284.3c-.19,0-.43,0-.76.05v-.72a3.75,3.75,0,0,0,.76.05h1.32a4.76,4.76,0,0,0,.93-.06,5.18,5.18,0,0,0,0,.66,7.25,7.25,0,0,0,.85,3.48,8.89,8.89,0,0,0,1.49,2.07,8.14,8.14,0,0,0,1.87,1.45,2.21,2.21,0,0,0-.56.64,9.37,9.37,0,0,1-1.94-1.71,9.47,9.47,0,0,1-1.42-2.16,8,8,0,0,1-.63-1.84,8.64,8.64,0,0,1-1.4,3.23,9.9,9.9,0,0,1-2.61,2.5,1.79,1.79,0,0,0-.54-.59,8.39,8.39,0,0,0,2.32-2,8.09,8.09,0,0,0,1.54-2.91,8.53,8.53,0,0,0,.32-2.17Z"/><path class="cls-2" d="M597.5,284.25a7.92,7.92,0,0,0-.06-1.1h.74a6.82,6.82,0,0,0-.06,1.11v1.38h.24a5.9,5.9,0,0,0,.83,0v.64a7.81,7.81,0,0,0-.83,0h-.24v2.56a8.65,8.65,0,0,0,.85-.51l0,.6a18.43,18.43,0,0,1-2.08,1.13l-.53.26-.19-.7a5,5,0,0,0,1.29-.49V286.2h-.43a7.21,7.21,0,0,0-.85.05v-.66a5.59,5.59,0,0,0,.87.05h.41Zm2.81,4.56a6.41,6.41,0,0,1-1.68,1.33,1.78,1.78,0,0,0-.41-.45,4.8,4.8,0,0,0,2.32-2.11h-.61a4.9,4.9,0,0,0-.9.06V287a4.72,4.72,0,0,0,.92.07h4.26a5.44,5.44,0,0,0,1-.07v.63a8.52,8.52,0,0,0-1,0h-3.05a4.89,4.89,0,0,1-.46.73H604a7.8,7.8,0,0,0,1,0,4.54,4.54,0,0,0-.05.59,10,10,0,0,1-.44,2.67c-.18.36-.43.46-1.11.46-.23,0-.56,0-.86,0a1.91,1.91,0,0,0-.21-.65,6.91,6.91,0,0,0,1.19.11c.4,0,.47-.08.6-.68a12.16,12.16,0,0,0,.22-1.92h-.67a6.06,6.06,0,0,1-.88,1.51,10.21,10.21,0,0,1-1.23,1.23,8.12,8.12,0,0,1-.81.56,1.71,1.71,0,0,0-.46-.47,6.3,6.3,0,0,0,2-1.52,4.64,4.64,0,0,0,.82-1.31h-1a6.89,6.89,0,0,1-2.75,2.5,1.45,1.45,0,0,0-.43-.47,5.67,5.67,0,0,0,2.53-2Zm.32-2.42c-.41,0-.69,0-.91,0a7.41,7.41,0,0,0,0-.89v-1.3a6.73,6.73,0,0,0,0-.88,6.46,6.46,0,0,0,1,.05h2.6a7.32,7.32,0,0,0,1-.05,7.31,7.31,0,0,0,0,.93v1.25a5.89,5.89,0,0,0,0,.89c-.22,0-.53,0-.92,0Zm-.28-1.73h3.34v-.73h-3.34Zm0,1.25h3.34v-.76h-3.34Z"/><path class="cls-2" d="M607.79,284.88a7.42,7.42,0,0,1-1.07,1.11,1.5,1.5,0,0,0-.48-.42,6.23,6.23,0,0,0,1.94-2.23,2.54,2.54,0,0,0,.2-.53l.7.17-.15.24c-.23.41-.32.55-.53.87h5.1a9,9,0,0,0,1.26-.06v.67c-.37,0-.68-.05-1.11-.05v1.78h.54a6.5,6.5,0,0,0,1-.05v.68a6.83,6.83,0,0,0-1-.05h-.54v1.8H614a6.06,6.06,0,0,0,1-.06v.68a6.46,6.46,0,0,0-1-.06h-6.51a6.46,6.46,0,0,0-.94.06v-.68a6.24,6.24,0,0,0,1,.06h.27V287h-.52a6.94,6.94,0,0,0-1,.05v-.68a6.44,6.44,0,0,0,1,.05h.52Zm-1.41,6.68a4.29,4.29,0,0,0,1.26-1.88l.54.3a6.19,6.19,0,0,1-1.28,2Zm2-5.13h1.19v-1.78h-1.19Zm0,2.38h1.19V287h-1.19Zm1,3.17a10.67,10.67,0,0,0-.23-2.07l.56-.09a10.66,10.66,0,0,1,.3,2.06Zm1.95-5.55v-1.78h-1.18v1.78Zm0,2.38V287h-1.18v1.8Zm.34,3.14a8.23,8.23,0,0,0-.52-2l.53-.16a8.68,8.68,0,0,1,.61,2Zm1.44-5.52v-1.78h-1.23v1.78Zm0,2.38V287h-1.23v1.8Zm1.39,3.13a7.72,7.72,0,0,0-1.22-2l.51-.27a9.42,9.42,0,0,1,1.27,1.88Z"/><path class="cls-2" d="M617.33,287.07a4.93,4.93,0,0,0-.87.05v-.65a4.53,4.53,0,0,0,.87,0h.79v-2.35a7.08,7.08,0,0,0-.06-1.07h.73a6.66,6.66,0,0,0-.06,1.06v2.36h.6a4.79,4.79,0,0,0,.74,0v.63a5.28,5.28,0,0,0-.75,0h-.55a6,6,0,0,0,1.43,1.85,3.49,3.49,0,0,0-.35.54,5.92,5.92,0,0,1-1.17-1.76c0,.4.05,1.29.05,1.48v1.87a8.23,8.23,0,0,0,.06,1.1h-.73a8.83,8.83,0,0,0,.06-1.11v-1.7c0-.46,0-1,0-1.55a7.6,7.6,0,0,1-1.54,2.86,2.1,2.1,0,0,0-.38-.56,6.34,6.34,0,0,0,1.19-1.68,8.07,8.07,0,0,0,.56-1.34Zm-.3-3.34a11.73,11.73,0,0,1,.67,2.14l-.53.23a8.85,8.85,0,0,0-.66-2.14Zm3.28.19a11.29,11.29,0,0,1-.81,2.18l-.49-.23a7.46,7.46,0,0,0,.73-2.17Zm3.23.24a6.35,6.35,0,0,0-.06-1.05h.76a7.18,7.18,0,0,0-.06,1v4.59l.15,0a6.25,6.25,0,0,0,.92-.28l.12.7a7,7,0,0,0-1,.17l-.23.06V291a7.76,7.76,0,0,0,.06,1.09h-.76a5.87,5.87,0,0,0,.06-1.1v-1.51l-2.62.64a6.92,6.92,0,0,0-.93.27l-.13-.71a5.43,5.43,0,0,0,1-.16l2.72-.65Zm-2.66,2.18a8.45,8.45,0,0,1,1.78,1.51l-.41.5a7.12,7.12,0,0,0-1.81-1.55Zm.3-2.5A9.81,9.81,0,0,1,623,285.4l-.41.52a8.42,8.42,0,0,0-1.81-1.62Z"/><path class="cls-2" d="M633.2,283h.45v9.13h-.45Z"/><path class="cls-2" d="M647.48,291.31a7.18,7.18,0,0,0-.3-1l-.52-1.29h-3.49l-.52,1.29a5.59,5.59,0,0,0-.31,1h-1a6.38,6.38,0,0,0,.54-1.15l2.24-5.51a5.69,5.69,0,0,0,.32-.93h1a5.41,5.41,0,0,0,.34.93l2.23,5.51a9.94,9.94,0,0,0,.53,1.15ZM645.13,285l-.22-.64-.11.33c-.06.16-.09.27-.11.31l-1.28,3.29h3Z"/><path class="cls-2" d="M653.6,290.82a4.42,4.42,0,0,1,0-.49,2.23,2.23,0,0,1-2,1.08c-1.54,0-2.48-1.06-2.48-2.8s1-2.79,2.46-2.79a2.27,2.27,0,0,1,2,1.06v-.16a2.91,2.91,0,0,1,0-.52v-1.34a7.83,7.83,0,0,0-.07-1.14h.88a8.16,8.16,0,0,0-.07,1.13v5.31a7.79,7.79,0,0,0,.07,1.15h-.8Zm-3.69-2.23a2.61,2.61,0,0,0,.41,1.56,1.65,1.65,0,0,0,1.34.6,1.92,1.92,0,0,0,1.92-2.17A2.23,2.23,0,0,0,653,287a1.92,1.92,0,0,0-1.36-.52C650.57,286.47,649.91,287.26,649.91,288.59Z"/><path class="cls-2" d="M655.83,291.31a7.51,7.51,0,0,0,.07-1.13v-3.12a7.25,7.25,0,0,0-.07-1.13h.81v.54s0,.17,0,.37a2.06,2.06,0,0,1,.38-.5,1.94,1.94,0,0,1,1.41-.52,1.62,1.62,0,0,1,1.29.51,1.22,1.22,0,0,1,.31.57,2,2,0,0,1,1.84-1.08,1.73,1.73,0,0,1,1.46.61,2,2,0,0,1,.34,1.29v2.47a7,7,0,0,0,.07,1.12h-.9a6.07,6.07,0,0,0,.07-1.13v-2.36c0-.94-.35-1.35-1.15-1.35a1.48,1.48,0,0,0-1.25.72,2.15,2.15,0,0,0-.33,1v2a6.94,6.94,0,0,0,.07,1.12h-.9a7.16,7.16,0,0,0,.07-1.13v-2.36c0-.88-.4-1.35-1.12-1.35a1.55,1.55,0,0,0-1.31.75,2.23,2.23,0,0,0-.33,1v2a8,8,0,0,0,.07,1.13Z"/><path class="cls-2" d="M666.1,283.72v.89h-1v-.89Zm0,2.21a7.08,7.08,0,0,0-.07,1.13v3.12a7.87,7.87,0,0,0,.07,1.13h-.9a8.68,8.68,0,0,0,.07-1.13v-3.12a7.25,7.25,0,0,0-.07-1.13Z"/><path class="cls-2" d="M668.05,289.71a1.12,1.12,0,0,0,.35.73,1.69,1.69,0,0,0,1.16.35c.87,0,1.42-.37,1.42-1a.68.68,0,0,0-.31-.62,3.22,3.22,0,0,0-1.18-.36,3.81,3.81,0,0,1-1.48-.52,1.23,1.23,0,0,1-.54-1.05,1.37,1.37,0,0,1,.43-1,2.19,2.19,0,0,1,1.56-.51,2.35,2.35,0,0,1,1.57.47,1.65,1.65,0,0,1,.53.91l-.79.13a1,1,0,0,0-.25-.53,1.4,1.4,0,0,0-1-.37c-.73,0-1.25.36-1.25.9a.61.61,0,0,0,.34.54,3.73,3.73,0,0,0,1.11.34,3.78,3.78,0,0,1,1.59.57,1.32,1.32,0,0,1,.48,1c0,1-.85,1.62-2.22,1.62a2.35,2.35,0,0,1-2-.78,2,2,0,0,1-.32-.79Z"/><path class="cls-2" d="M673.42,289.71a1.12,1.12,0,0,0,.35.73,1.69,1.69,0,0,0,1.16.35c.87,0,1.42-.37,1.42-1a.68.68,0,0,0-.31-.62,3.22,3.22,0,0,0-1.18-.36,3.81,3.81,0,0,1-1.48-.52,1.23,1.23,0,0,1-.54-1.05,1.37,1.37,0,0,1,.43-1,2.19,2.19,0,0,1,1.56-.51,2.35,2.35,0,0,1,1.57.47,1.65,1.65,0,0,1,.53.91l-.79.13a1,1,0,0,0-.25-.53,1.4,1.4,0,0,0-1-.37c-.73,0-1.25.36-1.25.9a.61.61,0,0,0,.34.54,3.73,3.73,0,0,0,1.11.34,3.78,3.78,0,0,1,1.59.57,1.32,1.32,0,0,1,.48,1c0,1-.85,1.62-2.22,1.62a2.35,2.35,0,0,1-2-.78,2,2,0,0,1-.32-.79Z"/><path class="cls-2" d="M679.22,283.72v.89h-1v-.89Zm0,2.21a7.08,7.08,0,0,0-.07,1.13v3.12a7.87,7.87,0,0,0,.07,1.13h-.9a8.68,8.68,0,0,0,.07-1.13v-3.12a7.25,7.25,0,0,0-.07-1.13Z"/><path class="cls-2" d="M680.39,288.62a2.67,2.67,0,1,1,2.68,2.82A2.56,2.56,0,0,1,680.39,288.62Zm.77,0c0,1.36.73,2.19,1.9,2.19S685,290,685,288.61s-.72-2.18-1.87-2.18S681.16,287.25,681.16,288.6Z"/><path class="cls-2" d="M686.89,291.31a6.38,6.38,0,0,0,.08-1.13v-3.12a6.68,6.68,0,0,0-.08-1.13h.83v.67a2.62,2.62,0,0,1,0,.43,2.18,2.18,0,0,1,2-1.2,1.81,1.81,0,0,1,1.6.75,2,2,0,0,1,.28,1.14v2.47a7,7,0,0,0,.06,1.12h-.89a8.06,8.06,0,0,0,.07-1.13v-2.33c0-.9-.43-1.38-1.22-1.38a1.74,1.74,0,0,0-1.43.79,2.14,2.14,0,0,0-.46,1v1.93a8.06,8.06,0,0,0,.07,1.13Z"/><path class="cls-2" d="M697.33,290.14a6.29,6.29,0,0,0,.08,1.17h-.95a6.29,6.29,0,0,0,.08-1.17v-5.31a7,7,0,0,0-.08-1.14c.35,0,.62,0,1.1,0h2.65a7.74,7.74,0,0,0,1.14-.07v.85a7,7,0,0,0-1.14-.07h-2.88V287h2.34a7.63,7.63,0,0,0,1.14-.08v.84a7.13,7.13,0,0,0-1.14-.07h-2.34Z"/><path class="cls-2" d="M705.66,286.69a2.58,2.58,0,0,0-.81-.14,1.49,1.49,0,0,0-1.23.6,1.65,1.65,0,0,0-.37,1v2a7.82,7.82,0,0,0,.07,1.12h-.9a9.12,9.12,0,0,0,.07-1.13v-3.12a7.25,7.25,0,0,0-.07-1.13h.83v.57c0,.08,0,.22,0,.3a1.8,1.8,0,0,1,.55-.62,2,2,0,0,1,1.2-.34,4.59,4.59,0,0,1,.89.09Z"/><path class="cls-2" d="M707.23,288.73a2.27,2.27,0,0,0,.4,1.4,1.67,1.67,0,0,0,1.41.68,1.62,1.62,0,0,0,1.64-1.17l.7.28a2.39,2.39,0,0,1-.55.83,2.47,2.47,0,0,1-1.8.7,2.52,2.52,0,0,1-2.56-2.83c0-1.71,1-2.82,2.48-2.82a2.36,2.36,0,0,1,2.41,2.16c0,.11,0,.5.07.77Zm3.41-.63a1.79,1.79,0,0,0-.54-1.22,1.58,1.58,0,0,0-1.17-.45,1.56,1.56,0,0,0-1.42.86,2.09,2.09,0,0,0-.25.81Z"/><path class="cls-2" d="M713.11,288.73a2.27,2.27,0,0,0,.4,1.4,1.67,1.67,0,0,0,1.41.68,1.63,1.63,0,0,0,1.64-1.17l.7.28a2.39,2.39,0,0,1-.55.83,2.47,2.47,0,0,1-1.8.7,2.52,2.52,0,0,1-2.56-2.83c0-1.71,1-2.82,2.48-2.82a2.36,2.36,0,0,1,2.41,2.16c0,.11,0,.5.07.77Zm3.41-.63a1.79,1.79,0,0,0-.54-1.22,1.58,1.58,0,0,0-1.17-.45,1.56,1.56,0,0,0-1.42.86,2.09,2.09,0,0,0-.25.81Z"/><path class="cls-2" d="M145.89,283.25c2.56-2.67,4.16-4.83,4.16-7a3,3,0,0,0-3.05-3.08c-1.85,0-3.14,1.56-3.23,3.91h-4.1c.22-5.06,3.33-7.92,7.58-7.92a6.74,6.74,0,0,1,6.92,6.84c0,3.31-2,6.36-5.2,9.86l-2.46,2.67h7.85v4h-15.3v-2.09Z"/><path class="cls-2" d="M172.62,281.12c0,8-2.49,12-7.66,12a6.57,6.57,0,0,1-5.67-2.64c-1.66-2.23-2.16-5.13-2.16-9.1,0-4.39.62-7.54,2.28-9.64a6.66,6.66,0,0,1,5.42-2.58C170.1,269.13,172.62,273.11,172.62,281.12Zm-11.24.32c0,5.06,1.14,7.64,3.58,7.64s3.54-2.64,3.54-7.89-1.17-7.89-3.57-7.89C162.22,273.3,161.38,276,161.38,281.44Z"/><path class="cls-2" d="M176.72,269.7h6.34v22.84h-4.21v-18.7h-4.56Z"/><path class="cls-2" d="M195.11,269.13a6.3,6.3,0,0,1,6.62,6.39,6.5,6.5,0,0,1-2.13,4.65,7,7,0,0,1,3.14,5.92c0,3.91-2.58,7.06-7.6,7.06a8.59,8.59,0,0,1-3.48-.51,6.68,6.68,0,0,1-4.25-6.55,7,7,0,0,1,3.05-5.92,6.45,6.45,0,0,1-2-4.71C188.46,271.8,191.07,269.13,195.11,269.13Zm-3.57,16.57a3.29,3.29,0,0,0,3.54,3.28c2.09,0,3.54-1.21,3.54-3.18a3.38,3.38,0,0,0-3.48-3.37A3.45,3.45,0,0,0,191.54,285.7Zm1-9.89a2.48,2.48,0,0,0,2.47,2.61,2.56,2.56,0,0,0-.1-5.12A2.36,2.36,0,0,0,192.58,275.81Z"/><path class="cls-2" d="M211,290.54a2.39,2.39,0,0,1-2.34,2.45,2.43,2.43,0,0,1-2.37-2.45,2.36,2.36,0,1,1,4.71,0Z"/><path class="cls-2" d="M220.43,283.25c2.55-2.67,4.15-4.83,4.15-7a3,3,0,0,0-3.05-3.08c-1.84,0-3.14,1.56-3.23,3.91h-4.09c.21-5.06,3.32-7.92,7.57-7.92a6.75,6.75,0,0,1,6.93,6.84c0,3.31-2,6.36-5.21,9.86L221,288.5h7.85v4h-15.3v-2.09Z"/><path class="cls-2" d="M236.84,290.54A2.38,2.38,0,0,1,234.5,293a2.43,2.43,0,0,1-2.37-2.45,2.36,2.36,0,1,1,4.71,0Z"/><path class="cls-2" d="M246.3,283.25c2.55-2.67,4.15-4.83,4.15-7a3,3,0,0,0-3-3.08c-1.85,0-3.15,1.56-3.24,3.91h-4.09c.21-5.06,3.32-7.92,7.57-7.92a6.75,6.75,0,0,1,6.93,6.84c0,3.31-2,6.36-5.2,9.86l-2.47,2.67h7.85v4h-15.3v-2.09Z"/><path class="cls-2" d="M264.16,283.25c2.56-2.67,4.16-4.83,4.16-7a3,3,0,0,0-3.05-3.08c-1.85,0-3.14,1.56-3.23,3.91h-4.1c.22-5.06,3.33-7.92,7.58-7.92a6.74,6.74,0,0,1,6.92,6.84c0,3.31-2,6.36-5.2,9.86l-2.46,2.67h7.85v4H257.32v-2.09Z"/><path class="cls-2" d="M293.51,280h15.21v2.13H293.51Z"/><path class="cls-2" d="M322.25,283.25c2.55-2.67,4.16-4.83,4.16-7a3,3,0,0,0-3.05-3.08c-1.85,0-3.14,1.56-3.24,3.91H316c.21-5.06,3.32-7.92,7.57-7.92a6.75,6.75,0,0,1,6.93,6.84c0,3.31-2,6.36-5.2,9.86l-2.47,2.67h7.86v4H315.41v-2.09Z"/><path class="cls-2" d="M338.66,290.54a2.38,2.38,0,0,1-2.34,2.45,2.43,2.43,0,0,1-2.37-2.45,2.36,2.36,0,1,1,4.71,0Z"/><path class="cls-2" d="M348.12,283.25c2.56-2.67,4.16-4.83,4.16-7a3,3,0,0,0-3-3.08c-1.85,0-3.14,1.56-3.23,3.91h-4.1c.22-5.06,3.32-7.92,7.57-7.92A6.75,6.75,0,0,1,356.4,276c0,3.31-2,6.36-5.2,9.86l-2.46,2.67h7.85v4H341.28v-2.09Z"/><path class="cls-2" d="M363,269.7h10.34v4h-7.2l-.9,4.14a4.25,4.25,0,0,1,1.42-.23c4.1,0,7,3.22,7,7.58a7.63,7.63,0,0,1-7.57,7.89,7.41,7.41,0,0,1-7.52-6.18H363a3.41,3.41,0,0,0,3.17,2.17,3.46,3.46,0,0,0,3.36-3.73,3.26,3.26,0,0,0-3.12-3.56,3.49,3.49,0,0,0-2.67,1.37l-3.42-.8Z"/><path d="M401.44,269.7h6.34v22.84h-4.22v-18.7H399Z"/><path d="M426.91,281.12c0,8-2.5,12-7.67,12a6.58,6.58,0,0,1-5.67-2.64c-1.66-2.23-2.15-5.13-2.15-9.1,0-4.39.61-7.54,2.28-9.64a6.64,6.64,0,0,1,5.42-2.58C424.38,269.13,426.91,273.11,426.91,281.12Zm-11.24.32c0,5.06,1.14,7.64,3.57,7.64s3.54-2.64,3.54-7.89-1.17-7.89-3.57-7.89C416.5,273.3,415.67,276,415.67,281.44Z"/><path d="M435.69,275.38a2.36,2.36,0,1,1-4.71,0,2.36,2.36,0,1,1,4.71,0Zm0,12.89a2.39,2.39,0,0,1-2.34,2.45,2.43,2.43,0,0,1-2.37-2.45,2.36,2.36,0,1,1,4.71,0Z"/><path d="M455.24,281.12c0,8-2.49,12-7.66,12a6.57,6.57,0,0,1-5.67-2.64c-1.66-2.23-2.15-5.13-2.15-9.1,0-4.39.61-7.54,2.27-9.64a6.66,6.66,0,0,1,5.42-2.58C452.72,269.13,455.24,273.11,455.24,281.12Zm-11.24.32c0,5.06,1.14,7.64,3.58,7.64s3.54-2.64,3.54-7.89-1.17-7.89-3.57-7.89C444.84,273.3,444,276,444,281.44Z"/><path d="M473.11,281.12c0,8-2.5,12-7.67,12a6.58,6.58,0,0,1-5.67-2.64c-1.66-2.23-2.15-5.13-2.15-9.1,0-4.39.62-7.54,2.28-9.64a6.64,6.64,0,0,1,5.42-2.58C470.58,269.13,473.11,273.11,473.11,281.12Zm-11.24.32c0,5.06,1.14,7.64,3.57,7.64s3.54-2.64,3.54-7.89-1.17-7.89-3.57-7.89C462.7,273.3,461.87,276,461.87,281.44Z"/><path d="M479.43,280h15.21v2.13H479.43Z"/><path d="M502.65,269.7H509v22.84h-4.22v-18.7h-4.55Z"/><path d="M519.8,269.13a6.29,6.29,0,0,1,6.62,6.39,6.53,6.53,0,0,1-2.12,4.65,7,7,0,0,1,3.14,5.92c0,3.91-2.59,7.06-7.61,7.06a8.64,8.64,0,0,1-3.48-.51,6.69,6.69,0,0,1-4.25-6.55,7,7,0,0,1,3-5.92,6.49,6.49,0,0,1-2-4.71C513.15,271.8,515.77,269.13,519.8,269.13Zm-3.57,16.57a3.29,3.29,0,0,0,3.54,3.28c2.1,0,3.54-1.21,3.54-3.18a3.38,3.38,0,0,0-3.48-3.37A3.45,3.45,0,0,0,516.23,285.7Zm1-9.89a2.47,2.47,0,0,0,2.46,2.61,2.56,2.56,0,0,0-.09-5.12A2.35,2.35,0,0,0,517.28,275.81Z"/><path d="M536.28,275.38a2.36,2.36,0,1,1-4.71,0,2.36,2.36,0,1,1,4.71,0Zm0,12.89a2.39,2.39,0,0,1-2.34,2.45,2.44,2.44,0,0,1-2.37-2.45,2.36,2.36,0,1,1,4.71,0Z"/><path d="M555.84,281.12c0,8-2.5,12-7.67,12a6.58,6.58,0,0,1-5.67-2.64c-1.66-2.23-2.15-5.13-2.15-9.1,0-4.39.61-7.54,2.28-9.64a6.64,6.64,0,0,1,5.42-2.58C553.31,269.13,555.84,273.11,555.84,281.12Zm-11.24.32c0,5.06,1.14,7.64,3.57,7.64s3.54-2.64,3.54-7.89-1.17-7.89-3.57-7.89C545.43,273.3,544.6,276,544.6,281.44Z"/><path d="M573.7,281.12c0,8-2.49,12-7.67,12a6.55,6.55,0,0,1-5.66-2.64c-1.66-2.23-2.16-5.13-2.16-9.1,0-4.39.62-7.54,2.28-9.64a6.65,6.65,0,0,1,5.42-2.58C571.18,269.13,573.7,273.11,573.7,281.12Zm-11.24.32c0,5.06,1.14,7.64,3.57,7.64s3.55-2.64,3.55-7.89-1.17-7.89-3.58-7.89C563.29,273.3,562.46,276,562.46,281.44Z"/><path class="cls-2" d="M286.6,269v5.67h-2v-1.89H276V270.8h8.62V269Z"/><path class="cls-2" d="M286.6,276.29v2h-4v3.46h4v2H276v-2h4.63v-3.46H276v-2Z"/><path class="cls-2" d="M286.6,285.64v2h-7.18c-1.15,0-1.74.54-1.74,1.48a1.52,1.52,0,0,0,.64,1.31,2.7,2.7,0,0,0,1.38.24h6.9v2h-6.75a4.11,4.11,0,0,1-3-.83,3.21,3.21,0,0,1-1.12-2.63,3.3,3.3,0,0,1,1-2.55,4.19,4.19,0,0,1,3.22-.94Z"/><path class="cls-2" d="M381.34,270.74c-.92.47-1.39,1-1.39,1.7a1.1,1.1,0,0,0,1,1.19,1.67,1.67,0,0,0,1.18-.66c1.85-2.13,2.85-3.39,4.36-3.39a2.74,2.74,0,0,1,2.67,2.82,3.77,3.77,0,0,1-1.7,3l-1.33-1.46c.71-.48,1.09-1,1.09-1.54a.78.78,0,0,0-.73-.87c-.42,0-.68.3-1,.6-1.74,1.91-2.57,3.44-4.5,3.44a2.94,2.94,0,0,1-3-3.14,3.49,3.49,0,0,1,2.31-3.3Z"/><path class="cls-2" d="M388.88,276.49v2h-7.17c-1.16,0-1.75.54-1.75,1.48a1.52,1.52,0,0,0,.64,1.31,2.71,2.71,0,0,0,1.39.24h6.89v2h-6.75a4.12,4.12,0,0,1-3-.83A3.21,3.21,0,0,1,378,280a3.3,3.3,0,0,1,1-2.55,4.19,4.19,0,0,1,3.22-.94Z"/><path class="cls-2" d="M388.88,285.07v1.76l-7,4.14h7v1.84h-10.6V291l7-4.13h-7v-1.84Z"/></g></g></g></g></svg>