<svg xmlns="http://www.w3.org/2000/svg" xmlns:xlink="http://www.w3.org/1999/xlink" viewBox="0 0 846.31 300.5"><defs><style>.cls-1{isolation:isolate;}.cls-2{font-size:28px;}.cls-2,.cls-56,.cls-65,.cls-71,.cls-73,.cls-75{font-family:CenturyGothicStd-Bold, CenturyGothicStd Bold;}.cls-2,.cls-57,.cls-58,.cls-59,.cls-60,.cls-61,.cls-62,.cls-64,.cls-66,.cls-67,.cls-68,.cls-70,.cls-71,.cls-73,.cls-75{font-weight:700;}.cls-3{letter-spacing:0.02em;}.cls-4{letter-spacing:-0.02em;}.cls-5{letter-spacing:0.08em;}.cls-6{letter-spacing:0.04em;}.cls-7{letter-spacing:-0.04em;}.cls-8{letter-spacing:0.06em;}.cls-9{font-size:17px;font-family:HiraKakuPro-W3-83pv-RKSJ-H, Hiragino Kaku Gothic Pro;}.cls-18,.cls-47,.cls-56,.cls-71,.cls-73,.cls-75,.cls-9{fill:#231815;}.cls-10{letter-spacing:0.04em;}.cls-11{letter-spacing:0.08em;}.cls-12{letter-spacing:0.02em;}.cls-13{letter-spacing:0.1em;}.cls-14{letter-spacing:-0.03em;}.cls-15{letter-spacing:0.09em;}.cls-16{letter-spacing:0.06em;}.cls-17{letter-spacing:-0.06em;}.cls-19{opacity:0.7;}.cls-20{fill:url(#名称未設定グラデーション_2);}.cls-21{fill:url(#名称未設定グラデーション_2-2);}.cls-22{fill:url(#名称未設定グラデーション_2-3);}.cls-23{fill:url(#名称未設定グラデーション_2-4);}.cls-24{fill:url(#名称未設定グラデーション_2-5);}.cls-25{fill:url(#名称未設定グラデーション_2-6);}.cls-26{fill:url(#名称未設定グラデーション_2-7);}.cls-27{fill:url(#名称未設定グラデーション_2-8);}.cls-28{fill:url(#名称未設定グラデーション_2-9);}.cls-29,.cls-30,.cls-31,.cls-32,.cls-33,.cls-34,.cls-35,.cls-36,.cls-37,.cls-38,.cls-39,.cls-40,.cls-41,.cls-42,.cls-43,.cls-44,.cls-45,.cls-46{mix-blend-mode:multiply;}.cls-29{fill:url(#名称未設定グラデーション_2-10);}.cls-30{fill:url(#名称未設定グラデーション_2-11);}.cls-31{fill:url(#名称未設定グラデーション_2-12);}.cls-32{fill:url(#名称未設定グラデーション_2-13);}.cls-33{fill:url(#名称未設定グラデーション_2-14);}.cls-34{fill:url(#名称未設定グラデーション_2-15);}.cls-35{fill:url(#名称未設定グラデーション_2-16);}.cls-36{fill:url(#名称未設定グラデーション_2-17);}.cls-37{fill:url(#名称未設定グラデーション_2-18);}.cls-38{fill:url(#名称未設定グラデーション_2-19);}.cls-39{fill:url(#名称未設定グラデーション_2-20);}.cls-40{fill:url(#名称未設定グラデーション_2-21);}.cls-41{fill:url(#名称未設定グラデーション_2-22);}.cls-42{fill:url(#名称未設定グラデーション_2-23);}.cls-43{fill:url(#名称未設定グラデーション_2-24);}.cls-44{fill:url(#名称未設定グラデーション_2-25);}.cls-45{fill:url(#名称未設定グラデーション_2-26);}.cls-46{fill:url(#名称未設定グラデーション_2-27);}.cls-47{font-size:10px;font-family:HiraKakuProN-W3-83pv-RKSJ-H, Hiragino Kaku Gothic ProN;}.cls-48{letter-spacing:0.01em;}.cls-49{letter-spacing:0.03em;}.cls-50{letter-spacing:0.25em;}.cls-51{letter-spacing:-0.16em;}.cls-52{letter-spacing:0.08em;}.cls-53{letter-spacing:-0.02em;}.cls-54{letter-spacing:-0.18em;}.cls-55{letter-spacing:-0.06em;}.cls-56,.cls-65{font-size:31.82px;}.cls-57{letter-spacing:0.02em;}.cls-58{letter-spacing:-0.06em;}.cls-59{letter-spacing:-0.08em;}.cls-60{letter-spacing:0.02em;}.cls-62{letter-spacing:-0.02em;}.cls-63,.cls-69{font-family:CenturyGothicStd, CenturyGothicStd;}.cls-63{letter-spacing:-0.04em;}.cls-64,.cls-65{letter-spacing:-0.1em;}.cls-66{letter-spacing:0.04em;}.cls-67{letter-spacing:-0.14em;}.cls-68{letter-spacing:-0.02em;}.cls-69{letter-spacing:-0.26em;}.cls-70{letter-spacing:-0.12em;}.cls-71,.cls-73,.cls-75{font-size:14.77px;}.cls-71{letter-spacing:0.02em;}.cls-72{letter-spacing:-0.02em;}.cls-73{letter-spacing:-0.06em;}.cls-74{letter-spacing:-0.04em;}.cls-75{letter-spacing:0.02em;}</style><linearGradient id="名称未設定グラデーション_2" x1="142.06" y1="175.68" x2="142.06" y2="93.06" gradientUnits="userSpaceOnUse"><stop offset="0" stop-color="#fff"/><stop offset="1" stop-color="#4d4d4d"/></linearGradient><linearGradient id="名称未設定グラデーション_2-2" x1="195.34" y1="175.92" x2="195.34" y2="93.3" xlink:href="#名称未設定グラデーション_2"/><linearGradient id="名称未設定グラデーション_2-3" x1="288.53" y1="175.92" x2="288.53" y2="93.3" xlink:href="#名称未設定グラデーション_2"/><linearGradient id="名称未設定グラデーション_2-4" x1="381.66" y1="175.92" x2="381.66" y2="93.3" xlink:href="#名称未設定グラデーション_2"/><linearGradient id="名称未設定グラデーション_2-5" x1="447.54" y1="182.13" x2="447.54" y2="95.37" xlink:href="#名称未設定グラデーション_2"/><linearGradient id="名称未設定グラデーション_2-6" x1="528.84" y1="177.99" x2="528.84" y2="93.3" xlink:href="#名称未設定グラデーション_2"/><linearGradient id="名称未設定グラデーション_2-7" x1="595.19" y1="182.13" x2="595.19" y2="95.37" xlink:href="#名称未設定グラデーション_2"/><linearGradient id="名称未設定グラデーション_2-8" x1="637.99" y1="175.68" x2="637.99" y2="93.06" xlink:href="#名称未設定グラデーション_2"/><linearGradient id="名称未設定グラデーション_2-9" x1="690.58" y1="181.9" x2="690.58" y2="95.25" xlink:href="#名称未設定グラデーション_2"/><linearGradient id="名称未設定グラデーション_2-10" x1="-3174.14" y1="175.71" x2="-3174.14" y2="93.09" gradientTransform="matrix(1, 0, -0.53, 1, 3365.69, 0)" xlink:href="#名称未設定グラデーション_2"/><linearGradient id="名称未設定グラデーション_2-11" x1="-8080.97" y1="175.92" x2="-8080.97" y2="93.3" gradientTransform="matrix(1, 0, -1.33, 1, 8400.12, 0)" xlink:href="#名称未設定グラデーション_2"/><linearGradient id="名称未設定グラデーション_2-12" x1="-7413.06" y1="175.92" x2="-7413.06" y2="93.3" gradientTransform="matrix(1, 0, -1.23, 1, 7816.83, 0)" xlink:href="#名称未設定グラデーション_2"/><linearGradient id="名称未設定グラデーション_2-13" x1="-2796.08" y1="175.92" x2="-2796.08" y2="93.3" gradientTransform="matrix(1, 0, -0.51, 1, 3225.27, 0)" xlink:href="#名称未設定グラデーション_2"/><linearGradient id="名称未設定グラデーション_2-14" x1="3623.26" y1="182.13" x2="3623.26" y2="95.37" gradientTransform="matrix(1, 0, 0.51, 1, -3226.28, 0)" xlink:href="#名称未設定グラデーション_2"/><linearGradient id="名称未設定グラデーション_2-15" x1="3706.85" y1="177.99" x2="3706.85" y2="93.3" gradientTransform="matrix(1, 0, 0.51, 1, -3225.54, 0)" xlink:href="#名称未設定グラデーション_2"/><linearGradient id="名称未設定グラデーション_2-16" x1="8869.85" y1="182.13" x2="8869.85" y2="95.37" gradientTransform="matrix(1, 0, 1.33, 1, -8402.76, 0)" xlink:href="#名称未設定グラデーション_2"/><linearGradient id="名称未設定グラデーション_2-17" x1="3032.1" y1="175.68" x2="3032.1" y2="93.06" gradientTransform="matrix(1, 0, 0.38, 1, -2429.84, 0)" xlink:href="#名称未設定グラデーション_2"/><linearGradient id="名称未設定グラデーション_2-18" x1="11491.14" y1="181.9" x2="11491.14" y2="95.25" gradientTransform="matrix(1, 0, 1.73, 1, -10967.18, 0)" xlink:href="#名称未設定グラデーション_2"/><linearGradient id="名称未設定グラデーション_2-19" x1="7316.78" y1="175.68" x2="7316.78" y2="93.06" gradientTransform="matrix(1, 0, 1.15, 1, -7281.77, 0)" xlink:href="#名称未設定グラデーション_2"/><linearGradient id="名称未設定グラデーション_2-20" x1="-14497.29" y1="175.92" x2="-14497.29" y2="93.3" gradientTransform="matrix(1, 0, -2.36, 1, 14912.42, 0)" xlink:href="#名称未設定グラデーション_2"/><linearGradient id="名称未設定グラデーション_2-21" x1="10269.16" y1="175.92" x2="10269.16" y2="93.3" gradientTransform="matrix(1, 0, 1.6, 1, -10130.03, 0)" xlink:href="#名称未設定グラデーション_2"/><linearGradient id="名称未設定グラデーション_2-22" x1="7069.65" y1="175.92" x2="7069.65" y2="93.3" gradientTransform="matrix(1, 0, 1.07, 1, -6788.04, 0)" xlink:href="#名称未設定グラデーション_2"/><linearGradient id="名称未設定グラデーション_2-23" x1="7374.13" y1="182.13" x2="7374.13" y2="95.37" gradientTransform="matrix(1, 0, 1.11, 1, -7032.32, 0)" xlink:href="#名称未設定グラデーション_2"/><linearGradient id="名称未設定グラデーション_2-24" x1="-6646.22" y1="177.99" x2="-6646.22" y2="93.3" gradientTransform="matrix(1, 0, -1.15, 1, 7282.39, 0)" xlink:href="#名称未設定グラデーション_2"/><linearGradient id="名称未設定グラデーション_2-25" x1="-9783.79" y1="182.13" x2="-9783.79" y2="95.37" gradientTransform="matrix(1, 0, -1.66, 1, 10538.1, 0)" xlink:href="#名称未設定グラデーション_2"/><linearGradient id="名称未設定グラデーション_2-26" x1="9884.55" y1="175.68" x2="9884.55" y2="93.06" gradientTransform="matrix(1, 0, 1.48, 1, -9384.53, 0)" xlink:href="#名称未設定グラデーション_2"/><linearGradient id="名称未設定グラデーション_2-27" x1="-7894.16" y1="181.9" x2="-7894.16" y2="95.25" gradientTransform="matrix(1, 0, -1.38, 1, 8715.11, 0)" xlink:href="#名称未設定グラデーション_2"/></defs><title>アセット 1</title><g class="cls-1"><g id="レイヤー_2" data-name="レイヤー 2"><g id="top"><text class="cls-2" transform="translate(137.08 221.33) scale(0.97 1)"><tspan class="cls-3">G</tspan><tspan x="18.65" y="0">ra</tspan><tspan class="cls-4" x="41.3" y="0">du</tspan><tspan class="cls-3" x="71.4" y="0">a</tspan><tspan class="cls-5" x="85.45" y="0">t</tspan><tspan class="cls-4" x="96.96" y="0">io</tspan><tspan class="cls-3" x="117.77" y="0">n </tspan><tspan x="140.36" y="0">an</tspan><tspan class="cls-3" x="169.4" y="0">d </tspan><tspan x="192.25" y="0">P</tspan><tspan class="cls-4" x="207.14" y="0">r</tspan><tspan class="cls-3" x="215.74" y="0">oj</tspan><tspan x="239.03" y="0">e</tspan><tspan class="cls-3" x="253.06" y="0">ct</tspan><tspan class="cls-6" x="275.99" y="0"> </tspan><tspan class="cls-7" x="283.05" y="0">R</tspan><tspan x="296.99" y="0">ese</tspan><tspan class="cls-6" x="336.13" y="0">a</tspan><tspan x="350.75" y="0">r</tspan><tspan class="cls-4" x="359.91" y="0">c</tspan><tspan class="cls-3" x="371.89" y="0">h E</tspan><tspan class="cls-4" x="408.82" y="0">x</tspan><tspan class="cls-3" x="421.23" y="0">h</tspan><tspan class="cls-6" x="437.33" y="0">i</tspan><tspan x="445" y="0">b</tspan><tspan class="cls-8" x="460.93" y="0">it</tspan><tspan x="480.11" y="0">i</tspan><tspan class="cls-3" x="486.66" y="0">on</tspan></text><text class="cls-9" transform="translate(137.08 249.52) scale(0.97 1)"><tspan class="cls-10">情報科学芸</tspan><tspan class="cls-11" x="88.4" y="0">術</tspan><tspan class="cls-12" x="106.76" y="0">大学</tspan><tspan class="cls-13" x="141.44" y="0">院</tspan><tspan class="cls-10" x="160.14" y="0">大学 </tspan><tspan class="cls-14" x="201.84" y="0">第</tspan><tspan x="218.33" y="0">1</tspan><tspan class="cls-15" x="229.5" y="0">6</tspan><tspan x="242.2" y="0">期生修了</tspan><tspan class="cls-16" x="310.2" y="0">研</tspan><tspan class="cls-12" x="328.22" y="0">究発表</tspan><tspan x="380.24" y="0">会</tspan><tspan class="cls-17" x="397.24" y="0">・</tspan><tspan x="413.22" y="0">プロジェクト研究発表会</tspan></text><path class="cls-18" d="M137.92,2.07h8.28V84.7h-8.28Z"/><path class="cls-18" d="M196.61,2.07,235.16,84.7H226.3l-13-27.16H177.62L164.73,84.7h-9.2L194.65,2.07Zm-1,17.49L181.3,49.48h28.31Z"/><path class="cls-18" d="M242,84.7,253.69,2.07h1.38l33.6,67.78L321.93,2.07h1.38L335.05,84.7H327l-8.05-59.15L289.71,84.7h-2.07L258,25.09,250,84.7Z"/><path class="cls-18" d="M382.92,2.07,421.47,84.7h-8.86l-13-27.16H363.93L351.05,84.7h-9.21L381,2.07Zm-1,17.49L367.62,49.48h28.31Z"/><path class="cls-18" d="M463.71,18.64c-4.49-5.87-8.4-10.12-15.19-10.12-7.14,0-11.16,5.06-11.16,10.47,0,4.49,2.64,9.2,7.36,12.77,15.54,11.51,26.93,19.45,26.93,32.8,0,11.62-9.78,22.21-23.25,22.21-11.39,0-18.87-6.33-25-17.49l7-4.26c4.95,9.09,10.93,13.69,17.26,13.69,8.63,0,15.31-6.33,15.31-14,0-9.09-8.52-14.27-27.28-29.46-3.91-3.1-7-9.66-7-15.88,0-11.39,8.86-19.33,20-19.33C458.88,0,465,6.1,470.38,13.46Z"/><path class="cls-18" d="M532.41,50.63c9.67-10.47,15.3-16.8,15.3-25.77,0-9.55-7.82-17.26-17.83-17.26-10.47,0-18.18,7.71-19.22,20.36h-7.94c.46-16.11,12.08-28,27.5-28,15,0,25.55,11.05,25.55,24.86,0,11.27-6.67,19.1-16.46,29.69L518.72,76.64h38.2V84.7H500.76Z"/><path class="cls-18" d="M568.31,25.89C571.54,9.32,581.55,0,595,0c10.36,0,19.45,6.21,24.28,17.49,3.23,7.37,4.15,15.88,4.15,25.78s-1,18.53-4.15,25.89C614.46,80.44,605.37,86.77,595,86.77c-9.2,0-16.8-4.38-21.86-12.78-4.84-7.94-6.22-18.06-6.22-30.72A88.66,88.66,0,0,1,568.31,25.89Zm11.4,44c3.56,6,9.43,9.32,15.42,9.32,12,0,20.6-11.5,20.6-35.79S607.21,7.6,595.13,7.6c-6.1,0-11.86,3.56-15.42,9.55-3.8,6.33-4.72,15-4.72,26.23S575.91,63.52,579.71,69.85Z"/><path class="cls-18" d="M627.35,10.13l4.95-8.06h16.34V84.7h-8.29V10.13Z"/><path class="cls-18" d="M691,0c13.58,0,23.6,10.13,23.6,21.75,0,7.59-3.8,13.35-11.63,17.61,10,5.06,15.54,11.5,15.54,21.63,0,13.12-9.55,25.66-28.08,25.66-18.07,0-27.73-12.2-27.73-25,0-10.59,6-17.26,16-22.32-8.28-4.26-12.31-10.71-12.31-17.84C666.36,10.13,677,0,691,0ZM670.73,61.91c0,9.09,7.48,17.15,19.79,17.15,12.09,0,19.91-8.4,19.91-18,0-8.75-8.17-17.61-19.45-17.61C679.13,43.5,670.73,52.59,670.73,61.91ZM675,21.63c0,7.71,7.71,14.27,15.88,14.27,9.32,0,15.65-7.48,15.65-14.5,0-6.32-5.41-13.34-15.88-13.34C681.66,8.06,675,14.15,675,21.63Z"/><g class="cls-19"><path class="cls-20" d="M137.92,93.06h8.28v82.62h-8.28Z"/><path class="cls-21" d="M194.65,175.92,155.53,93.3h9.2l12.89,27.15h35.67l13-27.15h8.86l-38.55,82.62Zm15-47.65H181.3l14.27,29.92Z"/><path class="cls-22" d="M250,93.3,258,152.91,287.67,93.3h2.07L319,152.45l8-59.15h8.06l-11.74,82.62H322L288.7,108.14l-33.6,67.78h-1.38L242,93.3Z"/><path class="cls-23" d="M381,175.92,341.84,93.3h9.21l12.88,27.16h35.68l13-27.16h8.86l-38.55,82.62Zm15-47.65H367.62l14.27,29.92Z"/><path class="cls-24" d="M470.38,168.67c-5.41,7.37-11.5,13.46-21.63,13.46-11.16,0-20-7.94-20-19.33,0-6.21,3.1-12.77,7-15.88C454.5,131.73,463,126.55,463,117.46c0-7.71-6.68-14-15.31-14-6.33,0-12.31,4.61-17.26,13.7l-7-4.26c6.1-11.16,13.58-17.49,25-17.49,13.47,0,23.25,10.58,23.25,22.21,0,13.35-11.39,21.29-26.93,32.79-4.72,3.57-7.36,8.29-7.36,12.78,0,5.41,4,10.47,11.16,10.47,6.79,0,10.7-4.26,15.19-10.13Z"/><path class="cls-25" d="M500.76,93.3h56.16v8h-38.2l20.59,22.1c9.79,10.58,16.46,18.41,16.46,29.69,0,13.8-10.59,24.85-25.55,24.85-15.42,0-27-11.85-27.5-28h7.94c1,12.66,8.75,20.37,19.22,20.37,10,0,17.83-7.71,17.83-17.26,0-9-5.63-15.31-15.3-25.78Z"/><path class="cls-26" d="M566.93,138.87c0-12.66,1.38-22.79,6.22-30.73,5.06-8.4,12.66-12.77,21.86-12.77,10.36,0,19.45,6.33,24.28,17.6,3.11,7.37,4.15,16,4.15,25.9s-.92,18.41-4.15,25.77c-4.83,11.28-13.92,17.49-24.28,17.49-13.46,0-23.47-9.32-26.7-25.89A88.5,88.5,0,0,1,566.93,138.87Zm8.06-.67c0,11.28.92,19.91,4.72,26.24,3.56,6,9.32,9.55,15.42,9.55,12.08,0,20.6-11.62,20.6-35.79s-8.63-35.79-20.6-35.79c-6,0-11.86,3.34-15.42,9.33C575.91,118.06,575,126.81,575,138.2Z"/><path class="cls-27" d="M640.35,167.63V93.06h8.29v82.62H632.3l-4.95-8.05Z"/><path class="cls-28" d="M666.36,160.39c0-7.14,4-13.58,12.31-17.84-10-5.07-16-11.74-16-22.33,0-12.77,9.66-25,27.73-25,18.53,0,28.08,12.55,28.08,25.66,0,10.13-5.53,16.57-15.54,21.64,7.83,4.26,11.63,10,11.63,17.61,0,11.62-10,21.74-23.6,21.74C677,181.9,666.36,171.78,666.36,160.39ZM691,138c11.28,0,19.45-8.86,19.45-17.6,0-9.56-7.82-18-19.91-18-12.31,0-19.79,8.06-19.79,17.15C670.73,128.88,679.13,138,691,138Zm-.34,35.45c10.47,0,15.88-7,15.88-13.35,0-7-6.33-14.5-15.65-14.5-8.17,0-15.88,6.56-15.88,14.27C675,167.32,681.66,173.42,690.64,173.42Z"/><path class="cls-29" d="M137.92,93.09h8.28l-43.93,82.62H94Z"/><path class="cls-30" d="M85,175.92,155.53,93.3h9.2l-23.15,27.15h35.67L226.3,93.3h8.86L87,175.92Zm77.87-47.41H134.57l-25.43,29.92Z"/><path class="cls-31" d="M250.07,93.3,184.4,152.91,287.7,93.3h2.07L246,152.45,327.05,93.3h8.06L221.34,175.92H220l50.44-67.78L153.1,175.92h-1.38L242,93.3Z"/><path class="cls-32" d="M338.86,175.92l3-82.62H351l-1,27.15h35.68L412.61,93.3h8.86l-80.65,82.62ZM378,128.51H349.67l-1,29.92Z"/><path class="cls-33" d="M505.76,168.67c-1.65,7.37-4.64,13.46-14.77,13.46-11.16,0-24.07-7.94-29.87-19.33-3.17-6.21-3.4-12.77-1.08-15.88,11-15.19,16.9-20.37,12.27-29.46-3.93-7.71-13.83-14-22.46-14-6.33,0-10,4.61-10.29,13.7l-9.18-4.26c.41-11.16,4.66-17.49,16.05-17.49,13.47,0,28.64,10.58,34.57,22.21,6.8,13.35-.55,21.29-10.22,32.79-2.9,3.57-3.14,8.29-.86,12.78,2.76,5.41,9.37,10.47,16.5,10.47,6.79,0,8.53-4.26,10-10.13Z"/><path class="cls-34" d="M500.76,93.3h56.16l4.1,8h-38.2l31.86,22.1c15.17,10.58,25.83,18.41,31.58,29.69,7,13.8,2.08,24.85-12.88,24.85-15.42,0-33.08-11.85-41.75-28h7.94c7.48,12.66,19.12,20.37,29.59,20.37,10,0,13.91-7.71,9-17.26-4.57-9-13.43-15.31-28.44-25.78Z"/><path class="cls-35" d="M623.12,138.87c-16.8-12.66-28.86-22.79-34.56-30.73-6.08-8.4-4.29-12.77,4.91-12.77,10.36,0,27.85,6.33,47.65,17.6a366.35,366.35,0,0,1,38.5,25.9c13.14,9.89,23.52,18.41,30.07,25.77,10.13,11.28,9.29,17.49-1.07,17.49-13.47,0-35.85-9.32-61.06-25.89C638.77,150.49,630.76,144.62,623.12,138.87Zm7.9-.12C646,150,658.36,158.66,670.56,165c11.51,6,22,9.55,28.09,9.55,12.09,0,5.18-11.62-26.89-35.79S615.64,103,603.67,103c-6,0-7.43,3.34-3,9.32C605.22,118.61,615.9,127.36,631,138.75Z"/><path class="cls-36" d="M669,167.63,640.34,93.06h8.28l31.72,82.62H664l-8-8.05Z"/><path class="cls-37" d="M777.54,160.39c-12.36-7.14-19.49-13.58-18.58-17.84a221,221,0,0,1-54.66-22.33c-22.13-12.77-33.59-25-15.52-25,18.53,0,49.8,12.55,72.52,25.66,17.54,10.13,23.18,16.57,21.94,21.64a180.3,180.3,0,0,1,42.12,17.61c20.13,11.62,27.66,21.74,14.08,21.74C825.4,181.9,797.27,171.78,777.54,160.39Zm-13.44-22c11.28,0,4.1-8.87-11.05-17.61-16.54-9.55-38.92-18-51-18-12.32,0-5.84,8.05,9.9,17.14C728.1,129.31,752.24,138.41,764.1,138.41Zm61,35.44c10.47,0,3.72-7-7.24-13.35-12.16-7-31.44-14.5-40.76-14.5-8.17,0-4.52,6.56,8.83,14.27C798.93,167.75,816.17,173.85,825.14,173.85Z"/><path class="cls-38" d="M137.92,93.06h8.28l95.05,82.62H233Z"/><path class="cls-39" d="M0,175.92,155.53,93.3h9.2l-51.09,27.15h35.67l77-27.15h8.86L2,175.92Zm126.65-47.41H98.35L42.13,158.43Z"/><path class="cls-40" d="M250,93.3l103.33,59.61L287.58,93.3h2.07l123.89,59.15L326.93,93.3H335l120.49,82.62H454.1L312.37,108.14l74.87,67.78h-1.38l-144-82.62Z"/><path class="cls-41" d="M469.57,175.92,341.84,93.3h9.21l42,27.15h35.67L412.61,93.3h8.86l50.06,82.62Zm-35.88-47.41H405.38l46.35,29.92Z"/><path class="cls-42" d="M552,168.67c2.77,7.37,3.44,13.46-6.69,13.46-11.16,0-28.84-7.94-41.49-19.33-6.9-6.21-11.08-12.77-10.62-15.88,1.89-15.19,4.65-20.37-5.44-29.46-8.57-7.71-22.27-14-30.9-14-6.33,0-7.2,4.61-2,13.7L443,112.86c-6.3-11.16-5.85-17.49,5.54-17.49,13.47,0,35,10.58,47.92,22.21,14.82,13.35,12.25,21.29,9.49,32.79-.75,3.57,1.84,8.29,6.82,12.78,6,5.41,15.66,10.47,22.8,10.47,6.79,0,6-4.26,3.94-10.13Z"/><path class="cls-43" d="M500.76,93.3h56.16l-9.27,8h-38.2l-4.82,22.1c-2.4,10.58-4.72,18.41-17.7,29.69C471.05,166.94,447.75,178,432.79,178c-15.42,0-13.41-11.85,4.67-28h7.94c-13.53,12.66-14.69,20.37-4.22,20.37,10,0,26.71-7.71,37.7-17.26,10.32-9,12-15.31,14.34-25.78Z"/><path class="cls-44" d="M495,138.87c21.06-12.66,39.3-22.79,57.35-30.73,19-8.4,33.91-12.77,43.12-12.77,10.36,0,8.91,6.33-5,17.6-9.15,7.37-22.48,16-38.95,25.9s-31.57,18.41-47,25.77c-23.61,11.28-43,17.49-53.4,17.49-13.46,0-8-9.32,16.4-25.89C475.83,150.49,485.37,144.62,495,138.87Zm8.24-.12C484.42,150,471,158.66,464.24,165c-6.39,6-6.57,9.55-.47,9.55,12.08,0,39.94-11.62,80.16-35.79,40.41-24.28,50.93-35.79,39-35.79-6,0-17.4,3.34-30.93,9.32C537.63,118.61,522.15,127.36,503.19,138.75Z"/><path class="cls-45" d="M750.89,167.63,640.34,93.06h8.28l122.5,82.62H754.78l-16.89-8.05Z"/><path class="cls-46" d="M576,160.39a125.36,125.36,0,0,1,36.86-17.84c-3-5.07.16-11.74,14.73-22.33,17.58-12.77,44-25,62.11-25,18.52,0,10.81,12.55-7.25,25.66C668.5,131,654.1,137.48,637.12,142.55c2,4.26-2.16,10-12.61,17.61-16,11.62-40,21.74-53.53,21.74C556.94,181.9,560.3,171.78,576,160.39Zm54.88-22c11.27,0,31.64-8.87,43.68-17.61,13.14-9.55,16.88-18,4.8-18-12.32,0-30.88,8.05-43.4,17.14C623.11,129.31,619,138.41,630.86,138.41Zm-49.13,35.44c10.47,0,25.54-7,34.25-13.35,9.66-7,13.63-14.5,4.31-14.5-8.17,0-24.91,6.56-35.52,14.27C574.47,167.75,572.75,173.85,581.73,173.85Z"/></g><g id="レイヤー_3" data-name="レイヤー 3"><text class="cls-47" transform="translate(585.7 277.24)">初<tspan class="cls-48" x="10" y="0">日</tspan><tspan x="20.1" y="0">(2/22</tspan><tspan class="cls-49" x="48.11" y="0">)</tspan><tspan x="51.97" y="0">の</tspan><tspan class="cls-50" x="61.97" y="0">み</tspan><tspan class="cls-51" x="74.47" y="0">1</tspan><tspan x="79.44" y="0">3</tspan><tspan x="86.01" y="-1">:</tspan><tspan x="88.41" y="0">0</tspan><tspan class="cls-52" x="94.98" y="0">0</tspan><tspan class="cls-53" x="102.35" y="-1">-</tspan><tspan class="cls-54" x="105.73" y="0">1</tspan><tspan x="110.5" y="0">8</tspan><tspan x="117.07" y="-1">:</tspan><tspan x="119.47" y="0">00</tspan><tspan x="0" y="14.13">入場無料</tspan><tspan class="cls-55" x="40" y="14.13" xml:space="preserve"> ｜</tspan><tspan x="52.13" y="14.13" xml:space="preserve"> Admission Free</tspan></text><text class="cls-56" transform="translate(138.41 292.54) scale(0.97 1)"><tspan class="cls-57">2</tspan><tspan class="cls-58" x="16.96" y="0">0</tspan><tspan class="cls-59" x="31.38" y="0">1</tspan><tspan class="cls-60" x="45.15" y="0">8</tspan><tspan class="cls-61" x="62.11" y="0">.2.</tspan><tspan class="cls-57" x="91.61" y="0">22 </tspan><tspan class="cls-62" x="132.91" y="0"> </tspan><tspan class="cls-63" x="139.02" y="0">−</tspan><tspan class="cls-64" x="156.72" y="0"> </tspan><tspan class="cls-61" x="160.28" y="0">2.2</tspan><tspan class="cls-57" x="199.51" y="0">5</tspan></text><text class="cls-65" transform="translate(396.39 292.54) scale(0.97 1)"><tspan class="cls-61">1</tspan><tspan class="cls-66" x="13.14" y="0">0</tspan><tspan class="cls-66" x="30.74" y="-2.27">:</tspan><tspan class="cls-57" x="38.6" y="0">0</tspan><tspan class="cls-67" x="55.56" y="0">0</tspan><tspan class="cls-68" x="67.43" y="0"> </tspan><tspan class="cls-69" x="73.54" y="0">−</tspan><tspan class="cls-57" x="84.23" y="0"> </tspan><tspan class="cls-70" x="91.61" y="0">1</tspan><tspan class="cls-66" x="104.12" y="0">8</tspan><tspan class="cls-66" x="121.71" y="-2.27">:</tspan><tspan class="cls-57" x="129.57" y="0">00</tspan></text><text class="cls-71" transform="translate(276 268.81) rotate(90) scale(0.97 1)">T<tspan class="cls-72" x="7.64" y="0">H</tspan><tspan x="16.97" y="0">U</tspan></text><text class="cls-73" transform="translate(378.28 268.81) rotate(90) scale(0.97 1)">S<tspan class="cls-74" x="6.4" y="0">U</tspan></text><text class="cls-75" transform="translate(378.28 283.68) rotate(90) scale(0.91 1)">N</text></g></g></g></g></svg>